<svg width="120" height="120" viewBox="0 0 120 120" fill="none" xmlns="http://www.w3.org/2000/svg">
<g filter="url(#filter0_d_936_6128)">
<rect x="32" y="16" width="56" height="56" rx="28" fill="url(#paint0_linear_936_6128)" shape-rendering="crispEdges"/>
<g filter="url(#filter1_d_936_6128)">
<path d="M53.1268 40.1282C52.1998 41.5126 51.25 43.5317 51.25 46C51.25 50.9625 55.0886 54.75 60 54.75C64.9114 54.75 68.75 50.9625 68.75 46C68.75 41.6431 66.6151 38.4626 64.5273 36.3985C62.9567 34.8458 61.1755 33.8378 59.25 32.811C59.25 34.3934 61.1182 43.25 58 43.25C55.5078 43.25 56.25 38.6343 56.25 36.8854C55.0369 37.9095 54.0432 38.7595 53.1268 40.1282Z" fill="url(#paint1_linear_936_6128)"/>
</g>
</g>
<defs>
<filter id="filter0_d_936_6128" x="0" y="0" width="120" height="120" filterUnits="userSpaceOnUse" color-interpolation-filters="sRGB">
<feFlood flood-opacity="0" result="BackgroundImageFix"/>
<feColorMatrix in="SourceAlpha" type="matrix" values="0 0 0 0 0 0 0 0 0 0 0 0 0 0 0 0 0 0 127 0" result="hardAlpha"/>
<feOffset dy="16"/>
<feGaussianBlur stdDeviation="16"/>
<feComposite in2="hardAlpha" operator="out"/>
<feColorMatrix type="matrix" values="0 0 0 0 1 0 0 0 0 0.797783 0 0 0 0 0.0808334 0 0 0 0.16 0"/>
<feBlend mode="normal" in2="BackgroundImageFix" result="effect1_dropShadow_936_6128"/>
<feBlend mode="normal" in="SourceGraphic" in2="effect1_dropShadow_936_6128" result="shape"/>
</filter>
<filter id="filter1_d_936_6128" x="30" y="16" width="72" height="72" filterUnits="userSpaceOnUse" color-interpolation-filters="sRGB">
<feFlood flood-opacity="0" result="BackgroundImageFix"/>
<feColorMatrix in="SourceAlpha" type="matrix" values="0 0 0 0 0 0 0 0 0 0 0 0 0 0 0 0 0 0 127 0" result="hardAlpha"/>
<feOffset dx="6" dy="8"/>
<feGaussianBlur stdDeviation="12"/>
<feComposite in2="hardAlpha" operator="out"/>
<feColorMatrix type="matrix" values="0 0 0 0 0 0 0 0 0 0 0 0 0 0 0 0 0 0 0.45 0"/>
<feBlend mode="multiply" in2="BackgroundImageFix" result="effect1_dropShadow_936_6128"/>
<feBlend mode="normal" in="SourceGraphic" in2="effect1_dropShadow_936_6128" result="shape"/>
</filter>
<linearGradient id="paint0_linear_936_6128" x1="32" y1="16" x2="91.2314" y2="19.6567" gradientUnits="userSpaceOnUse">
<stop offset="0.378683" stop-color="#FFD568"/>
<stop offset="0.930508" stop-color="#FB993F"/>
</linearGradient>
<linearGradient id="paint1_linear_936_6128" x1="60" y1="32.811" x2="60" y2="54.75" gradientUnits="userSpaceOnUse">
<stop offset="0.391146" stop-color="#F8F8F8"/>
<stop offset="1" stop-color="#F8F8F8" stop-opacity="0.7"/>
</linearGradient>
</defs>
</svg>
