<svg width="20" height="24" viewBox="0 0 20 24" fill="none" xmlns="http://www.w3.org/2000/svg">
<path d="M15.5579 1.0835C15.5579 0.857684 15.464 0.642056 15.2986 0.488332C15.1331 0.334608 14.9112 0.256657 14.686 0.273175C13.3882 0.368362 11.9227 1.05858 11.0526 1.91908C10.0918 2.85939 9.50241 4.09602 9.61862 5.47683C9.65228 5.87677 9.97293 6.19222 10.3734 6.21933C11.8622 6.32013 13.1831 5.65601 14.2212 4.60537L14.2297 4.5966C14.9553 3.8397 15.2988 3.08051 15.4509 2.42395C15.5778 1.8761 15.5655 1.39966 15.5597 1.17287C15.5587 1.13638 15.5579 1.10631 15.5579 1.0835Z" fill="#092857"/>
<path d="M14.7221 6.78557C13.7232 6.70533 12.7299 6.97315 11.9751 7.2183C11.7822 7.28095 11.599 7.34424 11.4324 7.40214L11.3718 7.42323C11.2273 7.47348 11.099 7.51812 10.9806 7.55714C10.8454 7.6017 10.7395 7.63342 10.6565 7.65362C10.593 7.66905 10.5614 7.67305 10.5534 7.67406C10.5522 7.67421 10.5515 7.6743 10.5513 7.67434C10.5058 7.6733 10.3792 7.6531 10.1251 7.57658C9.95257 7.52462 9.76866 7.4622 9.55944 7.39119C9.4676 7.36002 9.37081 7.32716 9.26802 7.29283C8.64418 7.08448 7.82332 6.82759 7.05142 6.82759L7.03739 6.82771C5.55607 6.85329 4.02723 7.41523 2.86455 8.55222C1.69101 9.69983 0.9375 11.387 0.9375 13.5677C0.9375 14.8149 1.13641 16.1136 1.63249 17.4572C1.95546 18.3452 2.66964 19.8296 3.6023 21.0966C4.06948 21.7313 4.61477 22.3437 5.22074 22.7979C5.81894 23.2463 6.54177 23.5884 7.34404 23.5612C8.02734 23.5577 8.62119 23.3351 9.09725 23.1567C9.14033 23.1406 9.18247 23.1248 9.2236 23.1095C9.74847 22.9152 10.2228 22.759 10.8316 22.759C11.4105 22.759 11.8446 22.9107 12.365 23.1075L12.4423 23.1368C12.9401 23.326 13.5591 23.5612 14.3351 23.5612C15.1246 23.5612 15.8333 23.2419 16.4293 22.8096C17.0253 22.3772 17.5525 21.801 18 21.2012C18.8925 20.0051 19.5527 18.6006 19.8536 17.7035C19.9855 17.3103 19.8001 16.8809 19.4235 16.7072C16.9592 15.571 17.0326 13.4906 17.0375 13.3515L17.0377 13.3448C17.0377 12.6566 17.1989 12.0943 17.4981 11.6108C17.8014 11.1207 18.2733 10.6685 18.9559 10.2485C19.1488 10.1299 19.2833 9.93613 19.3272 9.71398C19.3711 9.49183 19.3203 9.26145 19.187 9.07837C18.141 7.64128 16.6071 6.9335 14.7221 6.78557Z" fill="#092857"/>
</svg>
