<svg width="110" height="104" viewBox="0 0 110 104" fill="none" xmlns="http://www.w3.org/2000/svg">
<g id="Chart">
<g id="Bg">
<g id="Fill 1" filter="url(#filter0_b_1921_567)">
<path d="M56.5055 5.76163L20.5462 15.3969C7.4421 18.9081 2.00678 28.3213 5.51769 41.4242L15.1429 77.3459C18.6538 90.4488 28.0675 95.8832 41.1716 92.372L77.1309 82.7367C90.235 79.2255 95.6361 69.8214 92.1252 56.7186L82.5 20.7969C78.9891 7.69399 69.6096 2.2504 56.5055 5.76163Z" fill="url(#paint0_linear_1921_567)"/>
</g>
<g id="Path" opacity="0.5" filter="url(#filter1_f_1921_567)">
<path d="M74.2241 52.8375L67.694 28.1017C65.3254 19.1293 59.3972 15.1063 51.6024 17.164L25.2023 24.1334C17.2798 26.2249 14.212 32.6229 16.5806 41.5952L23.1107 66.3311C25.5175 75.448 31.3045 79.3505 39.2271 77.259L65.6271 70.2896C73.4219 68.2318 76.6309 61.9544 74.2241 52.8375Z" fill="#FF624D"/>
</g>
</g>
<g id="Icon">
<g id="Fill 1_2" filter="url(#filter2_b_1921_567)">
<mask id="path-3-outside-1_1921_567" maskUnits="userSpaceOnUse" x="28.292" y="21.7077" width="82" height="82" fill="black">
<rect fill="white" x="28.292" y="21.7077" width="82" height="82"/>
<path d="M87.7671 22.7077H50.5428C36.9777 22.7077 29.292 30.3934 29.292 43.9585V81.1474C29.292 94.7124 36.9777 102.398 50.5428 102.398H87.7671C101.332 102.398 108.982 94.7124 108.982 81.1474V43.9585C108.982 30.3934 101.332 22.7077 87.7671 22.7077Z"/>
</mask>
<path d="M87.7671 22.7077H50.5428C36.9777 22.7077 29.292 30.3934 29.292 43.9585V81.1474C29.292 94.7124 36.9777 102.398 50.5428 102.398H87.7671C101.332 102.398 108.982 94.7124 108.982 81.1474V43.9585C108.982 30.3934 101.332 22.7077 87.7671 22.7077Z" fill="#FFAC95" fill-opacity="0.4"/>
<path d="M87.7671 23.7077C88.3194 23.7077 88.7671 23.26 88.7671 22.7077C88.7671 22.1554 88.3194 21.7077 87.7671 21.7077V23.7077ZM87.7671 21.7077C87.2148 21.7077 86.7671 22.1554 86.7671 22.7077C86.7671 23.26 87.2148 23.7077 87.7671 23.7077V21.7077ZM87.7671 21.7077H50.5428V23.7077H87.7671V21.7077ZM50.5428 21.7077C43.5743 21.7077 37.9775 23.685 34.1234 27.5391C30.2693 31.3931 28.292 36.99 28.292 43.9585H30.292C30.292 37.3618 32.1575 32.3333 35.5376 28.9533C38.9176 25.5732 43.9462 23.7077 50.5428 23.7077V21.7077ZM28.292 43.9585V81.1474H30.292V43.9585H28.292ZM28.292 81.1474C28.292 88.1158 30.2693 93.7127 34.1234 97.5668C37.9775 101.421 43.5743 103.398 50.5428 103.398V101.398C43.9462 101.398 38.9176 99.5326 35.5376 96.1525C32.1575 92.7725 30.292 87.744 30.292 81.1474H28.292ZM50.5428 103.398H87.7671V101.398H50.5428V103.398ZM87.7671 103.398C94.7356 103.398 100.324 101.421 104.17 97.5659C108.015 93.7114 109.982 88.1146 109.982 81.1474H107.982C107.982 87.7452 106.125 92.7738 102.754 96.1534C99.3827 99.5327 94.3637 101.398 87.7671 101.398V103.398ZM109.982 81.1474V43.9585H107.982V81.1474H109.982ZM109.982 43.9585C109.982 36.9913 108.015 31.3944 104.17 27.5399C100.324 23.685 94.7356 21.7077 87.7671 21.7077V23.7077C94.3637 23.7077 99.3827 25.5732 102.754 28.9524C106.125 32.332 107.982 37.3606 107.982 43.9585H109.982Z" fill="url(#paint1_linear_1921_567)" mask="url(#path-3-outside-1_1921_567)"/>
</g>
<g id="Union" filter="url(#filter3_bd_1921_567)">
<mask id="path-5-inside-2_1921_567" fill="white">
<path fill-rule="evenodd" clip-rule="evenodd" d="M69.2781 39.0004C67.4718 39.0004 65.9842 40.488 65.9842 42.3297V82.7771C65.9842 84.5834 67.4718 86.0709 69.2781 86.0709C71.1198 86.0709 72.6074 84.5834 72.6074 82.7771V42.3297C72.6074 40.488 71.1198 39.0004 69.2781 39.0004ZM50.6835 52.0708C48.8772 52.0708 47.3896 53.5584 47.3896 55.4001V82.7782C47.3896 84.5845 48.8772 86.0721 50.6835 86.0721C52.5253 86.0721 54.0128 84.5845 54.0128 82.7782V55.4001C54.0128 53.5584 52.5253 52.0708 50.6835 52.0708ZM84.2957 69.8504C84.2957 68.0086 85.7833 66.5211 87.625 66.5211C89.4313 66.5211 90.9189 68.0086 90.9189 69.8504V82.7779C90.9189 84.5843 89.4313 86.0718 87.5896 86.0718C85.7833 86.0718 84.2957 84.5843 84.2957 82.7779V69.8504Z"/>
</mask>
<path fill-rule="evenodd" clip-rule="evenodd" d="M69.2781 39.0004C67.4718 39.0004 65.9842 40.488 65.9842 42.3297V82.7771C65.9842 84.5834 67.4718 86.0709 69.2781 86.0709C71.1198 86.0709 72.6074 84.5834 72.6074 82.7771V42.3297C72.6074 40.488 71.1198 39.0004 69.2781 39.0004ZM50.6835 52.0708C48.8772 52.0708 47.3896 53.5584 47.3896 55.4001V82.7782C47.3896 84.5845 48.8772 86.0721 50.6835 86.0721C52.5253 86.0721 54.0128 84.5845 54.0128 82.7782V55.4001C54.0128 53.5584 52.5253 52.0708 50.6835 52.0708ZM84.2957 69.8504C84.2957 68.0086 85.7833 66.5211 87.625 66.5211C89.4313 66.5211 90.9189 68.0086 90.9189 69.8504V82.7779C90.9189 84.5843 89.4313 86.0718 87.5896 86.0718C85.7833 86.0718 84.2957 84.5843 84.2957 82.7779V69.8504Z" fill="url(#paint2_linear_1921_567)"/>
<path d="M66.3842 42.3297C66.3842 40.7061 67.6954 39.4004 69.2781 39.4004V38.6004C67.2481 38.6004 65.5842 40.2699 65.5842 42.3297H66.3842ZM66.3842 82.7771V42.3297H65.5842V82.7771H66.3842ZM69.2781 85.6709C67.6927 85.6709 66.3842 84.3625 66.3842 82.7771H65.5842C65.5842 84.8043 67.2508 86.4709 69.2781 86.4709V85.6709ZM72.2074 82.7771C72.2074 84.3597 70.9017 85.6709 69.2781 85.6709V86.4709C71.3379 86.4709 73.0074 84.8071 73.0074 82.7771H72.2074ZM72.2074 42.3297V82.7771H73.0074V42.3297H72.2074ZM69.2781 39.4004C70.8989 39.4004 72.2074 40.7089 72.2074 42.3297H73.0074C73.0074 40.2671 71.3407 38.6004 69.2781 38.6004V39.4004ZM47.7896 55.4001C47.7896 53.7765 49.1009 52.4708 50.6835 52.4708V51.6708C48.6535 51.6708 46.9896 53.3403 46.9896 55.4001H47.7896ZM47.7896 82.7782V55.4001H46.9896V82.7782H47.7896ZM50.6835 85.6721C49.0981 85.6721 47.7896 84.3636 47.7896 82.7782H46.9896C46.9896 84.8055 48.6563 86.4721 50.6835 86.4721V85.6721ZM53.6128 82.7782C53.6128 84.3609 52.3071 85.6721 50.6835 85.6721V86.4721C52.7434 86.4721 54.4128 84.8082 54.4128 82.7782H53.6128ZM53.6128 55.4001V82.7782H54.4128V55.4001H53.6128ZM50.6835 52.4708C52.3043 52.4708 53.6128 53.7793 53.6128 55.4001H54.4128C54.4128 53.3375 52.7462 51.6708 50.6835 51.6708V52.4708ZM87.625 66.1211C85.5624 66.1211 83.8957 67.7877 83.8957 69.8504H84.6957C84.6957 68.2296 86.0042 66.9211 87.625 66.9211V66.1211ZM91.3189 69.8504C91.3189 67.7905 89.655 66.1211 87.625 66.1211V66.9211C89.2077 66.9211 90.5189 68.2268 90.5189 69.8504H91.3189ZM91.3189 82.7779V69.8504H90.5189V82.7779H91.3189ZM87.5896 86.4718C89.6495 86.4718 91.3189 84.8079 91.3189 82.7779H90.5189C90.5189 84.3606 89.2132 85.6718 87.5896 85.6718V86.4718ZM83.8957 82.7779C83.8957 84.8052 85.5624 86.4718 87.5896 86.4718V85.6718C86.0042 85.6718 84.6957 84.3633 84.6957 82.7779H83.8957ZM83.8957 69.8504V82.7779H84.6957V69.8504H83.8957Z" fill="url(#paint3_linear_1921_567)" mask="url(#path-5-inside-2_1921_567)"/>
</g>
</g>
</g>
<defs>
<filter id="filter0_b_1921_567" x="-8.52539" y="-8.28091" width="114.697" height="114.696" filterUnits="userSpaceOnUse" color-interpolation-filters="sRGB">
<feFlood flood-opacity="0" result="BackgroundImageFix"/>
<feGaussianBlur in="BackgroundImageFix" stdDeviation="6.5"/>
<feComposite in2="SourceAlpha" operator="in" result="effect1_backgroundBlur_1921_567"/>
<feBlend mode="normal" in="SourceGraphic" in2="effect1_backgroundBlur_1921_567" result="shape"/>
</filter>
<filter id="filter1_f_1921_567" x="2.80078" y="3.63614" width="85.207" height="87.1744" filterUnits="userSpaceOnUse" color-interpolation-filters="sRGB">
<feFlood flood-opacity="0" result="BackgroundImageFix"/>
<feBlend mode="normal" in="SourceGraphic" in2="BackgroundImageFix" result="shape"/>
<feGaussianBlur stdDeviation="6.5" result="effect1_foregroundBlur_1921_567"/>
</filter>
<filter id="filter2_b_1921_567" x="13.292" y="6.70767" width="111.69" height="111.69" filterUnits="userSpaceOnUse" color-interpolation-filters="sRGB">
<feFlood flood-opacity="0" result="BackgroundImageFix"/>
<feGaussianBlur in="BackgroundImageFix" stdDeviation="7.5"/>
<feComposite in2="SourceAlpha" operator="in" result="effect1_backgroundBlur_1921_567"/>
<feBlend mode="normal" in="SourceGraphic" in2="effect1_backgroundBlur_1921_567" result="shape"/>
</filter>
<filter id="filter3_bd_1921_567" x="32.3896" y="24.0004" width="73.5293" height="77.0717" filterUnits="userSpaceOnUse" color-interpolation-filters="sRGB">
<feFlood flood-opacity="0" result="BackgroundImageFix"/>
<feGaussianBlur in="BackgroundImageFix" stdDeviation="7.5"/>
<feComposite in2="SourceAlpha" operator="in" result="effect1_backgroundBlur_1921_567"/>
<feColorMatrix in="SourceAlpha" type="matrix" values="0 0 0 0 0 0 0 0 0 0 0 0 0 0 0 0 0 0 127 0" result="hardAlpha"/>
<feOffset dx="5" dy="5"/>
<feGaussianBlur stdDeviation="5"/>
<feColorMatrix type="matrix" values="0 0 0 0 1 0 0 0 0 0.447059 0 0 0 0 0.368627 0 0 0 0.5 0"/>
<feBlend mode="normal" in2="effect1_backgroundBlur_1921_567" result="effect2_dropShadow_1921_567"/>
<feBlend mode="normal" in="SourceGraphic" in2="effect2_dropShadow_1921_567" result="shape"/>
</filter>
<linearGradient id="paint0_linear_1921_567" x1="55.87" y1="52.7074" x2="-2.95781" y2="103.723" gradientUnits="userSpaceOnUse">
<stop stop-color="#FFA78F"/>
<stop offset="1" stop-color="#F23E2C"/>
</linearGradient>
<linearGradient id="paint1_linear_1921_567" x1="41.9774" y1="31.9917" x2="92.8115" y2="94.9509" gradientUnits="userSpaceOnUse">
<stop stop-color="white" stop-opacity="0.25"/>
<stop offset="1" stop-color="white" stop-opacity="0"/>
</linearGradient>
<linearGradient id="paint2_linear_1921_567" x1="36.1221" y1="73.938" x2="56.5131" y2="115.828" gradientUnits="userSpaceOnUse">
<stop stop-color="white"/>
<stop offset="1" stop-color="white" stop-opacity="0.2"/>
</linearGradient>
<linearGradient id="paint3_linear_1921_567" x1="54.3188" y1="44.4843" x2="84.7546" y2="79.343" gradientUnits="userSpaceOnUse">
<stop stop-color="white" stop-opacity="0.25"/>
<stop offset="1" stop-color="white" stop-opacity="0"/>
</linearGradient>
</defs>
</svg>
