<svg width="104" height="97" viewBox="0 0 104 97" fill="none" xmlns="http://www.w3.org/2000/svg">
<g id="Chat">
<g id="Bg">
<path id="Fill 1" d="M65.936 26.8821C84.528 26.8821 98 42.0502 98 58.8822C98 64.2582 96.432 69.7942 93.68 74.8502C93.168 75.6822 93.104 76.7382 93.456 77.7302L95.6 84.8982C96.08 86.6262 94.608 87.9062 92.976 87.3942L86.512 85.4742C84.752 84.8982 83.376 85.6342 81.7408 86.6262C77.0688 89.3782 71.248 90.7862 66 90.7862C50.1279 90.7862 33.9999 78.5302 33.9999 58.7862C33.9999 41.7622 47.7599 26.8821 65.936 26.8821Z" fill="url(#paint0_linear_1921_330)"/>
<g id="Fill 1_2" opacity="0.5" filter="url(#filter0_f_1921_330)">
<path d="M86.3695 59.2012C86.3695 70.6174 77.117 79.8678 65.7028 79.8678C54.2886 79.8678 45.0361 70.6174 45.0361 59.2012C45.0361 47.789 54.2886 38.5345 65.7028 38.5345C77.117 38.5345 86.3695 47.789 86.3695 59.2012Z" fill="#8237FF"/>
</g>
</g>
<g id="Icon">
<g id="Fill 1_3" filter="url(#filter1_b_1921_330)">
<mask id="path-3-outside-1_1921_330" maskUnits="userSpaceOnUse" x="0" y="0.882141" width="84" height="84" fill="black">
<rect fill="white" y="0.882141" width="84" height="84"/>
<path d="M41.915 1.88214C18.1908 1.88214 1 21.2371 1 42.7155C1 49.5755 3.00083 56.6396 6.5125 63.0913C7.16583 64.153 7.2475 65.5005 6.79833 66.7663L4.0625 75.913C3.45 78.118 5.32833 79.7513 7.41083 79.098L15.6592 76.648C17.905 75.913 19.6608 76.8521 21.7474 78.118C27.7091 81.6296 35.1367 83.4263 41.8333 83.4263C62.0867 83.4263 82.6667 67.7871 82.6667 42.593C82.6667 20.8696 65.1083 1.88214 41.915 1.88214Z"/>
</mask>
<path d="M41.915 1.88214C18.1908 1.88214 1 21.2371 1 42.7155C1 49.5755 3.00083 56.6396 6.5125 63.0913C7.16583 64.153 7.2475 65.5005 6.79833 66.7663L4.0625 75.913C3.45 78.118 5.32833 79.7513 7.41083 79.098L15.6592 76.648C17.905 75.913 19.6608 76.8521 21.7474 78.118C27.7091 81.6296 35.1367 83.4263 41.8333 83.4263C62.0867 83.4263 82.6667 67.7871 82.6667 42.593C82.6667 20.8696 65.1083 1.88214 41.915 1.88214Z" fill="#BA90FF" fill-opacity="0.35"/>
<path d="M41.915 2.88214C42.4673 2.88214 42.915 2.43443 42.915 1.88214C42.915 1.32986 42.4673 0.882141 41.915 0.882141V2.88214ZM6.5125 63.0913L5.63418 63.5694C5.64266 63.585 5.65155 63.6003 5.66084 63.6154L6.5125 63.0913ZM6.79833 66.7663L5.85591 66.4319C5.85029 66.4477 5.84508 66.4637 5.84027 66.4798L6.79833 66.7663ZM4.0625 75.913L3.10444 75.6264C3.10256 75.6327 3.10074 75.639 3.09898 75.6453L4.0625 75.913ZM7.41083 79.098L7.1261 78.1394C7.12122 78.1408 7.11635 78.1423 7.11149 78.1438L7.41083 79.098ZM15.6592 76.648L15.9439 77.6066C15.9527 77.604 15.9615 77.6012 15.9702 77.5984L15.6592 76.648ZM21.7474 78.118L21.2287 78.973L21.2399 78.9796L21.7474 78.118ZM41.915 0.882141C41.3627 0.882141 40.915 1.32986 40.915 1.88214C40.915 2.43443 41.3627 2.88214 41.915 2.88214V0.882141ZM41.915 0.882141C17.6057 0.882141 0 20.7183 0 42.7155H2C2 21.7559 18.776 2.88214 41.915 2.88214V0.882141ZM0 42.7155C0 49.7664 2.05494 56.9936 5.63418 63.5694L7.39082 62.6132C3.94672 56.2857 2 49.3845 2 42.7155H0ZM5.66084 63.6154C6.13142 64.3801 6.22039 65.4047 5.85591 66.4319L7.74076 67.1007C8.27461 65.5962 8.20025 63.9259 7.36416 62.5672L5.66084 63.6154ZM5.84027 66.4798L3.10444 75.6264L5.02056 76.1995L7.75639 67.0529L5.84027 66.4798ZM3.09898 75.6453C2.69802 77.0888 3.10385 78.442 4.04824 79.3126C4.98142 80.1729 6.34982 80.4789 7.71017 80.0521L7.11149 78.1438C6.38935 78.3704 5.77733 78.1864 5.40385 77.8421C5.04157 77.5081 4.81448 76.9421 5.02602 76.1806L3.09898 75.6453ZM7.69557 80.0566L15.9439 77.6066L15.3744 75.6894L7.1261 78.1394L7.69557 80.0566ZM15.9702 77.5984C17.7353 77.0207 19.1168 77.6918 21.2287 78.973L22.2661 77.263C20.2048 76.0125 18.0747 74.8052 15.3481 75.6976L15.9702 77.5984ZM21.2399 78.9796C27.371 82.5911 34.9772 84.4263 41.8333 84.4263V82.4263C35.2961 82.4263 28.0472 80.6682 22.255 77.2563L21.2399 78.9796ZM41.8333 84.4263C62.5583 84.4263 83.6667 68.4167 83.6667 42.593H81.6667C81.6667 67.1576 61.615 82.4263 41.8333 82.4263V84.4263ZM83.6667 42.593C83.6667 20.3397 65.6827 0.882141 41.915 0.882141V2.88214C64.534 2.88214 81.6667 21.3996 81.6667 42.593H83.6667Z" fill="url(#paint1_linear_1921_330)" mask="url(#path-3-outside-1_1921_330)"/>
</g>
<g id="Combined Shape" filter="url(#filter2_bd_1921_330)">
<mask id="path-5-inside-2_1921_330" fill="white">
<path fill-rule="evenodd" clip-rule="evenodd" d="M41.7535 47.9825C38.8543 47.9416 36.5268 45.6141 36.5268 42.715C36.5268 39.8566 38.8951 37.4883 41.7535 37.5291C44.6526 37.5291 46.9801 39.8566 46.9801 42.7558C46.9801 45.6141 44.6526 47.9825 41.7535 47.9825ZM22.9278 47.9826C20.0695 47.9826 17.7012 45.6142 17.7012 42.7559C17.7012 39.8567 20.0287 37.5292 22.9278 37.5292C25.827 37.5292 28.1545 39.8567 28.1545 42.7559C28.1545 45.6142 25.827 47.9417 22.9278 47.9826ZM55.3504 42.7558C55.3504 45.6142 57.6779 47.9825 60.577 47.9825C63.4762 47.9825 65.8037 45.6142 65.8037 42.7558C65.8037 39.8567 63.4762 37.5292 60.577 37.5292C57.6779 37.5292 55.3504 39.8567 55.3504 42.7558Z"/>
</mask>
<path fill-rule="evenodd" clip-rule="evenodd" d="M41.7535 47.9825C38.8543 47.9416 36.5268 45.6141 36.5268 42.715C36.5268 39.8566 38.8951 37.4883 41.7535 37.5291C44.6526 37.5291 46.9801 39.8566 46.9801 42.7558C46.9801 45.6141 44.6526 47.9825 41.7535 47.9825ZM22.9278 47.9826C20.0695 47.9826 17.7012 45.6142 17.7012 42.7559C17.7012 39.8567 20.0287 37.5292 22.9278 37.5292C25.827 37.5292 28.1545 39.8567 28.1545 42.7559C28.1545 45.6142 25.827 47.9417 22.9278 47.9826ZM55.3504 42.7558C55.3504 45.6142 57.6779 47.9825 60.577 47.9825C63.4762 47.9825 65.8037 45.6142 65.8037 42.7558C65.8037 39.8567 63.4762 37.5292 60.577 37.5292C57.6779 37.5292 55.3504 39.8567 55.3504 42.7558Z" fill="url(#paint2_linear_1921_330)"/>
<path d="M41.7535 47.9825L41.7478 48.3825H41.7535V47.9825ZM41.7535 37.5291L41.7478 37.9291H41.7535V37.5291ZM22.9278 47.9826V48.3826L22.9335 48.3825L22.9278 47.9826ZM36.1268 42.715C36.1268 45.8361 38.6333 48.3386 41.7479 48.3824L41.7591 47.5825C39.0754 47.5447 36.9268 45.3922 36.9268 42.715H36.1268ZM41.7592 37.1292C38.6744 37.0851 36.1268 39.6369 36.1268 42.715H36.9268C36.9268 40.0764 39.1159 37.8915 41.7478 37.9291L41.7592 37.1292ZM47.3801 42.7558C47.3801 39.6357 44.8736 37.1291 41.7535 37.1291V37.9291C44.4317 37.9291 46.5801 40.0776 46.5801 42.7558H47.3801ZM41.7535 48.3825C44.8756 48.3825 47.3801 45.833 47.3801 42.7558H46.5801C46.5801 45.3953 44.4297 47.5825 41.7535 47.5825V48.3825ZM17.3012 42.7559C17.3012 45.8351 19.8486 48.3826 22.9278 48.3826V47.5826C20.2904 47.5826 18.1012 45.3933 18.1012 42.7559H17.3012ZM22.9278 37.1292C19.8078 37.1292 17.3012 39.6358 17.3012 42.7559H18.1012C18.1012 40.0776 20.2496 37.9292 22.9278 37.9292V37.1292ZM28.5545 42.7559C28.5545 39.6358 26.0479 37.1292 22.9278 37.1292V37.9292C25.6061 37.9292 27.7545 40.0776 27.7545 42.7559H28.5545ZM22.9335 48.3825C26.046 48.3387 28.5545 45.8382 28.5545 42.7559H27.7545C27.7545 45.3903 25.608 47.5448 22.9222 47.5826L22.9335 48.3825ZM60.577 47.5825C57.9008 47.5825 55.7504 45.3953 55.7504 42.7558H54.9504C54.9504 45.833 57.4549 48.3825 60.577 48.3825V47.5825ZM65.4037 42.7558C65.4037 45.3953 63.2533 47.5825 60.577 47.5825V48.3825C63.6991 48.3825 66.2037 45.833 66.2037 42.7558H65.4037ZM60.577 37.9292C63.2553 37.9292 65.4037 40.0776 65.4037 42.7558H66.2037C66.2037 39.6357 63.6971 37.1292 60.577 37.1292V37.9292ZM55.7504 42.7558C55.7504 40.0776 57.8988 37.9292 60.577 37.9292V37.1292C57.457 37.1292 54.9504 39.6357 54.9504 42.7558H55.7504Z" fill="url(#paint3_linear_1921_330)" mask="url(#path-5-inside-2_1921_330)"/>
</g>
</g>
</g>
<defs>
<filter id="filter0_f_1921_330" x="28.0361" y="21.5345" width="75.333" height="75.3334" filterUnits="userSpaceOnUse" color-interpolation-filters="sRGB">
<feFlood flood-opacity="0" result="BackgroundImageFix"/>
<feBlend mode="normal" in="SourceGraphic" in2="BackgroundImageFix" result="shape"/>
<feGaussianBlur stdDeviation="8.5" result="effect1_foregroundBlur_1921_330"/>
</filter>
<filter id="filter1_b_1921_330" x="-24" y="-23.1179" width="131.667" height="131.544" filterUnits="userSpaceOnUse" color-interpolation-filters="sRGB">
<feFlood flood-opacity="0" result="BackgroundImageFix"/>
<feGaussianBlur in="BackgroundImageFix" stdDeviation="12"/>
<feComposite in2="SourceAlpha" operator="in" result="effect1_backgroundBlur_1921_330"/>
<feBlend mode="normal" in="SourceGraphic" in2="effect1_backgroundBlur_1921_330" result="shape"/>
</filter>
<filter id="filter2_bd_1921_330" x="2.70117" y="22.5286" width="78.1025" height="40.4539" filterUnits="userSpaceOnUse" color-interpolation-filters="sRGB">
<feFlood flood-opacity="0" result="BackgroundImageFix"/>
<feGaussianBlur in="BackgroundImageFix" stdDeviation="7.5"/>
<feComposite in2="SourceAlpha" operator="in" result="effect1_backgroundBlur_1921_330"/>
<feColorMatrix in="SourceAlpha" type="matrix" values="0 0 0 0 0 0 0 0 0 0 0 0 0 0 0 0 0 0 127 0" result="hardAlpha"/>
<feOffset dx="5" dy="5"/>
<feGaussianBlur stdDeviation="5"/>
<feColorMatrix type="matrix" values="0 0 0 0 0.577356 0 0 0 0 0.359375 0 0 0 0 0.9375 0 0 0 0.5 0"/>
<feBlend mode="normal" in2="effect1_backgroundBlur_1921_330" result="effect2_dropShadow_1921_330"/>
<feBlend mode="normal" in="SourceGraphic" in2="effect2_dropShadow_1921_330" result="shape"/>
</filter>
<linearGradient id="paint0_linear_1921_330" x1="66" y1="26.8821" x2="66" y2="90.7862" gradientUnits="userSpaceOnUse">
<stop stop-color="#BC94FF"/>
<stop offset="1" stop-color="#9F66FF"/>
</linearGradient>
<linearGradient id="paint1_linear_1921_330" x1="14" y1="11.3821" x2="66" y2="75.8821" gradientUnits="userSpaceOnUse">
<stop stop-color="white" stop-opacity="0.25"/>
<stop offset="1" stop-color="white" stop-opacity="0"/>
</linearGradient>
<linearGradient id="paint2_linear_1921_330" x1="62.3932" y1="39.4164" x2="9.93538" y2="47.2865" gradientUnits="userSpaceOnUse">
<stop stop-color="white"/>
<stop offset="1" stop-color="white" stop-opacity="0.2"/>
</linearGradient>
<linearGradient id="paint3_linear_1921_330" x1="25.3583" y1="38.7465" x2="27.6808" y2="51.9822" gradientUnits="userSpaceOnUse">
<stop stop-color="white" stop-opacity="0.25"/>
<stop offset="1" stop-color="white" stop-opacity="0"/>
</linearGradient>
</defs>
</svg>
