<svg xmlns="http://www.w3.org/2000/svg" width="1015" height="850" viewBox="0 0 1015 850" fill="none">
<g filter="url(#filter0_d_770_4132)">
<path fill-rule="evenodd" clip-rule="evenodd" d="M329.779 596C301.954 596 278.349 575.57 274.358 548.032L250.59 384.032C245.695 350.26 271.886 320 306.011 320H374.376C398.321 320 417.553 301.039 431.589 281.64C447.213 260.048 472.621 246 501.31 246C529.999 246 555.407 260.048 571.03 281.64C585.067 301.039 604.298 320 628.243 320H708.609C742.733 320 768.924 350.26 764.03 384.032L740.262 548.032C736.271 575.57 712.666 596 684.841 596H329.779Z" fill="white"/>
</g>
<defs>
<filter id="filter0_d_770_4132" x="0" y="0" width="1014.62" height="850" filterUnits="userSpaceOnUse" color-interpolation-filters="sRGB">
<feFlood flood-opacity="0" result="BackgroundImageFix"/>
<feColorMatrix in="SourceAlpha" type="matrix" values="0 0 0 0 0 0 0 0 0 0 0 0 0 0 0 0 0 0 127 0" result="hardAlpha"/>
<feOffset dy="4"/>
<feGaussianBlur stdDeviation="125"/>
<feComposite in2="hardAlpha" operator="out"/>
<feColorMatrix type="matrix" values="0 0 0 0 0.70976 0 0 0 0 0.71187 0 0 0 0 0.7625 0 0 0 0.24 0"/>
<feBlend mode="normal" in2="BackgroundImageFix" result="effect1_dropShadow_770_4132"/>
<feBlend mode="normal" in="SourceGraphic" in2="effect1_dropShadow_770_4132" result="shape"/>
</filter>
</defs>
</svg>