<svg width="48" height="48" viewBox="0 0 48 48" fill="none" xmlns="http://www.w3.org/2000/svg">
<path fill-rule="evenodd" clip-rule="evenodd" d="M12.2475 3.16103C14.3219 2.49988 16.8809 2.49988 21.999 2.49988H23.999C30.992 2.49988 34.4885 2.49988 37.2172 3.72091C40.3587 5.12662 42.8723 7.64021 44.278 10.7817C45.499 13.5104 45.499 17.0069 45.499 23.9999V39.5238C45.499 41.0039 45.499 41.7439 45.3757 42.2416C44.796 44.5803 42.3717 45.9529 40.0681 45.2467C39.5778 45.0964 38.9432 44.7157 37.6741 43.9542C36.9149 43.4987 36.5353 43.2709 36.1486 43.0705C34.4187 42.1738 32.5207 41.6481 30.5759 41.5269C30.1413 41.4999 29.6986 41.4999 28.8132 41.4999H21.999C16.8809 41.4999 14.3219 41.4999 12.2475 40.8387C7.92492 39.461 4.53792 36.074 3.16017 31.7514C2.49902 29.677 2.49902 27.118 2.49902 21.9999C2.49902 16.8818 2.49902 14.3227 3.16017 12.2484C4.53792 7.92577 7.92492 4.53877 12.2475 3.16103ZM16.0998 22C16.0998 22.1638 16.064 22.3192 15.9998 22.4589V22V21.5411C16.064 21.6807 16.0998 21.8362 16.0998 22ZM13.8998 22C13.8998 22.1638 13.9356 22.3192 13.9998 22.4589V22V21.5411C13.9356 21.6807 13.8998 21.8362 13.8998 22ZM14.9998 18.9C13.2877 18.9 11.8998 20.2879 11.8998 22C11.8998 23.7121 13.2877 25.1 14.9998 25.1C16.7119 25.1 18.0998 23.7121 18.0998 22C18.0998 20.2879 16.7119 18.9 14.9998 18.9ZM25.0998 22C25.0998 22.1638 25.064 22.3192 24.9998 22.4589V22V21.5411C25.064 21.6807 25.0998 21.8362 25.0998 22ZM22.8998 22C22.8998 22.1638 22.9356 22.3192 22.9998 22.4589V22V21.5411C22.9356 21.6807 22.8998 21.8362 22.8998 22ZM23.9998 18.9C22.2877 18.9 20.8998 20.2879 20.8998 22C20.8998 23.7121 22.2877 25.1 23.9998 25.1C25.7119 25.1 27.0998 23.7121 27.0998 22C27.0998 20.2879 25.7119 18.9 23.9998 18.9ZM34.0998 22C34.0998 22.1638 34.064 22.3192 33.9998 22.4589V22V21.5411C34.064 21.6807 34.0998 21.8362 34.0998 22ZM31.8998 22C31.8998 22.1638 31.9356 22.3192 31.9998 22.4589V22V21.5411C31.9356 21.6807 31.8998 21.8362 31.8998 22ZM32.9998 18.9C31.2877 18.9 29.8998 20.2879 29.8998 22C29.8998 23.7121 31.2877 25.1 32.9998 25.1C34.7119 25.1 36.0998 23.7121 36.0998 22C36.0998 20.2879 34.7119 18.9 32.9998 18.9Z" fill="url(#paint0_linear_889_7098)"/>
<defs>
<linearGradient id="paint0_linear_889_7098" x1="2.82679" y1="2.26398" x2="54.029" y2="28.1564" gradientUnits="userSpaceOnUse">
<stop offset="0.189369" stop-color="white"/>
<stop offset="1" stop-color="white" stop-opacity="0.5"/>
</linearGradient>
</defs>
</svg>
