<svg width="97" height="39" viewBox="0 0 97 39" fill="none" xmlns="http://www.w3.org/2000/svg">
<path d="M50.8765 13.8786C50.0838 13.2146 48.7202 12.8825 46.7859 12.8825H42.4415V26.2749H45.6919V22.069H47.1505C48.9105 22.069 50.2106 21.6738 51.0351 20.899C51.9705 20.0294 52.4303 18.8751 52.4303 17.4204C52.4303 15.9342 51.9071 14.7483 50.8765 13.8786ZM47.0554 19.0332H45.676V15.9025H46.9127C48.419 15.9025 49.1642 16.4243 49.1642 17.4837C49.18 18.5114 48.4665 19.0332 47.0554 19.0332ZM57.9797 12.8667H54.6025V26.2591H61.9118V23.2233H57.9797V12.8667ZM68.5551 12.8667L63.2277 26.2591H66.8744L67.5721 24.3143H72.2018L72.836 26.2591H76.5303L71.2505 12.8667H68.5551ZM68.5075 21.6105L69.9028 17.0252L71.2822 21.6105H68.5075Z" fill="#C6C6D5"/>
<path d="M78.227 26.2595H81.62V12.867H78.227V26.2595ZM94.764 15.3811C94.3359 14.7644 93.7809 14.2426 93.1467 13.8315C92.1161 13.1833 90.7209 12.867 88.961 12.867H84.4898V26.2595H89.7062C91.5929 26.2595 93.115 25.6428 94.2566 24.4095C95.3982 23.1762 95.969 21.5476 95.969 19.5079C95.9848 17.8951 95.5726 16.5195 94.764 15.3811ZM89.3415 23.2236H87.8987V15.9029H89.3732C90.4038 15.9029 91.2124 16.2191 91.7673 16.8674C92.3223 17.5156 92.6077 18.4327 92.6077 19.6186C92.5918 22.022 91.5136 23.2236 89.3415 23.2236ZM14.9171 1.625L3.92943 4.4869L0.901081 15.5076L4.70633 19.3814L0.853516 23.192L3.70745 34.2601L14.6476 37.3118L18.5004 33.5012L22.2898 37.375L33.2774 34.5131L36.3058 23.4924L32.5164 19.6186L36.3692 15.808L33.5153 4.73988L22.5752 1.68825L18.7223 5.49884L14.9171 1.625ZM8.17863 6.60565L13.9658 5.08774L16.5026 7.68084L12.8083 11.3333L8.17863 6.60565ZM20.8787 7.72827L23.4472 5.18261L29.2026 6.79539L24.4936 11.4598C24.5095 11.444 20.8787 7.72827 20.8787 7.72827ZM4.37337 14.6063L5.97475 8.80346L10.6045 13.5311L6.91021 17.1836L4.37337 14.6063ZM26.6817 13.6734L31.3907 9.00901L32.8969 14.8435L30.3284 17.3892C30.3125 17.3892 26.6817 13.6734 26.6817 13.6734ZM14.9805 13.5786L18.6748 9.92609L22.3056 13.6418L18.6114 17.2943L14.9805 13.5786ZM9.08237 19.413L12.7766 15.7606L16.4075 19.4763L12.7132 23.1288L9.08237 19.413ZM20.7835 19.5079L24.4778 15.8554L28.1086 19.5712L24.4144 23.2236C24.4144 23.2394 20.7835 19.5079 20.7835 19.5079ZM4.30995 24.1565L6.8785 21.6108L10.5093 25.3266L5.8162 29.991C5.80034 29.991 4.30995 24.1565 4.30995 24.1565ZM14.8854 25.3582L18.5796 21.7057L22.2105 25.4214L18.5162 29.0739L14.8854 25.3582ZM26.5865 25.4531L30.2808 21.8006L32.8176 24.3937L31.2321 30.1965L26.5865 25.4531ZM7.97251 32.2046L12.6657 27.5402L16.2965 31.2559L13.728 33.8016L7.97251 32.2046ZM20.6884 31.3034L24.3827 27.6509L29.0124 32.3785L23.2252 33.8965L20.6884 31.3034Z" fill="#C6C6D5"/>
</svg>
