<svg width="110" height="38" viewBox="0 0 110 38" fill="none" xmlns="http://www.w3.org/2000/svg">
<g clip-path="url(#clip0_742_4002)">
<path d="M0 1.58325H23.6328V13.1189H11.8164L0 1.58325ZM0 13.1189H11.8164L23.6328 24.6545H0V13.1189ZM0 24.6545H11.8164V36.1902L0 24.6545Z" fill="#C6C6D5"/>
<path d="M36.9672 10.6837H46.52V13.6472H40.5829V17.7655H46.52V20.6635H40.5829V25.9365H36.9672V10.6837ZM48.4841 15.4337H51.8992V17.6346C52.0776 16.8783 52.4426 16.2977 52.9929 15.8913C53.5573 15.4696 54.1839 15.2596 54.8678 15.2596C55.2251 15.2596 55.523 15.2891 55.7604 15.3467V18.441C55.4198 18.4009 55.077 18.3793 54.7337 18.3756C53.7963 18.3756 53.0902 18.6727 52.6134 19.2686C52.1382 19.8497 51.8992 20.721 51.8992 21.8837V25.9365H48.4857V15.4337H48.4841ZM61.1514 26.2199C60.1102 26.2199 59.202 25.9798 58.4283 25.5006C57.6693 25.0214 57.066 24.3411 56.6875 23.5394C56.2858 22.6976 56.0836 21.7449 56.0836 20.6851C56.0836 19.6391 56.2934 18.6944 56.7097 17.8526C57.1 17.0392 57.7196 16.3516 58.4954 15.8697C59.283 15.3905 60.1837 15.1503 61.1963 15.1503C61.9548 15.1503 62.6328 15.3108 63.2274 15.6301C63.8221 15.9504 64.2687 16.3864 64.5666 16.9374V15.4337H67.959V25.9365H64.5666V24.4545C64.2687 24.9776 63.8075 25.4056 63.1826 25.7402C62.5576 26.0637 61.8591 26.2284 61.1514 26.2199ZM62.1338 23.4523C62.9517 23.4523 63.5842 23.191 64.0308 22.668C64.4774 22.145 64.7006 21.4837 64.7006 20.6851C64.7006 19.9009 64.4774 19.2469 64.0308 18.7239C63.5842 18.2009 62.9517 17.9396 62.1338 17.9396C61.359 17.9396 60.7352 18.1935 60.2589 18.7023C59.7977 19.2111 59.5669 19.8713 59.5669 20.6851C59.5669 21.499 59.7977 22.1666 60.2589 22.6896C60.7352 23.1984 61.3601 23.4523 62.1338 23.4523ZM70.3474 15.4337H73.7626V16.959C74.0015 16.4207 74.3875 15.9847 74.9227 15.6517C75.4742 15.3187 76.1137 15.1503 76.8425 15.1503C78.539 15.1503 79.6629 15.7963 80.2127 17.0899C80.5155 16.5036 80.9891 16.0185 81.5746 15.6955C82.2006 15.3277 82.9196 15.1392 83.65 15.1503C86.1947 15.1503 87.4668 16.5732 87.4668 19.4211V25.9365H84.0295V20.0312C84.0295 19.3203 83.8955 18.7973 83.6278 18.4627C83.3597 18.1291 82.958 17.9613 82.4223 17.9613C81.8422 17.9613 81.3956 18.1576 81.0831 18.5497C80.7707 18.9276 80.6144 19.5879 80.6144 20.5326V25.9365H77.1771V20.0096C77.1771 19.2981 77.0436 18.782 76.7754 18.4627C76.5235 18.1291 76.1283 17.9613 75.5936 17.9613C74.9979 17.9613 74.5438 18.1576 74.2313 18.5497C73.9188 18.9276 73.7626 19.5879 73.7626 20.5326V25.9365H70.3485V15.4337H70.3474ZM100.296 20.1405C100.296 20.5901 100.266 21.0773 100.205 21.6003H92.2605C92.2908 22.2832 92.5281 22.8052 92.9747 23.1694C93.4212 23.532 94.0251 23.7141 94.7825 23.7141C95.8394 23.7141 96.5093 23.4011 96.7915 22.7767H100.14C99.9752 23.8085 99.3951 24.6429 98.3982 25.2826C97.4164 25.907 96.2108 26.2199 94.7825 26.2199C92.9379 26.2199 91.4869 25.7328 90.43 24.7596C89.3887 23.7858 88.8676 22.4284 88.8676 20.6851C88.8676 19.552 89.1054 18.5714 89.5817 17.7433C90.0418 16.9163 90.7511 16.2471 91.6128 15.8259C92.4914 15.3762 93.5104 15.1503 94.6722 15.1503C95.7724 15.1503 96.7466 15.3609 97.5948 15.7826C98.4577 16.2043 99.1205 16.7922 99.5811 17.5475C100.058 18.3038 100.296 19.1678 100.296 20.1405ZM96.9239 19.5304C96.9093 18.8332 96.7088 18.3022 96.3211 17.9396C95.9351 17.5771 95.3761 17.395 94.6474 17.395C93.9186 17.395 93.3385 17.5908 92.9066 17.9834C92.4903 18.3613 92.2746 18.8764 92.2589 19.5304H96.9239ZM101.801 15.4337H105.217V17.6346C105.395 16.8783 105.76 16.2977 106.31 15.8913C106.844 15.4807 107.505 15.258 108.185 15.2596C108.542 15.2596 108.84 15.2891 109.078 15.3467V18.441C108.737 18.4009 108.394 18.3793 108.051 18.3756C107.114 18.3756 106.408 18.6727 105.931 19.2686C105.454 19.8497 105.217 20.721 105.217 21.8837V25.9365H101.801V15.4337Z" fill="#C6C6D5"/>
</g>
<defs>
<clipPath id="clip0_742_4002">
<rect width="109.476" height="38" fill="white"/>
</clipPath>
</defs>
</svg>
