<svg width="133" height="38" viewBox="0 0 133 38" fill="none" xmlns="http://www.w3.org/2000/svg">
<g clip-path="url(#clip0_742_4004)">
<path fill-rule="evenodd" clip-rule="evenodd" d="M22.0999 8.70871H2.49852C1.38134 8.70871 0.476074 9.58783 0.476074 10.6723V29.7031C0.476074 30.7877 1.38156 31.6666 2.49852 31.6666H22.0999C23.217 31.6666 24.1223 30.7875 24.1223 29.7031V10.6723C24.1223 9.58762 23.2168 8.70871 22.0999 8.70871ZM12.901 21.3573C11.1333 21.3573 10.33 19.6988 10.33 18.1615C10.33 15.7408 11.6809 14.879 12.9446 14.879C14.4954 14.879 15.5374 16.1884 15.5374 18.1389C15.5374 20.3636 14.2119 21.3573 12.901 21.3573ZM18.868 18.0962C18.868 14.4682 16.7368 12.031 13.5673 12.031C11.7233 12.031 10.6559 12.843 10.1409 13.4033C10.0792 12.9201 9.75447 12.2933 8.48592 12.2933H5.7308V15.1188H6.86C7.05142 15.1188 7.11321 15.1781 7.11321 15.3657V28.2677H10.3966V23.4253C10.3966 23.2947 10.3942 23.1724 10.3906 23.0632C10.903 23.5238 11.8832 24.1601 13.4134 24.1601C16.6229 24.1601 18.868 21.6671 18.868 18.0962Z" fill="#C6C6D5"/>
<path fill-rule="evenodd" clip-rule="evenodd" d="M32.7987 14.8909C33.3804 14.2585 34.5861 13.3421 36.6691 13.3421C40.2492 13.3421 42.6565 16.0926 42.6565 20.1869C42.6565 24.2169 40.1205 27.0304 36.4952 27.0304C34.7667 27.0304 33.6596 26.3122 33.0807 25.7924C33.0848 25.9157 33.0875 26.0536 33.0875 26.201V31.6658H29.3787V17.1055C29.3787 16.8938 29.3089 16.8269 29.0927 16.8269H27.8172V13.6382H30.9293C32.3622 13.6382 32.7289 14.3456 32.7987 14.8909ZM35.9656 16.5562C34.5382 16.5562 33.0122 17.5289 33.0122 20.2606C33.0122 21.9955 33.9196 23.8672 35.9163 23.8672C37.3971 23.8672 38.8943 22.7458 38.8943 20.2352C38.8943 18.0339 37.7173 16.5562 35.9656 16.5562Z" fill="#C6C6D5"/>
<path d="M47.6371 23.2928V15.5772C47.6371 14.2736 46.9953 13.6386 45.6801 13.6386H42.3654V16.8271H43.6423C43.8572 16.8271 43.927 16.8955 43.927 17.1059V24.7946C43.927 26.1183 44.5483 26.7333 45.8799 26.7333H49.1987V23.5728H47.9218C47.7165 23.5728 47.6371 23.4924 47.6371 23.2928Z" fill="#C6C6D5"/>
<path fill-rule="evenodd" clip-rule="evenodd" d="M53.454 14.8909C54.0383 14.2585 55.2413 13.3421 57.327 13.3421C60.9058 13.3421 63.3117 16.0926 63.3117 20.1869C63.3117 24.2169 60.7785 27.0304 57.1518 27.0304C55.4247 27.0304 54.3134 26.3122 53.7373 25.7924C53.7413 25.9157 53.7455 26.0536 53.7455 26.201V31.6658H50.0339V17.1055C50.0339 16.8938 49.9641 16.8269 49.7493 16.8269H48.4738V13.6382H51.5872C53.0201 13.6382 53.3855 14.3456 53.454 14.8909ZM53.6674 20.2606C53.6674 21.9955 54.5789 23.8672 56.5702 23.8672C58.0551 23.8672 59.5509 22.7458 59.5509 20.2352C59.5509 18.0339 58.3739 16.5562 56.6222 16.5562C55.1934 16.5562 53.6674 17.5289 53.6674 20.2606Z" fill="#C6C6D5"/>
<path fill-rule="evenodd" clip-rule="evenodd" d="M63.501 20.1876C63.501 16.1576 66.2956 13.3428 70.2917 13.3428C73.8555 13.3428 76.2505 15.8454 76.2505 19.5699C76.2505 19.9477 76.1779 20.7208 76.1711 20.7529L76.1506 20.9914H67.3548C67.6765 22.7331 69.0368 23.8437 70.8953 23.8437C72.7656 23.8437 74.1967 22.6103 74.3072 22.5151C74.3112 22.5117 74.3134 22.5097 74.314 22.5093L74.5535 22.2869L76.1697 24.9115L76.0206 25.0562C75.9325 25.1396 73.9361 27.031 70.6709 27.031C66.5159 27.031 63.501 24.1519 63.501 20.1876ZM70.2917 16.2835C68.9013 16.2835 67.8954 17.0123 67.4931 18.2972H72.4199C72.268 17.1155 71.4085 16.2835 70.2917 16.2835Z" fill="#C6C6D5"/>
<path fill-rule="evenodd" clip-rule="evenodd" d="M89.7414 10.6469V23.2928C89.7414 23.4924 89.8208 23.5728 90.026 23.5728H91.2755V26.7332H88.0621C86.6744 26.7332 86.3008 26.0178 86.2256 25.4524C85.6493 26.1009 84.4697 27.0306 82.4237 27.0306C78.8435 27.0306 76.4376 24.2815 76.4376 20.1872C76.4376 16.1572 78.9489 13.3424 82.5482 13.3424C84.3889 13.3424 85.4578 13.9788 86.0052 14.4625V12.1769C86.0052 11.9652 85.9354 11.8982 85.7205 11.8982H84.4437V8.70825H87.7583C89.0913 8.70825 89.7414 9.34329 89.7414 10.6469ZM80.2216 20.1872C80.2216 22.4219 81.363 23.8675 83.1271 23.8675C84.5545 23.8675 86.0818 22.8962 86.0818 20.1631C86.0818 18.3665 85.1827 16.5565 83.1777 16.5565C81.4096 16.5565 80.2216 18.0142 80.2216 20.1872Z" fill="#C6C6D5"/>
<path d="M99.5289 13.4655C97.9852 13.4655 96.5646 14.3377 95.7216 15.727V15.4283C95.7216 14.2413 95.0524 13.6384 93.7385 13.6384H90.5498V16.827H91.8253C92.0401 16.827 92.1113 16.894 92.1113 17.1056V26.7331H95.8201V21.4933C95.8201 20.8033 95.9104 20.1389 96.0856 19.5239C96.644 17.7166 98.1275 17.0735 99.3278 17.0735C99.7534 17.0735 100.063 17.1177 100.068 17.119L100.377 17.1646V13.5553L100.152 13.5178C100.141 13.5151 99.8259 13.4655 99.5289 13.4655Z" fill="#C6C6D5"/>
<path d="M105.657 23.2928V15.5772C105.657 14.2736 105.018 13.6386 103.702 13.6386H100.704V16.8272H101.662C101.879 16.8272 101.947 16.8955 101.947 17.1059V24.7946C101.947 26.1183 102.57 26.7333 103.904 26.7333H107.22V23.5728H105.941C105.737 23.5728 105.657 23.4924 105.657 23.2928Z" fill="#C6C6D5"/>
<path d="M119.659 13.6386H117.68C116.524 13.6386 115.904 14.0311 115.537 14.9944L113.119 21.6061C113.035 21.8512 112.957 22.1259 112.89 22.3898C112.82 22.1259 112.737 21.8472 112.645 21.6021L110.227 14.9931C109.856 14.0191 109.256 13.6386 108.085 13.6386H105.98V16.8272H106.526C106.816 16.8272 106.91 16.9237 106.978 17.1005L110.721 26.7333H114.892L118.635 17.1005C118.704 16.9237 118.8 16.8272 119.09 16.8272H119.659V13.6386Z" fill="#C6C6D5"/>
<path fill-rule="evenodd" clip-rule="evenodd" d="M119.258 20.1876C119.258 16.1576 122.052 13.3428 126.046 13.3428C129.613 13.3428 132.009 15.8454 132.009 19.5699C132.009 19.9477 131.934 20.7208 131.93 20.7529L131.909 20.9914H123.111C123.432 22.7331 124.792 23.8437 126.652 23.8437C128.582 23.8437 130.056 22.5214 130.068 22.5093L130.315 22.2869L131.927 24.9115L131.776 25.0562C131.693 25.1366 129.695 27.031 126.425 27.031C122.27 27.031 119.258 24.1519 119.258 20.1876ZM126.046 16.2835C124.657 16.2835 123.655 17.0123 123.249 18.2972H128.175C128.024 17.1155 127.166 16.2835 126.046 16.2835Z" fill="#C6C6D5"/>
<path d="M47.3838 8.70912H44.0774V12.1188H47.3838V8.70912Z" fill="#C6C6D5"/>
<path d="M105.405 8.70912H102.098V12.1188H105.405V8.70912Z" fill="#C6C6D5"/>
</g>
<defs>
<clipPath id="clip0_742_4004">
<rect width="132.095" height="38" fill="white" transform="translate(0.476074)"/>
</clipPath>
</defs>
</svg>
