<svg width="814" height="646" viewBox="0 0 814 646" fill="none" xmlns="http://www.w3.org/2000/svg">
<g opacity="0.2" filter="url(#filter0_f_3946_996)">
<path d="M285.247 281.879C276.741 283.77 270.243 285.853 261.738 287.744C254.188 289.205 246.772 291.291 239.567 293.981C228.772 298.342 222.155 305.576 213.724 313.585C207.494 319.539 201.368 325.493 195.286 331.641C193.68 333.248 192.074 334.871 190.468 336.508L188 339.009C188 339.009 231.047 379.884 245.307 396.719C247.21 398.967 251.463 405.144 247.389 409.684L257.515 394.977L266.437 455.218C266.437 455.218 295.12 443.816 308.666 442.134C331.506 439.291 360.813 439.916 381.304 433.605C396.115 428.979 410.534 423.181 424.425 416.263C424.425 416.263 408.827 377.145 408.663 377.562C408.5 377.978 431.414 389.157 431.414 389.157C430.703 388.53 430.146 387.747 429.787 386.869C429.429 385.991 429.278 385.042 429.347 384.096C429.049 377.755 431.027 371.533 433.183 365.549C440.47 345.444 450.108 326.272 461.896 308.434C446.09 295.931 432.886 285.898 416.173 274.63C410.49 270.708 404.214 267.727 397.586 265.803C388.248 263.213 378.047 263.749 367.475 265.312C357.884 266.8 347.803 268.631 338.152 271.072C338.152 271.072 338.673 291.182 325.736 293.564C298.332 298.61 285.247 281.879 285.247 281.879Z" fill="#0A7AF9"/>
</g>
<path opacity="0.3" d="M536 242.413C471.567 486.488 452.776 612.778 451.434 645.413M515.799 242.413C451.365 486.488 432.575 612.778 431.233 645.413M495.597 242.413C431.164 486.488 412.373 612.778 411.031 645.413M475.395 242.413C410.963 486.488 392.171 612.778 390.83 645.413M455.194 242.413C390.761 486.488 371.97 612.778 370.629 645.413M434.992 242.413C370.559 486.488 351.768 612.778 350.426 645.413M414.791 242.413C350.357 486.488 331.567 612.778 330.225 645.413M394.589 242.413C330.156 486.488 311.365 612.778 310.024 645.413M374.387 242.413C309.955 486.488 291.163 612.778 289.822 645.413M354.186 242.413C289.753 486.488 270.962 612.778 269.621 645.413M333.984 242.413C269.551 486.488 250.76 612.778 249.418 645.413M313.783 242.413C249.35 486.488 230.559 612.778 229.217 645.413M293.582 242.413C229.148 486.488 210.358 612.778 209.016 645.413M273.379 242.413C208.947 486.488 190.155 612.778 188.814 645.413M253.178 242.413C188.745 486.488 169.954 612.778 168.613 645.413M232.976 242.413C168.544 486.488 149.752 612.778 148.411 645.413M212.775 242.413C148.342 486.488 129.551 612.778 128.209 645.413M192.574 242.413C128.14 486.488 109.349 612.778 108.008 645.413M172.372 242.413C107.939 486.488 89.1477 612.778 87.8062 645.413M152.17 242.413C87.7373 486.488 68.9461 612.778 67.6046 645.413M131.968 242.413C67.5357 486.488 48.7446 612.778 47.4031 645.413M111.767 242.413C47.3342 486.488 28.543 612.778 27.2015 645.413M91.5655 242.413C27.1327 486.488 8.34146 612.778 7 645.413M525.899 242.413C461.467 486.488 442.675 612.778 441.334 645.413M505.697 242.413C441.265 486.488 422.473 612.778 421.133 645.413M485.496 242.413C421.063 486.488 402.272 612.778 400.93 645.413M465.295 242.413C400.861 486.488 382.071 612.778 380.729 645.413M445.093 242.413C380.66 486.488 361.869 612.778 360.527 645.413M424.891 242.413C360.459 486.488 341.667 612.778 340.326 645.413M404.69 242.413C340.257 486.488 321.466 612.778 320.125 645.413M384.488 242.413C320.055 486.488 301.264 612.778 299.922 645.413M364.287 242.413C299.854 486.488 281.063 612.778 279.721 645.413M344.085 242.413C279.652 486.488 260.861 612.778 259.52 645.413M323.883 242.413C259.451 486.488 240.659 612.778 239.318 645.413M303.682 242.413C239.249 486.488 220.458 612.778 219.117 645.413M283.48 242.413C219.047 486.488 200.256 612.778 198.914 645.413M263.279 242.413C198.846 486.488 180.055 612.778 178.713 645.413M243.078 242.413C178.644 486.488 159.853 612.778 158.512 645.413M222.875 242.413C158.443 486.488 139.652 612.778 138.31 645.413M202.674 242.413C138.241 486.488 119.45 612.778 118.109 645.413M182.472 242.413C118.04 486.488 99.2485 612.778 97.907 645.413M162.271 242.413C97.8381 486.488 79.0469 612.778 77.7054 645.413M142.069 242.413C77.6365 486.488 58.8454 612.778 57.5038 645.413M121.868 242.413C57.4349 486.488 38.6438 612.778 37.3023 645.413M101.666 242.413C37.2335 486.488 18.4423 612.778 17.1008 645.413" stroke="url(#paint0_radial_3946_996)" stroke-width="0.970909"/>
<path d="M650.367 295.95L236.013 301.532L229.887 22.3293C229.679 12.639 237.887 4.6158 248.147 4.46694L628.539 0.00136615C638.694 -0.117716 647.021 7.56309 647.125 17.179L650.367 295.95Z" fill="white"/>
<path d="M251.882 264.753C262.157 264.604 272.431 264.753 282.706 264.678L328.995 264.604C333.069 264.604 337.143 264.604 341.203 264.604C341.68 264.537 342.137 264.37 342.544 264.114C342.952 263.857 343.301 263.517 343.567 263.116C343.731 262.907 344.801 261.24 343.924 261.255C333.649 261.404 323.359 261.255 313.085 261.255H266.796C262.722 261.255 258.662 261.255 254.588 261.255C254.112 261.324 253.656 261.493 253.249 261.749C252.841 262.005 252.492 262.344 252.224 262.743C252.06 262.937 250.99 264.604 251.882 264.604V264.753Z" fill="#092857"/>
<path d="M429.972 444.061L419.564 444.254H418.077C417.6 444.323 417.144 444.491 416.737 444.747C416.329 445.003 415.98 445.343 415.712 445.743C415.549 445.951 414.478 447.618 415.371 447.603L425.779 447.41H427.266C427.741 447.338 428.196 447.169 428.603 446.912C429.01 446.656 429.36 446.319 429.63 445.921C429.779 445.728 430.85 444.046 429.972 444.061Z" fill="#092857"/>
<path d="M172.871 368.89C174.997 371.737 176.934 374.72 178.67 377.821C179.871 380.046 180.432 382.56 180.291 385.085C180.127 386.886 179.16 388.911 177.317 389.149C176.572 389.128 175.842 388.944 175.176 388.61C174.511 388.275 173.927 387.799 173.465 387.214C169.142 383.291 165.112 379.058 161.406 374.546" fill="#092857"/>
<path d="M171.294 370.468C172.648 372.269 173.911 374.13 175.131 376.021C176.599 378.088 177.687 380.402 178.343 382.853C178.701 384.21 178.742 385.631 178.461 387.006C178.372 387.408 177.882 388.167 178.461 387.497C178.729 387.214 178.714 387.497 178.357 387.423C177.997 387.43 177.639 387.369 177.302 387.244C175.969 386.543 174.787 385.587 173.822 384.431C172.662 383.314 171.488 382.198 170.343 381.052C167.724 378.492 165.266 375.773 162.982 372.909C162.298 372.031 158.997 375.023 159.83 376.08C162.195 379.035 164.743 381.839 167.458 384.475C168.826 385.83 170.224 387.155 171.607 388.494C172.624 389.732 174.056 390.557 175.636 390.816C178.952 390.816 181.584 386.991 181.896 383.999C182.082 380.786 181.232 377.598 179.473 374.904C177.926 372.277 176.228 369.742 174.387 367.313C173.718 366.434 170.417 369.397 171.235 370.468H171.294Z" fill="#092857"/>
<path fill-rule="evenodd" clip-rule="evenodd" d="M218.718 154.631L145.987 153.961L134.895 153.768C132.318 153.569 129.727 153.684 127.178 154.11C122.595 155.208 118.513 157.815 115.587 161.513C112.661 165.211 111.061 169.786 111.044 174.503V183.509L110.747 225.307L110.301 286.961L109.81 354.258L109.379 412.905L109.126 448.63V453.498C109.136 453.581 109.173 453.659 109.232 453.718C109.292 453.778 109.37 453.815 109.453 453.825L117.438 453.676L139.311 453.274L171.518 452.679L210.804 451.95L253.851 451.146L297.478 450.327L337.982 449.583L372.182 448.943L396.821 448.481C398.385 448.451 399.95 448.426 401.514 448.401L401.527 448.401C403.869 448.364 406.211 448.326 408.553 448.273H409.059C409.534 448.202 409.99 448.033 410.397 447.776C410.803 447.52 411.153 447.182 411.423 446.784C411.572 446.591 412.642 444.909 411.765 444.924L411.72 444.849L403.453 445.013L380.881 445.43L347.707 446.04L307.217 446.799L263.248 447.618L219.19 448.437L178.373 449.196L144.664 449.821L121.334 450.253C120.584 450.253 119.818 450.241 119.043 450.23H119.04H119.04C116.841 450.197 114.569 450.163 112.402 450.384C112.475 449.901 112.473 449.41 112.397 448.928V442.81L112.561 419.574L112.814 385.338L113.111 343.808L113.438 299.435L113.75 256.104L114.033 217.715L114.241 188.629L114.36 172.702C114.291 170.698 114.501 168.694 114.985 166.748C116.784 160.392 122.583 156.939 128.992 157.028L138.82 157.206L160.783 157.623L218.11 158.149L218.718 154.631ZM112.361 450.683C112.321 450.716 112.282 450.682 112.367 450.483C112.444 450.551 112.401 450.65 112.361 450.683Z" fill="#092857"/>
<path fill-rule="evenodd" clip-rule="evenodd" d="M651.307 84.7359L651.039 61.2115C650.88 46.9216 650.712 32.6318 650.533 18.342C650.502 13.5926 648.642 9.0384 645.34 5.62779C642.038 2.21718 637.55 0.21314 632.809 0.0330784C631.977 -0.0165065 631.138 -2.1724e-05 630.297 0.0165065C629.876 0.024787 629.454 0.0330784 629.032 0.0330784L609.285 0.271248L573.896 0.688033L527.027 1.23878L473.214 1.86398L417.097 2.51891L362.511 3.15899L314.646 3.72464L277.368 4.1563L255.317 4.42423H251.376C246.709 4.52084 242.189 6.08106 238.455 8.88503C234.72 11.689 231.958 15.5954 230.559 20.0537C229.954 22.6519 229.753 25.3281 229.964 27.9876L230.172 37.3058L230.931 72.1224L232.016 121.601L232.555 146.31C233.691 145.921 234.836 145.567 235.99 145.248L235.644 129.699L234.767 89.6572L234.038 55.8974L233.518 32.4234C233.496 31.4603 233.47 30.496 233.443 29.5306C233.382 27.2583 233.32 24.9808 233.31 22.7033C233.31 13.9359 240.016 8.07113 248.521 7.81808H250.187L262.261 7.6841L284.491 7.41618L314.705 7.05892L351.017 6.64214L391.67 6.16582L434.301 5.6597L477.333 5.15361L518.388 4.67729L555.71 4.23073L587.472 3.8586L611.397 3.57578L625.731 3.41204H628.615C631.516 3.32532 634.397 3.91648 637.03 5.13862C639.663 6.36076 641.975 8.18026 643.782 10.4528C646.756 14.2932 647.158 18.6099 647.202 23.2094L647.366 36.9485L647.842 78.2849L648.109 100.479C648.109 100.59 648.135 100.671 648.18 100.727L649.507 217.462L650.28 283.776L650.423 295.962L647.738 295.997L631.664 296.22L607.01 296.547L575.234 296.979L538.283 297.47L497.675 298.021L454.865 298.602L411.937 299.167L370.139 299.733L331.478 300.254L297.516 300.715L269.725 301.087L250.053 301.355L239.971 301.489C239.768 301.478 239.565 301.475 239.362 301.481V298.661L238.975 281.379L238.938 279.671H235.486L235.957 301.087V304.496C235.966 304.58 236.004 304.658 236.063 304.717C236.122 304.777 236.2 304.814 236.284 304.824L247.376 304.675L277.561 304.273L322.036 303.677L376.667 302.933L436.145 302.144L496.455 301.326L552.573 300.566L599.843 299.941L633.954 299.48L650.102 299.257H650.786C651.537 299.12 652.227 298.753 652.76 298.206C653.293 297.659 653.642 296.96 653.76 296.205L653.284 254.422L651.57 100.198L651.392 84.9998C651.392 84.8773 651.361 84.7918 651.307 84.7359Z" fill="#092857"/>
<path fill-rule="evenodd" clip-rule="evenodd" d="M520.92 224.388L520.462 208.472L519.343 169.897L517.985 123.431L516.881 83.1348L516.493 69.8879L516.374 65.7389C516.456 65.0177 516.456 64.2907 516.374 63.5695C516.359 63.4796 516.359 63.3882 516.374 63.2983C516.367 63.2212 516.331 63.1489 516.27 63.0943C516.21 63.0396 516.131 63.0062 516.046 63H426.742H388.669H262.8H252.506H252.058C251.292 63.1132 250.585 63.4425 250.036 63.9413C249.487 64.4401 249.125 65.0833 249 65.7796L249.104 82.4298L249.358 122.238L249.494 143.153C250.604 143.11 251.716 143.099 252.828 143.118L252.551 98.7952L252.349 66.0372H315.403H377.152H439.811H510.407C511.238 66.1457 512.082 66.1457 512.913 66.0372C512.923 66.0338 512.933 66.0311 512.943 66.029C512.95 66.0821 512.952 66.137 512.943 66.1863C512.846 67.3115 512.876 68.4428 513.032 69.5624L513.465 84.5585L514.957 135.567L516.598 191.944L517.538 224.374L501.261 224.716L452.626 225.719L389.311 227.075L325.474 228.431L297.496 229.006V232.02L305.796 231.848L340.87 231.129L379.286 230.329L418.268 229.529L454.431 228.783L485 228.146L506.99 227.699L517.433 227.482H517.881C518.358 227.416 518.814 227.262 519.222 227.028C519.631 226.795 519.981 226.488 520.253 226.126C520.445 225.869 521.254 224.703 520.92 224.388Z" fill="#092857"/>
<path d="M263.783 174.92C262.682 171.951 260.896 169.285 258.57 167.138C256.245 164.991 253.446 163.424 250.401 162.565C244.719 161.183 238.729 161.907 233.539 164.604C226.133 168.383 220.385 174.773 217.406 182.541C214.488 190.301 213.97 198.76 215.919 206.819C216.352 209.373 217.444 211.769 219.086 213.77C220.334 214.969 221.844 215.861 223.495 216.378C225.146 216.894 226.894 217.021 228.602 216.747C232.024 216.18 235.264 214.813 238.059 212.758C245.858 207.467 251.773 199.83 254.951 190.951" fill="#092857"/>
<path d="M265.478 173.55C263.82 169.208 260.759 165.545 256.783 163.145C252.806 160.744 248.141 159.744 243.531 160.302C233.539 161.359 224.751 168.207 219.383 176.423C213.684 185.476 211.737 196.396 213.956 206.864C214.892 211.597 216.677 216.167 221.569 217.908C226.223 219.546 231.174 217.983 235.308 215.676C245.119 209.96 252.602 200.962 256.438 190.267C256.75 189.433 256.438 189.165 255.575 189.403C254.573 189.834 253.775 190.633 253.345 191.636C250.606 199.481 245.524 206.294 238.788 211.151C235.1 213.741 230.728 215.839 226.119 215.021C221.509 214.202 219.041 210.897 217.866 206.611C213.257 189.671 220.335 167.492 239.501 163.934C244.119 162.999 248.918 163.726 253.053 165.986C257.188 168.246 260.393 171.895 262.103 176.289C262.579 177.525 265.91 174.726 265.478 173.565V173.55Z" fill="#092857"/>
<path d="M213.911 197.829C205.688 200.463 198.923 206.269 192.41 211.94C191.114 212.824 190.188 214.153 189.808 215.676C189.812 216.688 190.186 217.664 190.86 218.418C191.534 219.172 192.461 219.653 193.466 219.769C195.497 219.938 197.525 219.413 199.22 218.281C206.655 213.994 211.249 206.164 215.487 198.677" fill="#092857"/>
<path d="M214.954 196.162C209.964 197.881 205.285 200.394 201.095 203.604C198.969 205.182 196.917 206.879 194.895 208.591C192.747 210.178 190.826 212.051 189.185 214.158C188.477 214.999 188.104 216.071 188.137 217.169C188.17 218.268 188.607 219.316 189.363 220.112C190.207 220.84 191.233 221.323 192.331 221.509C193.429 221.695 194.557 221.578 195.593 221.169C200.367 219.68 204.515 215.9 207.667 212.238C211.177 207.967 214.241 203.348 216.812 198.454C217.124 197.918 217.496 196.966 216.545 196.966C215.593 196.966 214.567 198.216 214.165 198.916C210.552 205.301 206.731 212.387 200.352 216.406C199.526 217.047 198.583 217.52 197.575 217.795C196.567 218.071 195.515 218.145 194.478 218.013C192.991 217.641 190.895 215.855 191.608 214.069C191.978 213.441 192.487 212.906 193.095 212.506L195.593 210.347C197.17 209.008 198.761 207.698 200.396 206.447C204.133 203.443 208.351 201.092 212.872 199.496C213.871 199.149 214.714 198.458 215.251 197.546C215.459 197.189 215.979 195.819 214.968 196.147L214.954 196.162Z" fill="#092857"/>
<path d="M566.496 319.992C566.496 341.65 554.601 353.216 533.308 353.216C554.303 353.216 566.496 364.365 566.496 386.455C566.496 364.797 577.425 353.216 599.7 353.216C577.425 353.216 566.496 341.218 566.496 319.992Z" fill="white"/>
<path d="M151.432 38.9373C151.432 46.9455 149.767 55.8469 143.864 61.6968C137.961 67.5467 129.188 69.1394 121.277 69.1394C120.8 69.207 120.344 69.3746 119.936 69.6311C119.529 69.8876 119.18 70.2273 118.913 70.6279C118.749 70.8363 117.679 72.4737 118.571 72.4886C127.269 72.4886 136.414 74.4237 142.823 80.7053C149.232 86.9869 151.388 96.4836 151.432 105.385C151.432 106.278 153.083 105.206 153.291 105.043C153.688 104.772 154.025 104.422 154.281 104.014C154.537 103.607 154.706 103.152 154.778 102.676C154.778 94.7867 156.176 85.7663 161.945 79.9015C167.714 74.0367 176.934 72.4588 184.933 72.4588C185.408 72.3843 185.862 72.2138 186.268 71.9579C186.675 71.702 187.025 71.366 187.298 70.9703C187.461 70.7619 188.517 69.1097 187.64 69.1097C178.718 69.1097 169.35 67.1597 162.912 60.5655C156.473 53.9714 154.808 44.9211 154.778 36.2132C154.778 35.3052 153.127 36.3919 152.919 36.5556C152.519 36.8232 152.18 37.1723 151.923 37.5801C151.667 37.9879 151.5 38.4453 151.432 38.9224C151.432 47.7791 153.41 57.1717 159.789 63.7212C166.168 70.2707 175.922 72.5035 184.963 72.5035L187.669 69.1246C179.922 69.1246 171.952 70.4642 165.365 74.8553C159.448 78.892 155.129 84.8744 153.157 91.765C151.92 96.2019 151.329 100.794 151.403 105.4L154.778 102.691C154.778 93.6406 152.622 84.0991 145.945 77.5645C139.269 71.0298 130.095 69.1692 121.247 69.1246L118.571 72.5035C126.199 72.5035 133.99 71.015 140.444 66.728C146.379 62.7104 150.768 56.788 152.89 49.9374C154.217 45.4908 154.863 40.8686 154.808 36.2281C154.808 35.3201 153.157 36.4067 152.949 36.5705C152.545 36.8364 152.2 37.1846 151.939 37.5923C151.678 38.0001 151.505 38.4583 151.432 38.9373V38.9373Z" fill="#092857"/>
<path d="M575.797 338.402C575.797 343.076 574.92 348.524 571.44 351.947C567.961 355.371 562.637 356.175 558.058 356.219C557.582 356.29 557.126 356.458 556.719 356.715C556.312 356.971 555.963 357.309 555.693 357.708C555.53 357.916 554.474 359.569 555.351 359.569C560.794 359.569 566.474 360.759 570.488 364.689C574.503 368.619 575.812 374.528 575.856 380.095C575.856 380.989 577.492 379.917 577.715 379.753C578.115 379.485 578.454 379.136 578.71 378.728C578.966 378.32 579.134 377.863 579.202 377.386C579.202 372.772 579.946 367.294 583.306 363.826C586.667 360.358 592.347 359.598 597.001 359.569C597.476 359.498 597.932 359.33 598.339 359.073C598.746 358.817 599.096 358.479 599.365 358.08C599.529 357.872 600.584 356.219 599.707 356.219C594.146 356.219 588.302 355.014 584.272 350.891C580.243 346.767 579.247 341.141 579.202 335.693C579.202 334.8 577.566 335.871 577.343 336.035C576.944 336.303 576.605 336.653 576.349 337.06C576.093 337.468 575.925 337.925 575.856 338.402C575.856 343.999 577.105 349.908 581.135 354.046C585.165 358.184 591.306 359.554 597.016 359.584L599.722 356.219C593.209 356.219 586.8 357.842 582.102 362.62C577.403 367.398 575.901 373.65 575.856 380.11L579.217 377.401C579.217 371.685 577.864 365.672 573.641 361.548C569.418 357.425 563.648 356.249 558.058 356.219L555.292 359.584C561.73 359.584 568.005 357.842 572.674 353.183C577.343 348.524 579.113 342.198 579.157 335.693C579.157 334.8 577.507 335.871 577.299 336.035C576.896 336.302 576.555 336.65 576.296 337.058C576.037 337.466 575.867 337.924 575.797 338.402Z" fill="#092857"/>
<path d="M496.334 403.837C501.048 403.986 505.762 403.986 510.475 403.837C510.951 403.768 511.408 403.6 511.815 403.343C512.222 403.087 512.571 402.748 512.84 402.349C513.003 402.155 514.074 400.459 513.196 400.488C508.468 400.652 503.769 400.667 499.056 400.488C498.577 400.555 498.117 400.722 497.707 400.978C497.297 401.235 496.946 401.575 496.676 401.977C496.498 402.2 495.457 403.808 496.334 403.837V403.837Z" fill="#092857"/>
<path d="M485.793 400.459C480.886 400.459 475.979 400.459 471.072 400.355C470.594 400.423 470.135 400.591 469.726 400.847C469.316 401.104 468.964 401.443 468.693 401.843C468.53 402.067 467.474 403.689 468.351 403.704C473.308 403.774 478.215 403.813 483.072 403.823C483.55 403.754 484.009 403.586 484.418 403.33C484.828 403.073 485.18 402.734 485.451 402.335C485.615 402.126 486.671 400.474 485.793 400.474V400.459Z" fill="#092857"/>
<path d="M492.841 395.889C493.078 391.155 493.138 386.437 492.974 381.688C492.974 380.81 491.339 381.852 491.116 382.046C490.715 382.312 490.375 382.661 490.119 383.069C489.862 383.477 489.695 383.935 489.629 384.412C489.777 388.878 489.748 393.463 489.51 397.988C489.51 398.925 490.387 398.598 490.997 398.27C491.606 397.943 492.885 396.782 492.93 395.889H492.841Z" fill="#092857"/>
<path d="M489.97 408.914C489.668 411.173 489.529 413.451 489.554 415.731C489.64 417.978 489.884 420.216 490.282 422.429C490.416 423.293 491.858 422.31 492.141 422.072C492.721 421.596 493.791 420.584 493.628 419.705C493.248 417.56 493.01 415.392 492.914 413.215C492.879 411.075 493.009 408.935 493.301 406.815C493.42 405.862 492.379 406.219 491.888 406.532C490.963 407.048 490.271 407.901 489.955 408.914H489.97Z" fill="#092857"/>
<path d="M217.853 262.118C220.723 239.79 221.273 217.582 224.128 195.328C227.599 194.242 230.505 191.835 232.221 188.625C233.937 185.415 234.325 181.659 233.302 178.166C238 179.476 242.951 179.592 247.705 178.502C252.459 177.413 256.867 175.154 260.528 171.929C266.947 180.842 271.819 190.776 274.937 201.312C276.23 205.688 277.182 210.541 275.294 214.709C272.929 219.978 266.759 222.39 260.945 222.702L269.643 251.684L297.568 256.923L288.126 294.777C288.126 294.777 224.633 308.813 224.782 308.337C224.931 307.861 199.742 281.216 199.742 281.216L217.853 262.118Z" fill="white"/>
<path d="M219.518 261.136C222.358 238.942 222.968 216.48 225.808 194.345L223.087 197.069C231.22 194.703 237.659 185.355 234.982 176.885L232.008 179.862C236.999 181.171 242.236 181.226 247.253 180.021C252.27 178.816 256.912 176.389 260.766 172.955L259.011 173.521C265.108 182.021 269.807 191.444 272.929 201.431C274.327 205.896 276.111 211.984 273.301 216.316C271.026 219.814 265.866 220.782 262.06 220.99C261.123 220.99 258.997 222.955 259.324 223.967C262.218 233.633 265.113 243.298 268.007 252.964C268.023 253.044 268.063 253.119 268.121 253.177C268.18 253.235 268.254 253.275 268.335 253.291L296.274 258.516L295.962 257.891L287.665 291.07L286.475 295.818L289.196 293.094C275.249 296.18 261.296 299.232 247.339 302.249C240.648 303.737 233.956 305.226 227.265 306.446C226.959 306.478 226.656 306.533 226.358 306.61C225.674 306.863 226.358 306.387 226.358 306.804C226.358 306.878 226.596 307.131 226.358 306.684C226.358 306.595 226.239 306.536 226.194 306.446C225.956 306.119 225.659 305.821 225.406 305.509C222.983 302.71 220.44 300.016 217.972 297.307C212.485 291.353 206.938 285.488 201.392 279.623L200.426 281.811L218.537 262.728C218.893 262.356 220.024 261.106 219.503 260.54C218.983 259.975 217.615 261.18 217.317 261.493L199.191 280.591C198.849 280.948 197.704 282.198 198.225 282.779C203.043 287.85 207.831 292.945 212.589 298.066C215.459 301.147 218.328 304.228 221.139 307.354C221.823 308.113 222.462 308.843 223.146 309.676C223.295 309.84 223.354 309.81 223.146 309.676C223.354 309.825 223.146 309.959 223.473 310.019C223.676 310.034 223.88 310.034 224.083 310.019C226.091 309.778 228.079 309.39 230.031 308.858C233.852 308.069 237.689 307.25 241.51 306.417C250.863 304.422 260.201 302.368 269.554 300.328L287.085 296.473C287.726 296.27 288.308 295.915 288.782 295.438C289.256 294.961 289.607 294.377 289.806 293.734L298.074 260.615L299.263 255.851C299.286 255.79 299.296 255.724 299.293 255.659C299.29 255.593 299.273 255.529 299.243 255.47C299.214 255.412 299.173 255.36 299.123 255.318C299.072 255.276 299.014 255.244 298.951 255.226L283.888 252.398L274.282 250.597C273.361 250.519 272.449 250.349 271.561 250.091C271.442 250.091 271.145 250.091 271.041 249.987C270.937 249.882 270.892 248.796 270.818 248.498L269.866 245.327C267.457 237.299 265.053 229.286 262.654 221.288L259.918 224.265C265.021 224.079 269.884 222.055 273.613 218.564C277.673 214.515 278.684 209.231 277.613 203.678C276.29 197.669 274.248 191.842 271.531 186.322C268.897 180.709 265.741 175.357 262.104 170.335C261.762 169.859 260.617 170.693 260.35 170.901C256.858 173.879 252.684 175.945 248.201 176.916C243.718 177.888 239.064 177.734 234.655 176.468C233.629 176.171 231.295 178.463 231.681 179.445C233.421 184.968 231.176 191.86 225.243 193.571C224.598 193.767 224.013 194.12 223.538 194.598C223.063 195.076 222.714 195.664 222.522 196.31C219.682 218.489 219.072 240.966 216.247 263.1C215.979 264.782 219.369 262.237 219.518 261.136Z" fill="#092857"/>
<path d="M354.101 395.862L374.145 446.725L200.841 449.479L198.313 428.268L332.496 392.543L354.101 395.862Z" fill="#092857"/>
<path d="M352.407 397.217L369.938 441.694L372.466 448.08L375.44 445.103L353.968 445.445L304.676 446.219L249.287 447.112L209.347 447.737L204.47 447.827C203.724 447.737 202.971 447.737 202.225 447.827C202.136 447.827 201.942 447.737 202.225 447.991C202.507 448.244 202.329 447.633 202.225 447.306L201.63 442.334L200.143 429.533L199.831 426.943L197.095 429.92L214.805 425.29L254.729 414.662L298.594 402.977L327.902 395.103C328.868 394.85 329.85 394.612 330.876 394.329C331.054 394.329 331.262 394.21 331.441 394.18C331.619 394.15 331.129 394.18 331.233 394.18C331.479 394.198 331.723 394.238 331.961 394.299L350.95 397.202L352.793 397.485C354.087 397.693 356.63 394.284 355.515 394.121L338.221 391.531C336.702 391.126 335.139 390.911 333.567 390.891C333.012 390.993 332.465 391.137 331.932 391.322L305.91 398.244L262.788 409.735L221.154 420.825C214.046 422.715 206.805 424.368 199.757 426.511L199.444 426.6C198.359 426.883 196.56 428.357 196.708 429.577L199.221 450.789C199.237 450.87 199.277 450.944 199.335 451.002C199.393 451.061 199.468 451.1 199.548 451.116L216.871 450.834L258.253 450.179L308.274 449.375L351.515 448.69C358.503 448.586 365.596 448.824 372.555 448.363H372.867C373.834 448.363 376.377 446.517 375.841 445.386L358.295 400.894L355.782 394.508C355.292 393.257 351.961 396.086 352.407 397.217Z" fill="#092857"/>
<path d="M261.389 222.657C260.913 222.657 260.453 222.657 259.992 222.657C253.905 222.826 247.817 222.422 241.806 221.451C241.806 221.451 250.862 231.975 263.144 232.794L261.389 222.657Z" fill="#092857"/>
<path d="M262.386 220.946C255.919 221.316 249.432 220.926 243.056 219.785C242.089 219.621 239.264 222.047 240.082 223.059C241.918 225.101 243.984 226.924 246.238 228.492C250.726 231.873 256.054 233.958 261.643 234.521C262.802 234.595 264.899 232.69 264.691 231.469L262.921 221.273C262.773 220.395 261.345 221.377 261.063 221.615C260.468 222.092 259.397 223.104 259.576 223.982L261.345 234.193L264.393 231.142C258.883 230.609 253.63 228.547 249.226 225.188C247.048 223.655 245.052 221.877 243.279 219.889L240.305 223.163C246.865 224.313 253.537 224.693 260.185 224.295C261.122 224.295 262.103 223.089 262.564 222.36C263.025 221.63 263.382 220.946 262.386 220.946Z" fill="#092857"/>
<path d="M256.156 189.954L262.222 201.371C262.686 202.109 263.037 202.911 263.263 203.753C263.255 203.897 263.255 204.041 263.263 204.185C263.397 204.646 265.553 202.696 264.453 202.845C263.962 202.919 263.471 203.053 262.966 203.143L256.602 204.453C255.592 204.78 254.743 205.476 254.223 206.403C253.955 206.834 253.509 208.01 254.49 207.802C257.092 207.266 259.739 206.819 262.312 206.194C264.616 205.628 267.219 203.217 266.46 200.672C266.068 199.631 265.57 198.633 264.973 197.695L262.981 193.944L259.159 186.754C258.728 185.935 255.338 188.63 256.007 189.91L256.156 189.954Z" fill="#092857"/>
<path d="M234 206.685C231.898 208.623 229.479 210.184 226.847 211.299C225.526 211.846 224.096 212.079 222.67 211.981C221.243 211.883 219.859 211.456 218.624 210.734C217.43 209.804 216.455 208.622 215.771 207.27C215.087 205.919 214.711 204.433 214.669 202.919C214.318 199.614 215.083 196.287 216.84 193.467C217.736 192.076 218.939 190.911 220.358 190.062C221.776 189.212 223.371 188.702 225.018 188.57C226.667 188.486 228.304 188.888 229.726 189.727C231.148 190.566 232.292 191.804 233.018 193.288" fill="white"/>
<path d="M233.837 205.673C231.235 207.846 228.44 210.034 224.916 210.273C223.328 210.409 221.738 210.037 220.375 209.21C219.012 208.383 217.947 207.145 217.332 205.673C215.072 200.478 216.053 191.726 222.611 190.416C224.326 190.084 226.103 190.318 227.674 191.083C229.245 191.848 230.526 193.102 231.324 194.658C231.919 195.908 235.191 193.006 234.7 191.934C233.888 190.246 232.567 188.857 230.923 187.962C229.28 187.067 227.396 186.712 225.54 186.947C223.419 187.312 221.403 188.136 219.633 189.363C217.863 190.589 216.383 192.188 215.295 194.048C211.548 200.106 211.578 212.863 220.901 213.637C226.031 214.068 230.432 210.809 234.165 207.683C234.685 207.251 235.934 206.12 235.651 205.316C235.369 204.512 234.165 205.39 233.793 205.658L233.837 205.673Z" fill="#092857"/>
<path d="M174.254 376.109L159.162 389.774C163.295 396.368 167.741 404.927 171.578 411.715C178.775 424.486 186.269 438.508 193.079 450.506L110.717 452.113L111.773 326.66C114.613 323.802 150.954 288.212 153.883 285.458" fill="white"/>
<path d="M173.63 375.484L158.538 389.149C158.077 389.581 157.155 390.638 157.571 391.352C163.593 400.983 168.842 411.149 174.344 421.123C180.069 431.468 185.66 441.873 191.503 452.129L194.477 448.869L154.226 449.658L126.197 450.193L116.487 450.387C115.064 450.223 113.627 450.223 112.204 450.387C112.665 450.268 112.204 450.997 112.442 450.387C112.521 449.894 112.521 449.391 112.442 448.898V442.944L112.621 421.405L113.111 363.025L113.32 338.569C113.32 334.371 113.662 330.084 113.424 325.902C113.424 325.708 113.424 325.515 113.424 325.336L112.353 327.301C124.249 315.393 136.382 303.678 148.456 291.933C150.449 289.983 152.426 288.019 154.404 286.098C154.776 285.756 155.891 284.461 155.356 283.91C154.82 283.359 153.497 284.565 153.17 284.878C142.568 294.866 132.353 305.211 121.944 315.407L114.509 322.776C113.29 323.981 110.494 325.991 110.048 327.747C109.981 328.386 109.981 329.029 110.048 329.668V334.416L109.721 374.606L109.23 424.725L109.067 443.614V449.762C108.978 450.856 108.978 451.957 109.067 453.051C109.074 453.19 109.074 453.329 109.067 453.468C109.076 453.552 109.114 453.63 109.173 453.689C109.233 453.749 109.311 453.786 109.394 453.796L137.245 453.26L181.615 452.396L191.756 452.203C192.827 452.203 195.399 450.193 194.73 448.928C188.886 438.657 183.295 428.253 177.571 417.922C172.069 407.994 166.82 397.827 160.813 388.152L159.846 390.34L174.939 376.675C175.31 376.333 176.426 375.038 175.905 374.472C175.385 373.907 174.047 375.142 173.705 375.44L173.63 375.484Z" fill="#092857"/>
<path d="M376.198 354.66C375.168 357.953 373.633 361.066 371.648 363.889C370.557 365.642 369.017 367.071 367.187 368.027C366.267 368.49 365.229 368.665 364.208 368.53C363.187 368.395 362.23 367.955 361.463 367.267C360.375 365.843 359.846 364.069 359.976 362.281C359.801 356.942 360.433 351.608 361.849 346.458" fill="#092857"/>
<path d="M374.518 355.717C373.548 358.893 372.039 361.879 370.057 364.544C369.398 365.567 368.405 366.33 367.246 366.702C366.572 366.891 365.862 366.918 365.175 366.78C364.487 366.643 363.842 366.346 363.291 365.913C362.306 364.827 361.774 363.405 361.804 361.939C361.663 360.066 361.663 358.185 361.804 356.312C362.029 352.622 362.637 348.965 363.618 345.401C363.886 344.434 362.592 344.895 362.206 345.133C361.295 345.667 360.609 346.513 360.273 347.515C359.342 350.876 358.749 354.322 358.503 357.8C358.369 359.542 358.325 361.284 358.355 363.025C358.306 364.521 358.548 366.013 359.068 367.416C359.656 368.585 360.66 369.492 361.881 369.957C363.103 370.423 364.455 370.414 365.67 369.932C368.658 368.726 371.181 366.592 372.867 363.844C375.05 360.736 376.736 357.306 377.863 353.677C378.176 352.695 376.822 353.171 376.376 353.409C375.471 353.95 374.786 354.793 374.443 355.791L374.518 355.717Z" fill="#092857"/>
<path d="M359.968 35.4598L323.464 35.9064L265.473 36.5911L252.179 36.7548C251.701 36.824 251.243 36.9921 250.833 37.2484C250.424 37.5047 250.072 37.8435 249.8 38.2434C249.651 38.4369 248.581 40.104 249.458 40.104L285.963 39.6575L343.954 38.9579L357.262 38.809C357.737 38.7378 358.193 38.5688 358.6 38.3126C359.007 38.0564 359.356 37.7186 359.626 37.3205C359.79 37.127 360.846 35.4449 359.968 35.4598V35.4598Z" fill="#092857"/>
<path d="M191.78 190L168.471 190.481L131.444 191.218L122.956 191.394C122.65 191.469 122.358 191.65 122.096 191.926C121.835 192.202 121.61 192.566 121.437 192.997C121.342 193.205 120.658 195 121.218 195L144.527 194.519L181.555 193.766L190.052 193.606C190.356 193.529 190.647 193.347 190.906 193.071C191.166 192.796 191.389 192.432 191.562 192.003C191.666 191.795 192.34 189.984 191.78 190V190Z" fill="#092857"/>
<path d="M400.189 35.0432L380.591 35.1772H377.78C377.302 35.2437 376.842 35.4107 376.432 35.6672C376.022 35.9237 375.671 36.264 375.401 36.6657C375.238 36.8592 374.182 38.5264 375.059 38.5264L394.657 38.3924H397.468C397.947 38.3259 398.406 38.1589 398.816 37.9024C399.226 37.6459 399.577 37.3056 399.847 36.9039C400.01 36.7104 401.066 35.0432 400.189 35.0432Z" fill="#092857"/>
<path d="M632.6 32.1853L611.679 32.4234L561.256 33.0189L500.44 33.7333L447.862 34.3436C439.371 34.4478 430.791 34.2246 422.301 34.6413H421.944C421.467 34.7089 421.011 34.8765 420.603 35.133C420.196 35.3895 419.847 35.7292 419.58 36.1299C419.416 36.3234 418.346 37.9905 419.223 37.9905L440.144 37.7375L490.582 37.157L551.398 36.4425L603.976 35.8322C612.467 35.728 621.032 35.9513 629.522 35.5345H629.835C630.31 35.4642 630.766 35.2955 631.173 35.0392C631.58 34.783 631.93 34.4447 632.199 34.0459C632.362 33.8375 633.418 32.1704 632.541 32.1853H632.6Z" fill="#092857"/>
<path d="M628.78 126.082H537.556L536.589 67.1359L629.464 64.9924L628.78 126.082Z" fill="#FFB321"/>
<path d="M630.148 124.4H542.418C541.357 124.258 540.282 124.258 539.221 124.4C538.582 124.623 539.221 124.042 539.221 124.727C539.244 124.46 539.244 124.191 539.221 123.923V118.981L538.924 100.434L538.567 79.342C538.567 75.055 538.567 70.6937 538.359 66.4067C538.359 66.1983 538.359 65.9899 538.359 65.7815L535.385 68.833L558.15 68.2972L601.658 67.2849L619.294 66.883L625.093 66.7491C626.057 66.8739 627.035 66.8488 627.992 66.6746C628.453 66.4662 627.858 66.6746 627.992 66.4216C627.955 66.7729 627.955 67.1271 627.992 67.4784V72.8371L627.769 92.2773L627.249 113.772C627.249 118.073 626.922 122.45 627.115 126.752C627.115 126.975 627.115 127.183 627.115 127.406C627.115 128.3 628.78 127.213 628.974 127.064C629.373 126.792 629.712 126.44 629.968 126.03C630.224 125.62 630.391 125.161 630.461 124.682L631.055 71.0955V63.6529C631.046 63.5694 631.008 63.4915 630.949 63.4321C630.889 63.3726 630.812 63.335 630.728 63.3254L599.279 64.0548L549.362 65.2159L537.853 65.4838C537.112 65.6135 536.428 65.969 535.896 66.5017C535.364 67.0345 535.009 67.7186 534.879 68.4609L535.727 120.187L535.846 127.406C535.855 127.49 535.893 127.568 535.952 127.627C536.012 127.687 536.09 127.724 536.173 127.734H627.397C627.875 127.665 628.334 127.497 628.743 127.24C629.153 126.984 629.505 126.645 629.777 126.245C629.97 126.052 631.026 124.4 630.148 124.4Z" fill="#FFB321"/>
<path d="M631.471 198.87L541.719 198.067L539.667 139.612L629.121 137.216L631.471 198.87Z" fill="#FFB321"/>
<path d="M632.81 197.129L610.848 196.92L569.213 196.548L552.054 196.4H546.433C545.447 196.252 544.445 196.252 543.459 196.4C542.865 196.623 543.459 196.027 543.459 196.697C543.459 196.4 543.459 196.087 543.459 195.804L543.281 190.803L542.627 172.3L541.898 151.58C541.764 147.382 541.898 143.095 541.467 138.898C541.467 138.689 541.467 138.481 541.467 138.273L538.493 141.25L561.139 140.639L603.651 139.508L620.439 139.061C622.892 139.061 625.465 139.136 627.874 138.853C627.353 138.853 627.799 138.273 627.606 138.853C627.542 139.347 627.542 139.848 627.606 140.342L627.829 146.296L628.572 165.781L629.375 187.022C629.539 191.16 629.494 195.358 629.851 199.481C629.851 199.689 629.851 199.912 629.851 200.121C629.851 201.014 631.472 199.957 631.71 199.778C632.112 199.513 632.453 199.165 632.709 198.756C632.966 198.348 633.132 197.89 633.197 197.412L631.1 143.542L630.818 135.846C630.808 135.763 630.771 135.685 630.711 135.625C630.652 135.566 630.574 135.528 630.491 135.519L600.335 136.323L552.069 137.588L541.021 137.886C540.278 138.011 539.592 138.365 539.059 138.899C538.526 139.432 538.172 140.119 538.047 140.863L539.831 192.053L540.084 199.317C540.098 199.399 540.137 199.474 540.196 199.533C540.254 199.591 540.329 199.63 540.411 199.645L570.879 199.912L619.011 200.344L630.178 200.448C630.655 200.38 631.111 200.212 631.518 199.955C631.926 199.699 632.275 199.36 632.543 198.96C632.647 198.826 633.702 197.129 632.81 197.129Z" fill="#FFB321"/>
<path d="M630.831 271.213L537.555 271.644L537.614 212.074L631.47 210.555L630.831 271.213Z" fill="#FFB321"/>
<path d="M632.199 269.531L609.702 269.635L566.58 269.828L548.737 269.918H542.789C541.676 269.806 540.556 269.806 539.443 269.918C539.22 269.918 538.804 269.769 539.116 270.081C539.428 270.394 539.265 269.813 539.28 269.531C539.413 267.938 539.28 266.286 539.28 264.678V224.443C539.28 220.112 539.547 215.705 539.28 211.389C539.28 211.165 539.28 210.942 539.28 210.719L536.306 213.77L559.056 213.398L602.579 212.684L620.586 212.386L626.534 212.297C627.6 212.439 628.68 212.439 629.746 212.297C630.385 212.074 629.746 212.714 629.746 211.984C629.731 212.257 629.731 212.53 629.746 212.803V217.923L629.537 237.125L629.314 258.739C629.314 263.13 628.987 267.596 629.166 271.972C629.166 272.195 629.166 272.418 629.166 272.627C629.166 273.535 630.816 272.448 631.024 272.284C631.423 272.015 631.761 271.665 632.017 271.258C632.273 270.85 632.441 270.394 632.511 269.918L633.061 216.792L633.136 209.245C633.126 209.162 633.089 209.084 633.029 209.024C632.97 208.965 632.892 208.927 632.809 208.918L601.047 209.439L550.491 210.258L538.952 210.451C538.211 210.581 537.528 210.936 536.995 211.469C536.463 212.002 536.108 212.686 535.979 213.428V265.616V273.058C535.988 273.142 536.026 273.22 536.085 273.279C536.144 273.339 536.222 273.376 536.306 273.386L567.784 273.237L618.014 272.999H629.582C630.059 272.932 630.516 272.765 630.924 272.508C631.331 272.252 631.68 271.912 631.946 271.51C632.006 271.183 633.076 269.531 632.199 269.531Z" fill="#FFB321"/>
<path d="M399.928 445.073L384.077 445.37L343.171 446.129L287.366 447.171L226.401 448.303L170.15 449.345L128.694 450.119L116.664 450.342C115.12 450.238 113.57 450.238 112.025 450.342C112.753 450.223 112.025 450.997 112.337 450.342C112.41 449.848 112.41 449.347 112.337 448.853V442.81L112.486 421.732L112.917 362.4L113.214 320.855V318.726C113.214 317.833 111.564 318.905 111.356 319.069C110.956 319.337 110.617 319.686 110.361 320.094C110.105 320.502 109.937 320.959 109.869 321.436L109.78 334.594L109.542 366.002L109.274 404.183L109.229 437.124L109.14 448.035V451.443C109.066 452.036 109.066 452.637 109.14 453.23C109.148 453.309 109.148 453.389 109.14 453.468C109.15 453.551 109.187 453.629 109.247 453.689C109.306 453.748 109.384 453.786 109.467 453.795L117.17 453.646L138.121 453.259L169.124 452.694L206.952 451.979L248.2 451.22L290.013 450.446L329.001 449.717L361.951 449.107L385.639 448.66C389.371 448.66 393.073 448.541 396.835 448.452H397.326C397.802 448.382 398.258 448.214 398.665 447.957C399.073 447.701 399.422 447.362 399.69 446.963C399.854 446.77 400.924 445.087 400.032 445.102L399.928 445.073Z" fill="#092857"/>
<path d="M408.071 148.575L361.827 121.856V175.294L408.071 148.575Z" fill="#FFB321"/>
<path d="M409.646 147.997L369.127 124.657L363.402 121.352C362.153 120.623 360.146 123.213 360.146 124.329V177.782C360.146 178.497 361.365 177.857 361.558 177.782L402.077 154.368L407.802 151.048C408.486 150.661 409.75 149.56 409.735 148.667C409.72 147.774 408.932 148.056 408.248 148.399L367.744 171.813L362.019 175.118H363.432V121.68L360.175 124.657L400.843 147.848L406.568 151.152C407.713 151.867 410.494 148.473 409.646 147.997Z" fill="#FFB321"/>
<path d="M251.881 279.891C264.088 279.742 276.296 279.891 288.504 279.816L343.521 279.742C348.398 279.742 353.276 279.742 358.153 279.742C358.631 279.673 359.089 279.505 359.499 279.248C359.909 278.992 360.26 278.653 360.532 278.253C360.696 278.06 361.751 276.378 360.874 276.393C348.666 276.542 336.443 276.393 324.236 276.467L269.218 276.542C264.326 276.542 259.449 276.542 254.572 276.542C254.095 276.609 253.638 276.777 253.231 277.033C252.824 277.29 252.475 277.63 252.208 278.03C252.044 278.224 250.973 279.891 251.866 279.891H251.881Z" fill="#092857"/>
<path d="M264.328 20.3817C264.108 18.9387 263.487 17.5869 262.535 16.4812C261.583 15.3755 260.339 14.5606 258.946 14.1299C258.101 13.8749 257.213 13.7949 256.336 13.8947C255.459 13.9945 254.612 14.2721 253.845 14.7105C252.108 15.767 250.662 17.2404 249.637 18.9974C248.759 20.3245 248.297 21.8847 248.313 23.4767C248.329 25.0687 248.821 26.6194 249.726 27.9286C250.637 29.1673 251.933 30.0687 253.41 30.4915C254.887 30.9144 256.463 30.8349 257.89 30.2656C261.652 28.777 264.878 24.5794 264.328 20.4413C264.209 19.5631 262.737 20.5604 262.47 20.7836C261.86 21.2897 260.834 22.2722 260.983 23.1504C261.072 23.7125 261.072 24.2852 260.983 24.8473C260.951 25.0583 260.907 25.2672 260.849 25.4725L260.715 25.8149C260.667 25.9318 260.612 26.0461 260.551 26.1572C260.626 26.0381 260.626 26.0381 260.551 26.1572C260.477 26.2763 260.388 26.4103 260.299 26.5442C260.209 26.6782 260.537 26.2465 260.299 26.5442C260.061 26.8419 260.299 26.5442 260.299 26.5442C260.299 26.5442 259.763 26.9908 260.195 26.6484L259.897 26.8866C260.195 26.6633 259.897 26.8866 259.897 26.8866C259.362 27.1843 260.046 26.8866 259.734 26.9759C259.566 27.0628 259.392 27.1375 259.213 27.1992C258.134 27.4748 256.998 27.4317 255.942 27.0751C254.887 26.7185 253.957 26.0637 253.265 25.1897C252.527 24.355 252.032 23.3329 251.835 22.2354C251.639 21.1378 251.748 20.0073 252.15 18.9676C252.15 18.8188 252.269 18.6848 252.344 18.536C252.418 18.3871 252.12 18.8635 252.433 18.3722L252.641 18.0448C252.433 18.3722 252.641 18.0448 252.715 17.9555C252.79 17.8661 253.102 17.5536 252.715 17.9555L252.983 17.6875C252.641 18.015 252.894 17.6875 252.983 17.6875C253.072 17.6875 253.176 17.5238 252.983 17.6875L253.221 17.5387C253.361 17.4868 253.505 17.447 253.652 17.4196C253.939 17.3905 254.228 17.3905 254.514 17.4196C255.12 17.4362 255.721 17.5364 256.299 17.7173C257.509 18.124 258.582 18.858 259.401 19.8379C260.22 20.8179 260.752 22.0056 260.938 23.2695C261.087 24.1477 262.514 23.1653 262.797 22.9271C263.406 22.2573 264.462 21.2749 264.328 20.3817Z" fill="#092857"/>
<path d="M306.633 20.3817C306.413 18.9387 305.791 17.5869 304.839 16.4812C303.887 15.3755 302.644 14.5606 301.25 14.1299C300.405 13.8749 299.517 13.7949 298.64 13.8947C297.764 13.9945 296.916 14.2721 296.15 14.7105C294.413 15.767 292.967 17.2404 291.942 18.9974C291.063 20.3245 290.602 21.8847 290.618 23.4767C290.634 25.0687 291.126 26.6194 292.031 27.9286C292.942 29.1673 294.237 30.0687 295.714 30.4915C297.192 30.9144 298.767 30.8349 300.195 30.2656C303.957 28.777 307.183 24.5794 306.633 20.4413C306.514 19.5631 305.042 20.5604 304.774 20.7836C304.165 21.2897 303.139 22.2722 303.287 23.1504C303.377 23.7125 303.377 24.2852 303.287 24.8473C303.256 25.0583 303.211 25.2672 303.154 25.4725L303.02 25.8149C302.971 25.9318 302.917 26.0461 302.856 26.1572C302.931 26.0381 302.931 26.0381 302.856 26.1572L302.603 26.5442C302.603 26.4698 302.841 26.2465 302.603 26.5442C302.365 26.8419 302.603 26.5442 302.603 26.5442C302.603 26.5442 302.068 26.9908 302.499 26.6484L302.202 26.8866C302.499 26.6633 302.202 26.8866 302.202 26.8866C301.667 27.1843 302.351 26.8866 302.038 26.9759C301.87 27.0628 301.697 27.1375 301.518 27.1992C300.439 27.4748 299.303 27.4317 298.247 27.0751C297.192 26.7185 296.262 26.0637 295.57 25.1897C294.826 24.3582 294.327 23.3367 294.127 22.2384C293.928 21.1402 294.036 20.0081 294.44 18.9676L294.648 18.536C294.797 18.2234 294.425 18.8635 294.737 18.3722L294.946 18.0448C294.737 18.3722 294.946 18.0448 295.02 17.9555C295.094 17.8661 295.407 17.5536 295.02 17.9555L295.288 17.6875C294.946 18.015 295.198 17.6875 295.288 17.6875C295.377 17.6875 295.496 17.5238 295.288 17.6875L295.526 17.5387C295.665 17.4844 295.809 17.4445 295.957 17.4196C296.243 17.3905 296.532 17.3905 296.819 17.4196C297.425 17.4362 298.025 17.5364 298.603 17.7173C299.813 18.124 300.887 18.858 301.706 19.8379C302.525 20.8179 303.057 22.0056 303.243 23.2695C303.377 24.1477 304.819 23.1653 305.101 22.9271C305.681 22.2573 306.767 21.2749 306.633 20.3817Z" fill="#092857"/>
<path d="M285.59 20.3812C285.37 18.9382 284.749 17.5864 283.797 16.4807C282.845 15.375 281.601 14.5601 280.207 14.1294C279.365 13.8748 278.479 13.7949 277.605 13.8947C276.731 13.9945 275.886 14.2719 275.122 14.7099C273.385 15.7665 271.939 17.2399 270.914 18.9969C270.033 20.3225 269.57 21.8819 269.583 23.4739C269.596 25.0659 270.086 26.6174 270.988 27.9281C271.902 29.168 273.2 30.0699 274.679 30.4928C276.159 30.9156 277.737 30.8355 279.167 30.265C282.929 28.7765 286.155 24.5789 285.59 20.4408C285.471 19.5625 283.999 20.5599 283.732 20.7831C283.137 21.2892 282.111 22.2717 282.245 23.1499C282.334 23.712 282.334 24.2847 282.245 24.8468C282.245 25.0403 282.141 25.338 282.096 25.472C282.058 25.5885 282.013 25.7029 281.962 25.8144C281.919 25.9311 281.869 26.0454 281.813 26.1567V26.1567L281.576 26.5437C281.576 26.4693 281.799 26.246 281.576 26.5437C281.352 26.8414 281.576 26.5437 281.576 26.5437C281.576 26.5437 281.04 26.9903 281.471 26.6479L281.174 26.8861C281.486 26.6628 281.174 26.8861 281.174 26.8861C280.654 27.1838 281.338 26.8861 281.01 26.9754C280.844 27.065 280.67 27.1397 280.49 27.1987C279.411 27.4743 278.275 27.4312 277.219 27.0746C276.164 26.718 275.234 26.0632 274.542 25.1892C273.804 24.3545 273.309 23.3324 273.112 22.2348C272.916 21.1373 273.024 20.0068 273.427 18.9671C273.427 18.8183 273.546 18.6843 273.62 18.5355C273.695 18.3866 273.397 18.8629 273.724 18.3717L273.918 18.0442C273.71 18.3717 273.918 18.0443 274.007 17.9549C274.096 17.8656 274.379 17.553 274.007 17.9549L274.289 17.687C273.933 18.0145 274.2 17.687 274.289 17.687C274.379 17.687 274.483 17.5233 274.289 17.687L274.527 17.5382C274.672 17.4849 274.821 17.4451 274.973 17.4191C275.26 17.389 275.549 17.389 275.836 17.4191C276.437 17.4357 277.032 17.5359 277.605 17.7168C278.817 18.1227 279.893 18.8561 280.714 19.8359C281.536 20.8158 282.071 22.0039 282.259 23.269C282.393 24.1472 283.836 23.1648 284.118 22.9266C284.668 22.2568 285.739 21.2743 285.59 20.3812Z" fill="#092857"/>
<path d="M556.802 177.004C549.204 171.854 537.992 173.566 527.42 177.615C516.848 181.663 491.317 208.338 479.719 225.247C469.756 239.329 423.571 307.548 423.571 307.548L384.539 281.677L353.09 342.231C353.09 342.231 404.137 370.632 416.107 375.678C428.077 380.724 441.95 378.193 455.808 359.304C469.667 340.415 498.662 288.644 511.331 267.819L548.728 211.151C548.728 211.151 548.639 216.376 550.958 217.105C553.278 217.835 557.769 217.641 561.01 206.432C564.252 195.224 564.445 182.14 556.802 177.004Z" fill="white"/>
<path d="M558.422 175.426C549.501 169.606 537.679 172.449 528.46 175.947C522.438 178.269 517.234 183.018 512.505 187.26C499.605 198.824 488.048 211.806 478.053 225.962C471.912 234.714 465.919 243.556 459.897 252.368C451.967 264.028 444.036 275.683 436.106 287.334C433.132 291.769 430.123 296.21 427.08 300.656C425.593 302.904 423.853 305.121 422.485 307.444C422.411 307.539 422.341 307.639 422.277 307.741L425.177 305.896L390.977 283.27L386.085 280.04C384.999 279.31 383.364 281.528 382.962 282.288L372.42 302.814L355.468 335.413L351.528 342.975C351.454 343.109 351.246 343.734 351.528 343.883C366.398 352.129 381.267 360.257 396.285 368.19C400.419 370.378 404.582 372.537 408.79 374.621C412.267 376.533 415.955 378.032 419.779 379.086C433.92 382.272 446.262 372.82 454.648 362.4C462.083 353.186 468.135 342.737 474.261 332.629C481.696 320.483 488.818 308.218 495.985 295.937C501.502 286.47 506.81 276.81 512.699 267.566C515.583 263.1 518.646 258.635 521.62 254.169L549.367 211.761L549.976 210.868L547.003 212.491C547.003 214.798 547.345 218.266 549.976 218.936C551.17 219.11 552.388 218.991 553.525 218.589C554.662 218.187 555.685 217.514 556.504 216.629C560.088 213.384 561.783 208.591 562.972 204.036C564.388 199.025 564.961 193.814 564.668 188.615C564.311 183.613 562.66 178.418 558.407 175.426C557.307 174.637 554.378 177.957 555.255 178.582C564.177 184.864 561.783 199.332 559.062 208.174C558.303 210.63 557.039 215.616 553.709 215.691C550.735 215.691 550.318 212.148 550.348 209.737C550.348 208.412 547.493 211.106 547.374 211.359L523.211 247.962L511.137 266.256C506.989 272.538 503.331 279.162 499.539 285.607C486.335 308.173 473.547 331.111 459.035 352.859C452.031 363.368 443.109 375.306 429.4 376.139C420.552 376.675 412.434 371.673 404.865 367.759C388.3 359.2 371.974 350.209 355.677 341.159L354.636 340.578V341.486L365.253 321.078L382.219 288.48L386.144 280.918L383.022 283.181L417.222 305.806L422.114 309.036C423.08 309.691 424.582 307.846 425.013 307.205C428.552 301.966 432.096 296.736 435.645 291.516C443.149 280.452 450.663 269.397 458.187 258.352C464.804 248.617 471.421 238.897 478.127 229.222C486.391 217.283 495.712 206.114 505.978 195.849C511.094 190.436 516.744 185.554 522.84 181.276C525.844 179.419 529.12 178.043 532.549 177.198C537.672 175.547 543.099 175.069 548.43 175.798C550.895 176.222 553.247 177.144 555.344 178.507C556.43 179.267 559.3 175.992 558.422 175.426Z" fill="#092857"/>
<path d="M511.509 197.59C516.802 195.348 522.15 193.224 527.553 191.219C530.888 189.902 534.306 188.803 537.783 187.93C539.939 187.439 541.456 187.334 541.486 190.103C541.486 195.194 536.564 198.736 532.415 200.523C531.434 200.954 529.977 202.235 530.051 203.5C530.047 205.652 529.537 207.773 528.564 209.692C526.096 214.827 520.401 217.001 515.182 218.072C514.17 218.388 513.318 219.081 512.802 220.008C512.535 220.454 512.074 221.63 513.07 221.422C520.312 219.933 527.27 216.256 531.018 209.647C532.649 206.959 533.48 203.861 533.412 200.716L531.047 203.693C536.415 201.356 541.634 197.308 543.924 191.785C544.683 189.954 545.991 184.774 542.794 184.342C541.538 184.29 540.282 184.472 539.092 184.878C537.188 185.37 535.315 185.98 533.456 186.62C529.129 188.108 524.862 189.731 520.624 191.413C518.022 192.455 515.434 193.512 512.847 194.613C511.857 195.061 511.064 195.855 510.617 196.846C510.319 197.62 510.617 198.067 511.494 197.709L511.509 197.59Z" fill="#092857"/>
<path d="M532.283 189.523C531.994 190.663 532.139 191.869 532.688 192.909C533.238 193.948 534.153 194.747 535.257 195.149C538.231 196.102 541.576 193.661 542.929 191.175C543.159 190.859 543.284 190.479 543.286 190.088C543.212 189.791 542.929 189.716 542.647 189.776C542.195 189.895 541.777 190.119 541.428 190.431C540.966 190.783 540.573 191.217 540.268 191.711C540.222 191.842 540.151 191.964 540.059 192.068L540.253 191.8L540.119 191.964C540.506 191.398 540.357 191.666 540.238 191.815C540.714 191.234 540.491 191.666 540.238 191.815L540.506 191.622L540.327 191.726C540.03 191.934 540.684 191.577 540.327 191.726L539.941 191.889C539.658 192.009 540.238 191.815 539.941 191.889C539.726 191.95 539.507 191.995 539.286 192.023C539.286 192.023 538.87 192.023 539.123 192.023H538.959C538.479 191.99 538.009 191.863 537.576 191.651L537.784 191.756C536.949 191.332 536.278 190.64 535.881 189.791L535.985 190.014C535.78 189.592 535.645 189.14 535.584 188.674V188.317C535.584 188.317 535.584 187.96 535.584 188.213C535.6 187.966 535.64 187.722 535.703 187.483C535.723 187.421 535.731 187.355 535.726 187.289C535.72 187.224 535.702 187.16 535.671 187.101C535.641 187.043 535.599 186.992 535.548 186.95C535.497 186.908 535.439 186.877 535.376 186.858C534.983 186.848 534.6 186.974 534.29 187.215C533.375 187.744 532.687 188.592 532.357 189.597L532.283 189.523Z" fill="#092857"/>
<path d="M551.077 195.06C550.157 200.019 548.965 204.924 547.508 209.752C547.211 210.734 548.534 210.258 548.906 210.035C549.811 209.494 550.496 208.651 550.839 207.653C552.306 202.826 553.503 197.922 554.423 192.961C554.601 191.979 553.456 192.396 553.01 192.678C552.089 193.2 551.398 194.05 551.077 195.06V195.06Z" fill="#092857"/>
<path d="M541.323 201.074C540.681 202.925 540.316 204.861 540.238 206.819C540.067 208.576 540.391 210.345 541.175 211.925C541.508 212.373 541.948 212.732 542.454 212.968C542.96 213.205 543.517 213.312 544.074 213.28C545.404 213.428 546.747 213.152 547.911 212.491C548.837 211.971 549.533 211.12 549.859 210.109C550.007 209.141 548.892 209.543 548.446 209.826C548 210.109 548.862 209.648 548.58 209.826C548.297 210.005 548.907 209.752 548.58 209.826L547.926 209.945C547.457 210.004 546.982 210.004 546.513 209.945C546.051 209.906 545.596 209.806 545.16 209.648C544.952 209.558 545.16 209.648 545.041 209.648C544.966 209.607 544.896 209.557 544.833 209.499C544.612 209.284 544.431 209.032 544.297 208.754C543.737 207.389 543.517 205.907 543.658 204.438C543.689 202.876 543.965 201.329 544.476 199.853C544.55 199.615 544.729 199.183 544.476 198.945C544.223 198.707 543.807 198.871 543.584 198.945C542.593 199.393 541.8 200.187 541.353 201.178L541.323 201.074Z" fill="#092857"/>
<path d="M216.588 261.478C208.083 263.369 201.585 265.453 193.08 267.343C185.53 268.804 178.114 270.89 170.909 273.58C160.114 277.941 153.497 285.176 145.066 293.184C138.836 299.138 132.709 305.092 126.628 311.24C125.022 312.847 123.416 314.47 121.81 316.107L119.342 318.608C119.342 318.608 162.389 359.483 176.649 376.318C178.552 378.566 182.805 384.743 178.731 389.283L188.857 374.576L197.778 434.817C197.778 434.817 226.462 423.415 240.008 421.733C262.847 418.89 292.155 419.515 312.645 413.204C327.456 408.579 341.876 402.78 355.767 395.862C355.767 395.862 340.169 356.744 340.005 357.161C339.842 357.577 362.756 368.756 362.756 368.756C362.044 368.129 361.488 367.346 361.129 366.468C360.771 365.59 360.62 364.641 360.689 363.695C360.391 357.354 362.369 351.132 364.525 345.148C371.812 325.043 381.45 305.871 393.238 288.034C377.432 275.53 364.228 265.497 347.514 254.229C341.832 250.307 335.556 247.326 328.927 245.402C319.589 242.812 309.389 243.348 298.817 244.911C289.226 246.399 279.144 248.23 269.494 250.672C269.494 250.672 270.014 270.781 257.078 273.163C229.673 278.209 216.588 261.478 216.588 261.478Z" fill="#0A7AF9"/>
<path d="M217.643 259.811C209.763 261.582 202.016 263.904 194.135 265.675C186.254 267.447 177.986 269.218 170.418 272.508C164.082 275.451 158.27 279.413 153.214 284.237C147.415 289.507 141.809 295.044 136.188 300.611C130.315 306.357 124.501 312.192 118.731 318.057C118.389 318.399 117.244 319.709 117.765 320.26C123.891 326.075 129.978 331.94 136.025 337.854C146.805 348.378 157.571 358.961 167.86 369.976C170.091 372.358 172.321 374.755 174.418 377.226C176.886 380.084 180.752 385.517 177.719 389.134L180.068 389.044L190.194 374.338L187.22 375.96L195.101 428.773L196.202 436.216C196.202 436.722 196.915 436.528 197.213 436.409C203.354 433.968 209.569 431.721 215.829 429.622C220.885 427.91 225.985 426.317 231.16 425.022C236.245 423.827 241.415 423.03 246.624 422.64C260.854 421.331 275.144 420.914 289.344 419.247C296.011 418.549 302.616 417.355 309.106 415.674C316.164 413.684 323.112 411.324 329.923 408.604C338.57 405.351 347.033 401.629 355.275 397.455C355.974 397.097 358.056 395.594 357.64 394.552C353.105 383.195 348.599 371.822 343.915 360.524C343.439 359.393 342.963 358.247 342.428 357.116C342.294 356.833 342.027 355.835 341.744 355.627C340.986 355.24 340.034 356.103 339.544 356.58C337.358 358.708 339.187 359.259 341.03 360.212C343.648 361.611 346.309 362.936 348.956 364.261C353.169 366.354 357.387 368.428 361.61 370.483C362.547 370.944 365.416 367.907 364.584 367.223C362.621 365.734 362.547 362.995 362.591 360.688C362.707 357.733 363.161 354.802 363.944 351.95C365.524 346.377 367.45 340.908 369.714 335.577C373.99 324.846 378.957 314.404 384.583 304.318C387.736 298.661 391.111 293.139 394.665 287.72C394.828 287.467 395.274 286.693 394.918 286.411C380.97 275.366 366.814 264.619 352.108 254.586C345.001 249.733 337.551 245.402 329.105 243.333C320.302 241.174 311.039 241.695 302.132 242.886C291.535 244.322 281.026 246.345 270.653 248.944C269.478 249.242 267.887 250.671 267.917 251.921C267.943 254.697 267.639 257.465 267.01 260.168C266.073 264.455 264.304 269.456 259.754 270.989C255.927 272.07 251.949 272.518 247.977 272.314C244.516 272.285 241.069 271.866 237.702 271.064C232.616 269.867 227.815 267.677 223.576 264.619C221.596 263.261 219.81 261.638 218.268 259.796C217.584 258.918 214.298 261.909 215.116 262.966C219.904 269.04 228.111 272.865 235.427 274.547C239.192 275.399 243.048 275.779 246.907 275.678C250.94 275.789 254.963 275.21 258.802 273.967C264.423 271.763 267.991 266.256 269.716 260.689C270.858 256.968 271.4 253.089 271.322 249.197L268.586 252.175C277.582 249.927 286.697 248.155 295.857 246.741C305.017 245.327 314.117 244.36 323.202 245.908C331.975 247.396 339.945 251.49 347.261 256.432C354.577 261.374 361.536 266.33 368.509 271.496C376.375 277.345 384.122 283.404 391.81 289.447L392.063 288.137C385.429 298.237 379.469 308.764 374.219 319.649C368.79 330.323 364.312 341.456 360.837 352.918C359.913 356.062 359.368 359.305 359.216 362.578C359.127 365.228 359.127 368.443 361.402 370.23L364.376 366.97C360.628 365.139 356.941 363.308 353.164 361.447C350.606 360.177 348.064 358.892 345.536 357.592C344.659 357.13 343.796 356.684 342.949 356.208C342.713 356.044 342.464 355.9 342.205 355.776C341.938 355.672 341.923 355.374 341.967 355.701L340.897 357.666L338.696 358.634C338.845 358.708 338.978 359.185 339.157 359.572C339.573 360.524 339.975 361.507 340.376 362.474C341.655 365.526 342.889 368.592 344.138 371.644C346.934 378.521 349.704 385.407 352.45 392.304C353.09 393.897 353.714 395.475 354.354 397.053L356.718 394.15C350.041 397.589 343.097 400.581 336.138 403.409C322.949 408.753 309.626 413.263 295.5 415.198C281.374 417.133 266.847 417.758 252.602 418.919C246.899 419.231 241.224 419.942 235.621 421.048C230.61 422.164 225.688 423.653 220.751 425.245C213.227 427.687 205.763 430.351 198.447 433.269L199.458 433.462L191.577 380.649L190.477 373.207C190.269 371.837 187.666 374.531 187.503 374.829L177.377 389.536C177.005 390.072 176.767 390.771 177.496 390.95C178.224 391.128 179.354 389.893 179.711 389.461C185.377 382.629 179.206 375.767 174.522 370.587C169.838 365.407 164.708 360.167 159.652 355.017C149.244 344.478 138.686 334.177 128.025 323.892L120.858 317.03L119.891 319.233C130.092 308.892 140.441 298.716 150.939 288.703C155.831 284.044 160.946 279.534 167.042 276.542C174.224 273.014 182.165 271.228 189.927 269.486C198.491 267.566 206.922 265.02 215.487 263.175C216.491 262.844 217.338 262.156 217.866 261.24C218.179 260.793 218.64 259.647 217.643 259.811Z" fill="#0A7AF9"/>
<path d="M197.584 351.935C197.584 351.801 197.718 351.578 197.584 351.935L197.361 352.486L196.736 353.975C196.112 355.463 195.487 356.788 194.848 358.202C193.465 361.268 192.053 364.32 190.699 367.401C190.248 368.341 189.86 369.311 189.54 370.304C189.257 371.286 190.566 370.81 190.952 370.587C191.857 370.046 192.542 369.203 192.885 368.205C192.885 368.324 192.751 368.562 192.885 368.205L193.108 367.654L193.733 366.166L195.621 361.923C197.004 358.857 198.417 355.806 199.77 352.724C200.219 351.788 200.606 350.823 200.93 349.837C201.212 348.854 199.904 349.316 199.532 349.554C198.621 350.091 197.931 350.936 197.584 351.935V351.935Z" fill="#092857"/>
<path d="M326.459 325.455C328.882 333.716 331.752 341.829 334.577 350.015C334.954 351.263 335.396 352.49 335.901 353.692C336.495 354.942 339.782 352.04 339.276 350.968C338.062 348.052 337.009 345.07 336.124 342.037C334.518 337.284 332.942 332.525 331.395 327.762C330.86 326.11 330.31 324.472 329.819 322.805C329.477 321.599 326.102 324.294 326.459 325.514V325.455Z" fill="#092857"/>
<path d="M144.575 170.44C144.355 168.997 143.733 167.645 142.781 166.539C141.829 165.434 140.585 164.619 139.192 164.188C138.347 163.933 137.459 163.853 136.582 163.953C135.705 164.052 134.858 164.33 134.092 164.768C132.358 165.829 130.913 167.301 129.884 169.055C129.005 170.382 128.544 171.943 128.56 173.535C128.576 175.127 129.068 176.677 129.973 177.987C130.884 179.225 132.179 180.127 133.656 180.55C135.134 180.972 136.709 180.893 138.136 180.324C141.913 178.835 145.125 174.637 144.575 170.499C144.456 169.621 142.984 170.618 142.716 170.842C142.107 171.348 141.081 172.33 141.229 173.223C141.318 173.78 141.318 174.348 141.229 174.905C141.229 175.099 141.125 175.397 141.081 175.53C141.042 175.647 140.998 175.761 140.947 175.873C140.947 175.992 140.843 176.096 140.798 176.215C140.722 176.35 140.638 176.479 140.545 176.602C140.545 176.528 140.783 176.305 140.545 176.602C140.307 176.9 140.545 176.602 140.545 176.602C140.545 176.602 140.01 177.049 140.441 176.706L140.144 176.945C140.456 176.721 140.144 176.945 140.144 176.945C139.623 177.242 140.307 176.945 139.98 177.034C139.814 177.123 139.639 177.198 139.46 177.257C138.38 177.535 137.244 177.493 136.188 177.136C135.132 176.779 134.203 176.123 133.512 175.248C132.773 174.413 132.279 173.391 132.082 172.293C131.885 171.196 131.994 170.065 132.397 169.026C132.397 168.877 132.516 168.743 132.59 168.594C132.664 168.445 132.367 168.921 132.679 168.43L132.887 168.103C132.679 168.43 132.887 168.103 132.962 168.013C133.036 167.924 133.348 167.612 132.962 168.013L133.229 167.746C132.887 168.073 133.14 167.746 133.229 167.746C133.319 167.746 133.423 167.582 133.229 167.746L133.467 167.597C133.612 167.543 133.761 167.504 133.913 167.478C134.2 167.447 134.489 167.447 134.776 167.478C135.377 167.496 135.972 167.596 136.545 167.775C137.757 168.183 138.832 168.919 139.651 169.902C140.47 170.885 141.001 172.076 141.185 173.342C141.333 174.206 142.761 173.223 143.043 172.985C143.653 172.315 144.724 171.333 144.575 170.44Z" fill="#092857"/>
<path d="M165.837 170.44C165.617 168.997 164.995 167.645 164.043 166.539C163.091 165.433 161.847 164.619 160.454 164.188C159.612 163.933 158.726 163.853 157.852 163.953C156.977 164.053 156.132 164.33 155.369 164.768C153.635 165.829 152.189 167.301 151.161 169.055C150.28 170.381 149.816 171.94 149.829 173.532C149.843 175.124 150.332 176.676 151.235 177.987C152.148 179.226 153.446 180.128 154.926 180.551C156.406 180.974 157.984 180.894 159.413 180.323C163.175 178.835 166.402 174.637 165.837 170.499C165.733 169.621 164.261 170.618 163.978 170.842C163.383 171.348 162.357 172.33 162.491 173.223C162.58 173.78 162.58 174.348 162.491 174.905C162.456 175.117 162.406 175.326 162.343 175.53C162.311 175.649 162.266 175.764 162.209 175.873C162.165 175.99 162.116 176.104 162.06 176.215C162.06 176.096 162.134 176.096 162.06 176.215C161.99 176.349 161.91 176.479 161.822 176.602C161.822 176.528 162.045 176.304 161.822 176.602C161.599 176.9 161.822 176.602 161.822 176.602C161.822 176.602 161.302 177.049 161.718 176.706C161.626 176.794 161.526 176.873 161.421 176.945C161.733 176.721 161.421 176.945 161.421 176.945C160.885 177.242 161.569 176.945 161.242 177.034C161.076 177.123 160.901 177.198 160.722 177.257C159.642 177.535 158.506 177.492 157.45 177.136C156.394 176.779 155.465 176.123 154.774 175.248C154.035 174.413 153.541 173.391 153.344 172.293C153.147 171.196 153.256 170.065 153.659 169.026C153.659 168.877 153.793 168.743 153.852 168.594C153.912 168.445 153.629 168.921 153.956 168.43L154.149 168.103C153.941 168.43 154.149 168.103 154.239 168.013C154.328 167.924 154.61 167.611 154.239 168.013L154.506 167.745C154.164 168.073 154.417 167.745 154.506 167.745C154.596 167.745 154.714 167.582 154.506 167.745L154.744 167.597C154.883 167.54 155.027 167.5 155.175 167.478C155.462 167.447 155.751 167.447 156.038 167.478C156.643 167.494 157.244 167.594 157.822 167.775C159.033 168.185 160.107 168.921 160.926 169.904C161.745 170.886 162.276 172.076 162.461 173.342C162.595 174.206 164.038 173.223 164.32 172.985C164.93 172.315 165.986 171.333 165.837 170.44Z" fill="#092857"/>
<path d="M186.879 170.44C186.659 168.997 186.037 167.645 185.085 166.539C184.133 165.434 182.89 164.619 181.496 164.188C180.651 163.933 179.763 163.853 178.887 163.953C178.01 164.052 177.162 164.33 176.396 164.768C174.662 165.829 173.217 167.301 172.188 169.055C171.309 170.382 170.848 171.943 170.864 173.535C170.88 175.127 171.372 176.677 172.277 177.987C173.188 179.225 174.483 180.127 175.961 180.55C177.438 180.972 179.013 180.893 180.441 180.324C184.203 178.835 187.429 174.637 186.879 170.499C186.76 169.621 185.288 170.618 185.02 170.842C184.411 171.348 183.385 172.33 183.533 173.223C183.63 173.78 183.63 174.349 183.533 174.905C183.502 175.116 183.457 175.325 183.4 175.53L183.266 175.873C183.266 175.992 183.162 176.096 183.117 176.215C183.042 176.35 182.957 176.479 182.864 176.602C182.864 176.528 183.102 176.305 182.864 176.602C182.626 176.9 182.864 176.602 182.864 176.602C182.864 176.602 182.329 177.049 182.76 176.706L182.463 176.945C182.775 176.721 182.463 176.945 182.463 176.945C181.942 177.242 182.626 176.945 182.299 177.034C182.131 177.121 181.957 177.195 181.779 177.257C180.7 177.535 179.563 177.493 178.507 177.136C177.451 176.779 176.522 176.123 175.831 175.248C175.092 174.413 174.598 173.391 174.401 172.293C174.204 171.196 174.313 170.065 174.716 169.026C174.716 168.877 174.835 168.743 174.909 168.594C174.983 168.445 174.686 168.921 174.998 168.43L175.207 168.103C174.998 168.43 175.207 168.103 175.207 168.013C175.207 167.924 175.593 167.612 175.207 168.013L175.474 167.746C175.132 168.073 175.385 167.746 175.474 167.746C175.563 167.746 175.668 167.582 175.474 167.746L175.712 167.597C175.852 167.545 175.996 167.505 176.143 167.478C176.43 167.448 176.719 167.448 177.006 167.478C177.611 167.494 178.212 167.594 178.79 167.775C180.006 168.146 181.096 168.845 181.941 169.796C182.785 170.747 183.352 171.912 183.578 173.164C183.727 174.027 185.154 173.045 185.437 172.806C185.957 172.315 187.013 171.333 186.879 170.44Z" fill="#092857"/>
<path d="M573.759 142.748L547.098 145.472C546.593 145.62 546.123 145.868 545.714 146.2C545.306 146.532 544.967 146.943 544.719 147.407C544.421 147.928 544.035 148.895 545.001 148.821L571.662 146.097C572.68 145.785 573.534 145.084 574.041 144.147C574.354 143.641 574.74 142.659 573.759 142.748Z" fill="#092857"/>
<path d="M577.463 135.245L555.962 128.086C554.787 127.698 552.006 131.063 553.24 131.45L574.757 138.639C575.931 139.026 578.712 135.662 577.463 135.26V135.245Z" fill="#092857"/>
<path d="M591.82 146.862C590.943 145.932 589.732 145.389 588.455 145.353C587.178 145.317 585.939 145.79 585.01 146.668L542.662 186.784C544.357 189.627 541.903 197.799 531.747 202.071C531.769 203.071 531.674 204.07 531.465 205.048C532.373 205.748 533.5 206.101 534.645 206.044C535.79 205.986 536.876 205.523 537.71 204.735L591.642 153.649C592.559 152.77 593.093 151.563 593.126 150.292C593.16 149.021 592.69 147.788 591.82 146.862V146.862Z" fill="#092857"/>
<path d="M593.516 145.492C593.516 144.986 592.341 144.42 591.955 144.227C591.034 143.769 590.003 143.583 588.981 143.691C587.224 143.958 585.601 144.788 584.356 146.058C583.821 146.549 583.301 147.055 582.78 147.546L573.546 156.284L548.268 180.264L542.053 186.144C541.562 186.62 540.7 187.632 541.086 188.347C542.023 190.058 541.22 192.485 540.373 194.063C538.512 197.038 535.712 199.306 532.417 200.508C531.421 200.94 530.008 202.22 530.053 203.485C530.065 204.389 529.98 205.293 529.8 206.179C529.769 206.266 529.761 206.36 529.776 206.451C529.792 206.543 529.831 206.628 529.889 206.7C534.663 209.975 538.722 205.048 541.949 201.996L555.762 188.897L587.643 158.71C591.107 155.42 597.813 150.508 593.397 145.313C592.654 144.42 589.397 147.472 590.245 148.469C590.624 148.821 590.925 149.249 591.127 149.726C591.328 150.203 591.427 150.717 591.416 151.235C591.405 151.752 591.284 152.262 591.061 152.729C590.839 153.197 590.52 153.612 590.126 153.947L586.408 157.46L572.684 170.469L542.023 199.511L537.845 203.47C537.619 203.726 537.37 203.96 537.101 204.17C536.579 204.379 536.017 204.472 535.455 204.444C534.893 204.415 534.344 204.266 533.845 204.006C532.863 203.381 533.473 201.833 533.428 200.746L531.064 203.723C535.929 201.757 540.057 198.316 542.871 193.884C544.358 191.473 545.711 187.93 544.239 185.295L543.287 187.483L581.591 151.193L584.922 148.037C585.117 147.811 585.337 147.607 585.576 147.427C585.922 147.281 586.288 147.186 586.661 147.144C587.217 147.095 587.777 147.151 588.312 147.308C588.565 147.397 590.141 148.022 590.141 148.305C590.141 149.198 591.791 148.127 591.999 147.963C592.416 147.686 592.768 147.321 593.029 146.895C593.291 146.468 593.457 145.989 593.516 145.492Z" fill="#092857"/>
<path d="M560.445 210.645C560.17 209.651 559.642 208.745 558.912 208.017C558.182 207.289 557.276 206.764 556.282 206.492C554.987 206.272 553.658 206.383 552.418 206.815C551.178 207.247 550.068 207.986 549.189 208.963C548.799 209.329 548.486 209.769 548.267 210.258C548.163 210.481 548.014 210.928 548.267 211.151C548.817 211.716 550.141 210.496 550.453 210.183C550.765 209.871 550.141 210.436 550.364 210.273L550.483 210.183C550.602 210.079 550.483 210.183 550.319 210.302C550.397 210.258 550.471 210.208 550.542 210.153C550.899 209.915 550.319 210.243 550.542 210.153L550.854 210.02L551.063 209.93C550.884 209.93 551.271 209.93 551.271 209.93L551.538 209.856C552.353 209.701 553.194 209.763 553.977 210.034C554.728 210.316 555.403 210.77 555.948 211.359C556.492 211.948 556.892 212.657 557.114 213.428C557.338 214.262 558.601 213.428 558.973 213.086C559.423 212.726 559.81 212.293 560.118 211.806C560.297 211.508 560.579 211.061 560.475 210.704L560.445 210.645Z" fill="#092857"/>
<path d="M551.166 206.284C551.282 205.471 551.223 204.644 550.995 203.856C550.767 203.068 550.374 202.338 549.843 201.714C549.299 201.079 548.588 200.609 547.791 200.359C547.234 200.23 546.656 200.23 546.099 200.359C545.542 200.488 545.022 200.742 544.579 201.103C543.787 201.655 543.123 202.371 542.631 203.202C542.238 203.789 542.06 204.494 542.126 205.197C542.126 205.524 542.512 205.554 542.765 205.509C543.22 205.398 543.64 205.172 543.984 204.855C544.438 204.494 544.83 204.062 545.144 203.574C545.378 203.261 545.503 202.879 545.501 202.488C545.486 202.384 545.486 202.279 545.501 202.175V202.473V202.25C545.501 201.967 545.367 202.577 545.501 202.324C545.338 202.607 545.293 202.696 545.382 202.562C545.471 202.428 545.382 202.562 545.174 202.845C545.263 202.726 545.233 202.756 545.085 202.934C544.945 203.107 544.785 203.261 544.609 203.396C544.862 203.187 544.133 203.679 544.445 203.515L544.163 203.664H544.312C544.237 203.664 543.955 203.753 544.207 203.664C544.316 203.649 544.426 203.649 544.535 203.664H544.222C544.696 203.648 545.166 203.751 545.59 203.961L545.367 203.857C546.293 204.348 547.034 205.126 547.479 206.075L547.375 205.867C547.735 206.629 547.908 207.466 547.88 208.308V207.995V208.442C547.88 208.71 547.88 208.993 548.192 209.067C548.589 209.072 548.975 208.947 549.293 208.71C549.776 208.397 550.208 208.01 550.572 207.564C550.885 207.21 551.109 206.786 551.226 206.328L551.166 206.284Z" fill="#092857"/>
<defs>
<filter id="filter0_f_3946_996" x="0" y="76" width="649.896" height="567.218" filterUnits="userSpaceOnUse" color-interpolation-filters="sRGB">
<feFlood flood-opacity="0" result="BackgroundImageFix"/>
<feBlend mode="normal" in="SourceGraphic" in2="BackgroundImageFix" result="shape"/>
<feGaussianBlur stdDeviation="94" result="effect1_foregroundBlur_3946_996"/>
</filter>
<radialGradient id="paint0_radial_3946_996" cx="0" cy="0" r="1" gradientUnits="userSpaceOnUse" gradientTransform="translate(271.5 443.913) rotate(92.556) scale(188.764 195.761)">
<stop stop-color="#6E9CDE"/>
<stop offset="0.499916" stop-color="#6E9CDE" stop-opacity="0.3"/>
<stop offset="1" stop-color="#6E9CDE" stop-opacity="0"/>
</radialGradient>
</defs>
</svg>
