<svg width="104" height="96" viewBox="0 0 104 96" fill="none" xmlns="http://www.w3.org/2000/svg">
<path d="M0 52C0 23.2812 23.2812 0 52 0V0C80.7188 0 104 23.2812 104 52V96H0V52Z" fill="url(#paint0_linear_3975_1390)"/>
<path fill-rule="evenodd" clip-rule="evenodd" d="M51.9998 37.4666C46.1824 37.4666 41.4665 42.1825 41.4665 47.9999V52.3472C41.2371 52.3579 41.0542 52.3768 40.8861 52.4102C39.2994 52.7258 38.059 53.9662 37.7434 55.553C37.6665 55.9394 37.6665 56.404 37.6665 57.3333V61.3334C37.6665 62.2627 37.6665 62.7273 37.7434 63.1137C38.059 64.7005 39.2994 65.9409 40.8861 66.2565C41.2725 66.3334 41.7372 66.3334 42.6665 66.3334C43.5958 66.3334 44.0605 66.3334 44.4469 66.2565C46.0336 65.9409 47.274 64.7005 47.5896 63.1137C47.6665 62.7273 47.6665 62.2627 47.6665 61.3334V57.3334C47.6665 56.404 47.6665 55.9394 47.5896 55.553C47.274 53.9662 46.0336 52.7258 44.4469 52.4102C44.2788 52.3768 44.096 52.3579 43.8665 52.3472V47.9999C43.8665 43.508 47.5079 39.8666 51.9998 39.8666C56.4918 39.8666 60.1332 43.508 60.1332 47.9999V52.3472C59.9037 52.3579 59.7209 52.3768 59.5528 52.4102C57.966 52.7258 56.7257 53.9662 56.41 55.553C56.3332 55.9394 56.3332 56.404 56.3332 57.3334V61.3334C56.3332 62.2627 56.3332 62.7273 56.41 63.1137C56.7257 64.7005 57.966 65.9409 59.5528 66.2565C59.9392 66.3334 60.4039 66.3334 61.3332 66.3334C62.2625 66.3334 62.7271 66.3334 63.1135 66.2565C64.7003 65.9409 65.9407 64.7005 66.2563 63.1137C66.3332 62.7273 66.3332 62.2627 66.3332 61.3334V57.3333C66.3332 56.404 66.3332 55.9394 66.2563 55.553C65.9407 53.9662 64.7003 52.7258 63.1135 52.4102C62.9455 52.3768 62.7626 52.3579 62.5332 52.3472V47.9999C62.5332 42.1825 57.8172 37.4666 51.9998 37.4666Z" fill="url(#paint1_linear_3975_1390)"/>
<defs>
<linearGradient id="paint0_linear_3975_1390" x1="13.6582" y1="12.8332" x2="84.1801" y2="94.4126" gradientUnits="userSpaceOnUse">
<stop stop-color="#69E2D8"/>
<stop offset="1" stop-color="#5EA6DA"/>
</linearGradient>
<linearGradient id="paint1_linear_3975_1390" x1="37.885" y1="37.3079" x2="72.1377" y2="54.4821" gradientUnits="userSpaceOnUse">
<stop offset="0.189369" stop-color="white"/>
<stop offset="1" stop-color="white" stop-opacity="0.5"/>
</linearGradient>
</defs>
</svg>
