<svg width="18" height="19" viewBox="0 0 18 19" fill="none" xmlns="http://www.w3.org/2000/svg">
<path fill-rule="evenodd" clip-rule="evenodd" d="M6.74539 1.09595C7.28505 0.975098 7.8567 0.975098 9 0.975098C10.1433 0.975098 10.715 0.975098 11.2546 1.09595C11.8167 1.22184 12.3529 1.44392 12.8394 1.75238C13.3064 2.04851 13.7106 2.45273 14.5191 3.26117L14.7764 3.51853C15.5849 4.32697 15.9891 4.73119 16.2852 5.19824C16.5937 5.68473 16.8158 6.22087 16.9416 6.78298C17.0625 7.32264 17.0625 7.89429 17.0625 9.0376C17.0625 10.1809 17.0625 10.7526 16.9416 11.2922C16.8158 11.8543 16.5937 12.3905 16.2852 12.877C15.9891 13.344 15.5849 13.7482 14.7764 14.5567L14.5191 14.814C13.7106 15.6225 13.3064 16.0267 12.8394 16.3228C12.3529 16.6313 11.8167 16.8534 11.2546 16.9792C10.715 17.1001 10.1433 17.1001 9 17.1001C7.8567 17.1001 7.28505 17.1001 6.74539 16.9792C6.18327 16.8534 5.64713 16.6313 5.16064 16.3228C4.69359 16.0267 4.28937 15.6225 3.48094 14.814L3.48093 14.814L3.22357 14.5567C2.41514 13.7482 2.01092 13.344 1.71478 12.877C1.40632 12.3905 1.18424 11.8543 1.05836 11.2922C0.9375 10.7526 0.9375 10.1809 0.9375 9.0376C0.9375 7.89429 0.9375 7.32264 1.05836 6.78298C1.18424 6.22087 1.40632 5.68473 1.71478 5.19824C2.01092 4.73119 2.41514 4.32697 3.22357 3.51853L3.48093 3.26117C4.28937 2.45273 4.69359 2.04851 5.16064 1.75238C5.64713 1.44392 6.18327 1.22184 6.74539 1.09595ZM7.28033 6.25727C6.98744 5.96437 6.51256 5.96437 6.21967 6.25727C5.92678 6.55016 5.92678 7.02503 6.21967 7.31793L7.93934 9.0376L6.21967 10.7573C5.92678 11.0502 5.92678 11.525 6.21967 11.8179C6.51256 12.1108 6.98744 12.1108 7.28033 11.8179L9 10.0983L10.7197 11.8179C11.0126 12.1108 11.4874 12.1108 11.7803 11.8179C12.0732 11.525 12.0732 11.0502 11.7803 10.7573L10.0607 9.0376L11.7803 7.31793C12.0732 7.02503 12.0732 6.55016 11.7803 6.25727C11.4874 5.96437 11.0126 5.96437 10.7197 6.25727L9 7.97694L7.28033 6.25727Z" fill="#FF2E79"/>
</svg>
