<svg width="48" height="48" viewBox="0 0 48 48" fill="none" xmlns="http://www.w3.org/2000/svg">
<path d="M4.5 22.4201C4.5 16.1475 4.5 13.0112 5.72073 10.6154C6.79451 8.50801 8.50789 6.79463 10.6153 5.72085C13.0111 4.50012 16.1474 4.50012 22.42 4.50012H35.5C39.9183 4.50012 43.5 8.08184 43.5 12.5001C43.5 13.0524 43.0523 13.5001 42.5 13.5001H41.0556C37.0026 13.5001 34.9762 13.5001 33.3321 14.0185C29.8471 15.1173 27.1172 17.8472 26.0184 21.3322C25.5 22.9763 25.5 25.0027 25.5 29.0557C25.5 29.5623 25.5 29.8156 25.4352 30.0211C25.2978 30.4567 24.9566 30.798 24.521 30.9353C24.3155 31.0001 24.0622 31.0001 23.5556 31.0001H6.74C5.95593 31.0001 5.56389 31.0001 5.26441 30.8475C5.00099 30.7133 4.78681 30.4991 4.65259 30.2357C4.5 29.9362 4.5 29.5442 4.5 28.7601V22.4201Z" fill="url(#paint0_linear_889_7111)"/>
<path d="M1.55556 34.0001C0.972588 34.0001 0.5 34.4727 0.5 35.0557C0.5 39.7194 4.28071 43.5001 8.94444 43.5001H23.26C24.0441 43.5001 24.4361 43.5001 24.7356 43.3475C24.999 43.2133 25.2132 42.9991 25.3474 42.7357C25.5 42.4362 25.5 42.0442 25.5 41.2601V36.2401C25.5 35.456 25.5 35.064 25.3474 34.7645C25.2132 34.5011 24.999 34.2869 24.7356 34.1527C24.4361 34.0001 24.0441 34.0001 23.26 34.0001H1.55556Z" fill="url(#paint1_linear_889_7111)"/>
<path fill-rule="evenodd" clip-rule="evenodd" d="M28.5 26.0001C28.5 24.9786 28.5 24.4678 28.5444 24.0377C28.9528 20.0808 32.0807 16.9529 36.0376 16.5445C36.4676 16.5001 36.9784 16.5001 38 16.5001C39.0216 16.5001 39.5323 16.5001 39.9624 16.5445C43.9193 16.9529 47.0472 20.0808 47.4556 24.0377C47.5 24.4678 47.5 24.9786 47.5 26.0001V34.0001C47.5 35.0217 47.5 35.5325 47.4556 35.9625C47.0472 39.9194 43.9193 43.0473 39.9624 43.4557C39.5323 43.5001 39.0216 43.5001 38 43.5001C36.9784 43.5001 36.4676 43.5001 36.0376 43.4557C32.0807 43.0473 28.9528 39.9194 28.5444 35.9625C28.5 35.5325 28.5 35.0217 28.5 34.0001V26.0001ZM38 26.0001C39.1046 26.0001 40 25.1047 40 24.0001C40 22.8956 39.1046 22.0001 38 22.0001C36.8954 22.0001 36 22.8956 36 24.0001C36 25.1047 36.8954 26.0001 38 26.0001Z" fill="url(#paint2_linear_889_7111)"/>
<defs>
<linearGradient id="paint0_linear_889_7111" x1="0.858259" y1="4.28584" x2="52.1465" y2="35.4929" gradientUnits="userSpaceOnUse">
<stop offset="0.189369" stop-color="white"/>
<stop offset="1" stop-color="white" stop-opacity="0.5"/>
</linearGradient>
<linearGradient id="paint1_linear_889_7111" x1="0.858259" y1="4.28584" x2="52.1465" y2="35.4929" gradientUnits="userSpaceOnUse">
<stop offset="0.189369" stop-color="white"/>
<stop offset="1" stop-color="white" stop-opacity="0.5"/>
</linearGradient>
<linearGradient id="paint2_linear_889_7111" x1="0.858259" y1="4.28584" x2="52.1465" y2="35.4929" gradientUnits="userSpaceOnUse">
<stop offset="0.189369" stop-color="white"/>
<stop offset="1" stop-color="white" stop-opacity="0.5"/>
</linearGradient>
</defs>
</svg>
