<svg width="40" height="41" viewBox="0 0 40 41" fill="none" xmlns="http://www.w3.org/2000/svg">
<rect y="0.335327" width="40" height="40" rx="20" fill="#F7F7FC"/>
<path d="M25.6636 14.2562C24.6195 13.6694 23.5031 13.2429 22.3359 13C22.1926 13.3113 22.0251 13.7301 21.9096 14.0632C20.6689 13.8391 19.4395 13.8391 18.2216 14.0632C18.1061 13.7301 17.9349 13.3113 17.7902 13C16.6218 13.2429 15.5041 13.6709 14.46 14.2594C12.3539 18.0825 11.783 21.8107 12.0685 25.486C13.4653 26.7391 14.819 27.5003 16.1498 27.9985C16.4784 27.4552 16.7715 26.8777 17.0239 26.269C16.5431 26.0495 16.0826 25.7787 15.6474 25.4642C15.7629 25.3615 15.8758 25.254 15.9849 25.1435C18.639 26.6348 21.5227 26.6348 24.145 25.1435C24.2554 25.254 24.3683 25.3615 24.4825 25.4642C24.0461 25.7802 23.5843 26.0511 23.1035 26.2706C23.3559 26.8777 23.6477 27.4567 23.9776 28C25.3097 27.5019 26.6646 26.7407 28.0614 25.486C28.3964 21.2254 27.4893 17.5315 25.6636 14.2562ZM17.3855 23.2257C16.5888 23.2257 15.9354 22.3322 15.9354 21.2441C15.9354 20.156 16.5748 19.2609 17.3855 19.2609C18.1962 19.2609 18.8496 20.1544 18.8356 21.2441C18.8369 22.3322 18.1962 23.2257 17.3855 23.2257ZM22.7444 23.2257C21.9477 23.2257 21.2943 22.3322 21.2943 21.2441C21.2943 20.156 21.9337 19.2609 22.7444 19.2609C23.5551 19.2609 24.2085 20.1544 24.1945 21.2441C24.1945 22.3322 23.5551 23.2257 22.7444 23.2257Z" fill="#677488"/>
</svg>

