<svg width="422" height="168" viewBox="0 0 422 168" fill="none" xmlns="http://www.w3.org/2000/svg">
<rect x="32" y="16" width="390" height="104" rx="52" fill="#092857"/>
<g filter="url(#filter0_d_742_4020)">
<rect x="44" y="28" width="168" height="80" rx="40" fill="#0A7AF9"/>
<path d="M97.0169 62.588C100.345 62.588 102.649 64.988 102.649 68.044C102.649 71.1 100.345 73.5 97.0169 73.5H93.4169V62.588H97.0169ZM95.4649 71.548L97.1289 71.564C99.1449 71.564 100.553 69.996 100.553 68.044C100.553 66.092 99.1449 64.54 97.1289 64.54H95.4649V71.548ZM107.682 73.676C105.346 73.676 103.666 71.964 103.666 69.74C103.666 67.516 105.346 65.82 107.682 65.82C110.018 65.82 111.698 67.516 111.698 69.74C111.698 71.964 110.018 73.676 107.682 73.676ZM107.682 71.9C108.85 71.9 109.698 71.02 109.698 69.74C109.698 68.476 108.85 67.58 107.682 67.58C106.514 67.58 105.666 68.476 105.666 69.74C105.666 71.02 106.514 71.9 107.682 71.9ZM116.385 73.5H114.417L112.049 65.98H114.129L115.025 69.58C115.105 69.916 115.217 70.444 115.313 71.02H115.345C115.425 70.444 115.537 69.9 115.617 69.58L116.513 65.98H118.769L119.665 69.58C119.745 69.9 119.857 70.444 119.937 71.02H119.969C120.065 70.444 120.177 69.916 120.257 69.58L121.153 65.98H123.249L120.865 73.5H118.913L117.889 69.34C117.793 68.956 117.713 68.556 117.665 68.14H117.633C117.569 68.556 117.489 68.956 117.393 69.34L116.385 73.5ZM125.787 73.5H123.755V69.228C123.755 67.244 125.019 65.82 127.275 65.82C129.515 65.82 130.779 67.244 130.779 69.228V73.5H128.763V69.388C128.763 68.284 128.267 67.596 127.275 67.596C126.283 67.596 125.787 68.284 125.787 69.388V73.5ZM134.841 73.5H132.825V62.588L134.841 62.588V73.5ZM140.479 73.676C138.143 73.676 136.463 71.964 136.463 69.74C136.463 67.516 138.143 65.82 140.479 65.82C142.815 65.82 144.495 67.516 144.495 69.74C144.495 71.964 142.815 73.676 140.479 73.676ZM140.479 71.9C141.647 71.9 142.495 71.02 142.495 69.74C142.495 68.476 141.647 67.58 140.479 67.58C139.311 67.58 138.463 68.476 138.463 69.74C138.463 71.02 139.311 71.9 140.479 71.9ZM151.338 67.164L151.514 65.98H153.242V73.5H151.45L151.322 72.348C150.89 73.18 150.01 73.676 148.842 73.676C147.098 73.676 145.354 72.332 145.354 69.74C145.354 67.148 147.098 65.82 148.842 65.82C150.026 65.82 150.906 66.316 151.338 67.164ZM149.37 71.9C150.33 71.9 151.29 71.196 151.29 69.74C151.29 68.364 150.298 67.596 149.37 67.596C148.234 67.596 147.354 68.428 147.354 69.74C147.354 71.084 148.25 71.9 149.37 71.9ZM160.569 67.052V62.588H162.585V73.5H160.745L160.617 72.348C160.185 73.18 159.321 73.676 158.153 73.676C156.441 73.676 154.713 72.332 154.713 69.74C154.713 67.148 156.441 65.82 158.153 65.82C159.273 65.82 160.121 66.284 160.569 67.052ZM158.681 71.9C159.625 71.9 160.585 71.196 160.585 69.74C160.585 68.284 159.625 67.596 158.681 67.596C157.577 67.596 156.713 68.396 156.713 69.74C156.713 71.084 157.577 71.9 158.681 71.9Z" fill="white"/>
</g>
<path fill-rule="evenodd" clip-rule="evenodd" d="M251.559 59.4942C252.071 59.462 252.526 59.4878 252.955 59.6527C253.63 59.9123 254.194 60.3984 254.551 61.0279C254.778 61.4275 254.871 61.8739 254.915 62.3849C254.958 62.8838 254.958 63.5065 254.958 64.2824V64.2825V67.2499H245.5V60.3596L249.676 59.7332C250.443 59.6181 251.059 59.5257 251.559 59.4942ZM244 60.5846L240.956 61.0411C240.372 61.1287 239.899 61.1997 239.517 61.2872C239.122 61.3776 238.779 61.4949 238.466 61.6979C237.965 62.0225 237.568 62.4836 237.322 63.0266C237.167 63.3661 237.102 63.7231 237.071 64.1273C237.041 64.5183 237.041 64.9966 237.042 65.5869V67.2499H244V60.5846ZM237.042 68.7499V70.413C237.041 71.0033 237.041 71.4816 237.071 71.8726C237.102 72.2768 237.167 72.6338 237.322 72.9733C237.568 73.5163 237.965 73.9774 238.466 74.302C238.779 74.5049 239.122 74.6223 239.517 74.7127C239.899 74.8002 240.372 74.8711 240.956 74.9587L240.956 74.9587L244 75.4153V68.7499H237.042ZM245.5 75.6403L249.676 76.2666C250.443 76.3817 251.059 76.4741 251.559 76.5056C252.071 76.5379 252.526 76.512 252.955 76.3472C253.63 76.0875 254.194 75.6014 254.551 74.9719C254.778 74.5723 254.871 74.126 254.915 73.6149C254.958 73.1161 254.958 72.4934 254.958 71.7175V71.7174V68.7499H245.5V75.6403Z" fill="white"/>
<path d="M285.121 58.8333C285.121 58.6596 285.049 58.4937 284.922 58.3754C284.795 58.2572 284.624 58.1972 284.451 58.2099C283.452 58.2831 282.325 58.8141 281.656 59.476C280.917 60.1993 280.463 61.1506 280.553 62.2127C280.579 62.5204 280.825 62.763 281.133 62.7839C282.279 62.8614 283.295 62.3506 284.093 61.5424L284.1 61.5356C284.658 60.9534 284.922 60.3694 285.039 59.8644C285.137 59.4429 285.127 59.0765 285.123 58.902C285.122 58.8739 285.121 58.8508 285.121 58.8333Z" fill="white"/>
<path d="M284.479 63.2195C283.71 63.1577 282.946 63.3638 282.365 63.5523C282.217 63.6005 282.076 63.6492 281.948 63.6938L281.901 63.71C281.79 63.7486 281.692 63.783 281.6 63.813C281.496 63.8473 281.415 63.8717 281.351 63.8872C281.302 63.8991 281.278 63.9021 281.272 63.9029C281.271 63.903 281.27 63.9031 281.27 63.9031C281.235 63.9023 281.138 63.8868 280.942 63.8279C280.81 63.788 280.668 63.74 280.507 63.6853C280.437 63.6613 280.362 63.6361 280.283 63.6097C279.803 63.4494 279.172 63.2518 278.578 63.2518L278.567 63.2519C277.428 63.2716 276.252 63.7038 275.357 64.5784C274.455 65.4612 273.875 66.759 273.875 68.4365C273.875 69.3959 274.028 70.3949 274.41 71.4284C274.658 72.1115 275.207 73.2533 275.925 74.228C276.284 74.7162 276.704 75.1872 277.17 75.5366C277.63 75.8815 278.186 76.1447 278.803 76.1238C279.329 76.1211 279.786 75.9499 280.152 75.8126C280.185 75.8002 280.217 75.7881 280.249 75.7764C280.653 75.6269 281.018 75.5067 281.486 75.5067C281.931 75.5067 282.265 75.6234 282.665 75.7748L282.725 75.7974C283.108 75.9429 283.584 76.1238 284.181 76.1238C284.788 76.1238 285.333 75.8782 285.792 75.5456C286.25 75.213 286.656 74.7698 287 74.3084C287.687 73.3883 288.194 72.3079 288.426 71.6179C288.527 71.3154 288.385 70.9851 288.095 70.8515C286.199 69.9775 286.256 68.3772 286.26 68.2702L286.26 68.265C286.26 67.7357 286.384 67.3031 286.614 66.9312C286.847 66.5542 287.21 66.2063 287.735 65.8833C287.884 65.792 287.987 65.643 288.021 65.4721C288.055 65.3012 288.016 65.124 287.913 64.9832C287.108 63.8777 285.929 63.3333 284.479 63.2195Z" fill="white"/>
<path fill-rule="evenodd" clip-rule="evenodd" d="M312.141 58.8081C312.385 58.564 312.781 58.564 313.025 58.8081L314.889 60.6721C315.812 60.1641 316.872 59.875 318 59.875C318.906 59.875 319.768 60.0616 320.551 60.3984L322.141 58.8081C322.385 58.564 322.781 58.564 323.025 58.8081C323.269 59.0521 323.269 59.4479 323.025 59.6919L321.687 61.0302C323.362 62.197 324.458 64.1371 324.458 66.3333V66.5417H311.542V66.3333C311.542 64.3506 312.435 62.5766 313.841 61.3919L312.141 59.6919C311.897 59.4479 311.897 59.0521 312.141 58.8081ZM314.875 63.8333C314.875 63.258 315.341 62.7917 315.917 62.7917C316.492 62.7917 316.958 63.258 316.958 63.8333C316.958 64.4086 316.492 64.875 315.917 64.875C315.341 64.875 314.875 64.4086 314.875 63.8333ZM319.042 63.8333C319.042 63.258 319.508 62.7917 320.083 62.7917C320.658 62.7917 321.125 63.258 321.125 63.8333C321.125 64.4086 320.658 64.875 320.083 64.875C319.508 64.875 319.042 64.4086 319.042 63.8333Z" fill="white"/>
<path d="M311.542 67.7917L311.542 71.192C311.541 71.6372 311.541 72.0087 311.566 72.3122C311.592 72.6288 311.648 72.926 311.791 73.2071C312.011 73.6383 312.362 73.9888 312.793 74.2086C313.074 74.3518 313.371 74.4077 313.688 74.4336C313.991 74.4584 314.363 74.4583 314.808 74.4583H314.875V76.3333C314.875 76.6785 315.155 76.9583 315.5 76.9583C315.845 76.9583 316.125 76.6785 316.125 76.3333V74.4583H319.875V76.3333C319.875 76.6785 320.155 76.9583 320.5 76.9583C320.845 76.9583 321.125 76.6785 321.125 76.3333V74.4583H321.192C321.637 74.4583 322.009 74.4584 322.312 74.4336C322.629 74.4077 322.926 74.3518 323.207 74.2086C323.638 73.9888 323.989 73.6383 324.208 73.2071C324.352 72.926 324.408 72.6288 324.433 72.3122C324.458 72.0087 324.458 71.6372 324.458 71.192V67.7917H311.542Z" fill="white"/>
<path d="M309.667 65.7083C310.012 65.7083 310.292 65.9882 310.292 66.3333V71.3333C310.292 71.6785 310.012 71.9583 309.667 71.9583C309.321 71.9583 309.042 71.6785 309.042 71.3333V66.3333C309.042 65.9882 309.321 65.7083 309.667 65.7083Z" fill="white"/>
<path d="M326.958 66.3333C326.958 65.9882 326.678 65.7083 326.333 65.7083C325.988 65.7083 325.708 65.9882 325.708 66.3333V71.3333C325.708 71.6785 325.988 71.9583 326.333 71.9583C326.678 71.9583 326.958 71.6785 326.958 71.3333V66.3333Z" fill="white"/>
<path fill-rule="evenodd" clip-rule="evenodd" d="M351.116 58.2331C350.785 57.9845 350.315 58.0517 350.066 58.3831C349.818 58.7144 349.885 59.1845 350.216 59.4331L350.67 59.7731L350.794 59.8666C351.239 60.2005 351.617 60.4838 351.969 60.7081C350.075 60.7091 349.082 60.7268 348.28 61.0285C346.933 61.5357 345.869 62.5992 345.362 63.9468C345.042 64.7982 345.042 65.8654 345.042 67.9997C345.042 70.134 345.042 71.2011 345.362 72.0526C345.869 73.4002 346.933 74.4637 348.28 74.9709C348.642 75.1069 349.042 75.1852 349.546 75.2302L349.162 75.9976C348.977 76.3681 349.127 76.8186 349.498 77.0039C349.868 77.1891 350.319 77.0389 350.504 76.6685L351.194 75.2889C351.537 75.2913 351.914 75.2913 352.333 75.2913H355.667C356.085 75.2913 356.463 75.2913 356.806 75.2889L357.496 76.6685C357.681 77.0389 358.131 77.1891 358.502 77.0039C358.872 76.8186 359.023 76.3681 358.837 75.9976L358.454 75.2302C358.958 75.1852 359.358 75.1069 359.719 74.9709C361.067 74.4637 362.131 73.4002 362.638 72.0526C362.958 71.2011 362.958 70.134 362.958 67.9997C362.958 65.8654 362.958 64.7982 362.638 63.9468C362.131 62.5992 361.067 61.5357 359.719 61.0285C358.918 60.7268 357.925 60.7091 356.031 60.7081C356.383 60.4838 356.76 60.2005 357.205 59.8666L357.33 59.7731L357.783 59.4331C358.115 59.1845 358.182 58.7144 357.933 58.3831C357.685 58.0517 357.215 57.9845 356.883 58.2331L356.43 58.5731C355.344 59.3877 354.963 59.656 354.573 59.7589C354.197 59.8578 353.803 59.8578 353.427 59.7589C353.036 59.656 352.656 59.3877 351.57 58.5731L351.116 58.2331ZM355.25 71.7497C355.25 72.44 354.69 72.9997 354 72.9997C353.309 72.9997 352.75 72.44 352.75 71.7497C352.75 71.0593 353.309 70.4997 354 70.4997C354.69 70.4997 355.25 71.0593 355.25 71.7497Z" fill="white"/>
<path d="M385.846 67.004H388.87V68.716H385.846V71.724H384.134V68.716H381.11V67.004H384.134V63.964H385.846V67.004Z" fill="white"/>
<defs>
<filter id="filter0_d_742_4020" x="0" y="0" width="256" height="168" filterUnits="userSpaceOnUse" color-interpolation-filters="sRGB">
<feFlood flood-opacity="0" result="BackgroundImageFix"/>
<feColorMatrix in="SourceAlpha" type="matrix" values="0 0 0 0 0 0 0 0 0 0 0 0 0 0 0 0 0 0 127 0" result="hardAlpha"/>
<feMorphology radius="20" operator="erode" in="SourceAlpha" result="effect1_dropShadow_742_4020"/>
<feOffset dy="16"/>
<feGaussianBlur stdDeviation="32"/>
<feComposite in2="hardAlpha" operator="out"/>
<feColorMatrix type="matrix" values="0 0 0 0 0.14902 0 0 0 0 0.607843 0 0 0 0 0.992157 0 0 0 0.4 0"/>
<feBlend mode="normal" in2="BackgroundImageFix" result="effect1_dropShadow_742_4020"/>
<feBlend mode="normal" in="SourceGraphic" in2="effect1_dropShadow_742_4020" result="shape"/>
</filter>
</defs>
</svg>
