<svg width="25" height="25" viewBox="0 0 25 25" fill="none" xmlns="http://www.w3.org/2000/svg">
<path fill-rule="evenodd" clip-rule="evenodd" d="M1.75 12.7183C1.75 6.7812 6.56294 1.96826 12.5 1.96826C18.4371 1.96826 23.25 6.7812 23.25 12.7183C23.25 18.6553 18.4371 23.4683 12.5 23.4683C6.56294 23.4683 1.75 18.6553 1.75 12.7183ZM9.5 8.46826C8.80964 8.46826 8.25 9.02791 8.25 9.71826C8.25 10.4086 8.80964 10.9683 9.5 10.9683C10.1904 10.9683 10.75 10.4086 10.75 9.71826C10.75 9.02791 10.1904 8.46826 9.5 8.46826ZM15.5 8.46826C14.8096 8.46826 14.25 9.02791 14.25 9.71826C14.25 10.4086 14.8096 10.9683 15.5 10.9683C16.1904 10.9683 16.75 10.4086 16.75 9.71826C16.75 9.02791 16.1904 8.46826 15.5 8.46826ZM17.5 13.7183C17.5 13.7183 16.2498 17.7183 12.5 17.7183C8.75019 17.7183 7.5 13.7183 7.5 13.7183H17.5Z" fill="#0A7AF9"/>
</svg>
