<svg width="40" height="41" viewBox="0 0 40 41" fill="none" xmlns="http://www.w3.org/2000/svg">
<rect y="0.335449" width="40" height="40" rx="20" fill="#F7F7FC"/>
<path fill-rule="evenodd" clip-rule="evenodd" d="M15.4695 12.3016C16.4198 11.9375 17.6132 11.9375 20 11.9375C22.3868 11.9375 23.5802 11.9375 24.5305 12.3016C25.9881 12.8602 27.1398 14.0119 27.6984 15.4695C28.0625 16.4198 28.0625 17.6132 28.0625 20C28.0625 22.3868 28.0625 23.5802 27.6984 24.5305C27.1398 25.9881 25.9881 27.1398 24.5305 27.6984C23.8039 27.9768 22.9353 28.0423 21.5 28.0577V22.25H23.75C24.1642 22.25 24.5 21.9142 24.5 21.5C24.5 21.0858 24.1642 20.75 23.75 20.75H21.5V20C21.5 19.5238 21.5004 19.2042 21.5173 18.9567C21.5337 18.716 21.5632 18.5988 21.5951 18.5216C21.722 18.2154 21.9654 17.972 22.2716 17.8452C22.3488 17.8132 22.466 17.7837 22.7067 17.7673C22.9542 17.7504 23.2738 17.75 23.75 17.75V16.25H23.7247C23.2803 16.25 22.9092 16.25 22.6046 16.2708C22.2875 16.2924 21.988 16.339 21.6976 16.4593C21.0238 16.7384 20.4884 17.2738 20.2093 17.9476C20.089 18.238 20.0424 18.5375 20.0208 18.8546C20 19.1592 20 19.5303 20 19.9747V20V20.75H18.5C18.0858 20.75 17.75 21.0858 17.75 21.5C17.75 21.9142 18.0858 22.25 18.5 22.25H20V28.0625C17.6132 28.0625 16.4198 28.0625 15.4695 27.6984C14.0119 27.1398 12.8602 25.9881 12.3016 24.5305C11.9375 23.5802 11.9375 22.3868 11.9375 20C11.9375 17.6132 11.9375 16.4198 12.3016 15.4695C12.8602 14.0119 14.0119 12.8602 15.4695 12.3016Z" fill="#677488"/>
</svg>
