<svg width="22" height="22" viewBox="0 0 22 22" fill="none" xmlns="http://www.w3.org/2000/svg">
<path fill-rule="evenodd" clip-rule="evenodd" d="M0.25 11C0.25 5.06294 5.06294 0.25 11 0.25C16.9371 0.25 21.75 5.06294 21.75 11C21.75 16.9371 16.9371 21.75 11 21.75C5.06294 21.75 0.25 16.9371 0.25 11ZM8 6.75C7.30964 6.75 6.75 7.30964 6.75 8C6.75 8.69036 7.30964 9.25 8 9.25C8.69036 9.25 9.25 8.69036 9.25 8C9.25 7.30964 8.69036 6.75 8 6.75ZM14 6.75C13.3096 6.75 12.75 7.30964 12.75 8C12.75 8.69036 13.3096 9.25 14 9.25C14.6904 9.25 15.25 8.69036 15.25 8C15.25 7.30964 14.6904 6.75 14 6.75ZM16 12C16 12 14.7498 16 11 16C7.25019 16 6 12 6 12H16Z" fill="url(#paint0_linear_2786_168)"/>
<defs>
<linearGradient id="paint0_linear_2786_168" x1="11" y1="0.25" x2="11" y2="21.75" gradientUnits="userSpaceOnUse">
<stop offset="0.391146" stop-color="#F8F8F8"/>
<stop offset="1" stop-color="#F8F8F8" stop-opacity="0.7"/>
</linearGradient>
</defs>
</svg>
