<svg width="120" height="120" viewBox="0 0 120 120" fill="none" xmlns="http://www.w3.org/2000/svg">
<g filter="url(#filter0_d_936_5944)">
<rect x="32" y="16" width="56" height="56" rx="28" fill="url(#paint0_linear_936_5944)" shape-rendering="crispEdges"/>
<g filter="url(#filter1_d_936_5944)">
<path fill-rule="evenodd" clip-rule="evenodd" d="M49.25 44C49.25 38.0629 54.0629 33.25 60 33.25C65.9371 33.25 70.75 38.0629 70.75 44C70.75 49.9371 65.9371 54.75 60 54.75C54.0629 54.75 49.25 49.9371 49.25 44ZM57 39.75C56.3096 39.75 55.75 40.3096 55.75 41C55.75 41.6904 56.3096 42.25 57 42.25C57.6904 42.25 58.25 41.6904 58.25 41C58.25 40.3096 57.6904 39.75 57 39.75ZM63 39.75C62.3096 39.75 61.75 40.3096 61.75 41C61.75 41.6904 62.3096 42.25 63 42.25C63.6904 42.25 64.25 41.6904 64.25 41C64.25 40.3096 63.6904 39.75 63 39.75ZM65 45C65 45 63.7498 49 60 49C56.2502 49 55 45 55 45H65Z" fill="url(#paint1_linear_936_5944)"/>
</g>
</g>
<defs>
<filter id="filter0_d_936_5944" x="0" y="0" width="120" height="120" filterUnits="userSpaceOnUse" color-interpolation-filters="sRGB">
<feFlood flood-opacity="0" result="BackgroundImageFix"/>
<feColorMatrix in="SourceAlpha" type="matrix" values="0 0 0 0 0 0 0 0 0 0 0 0 0 0 0 0 0 0 127 0" result="hardAlpha"/>
<feOffset dy="16"/>
<feGaussianBlur stdDeviation="16"/>
<feComposite in2="hardAlpha" operator="out"/>
<feColorMatrix type="matrix" values="0 0 0 0 0.0407091 0 0 0 0 0.477653 0 0 0 0 0.977018 0 0 0 0.16 0"/>
<feBlend mode="normal" in2="BackgroundImageFix" result="effect1_dropShadow_936_5944"/>
<feBlend mode="normal" in="SourceGraphic" in2="effect1_dropShadow_936_5944" result="shape"/>
</filter>
<filter id="filter1_d_936_5944" x="30" y="16" width="72" height="72" filterUnits="userSpaceOnUse" color-interpolation-filters="sRGB">
<feFlood flood-opacity="0" result="BackgroundImageFix"/>
<feColorMatrix in="SourceAlpha" type="matrix" values="0 0 0 0 0 0 0 0 0 0 0 0 0 0 0 0 0 0 127 0" result="hardAlpha"/>
<feOffset dx="6" dy="8"/>
<feGaussianBlur stdDeviation="12"/>
<feComposite in2="hardAlpha" operator="out"/>
<feColorMatrix type="matrix" values="0 0 0 0 0 0 0 0 0 0 0 0 0 0 0 0 0 0 0.45 0"/>
<feBlend mode="multiply" in2="BackgroundImageFix" result="effect1_dropShadow_936_5944"/>
<feBlend mode="normal" in="SourceGraphic" in2="effect1_dropShadow_936_5944" result="shape"/>
</filter>
<linearGradient id="paint0_linear_936_5944" x1="32.0754" y1="16" x2="87.9317" y2="72.0852" gradientUnits="userSpaceOnUse">
<stop stop-color="#7EB5F9"/>
<stop offset="1" stop-color="#6475FF"/>
</linearGradient>
<linearGradient id="paint1_linear_936_5944" x1="60" y1="33.25" x2="60" y2="54.75" gradientUnits="userSpaceOnUse">
<stop offset="0.391146" stop-color="#F8F8F8"/>
<stop offset="1" stop-color="#F8F8F8" stop-opacity="0.7"/>
</linearGradient>
</defs>
</svg>
