<svg width="23" height="22" viewBox="0 0 23 22" fill="none" xmlns="http://www.w3.org/2000/svg">
<g clip-path="url(#clip0_921_4407)">
<path d="M22.2823 11.2527C22.2823 10.505 22.2217 9.7532 22.0923 9.01758H11.7168V13.2535H17.6584C17.4118 14.6196 16.6196 15.8282 15.4596 16.5961V19.3446H19.0043C21.0859 17.4288 22.2823 14.5994 22.2823 11.2527Z" fill="#4285F4"/>
<path d="M11.7166 22.0001C14.6833 22.0001 17.1853 21.026 19.0082 19.3445L15.4634 16.5961C14.4772 17.267 13.204 17.647 11.7206 17.647C8.85089 17.647 6.41768 15.7109 5.54463 13.1079H1.88672V15.9413C3.75407 19.6558 7.55749 22.0001 11.7166 22.0001Z" fill="#34A853"/>
<path d="M5.54079 13.1078C5.08002 11.7416 5.08002 10.2623 5.54079 8.89611V6.06274H1.88692C0.326755 9.17096 0.326755 12.8329 1.88692 15.9411L5.54079 13.1078Z" fill="#FBBC04"/>
<path d="M11.7166 4.35312C13.2848 4.32887 14.8006 4.91899 15.9363 6.00221L19.0769 2.86167C17.0883 0.994314 14.4489 -0.0323263 11.7166 8.85525e-06C7.55749 8.85525e-06 3.75407 2.3443 1.88672 6.06284L5.54059 8.89621C6.40959 6.28919 8.84685 4.35312 11.7166 4.35312Z" fill="#EA4335"/>
</g>
<defs>
<clipPath id="clip0_921_4407">
<rect width="21.5635" height="22" fill="white" transform="translate(0.71875)"/>
</clipPath>
</defs>
</svg>
