<svg width="118" height="103" viewBox="0 0 118 103" fill="none" xmlns="http://www.w3.org/2000/svg">
<path d="M86.1012 47.8335C86.1012 70.3858 67.8201 88.6668 45.2679 88.6668C22.7157 88.6668 4.43457 70.3858 4.43457 47.8335C4.43457 25.2853 22.7157 7.00018 45.2679 7.00018C67.8201 7.00018 86.1012 25.2853 86.1012 47.8335Z" fill="url(#paint0_linear_983_5223)"/>
<g opacity="0.5" filter="url(#filter0_f_983_5223)">
<path d="M63.2363 41.6916C63.2363 53.8422 53.3869 63.6916 41.2363 63.6916C29.0857 63.6916 19.2363 53.8422 19.2363 41.6916C19.2363 29.5432 29.0857 19.6916 41.2363 19.6916C53.3869 19.6916 63.2363 29.5432 63.2363 41.6916Z" fill="#E46800"/>
</g>
<g filter="url(#filter1_b_983_5223)">
<path d="M19.4339 60.8348C19.4339 38.2826 37.715 20.0015 60.2673 20.0015C82.8195 20.0015 101.101 38.2826 101.101 60.8348C101.101 83.383 82.8195 101.668 60.2673 101.668C37.715 101.668 19.4339 83.383 19.4339 60.8348Z" fill="#FFCBB9" fill-opacity="0.35"/>
<path d="M60.2673 19.5015C37.4389 19.5015 18.9339 38.0064 18.9339 60.8348C18.9339 83.6591 37.4388 102.168 60.2673 102.168C83.0957 102.168 101.601 83.6591 101.601 60.8348C101.601 38.0064 83.0957 19.5015 60.2673 19.5015Z" stroke="url(#paint1_linear_983_5223)" stroke-linecap="round" stroke-linejoin="round"/>
</g>
<g filter="url(#filter2_bd_983_5223)">
<path d="M66.83 13.8096C65.6992 13.643 64.5498 13.9131 63.6351 14.5603C62.7205 15.2075 62.1158 16.1786 61.9544 17.2595L61.8887 17.8963L60.6166 56.7895C60.479 58.0696 60.9124 59.3508 61.8101 60.3184C62.7079 61.286 63.987 61.8503 65.333 61.8727L105.944 63.4427C107.075 63.4887 108.175 63.1016 109 62.3672C109.824 61.6328 110.306 60.6116 110.339 59.5294C110.376 59.3962 110.39 59.258 110.381 59.1201C109.086 36.0433 90.7703 16.9875 66.83 13.8096Z" fill="url(#paint2_linear_983_5223)"/>
</g>
<g filter="url(#filter3_bd_983_5223)">
<circle cx="59.4346" cy="62.0002" r="7" fill="url(#paint3_linear_983_5223)"/>
<circle cx="59.4346" cy="62.0002" r="6.8" stroke="url(#paint4_linear_983_5223)" stroke-width="0.4"/>
</g>
<defs>
<filter id="filter0_f_983_5223" x="0.236328" y="0.691589" width="82" height="82" filterUnits="userSpaceOnUse" color-interpolation-filters="sRGB">
<feFlood flood-opacity="0" result="BackgroundImageFix"/>
<feBlend mode="normal" in="SourceGraphic" in2="BackgroundImageFix" result="shape"/>
<feGaussianBlur stdDeviation="9.5" result="effect1_foregroundBlur_983_5223"/>
</filter>
<filter id="filter1_b_983_5223" x="-5.56641" y="-4.99854" width="131.667" height="131.667" filterUnits="userSpaceOnUse" color-interpolation-filters="sRGB">
<feFlood flood-opacity="0" result="BackgroundImageFix"/>
<feGaussianBlur in="BackgroundImageFix" stdDeviation="12"/>
<feComposite in2="SourceAlpha" operator="in" result="effect1_backgroundBlur_983_5223"/>
<feBlend mode="normal" in="SourceGraphic" in2="effect1_backgroundBlur_983_5223" result="shape"/>
</filter>
<filter id="filter2_bd_983_5223" x="45.5918" y="-1.23853" width="79.792" height="79.6849" filterUnits="userSpaceOnUse" color-interpolation-filters="sRGB">
<feFlood flood-opacity="0" result="BackgroundImageFix"/>
<feGaussianBlur in="BackgroundImageFix" stdDeviation="7.5"/>
<feComposite in2="SourceAlpha" operator="in" result="effect1_backgroundBlur_983_5223"/>
<feColorMatrix in="SourceAlpha" type="matrix" values="0 0 0 0 0 0 0 0 0 0 0 0 0 0 0 0 0 0 127 0" result="hardAlpha"/>
<feOffset dx="-3" dy="5"/>
<feGaussianBlur stdDeviation="5"/>
<feColorMatrix type="matrix" values="0 0 0 0 1 0 0 0 0 0.52549 0 0 0 0 0.137255 0 0 0 0.3 0"/>
<feBlend mode="normal" in2="effect1_backgroundBlur_983_5223" result="effect2_dropShadow_983_5223"/>
<feBlend mode="normal" in="SourceGraphic" in2="effect2_dropShadow_983_5223" result="shape"/>
</filter>
<filter id="filter3_bd_983_5223" x="37.4346" y="40.0002" width="44" height="44" filterUnits="userSpaceOnUse" color-interpolation-filters="sRGB">
<feFlood flood-opacity="0" result="BackgroundImageFix"/>
<feGaussianBlur in="BackgroundImageFix" stdDeviation="7.5"/>
<feComposite in2="SourceAlpha" operator="in" result="effect1_backgroundBlur_983_5223"/>
<feColorMatrix in="SourceAlpha" type="matrix" values="0 0 0 0 0 0 0 0 0 0 0 0 0 0 0 0 0 0 127 0" result="hardAlpha"/>
<feOffset dx="5" dy="5"/>
<feGaussianBlur stdDeviation="5"/>
<feColorMatrix type="matrix" values="0 0 0 0 1 0 0 0 0 0.52549 0 0 0 0 0.137255 0 0 0 0.5 0"/>
<feBlend mode="normal" in2="effect1_backgroundBlur_983_5223" result="effect2_dropShadow_983_5223"/>
<feBlend mode="normal" in="SourceGraphic" in2="effect2_dropShadow_983_5223" result="shape"/>
</filter>
<linearGradient id="paint0_linear_983_5223" x1="45.2679" y1="7.00018" x2="45.2679" y2="88.6668" gradientUnits="userSpaceOnUse">
<stop stop-color="#FFB37F"/>
<stop offset="1" stop-color="#FF7B0D"/>
</linearGradient>
<linearGradient id="paint1_linear_983_5223" x1="101.339" y1="102.223" x2="14.8838" y2="29.0002" gradientUnits="userSpaceOnUse">
<stop stop-color="white" stop-opacity="0.4"/>
<stop offset="1" stop-color="white" stop-opacity="0"/>
</linearGradient>
<linearGradient id="paint2_linear_983_5223" x1="109.975" y1="26.968" x2="22.0621" y2="14.3911" gradientUnits="userSpaceOnUse">
<stop stop-color="white" stop-opacity="0.2"/>
<stop offset="1" stop-color="white"/>
</linearGradient>
<linearGradient id="paint3_linear_983_5223" x1="65.442" y1="57.5283" x2="41.7651" y2="56.6774" gradientUnits="userSpaceOnUse">
<stop stop-color="white"/>
<stop offset="1" stop-color="white" stop-opacity="0.2"/>
</linearGradient>
<linearGradient id="paint4_linear_983_5223" x1="54.6631" y1="56.6312" x2="63.5937" y2="67.6919" gradientUnits="userSpaceOnUse">
<stop stop-color="white" stop-opacity="0.25"/>
<stop offset="1" stop-color="white" stop-opacity="0"/>
</linearGradient>
</defs>
</svg>
