<svg width="653" height="508" viewBox="0 0 653 508" fill="none" xmlns="http://www.w3.org/2000/svg">
<path d="M474.017 181.146C475.688 180.266 477.131 179.008 478.232 177.473C479.334 175.937 480.063 174.166 480.362 172.3C480.661 170.433 480.522 168.523 479.956 166.719C479.39 164.916 478.412 163.269 477.1 161.91C474.745 159.438 471.39 158.008 469.377 155.236C466.522 151.392 467.122 146.147 466.108 141.502C465.406 138.324 463.932 135.369 461.818 132.896C459.704 130.424 457.014 128.51 453.987 127.325C450.959 126.14 447.686 125.72 444.457 126.101C441.229 126.482 438.144 127.654 435.474 129.512C429.764 133.456 426.31 140.273 420.029 143.088C411.721 146.818 401.557 142.274 393.078 145.589C389.701 147.019 386.921 149.571 385.207 152.816C383.493 156.06 382.95 159.798 383.671 163.396C385.426 171.056 392.906 176.258 400.601 177.945C408.295 179.631 416.303 178.273 424.012 177.144C431.72 176.015 439.857 175.072 447.38 177.33C451.991 178.759 456.187 181.246 460.77 182.704C465.352 184.161 470.762 184.419 474.588 181.532" fill="#092857"/>
<path d="M473.789 182.432C481.155 178.288 485.024 168.441 479.385 161.267C476.787 157.98 472.404 156.536 470.306 152.806C468.208 149.076 468.707 143.974 467.637 139.716C466.619 135.735 464.425 132.154 461.34 129.443C458.255 126.732 454.424 125.018 450.35 124.524C446.13 124.081 441.874 124.897 438.116 126.868C434.537 128.929 431.348 131.604 428.694 134.771C425.725 138.015 422.785 141.33 418.345 142.445C413.906 143.56 409.223 142.902 404.698 142.745C400.502 142.364 396.277 143.058 392.422 144.76C389.041 146.52 386.225 149.2 384.299 152.492C382.302 155.713 381.471 159.523 381.944 163.285C382.417 167.047 384.165 170.532 386.897 173.157C393.264 179.445 402.371 180.774 410.951 180.303C422.371 179.603 434.076 175.715 445.468 178.874C454.775 181.446 464.839 189.706 474.346 182.918C474.988 182.461 476.23 181.489 476.216 180.632C476.202 179.774 475.416 179.96 474.86 180.36C467.508 185.605 458.101 179.317 451.078 176.644C442.513 173.357 433.262 174.458 424.369 175.744C415.476 177.03 406.026 178.602 397.475 175.072C390.866 172.4 384.785 166.497 384.956 158.837C385.003 155.406 386.332 152.117 388.682 149.619C391.408 146.875 395.405 146.132 399.145 146.032C406.997 145.847 415.033 147.833 422.071 143.174C428.395 139.03 432.063 131.298 439.401 128.74C443.189 127.448 447.285 127.368 451.122 128.51C454.958 129.652 458.345 131.96 460.813 135.114C463.342 138.54 464.829 142.624 465.096 146.875C465.595 151.334 466.152 155.665 469.692 158.78C473.232 161.896 476.83 163.539 478.257 168.098C479.685 172.657 478.414 177.573 474.232 179.917C473.575 180.289 472.362 181.346 472.376 182.204C472.39 183.061 473.147 182.789 473.718 182.475L473.789 182.432Z" fill="#092857"/>
<path d="M401.786 171.914C403.927 172.486 405.969 170.656 407.096 168.741C408.224 166.826 409.038 164.597 410.894 163.382C414.577 160.967 419.316 164.125 423.741 164.325C428.166 164.525 432.534 161.253 434.79 157.18C437.045 153.107 437.731 148.462 438.387 143.903C438.91 147.948 440.8 151.692 443.742 154.512C446.684 157.333 450.502 159.061 454.561 159.409C458.843 159.666 463.697 158.38 467.308 160.838C470.434 162.939 471.405 167.055 471.791 170.842C472.315 174.534 473.244 178.157 474.56 181.646C476.387 187.149 495.887 227.378 495.887 227.378C495.887 227.378 518.213 249.216 518.47 250.516C518.727 251.817 479.756 285.344 479.756 285.344L442.884 287.673L428.495 272.225L424.369 250.216L427.453 221.162V221.005C425.868 221.247 424.255 221.247 422.67 221.005C417.246 220.261 414.105 214.516 411.993 209.457C406.985 197.419 403.758 184.714 402.414 171.743" fill="white"/>
<path d="M400.487 173.543C401.604 173.639 402.728 173.46 403.761 173.021C404.793 172.583 405.703 171.899 406.411 171.028C408.067 169.341 408.838 167.255 410.137 165.311C411.436 163.368 414.805 164.225 416.832 164.754C419.124 165.556 421.542 165.938 423.969 165.883C428.566 165.44 432.62 161.981 435.132 158.308C438.259 153.778 439.158 148.305 439.914 142.917L436.703 145.232C437.029 147.776 437.888 150.223 439.224 152.412C440.56 154.602 442.342 156.484 444.454 157.937C446.489 159.345 448.793 160.318 451.22 160.795C454.065 161.1 456.932 161.143 459.785 160.924C462.74 160.924 465.609 161.61 467.494 164.054C469.049 166.459 469.936 169.237 470.063 172.1C470.64 176.434 471.802 180.669 473.518 184.69C478.728 197.295 484.938 209.528 490.833 221.847L493.688 227.735C493.96 228.408 494.363 229.02 494.873 229.536C499.241 233.795 503.581 238.082 507.892 242.398C510.147 244.671 512.403 246.943 514.587 249.272C515.229 249.958 515.871 250.702 516.471 251.388C516.54 251.505 516.622 251.615 516.714 251.716C516.614 251.859 517.014 251.859 516.714 251.716C516.614 251.716 517.342 250.401 517.113 250.716C516.714 251.316 517.37 250.487 516.928 250.945L516.114 251.788C515.372 252.517 514.615 253.217 513.859 253.946C511.746 255.946 509.576 257.904 507.406 259.848C498.385 267.937 489.22 275.897 480.041 283.814L479.47 284.3L480.641 283.672L457.987 285.101L445.582 285.901C445.139 285.901 444.639 285.901 444.154 285.987C443.426 286.101 444.154 285.858 444.154 286.058C444.054 285.758 443.583 285.429 443.383 285.215L441.442 283.129L431.449 272.467C431.007 271.981 430.564 271.467 430.093 271.038C429.991 270.945 429.896 270.845 429.808 270.738C429.708 270.552 429.965 271.067 429.808 270.738C429.445 269.363 429.182 267.964 429.023 266.551L426.325 252.116C426.125 251.045 425.825 249.958 425.711 248.887C425.782 249.487 425.711 248.729 425.711 248.515C425.796 247.843 425.854 247.172 425.925 246.5L428.78 219.947C428.78 219.504 428.651 219.289 428.195 219.347C426.033 219.779 423.791 219.556 421.757 218.705C419.722 217.855 417.988 216.416 416.775 214.573C414.034 210.743 412.492 206.07 410.865 201.711C407.251 191.6 404.855 181.093 403.727 170.413C403.627 169.398 400.358 171.742 400.487 173.014C401.767 184.376 404.477 195.531 408.552 206.213C410.123 210.414 411.75 214.916 414.591 218.46C417.645 222.262 421.728 223.319 426.453 222.633L425.854 222.048L422.87 250.216C422.542 253.36 423.727 256.733 424.298 259.805L426.011 268.952C426.134 270.512 426.426 272.055 426.881 273.553C427.737 274.828 428.771 275.973 429.95 276.955L436.331 283.8C437.887 285.487 439.372 287.287 441.042 288.874C441.656 289.46 442.255 289.288 443.083 289.231L475.402 287.173C476.519 287.18 477.635 287.109 478.742 286.959C479.665 286.582 480.49 286 481.155 285.258C484.562 282.314 487.964 279.365 491.361 276.412C500.055 268.837 508.977 261.391 517.171 253.288C518.287 252.379 519.217 251.263 519.911 250.001C520.368 248.872 519.355 248.086 518.627 247.286C514.787 242.999 510.633 238.997 506.55 234.953C503.538 231.966 500.183 229.15 497.4 225.949C497.6 226.178 497.4 225.949 497.257 225.692L496.486 224.091L493.631 218.203C488.235 206.97 482.754 195.737 477.743 184.319C476.986 182.589 476.316 180.874 475.702 179.088C474.703 176.303 473.958 173.433 473.475 170.513C473.28 168.017 472.727 165.563 471.833 163.225C469.592 158.308 465.053 157.594 460.142 157.794C455.231 157.994 450.606 157.437 446.509 154.193C444.711 152.794 443.205 151.055 442.078 149.073C440.952 147.092 440.226 144.907 439.943 142.645C439.8 141.388 436.831 144.203 436.717 144.96C436.074 149.491 435.503 154.507 432.905 158.408C430.307 162.31 426.253 163.282 421.928 162.224C418.145 161.295 414.448 159.88 410.908 162.224C409.35 163.348 408.071 164.815 407.168 166.512C406.168 168.241 405.512 170.799 403.071 170.299C401.843 170.07 399.359 173.343 400.458 173.543H400.487Z" fill="#092857"/>
<path d="M427.466 221.047C434.746 219.89 443.169 213.544 455.174 197.095C455.174 197.095 454.246 232.452 426.924 232.452L427.466 221.019" fill="#092857"/>
<path d="M426.453 222.648C431.344 221.595 435.873 219.274 439.586 215.917C445.854 210.41 451.417 204.145 456.145 197.267L453.561 198.41C453.561 198.038 453.561 198.81 453.561 199.096C453.561 199.882 453.432 200.654 453.332 201.44C453.035 204.065 452.558 206.668 451.905 209.228C450.249 215.688 447.337 222.534 441.912 226.664C437.945 229.475 433.182 230.937 428.323 230.837L428.637 231.437L429.165 220.004C429.25 218.403 426.01 220.904 425.953 222.033L425.425 233.466C425.425 233.652 425.425 234.067 425.725 234.067C430.411 234.035 435.014 232.83 439.116 230.561C443.217 228.292 446.686 225.031 449.207 221.076C453.118 214.913 455.592 207.948 456.444 200.697C456.685 199.072 456.833 197.436 456.887 195.795C456.887 194.651 454.446 196.724 454.303 196.938C450.06 203.093 445.101 208.721 439.528 213.702C436.419 216.573 432.591 218.549 428.451 219.418C427.474 219.718 426.654 220.39 426.167 221.29C425.896 221.733 425.482 222.791 426.424 222.634L426.453 222.648Z" fill="#092857"/>
<path d="M447.608 160.152C447.923 157.595 449.065 155.212 450.859 153.365C452.654 151.518 455.003 150.31 457.547 149.925C460.091 149.539 462.692 149.998 464.952 151.23C467.212 152.463 469.007 154.402 470.063 156.751C472.433 162.053 470.577 168.398 467.294 173.186C465.794 175.578 463.685 177.526 461.184 178.831C459.925 179.463 458.523 179.756 457.116 179.681C455.709 179.606 454.346 179.165 453.161 178.402" fill="white"/>
<path d="M449.222 159.137C449.429 157.09 450.365 155.185 451.858 153.77C453.352 152.356 455.304 151.527 457.358 151.434C459.65 151.339 461.919 151.915 463.887 153.093C465.855 154.271 467.436 156 468.436 158.066C470.549 162.667 469.292 168.07 466.78 172.271C465.664 174.409 463.947 176.173 461.841 177.345C460.71 177.882 459.462 178.121 458.213 178.041C456.964 177.961 455.756 177.564 454.703 176.887C453.604 176.158 450.835 179.36 451.677 179.917C456.159 182.932 461.527 180.517 465.053 177.187C468.886 173.58 471.496 168.863 472.518 163.696C473.035 161.378 472.909 158.963 472.155 156.711C471.4 154.459 470.045 152.457 468.236 150.92C466.475 149.525 464.372 148.629 462.147 148.328C459.922 148.026 457.656 148.329 455.588 149.205C453.141 150.257 450.993 151.901 449.337 153.989C447.68 156.076 446.566 158.543 446.096 161.167C445.953 162.096 446.981 161.696 447.437 161.424C448.332 160.932 449.002 160.113 449.307 159.137H449.222Z" fill="#092857"/>
<path d="M417.189 177.988L418.973 188.12L419.844 193.079C419.966 194.616 420.273 196.132 420.757 197.595C422.185 200.74 425.868 197.696 427.452 196.424L435.646 189.892C436.146 189.478 437.345 188.378 437.074 187.606C436.802 186.834 435.646 187.692 435.289 187.935L428.152 193.651L426.41 195.08C426.053 195.456 425.59 195.715 425.083 195.823C423.826 195.823 423.655 194.251 423.484 193.351L420.358 175.473C420.215 174.644 418.859 175.587 418.573 175.801C418.017 176.259 416.974 177.23 417.146 178.088L417.189 177.988Z" fill="#092857"/>
<path d="M474.673 180.488L464.98 176.201C467.678 174.2 471.047 167.355 473.745 165.354C474.017 168.812 473.645 177.116 473.917 180.574" fill="#092857"/>
<path d="M475.987 178.903L466.28 174.615L465.138 177.202C467.161 175.441 468.896 173.372 470.277 171.071L471.347 169.513L471.947 168.656L472.29 168.199C472.646 167.727 473.018 167.27 473.389 166.77C473.06 167.155 473.574 166.598 473.688 166.484C473.803 166.369 473.688 166.484 473.589 166.555C473.489 166.627 473.803 166.384 473.917 166.298L472.133 166.627C472.518 171.7 471.918 176.788 472.304 181.847C472.304 182.704 473.845 181.704 474.088 181.518C474.702 181.018 475.601 180.089 475.516 179.246C475.13 174.187 475.73 169.085 475.344 164.026C475.344 163.154 473.731 164.226 473.56 164.354C471.541 166.116 469.811 168.185 468.435 170.485C468.078 171 467.722 171.529 467.35 172.043L466.765 172.9C466.894 172.7 466.494 173.243 466.408 173.372C466.066 173.829 465.694 174.287 465.309 174.73C465.652 174.344 465.138 174.901 465.024 175.03C464.909 175.158 465.024 175.03 465.123 174.944C465.009 175.016 464.909 175.116 464.795 175.201C464.353 175.53 462.583 177.316 463.653 177.788L473.36 182.075C473.631 182.19 474.217 181.847 474.402 181.732C474.873 181.435 475.288 181.058 475.63 180.618C475.958 180.218 476.715 179.189 475.972 178.831L475.987 178.903Z" fill="#092857"/>
<path d="M664.688 296.605C655.309 277.655 651.612 265.708 619.179 254.703C595.854 246.8 516.785 226.35 495.858 227.436C490.167 244.87 479.653 260.332 465.538 272.024C464.655 272.858 463.603 273.492 462.454 273.882C460.596 274.195 458.687 273.894 457.016 273.025C444.585 267.941 433.435 260.161 424.369 250.245L423.526 250.516C423.526 250.516 396.847 262.564 370.709 275.654C347.355 287.359 325.729 301.379 321.018 320.701C317.007 337.236 311.025 382.496 311.025 382.496L314.095 488.852H560.68C504.465 473.031 441.413 452.023 441.413 452.023L437.287 467.615C437.287 467.615 455.017 468.958 455.017 475.261C455.017 481.563 445.553 483.507 436.973 482.907C428.394 482.306 425.439 479.005 425.439 479.005C423.219 481.243 420.294 482.642 417.16 482.964C415.663 483.005 414.179 482.681 412.835 482.019C411.492 481.356 410.331 480.376 409.451 479.162C409.451 479.162 404.869 482.907 400.729 482.907C394.52 482.907 387.268 472.417 387.711 462.07C388.153 451.723 390.08 434.616 390.08 434.616C390.08 434.616 379.574 448.565 374.249 457.482C368.925 466.4 364.928 482.978 358.547 482.978C352.166 482.978 350.41 467.987 356.034 454.038C361.659 440.09 377.918 408.692 390.794 404.519C403.67 400.346 430.964 394.858 460.199 397.716C489.434 400.575 577.254 412.379 577.254 412.379L572.885 394.329C579.894 392.9 586.918 391.471 593.955 390.156C609.586 387.298 625.289 384.668 641.063 382.782C648.971 381.839 669.07 380.067 669.07 380.067C680.019 379.323 688.812 378.952 690.768 384.354C690.84 384.34 671.511 310.397 664.688 296.605Z" fill="#FFB321"/>
<path d="M666.201 295.09C661.005 284.586 656.294 273.825 646.916 266.322C636.595 258.047 623.576 253.874 611.086 250.116C584.834 242.241 558.097 235.553 531.217 230.236C524.508 228.907 517.756 227.678 510.975 226.778C506.307 226.043 501.582 225.727 496.857 225.835C495.715 225.835 494.573 227.478 494.245 228.45C490.286 240.507 483.935 251.638 475.573 261.177C473.466 263.573 471.231 265.853 468.878 268.008C467.751 269.051 466.58 270.08 465.381 271.052C464.675 271.685 463.81 272.113 462.879 272.289C461.948 272.466 460.987 272.384 460.099 272.053C454.004 270.252 448.051 266.679 442.784 263.192C436.591 259.067 430.917 254.211 425.882 248.729C425.81 248.674 425.725 248.637 425.636 248.623C425.546 248.608 425.454 248.615 425.368 248.644C422.559 249.681 419.814 250.884 417.146 252.245C410.341 255.379 403.547 258.562 396.761 261.792C380.059 269.737 362.815 277.398 347.455 287.802C335.322 296.019 323.045 306.909 319.391 321.715C316.65 332.776 315.108 344.195 313.41 355.442C312.058 364.484 310.778 373.535 309.57 382.596C309.372 385.404 309.396 388.223 309.641 391.028L311.226 445.649L312.039 473.946C312.182 479.076 312.125 484.264 312.482 489.395C312.482 489.638 312.482 489.895 312.482 490.138C312.491 490.218 312.527 490.293 312.584 490.35C312.641 490.407 312.716 490.443 312.796 490.452H529.161C539.068 490.452 549.061 490.809 558.968 490.452H559.439C560.381 490.452 563.421 487.594 562.051 487.208C540.382 481.106 518.826 474.589 497.343 467.872C481.945 463.108 466.575 458.192 451.234 453.123L442.784 450.265C441.67 449.893 440.114 452.009 439.929 452.895L435.803 468.501C435.803 468.715 435.803 469.087 436.117 469.101C440.999 469.487 446.866 470.23 451.063 472.917C453.561 474.532 454.732 477.833 451.52 479.434C446.923 481.72 440.757 481.62 435.817 480.863C432.962 480.434 429.151 479.619 427.081 477.347C426.567 476.804 425.24 477.99 424.968 478.276C421.443 481.963 414.376 482.32 411.093 477.504C410.779 477.033 409.666 477.861 409.423 478.047C406.811 480.148 403.085 481.977 399.759 480.663C395.476 478.976 392.621 474.146 391.037 470.073C389.21 465.171 389.424 460.312 389.781 455.195C390.109 450.594 390.523 445.992 390.98 441.404C391.251 438.761 391.522 436.102 391.808 433.473C391.993 431.858 389.524 433.93 389.238 434.316C386.769 437.589 384.37 440.904 382.001 444.234C378.042 449.461 374.482 454.978 371.352 460.74C368.497 466.457 366.57 472.774 363.215 478.262C362.316 479.691 361.359 481.377 359.432 481.12C357.148 480.805 355.949 478.262 355.349 476.347C353.108 469.072 354.836 460.398 357.548 453.481C359.557 448.485 361.82 443.596 364.328 438.832C367.318 432.923 370.655 427.196 374.321 421.682C377.348 416.783 381.081 412.358 385.398 408.549C389.138 405.505 393.963 404.561 398.531 403.461C405.395 401.816 412.35 400.576 419.358 399.745C434.469 398.016 449.728 398.016 464.839 399.745C486.251 402.046 507.663 404.847 528.976 407.606C544.45 409.606 559.895 411.893 575.37 413.708L576.126 413.808C577.183 413.951 579.309 412.007 578.981 410.95L574.699 392.9L572.072 395.758C603.777 388.92 635.892 384.146 668.214 381.467C672.614 380.998 677.047 380.921 681.461 381.238C684.473 381.552 688.099 382.324 689.341 385.525C689.826 386.74 692.867 384.011 692.581 382.91C690.316 374.278 687.994 365.656 685.615 357.043C681.418 341.723 677.15 326.402 672.297 311.311C670.702 305.737 668.703 300.287 666.315 295.004C665.944 294.247 662.675 296.777 663.289 298.034C665.348 302.599 667.084 307.303 668.485 312.111C670.812 319.257 672.968 326.502 675.066 333.734C679.191 347.897 683.103 362.116 686.9 376.35C687.728 379.423 688.542 382.481 689.341 385.554L692.581 382.939C690.126 376.765 680.705 377.78 675.451 378.037C670.626 378.251 665.83 378.737 661.019 379.18C643.989 380.752 627.074 382.896 610.215 385.754C598.138 387.812 586.076 390.042 574.099 392.614C573.171 392.814 571.244 394.372 571.473 395.472L575.841 413.522L578.696 410.664C564.649 408.758 550.593 406.905 536.527 405.105C514.03 402.175 491.533 399.231 468.978 396.773C453.892 394.982 438.656 394.848 423.541 396.373C415.945 397.18 408.407 398.464 400.972 400.217C396.162 401.36 390.98 402.418 386.911 405.29C382.133 408.873 377.976 413.218 374.606 418.152C370.586 423.714 366.942 429.539 363.7 435.588C357.362 447.235 350.239 460.355 351.21 474.046C351.481 477.904 352.98 485.379 358.433 484.278C363.886 483.178 366.712 476.289 368.668 472.002C371.523 465.857 373.836 459.654 377.504 453.966C381.173 448.278 384.941 443.005 388.853 437.674L391.123 434.63L388.539 435.473C387.697 443.048 386.954 450.651 386.44 458.254C386.069 463.727 386.041 468.887 388.31 473.974C390.109 478.062 393.15 482.663 397.646 483.978C401.786 485.25 406.582 482.392 409.694 479.877L408.01 480.42C412.449 486.951 421.514 484.135 426.096 479.348L423.984 480.262C426.025 482.478 429.765 483.421 432.548 483.892C438.159 484.85 444.911 484.778 450.135 482.277C453.447 480.705 458.272 476.361 456.316 472.173C454.889 469.115 450.478 467.886 447.509 467.2C444.601 466.467 441.635 465.989 438.644 465.771L438.944 466.371L443.069 450.779L440.214 453.409C448.394 456.139 456.602 458.797 464.81 461.441C483.843 467.586 502.924 473.55 522.053 479.333C534.5 483.087 546.977 486.741 559.482 490.295L562.094 487.051H342.259C333.38 487.051 324.487 486.851 315.608 487.051C316.108 487.051 315.779 487.594 315.879 486.736C315.943 485.861 315.943 484.982 315.879 484.107L315.594 474.289L314.666 442.133L312.967 383.468C312.967 382.739 312.967 382.038 312.967 381.31C312.967 381.209 312.967 381.109 312.967 381.009C312.967 381.681 312.967 380.895 313.038 380.724C313.638 376.851 314.081 372.963 314.623 369.076C316.579 355.156 318.563 341.222 321.218 327.417C322.517 320.672 324.002 314.226 327.856 308.395C332.923 300.692 340.404 294.719 347.998 289.66C356.763 284.027 365.88 278.962 375.292 274.496C385.113 269.656 394.991 264.893 404.926 260.205C410.565 257.576 416.204 254.946 421.885 252.374L422.799 251.959C422.328 252.159 422.799 251.959 422.884 251.959C423.298 252.045 423.227 252.088 423.655 252.674C424.618 253.807 425.668 254.863 426.796 255.832C430.469 259.374 434.432 262.6 438.644 265.479C442.741 268.279 447.062 270.736 451.563 272.824C453.806 274.056 456.208 274.974 458.7 275.554C459.879 275.674 461.07 275.543 462.195 275.169C463.319 274.794 464.352 274.185 465.224 273.382C472.851 267.282 479.503 260.053 484.952 251.945C490.29 244.085 494.494 235.512 497.443 226.478L494.844 229.079C498.923 228.991 503.002 229.254 507.035 229.865C512.845 230.608 518.612 231.594 524.365 232.723C538.454 235.381 552.43 238.611 566.334 242.055C579.181 245.214 591.857 248.572 604.505 252.259C616.895 255.875 629.714 259.634 640.492 266.936C645.863 270.552 650.447 275.219 653.968 280.656C657.37 286.319 660.445 292.174 663.175 298.191C663.546 298.892 666.829 296.348 666.201 295.09Z" fill="#FFB321"/>
<path d="M325.129 395.215C329.997 382.625 344.957 374.907 357.961 378.237C370.966 381.567 380.473 395.515 378.731 408.906C382.333 408.006 386.086 407.898 389.734 408.589C393.381 409.28 396.835 410.753 399.859 412.909C402.883 415.064 405.405 417.85 407.25 421.074C409.096 424.299 410.222 427.885 410.55 431.587C417.818 430.077 425.359 430.57 432.369 433.013C439.38 435.455 445.597 439.756 450.358 445.457C455.119 451.158 458.246 458.046 459.406 465.386C460.566 472.726 459.715 480.243 456.944 487.137L331.981 488.294L325.129 395.215Z" fill="white"/>
<path d="M326.614 394.558C330.268 385.397 339.461 379.681 349.097 379.123C359.304 378.523 368.625 384.497 373.636 393.229C376.577 398.268 377.818 404.121 377.176 409.921C377.176 410.336 377.319 410.621 377.776 410.521C381.426 409.642 385.225 409.58 388.902 410.341C392.579 411.102 396.042 412.667 399.045 414.923C401.832 417.083 404.147 419.791 405.848 422.88C407.55 425.97 408.601 429.375 408.938 432.887C408.938 433.187 409.309 433.245 409.537 433.187C415.046 432.132 420.711 432.203 426.192 433.397C431.672 434.591 436.855 436.882 441.428 440.133C446.018 443.456 449.857 447.71 452.695 452.617C455.533 457.525 457.307 462.976 457.901 468.615C458.658 475.099 457.815 481.67 455.446 487.751L458.301 485.479L424.74 485.794L363.443 486.351L340.761 486.565H334.836C334.391 486.501 333.94 486.501 333.495 486.565C333.309 486.565 333.495 486.994 333.637 486.565C333.682 485.966 333.634 485.363 333.495 484.779L333.252 481.492L332.495 471.188L330.354 442.062L326.757 394.758L326.685 393.915C326.685 393.057 325.144 394.058 324.901 394.244C324.273 394.73 323.388 395.673 323.474 396.516L325.786 427.957L329.469 478.091L330.311 489.524C330.32 489.604 330.356 489.679 330.413 489.736C330.471 489.793 330.545 489.829 330.625 489.838L343.016 489.724L372.993 489.452L409.038 489.123L440.214 488.838C445.239 488.838 450.392 489.038 455.417 488.695H455.631C456.262 488.594 456.857 488.332 457.357 487.934C457.857 487.536 458.246 487.015 458.486 486.422C460.637 480.924 461.634 475.041 461.416 469.141C461.197 463.24 459.768 457.447 457.216 452.123C454.617 446.859 450.921 442.212 446.378 438.497C441.835 434.783 436.55 432.085 430.878 430.586C424.599 428.865 418.005 428.635 411.621 429.915L412.221 430.215C411.891 426.451 410.747 422.804 408.87 419.527C406.992 416.25 404.425 413.42 401.347 411.234C398.269 409.048 394.753 407.558 391.043 406.868C387.333 406.177 383.517 406.302 379.86 407.234L380.445 407.835C381.025 402.273 380.018 396.66 377.539 391.649C375.06 386.637 371.212 382.433 366.441 379.524C356.734 373.707 344.6 375.093 335.479 381.41C330.225 384.944 326.129 389.949 323.702 395.801C323.374 396.616 323.788 396.859 324.53 396.63C325.457 396.222 326.2 395.484 326.614 394.558Z" fill="#092857"/>
<path d="M325.329 96.2844C325.329 117.05 313.838 128.154 293.496 128.154C313.638 128.154 325.329 138.83 325.329 160.024C325.329 139.244 335.807 128.154 357.162 128.154C335.736 128.154 325.329 116.635 325.329 96.2844Z" fill="white"/>
<path d="M323.631 97.5991C323.631 105.274 322.032 113.805 316.379 119.422C310.726 125.038 302.304 126.568 294.724 126.568C294.267 126.635 293.83 126.797 293.439 127.043C293.048 127.289 292.713 127.614 292.454 127.997C292.283 128.197 291.269 129.783 292.112 129.783C300.462 129.783 309.242 131.641 315.38 137.672C321.518 143.703 323.602 152.792 323.631 161.338C323.631 162.196 325.215 161.167 325.415 161.01C325.798 160.751 326.123 160.416 326.369 160.024C326.615 159.633 326.776 159.195 326.843 158.737C326.843 151.177 328.184 142.517 333.723 136.9C339.262 131.284 348.084 129.754 355.749 129.754C356.209 129.691 356.65 129.53 357.044 129.284C357.437 129.038 357.775 128.711 358.033 128.325C358.19 128.125 359.204 126.553 358.362 126.539C349.797 126.539 340.818 124.681 334.651 118.35C328.484 112.019 326.871 103.344 326.843 94.9838C326.843 94.1263 325.258 95.1696 325.058 95.3268C324.674 95.5837 324.348 95.9188 324.102 96.3104C323.856 96.702 323.696 97.1411 323.631 97.5991C323.631 106.088 325.529 115.106 331.653 121.38C337.777 127.654 347.113 129.74 355.778 129.783L358.39 126.539C350.967 126.539 343.316 127.825 336.978 132.041C331.325 135.917 327.205 141.65 325.329 148.247C324.156 152.505 323.589 156.907 323.645 161.324L326.885 158.723C326.885 150.034 324.83 140.887 318.42 134.628C312.011 128.368 303.218 126.568 294.738 126.525L292.126 129.769C299.463 129.769 306.929 128.34 313.11 124.238C318.807 120.386 323.021 114.705 325.058 108.132C326.329 103.862 326.945 99.4242 326.885 94.9695C326.885 94.112 325.301 95.1553 325.101 95.3125C324.71 95.5699 324.378 95.9064 324.124 96.3002C323.871 96.6939 323.703 97.1364 323.631 97.5991Z" fill="#092857"/>
<path d="M572.957 394.301L577.325 412.35C577.325 412.35 489.491 400.574 460.199 397.716C430.907 394.858 403.685 400.26 390.823 404.433C377.961 408.606 361.673 440.004 356.063 453.952C350.453 467.901 352.209 482.892 358.576 482.892C364.942 482.892 368.925 466.243 374.278 457.397C379.631 448.55 390.109 434.531 390.109 434.531C390.109 434.531 388.182 451.68 387.739 461.984C387.297 472.288 394.549 482.821 400.758 482.821C404.898 482.821 409.48 479.077 409.48 479.077C410.359 480.29 411.521 481.27 412.864 481.933C414.208 482.595 415.692 482.92 417.189 482.878C420.323 482.556 423.248 481.157 425.468 478.919C425.468 478.919 428.423 482.221 437.002 482.821C445.582 483.421 455.046 481.477 455.046 475.175C455.046 468.873 437.316 467.529 437.316 467.529L441.413 452.023C441.413 452.023 586.633 500.528 632.784 505.615C678.935 510.703 687.185 482.635 677.521 406.42C676.094 395.301 673.967 389.056 672.554 380.695" fill="white"/>
<path d="M571.344 395.601L575.712 413.651L578.567 410.793C564.549 408.887 550.522 407.034 536.485 405.233C514.001 402.375 491.504 399.374 468.964 396.901C453.774 395.094 438.431 394.965 423.213 396.516C415.749 397.327 408.34 398.592 401.029 400.303C396.162 401.46 390.937 402.504 386.754 405.419C382.029 408.98 377.911 413.285 374.564 418.167C370.546 423.72 366.903 429.535 363.657 435.574C357.334 447.164 350.282 460.155 351.038 473.76C351.253 477.69 352.709 485.693 358.361 484.421C363.643 483.249 366.627 476.347 368.611 471.988C371.466 465.771 373.864 459.526 377.604 453.752C381.144 448.279 384.941 442.976 388.796 437.732L390.98 434.802L388.396 435.645C387.568 443.091 386.84 450.551 386.326 458.04C385.955 463.527 385.826 468.715 388.039 473.903C389.795 478.033 392.793 482.635 397.261 484.164C401.458 485.593 406.368 482.735 409.552 480.148L407.867 480.691C412.307 487.222 421.385 484.407 425.953 479.619L423.841 480.534C425.911 482.792 429.722 483.721 432.563 484.193C438.173 485.122 444.911 485.036 450.107 482.506C453.39 480.906 458.144 476.575 456.174 472.502C454.746 469.458 450.349 468.301 447.38 467.543C444.472 466.81 441.506 466.332 438.515 466.114L438.815 466.714L442.941 451.123L440.086 453.752L450.606 457.225C459.771 460.207 468.935 463.161 478.1 466.086C490.69 470.087 503.3 474.012 515.929 477.862C529.861 482.111 543.827 486.222 557.826 490.195C570.973 493.911 584.163 497.498 597.439 500.699C607.692 503.328 618.074 505.427 628.544 506.987C638.536 508.416 649.471 508.802 659.064 504.958C663.314 503.154 667.156 500.509 670.36 497.181C673.564 493.854 676.063 489.912 677.707 485.593C682.36 474.16 682.846 461.155 682.689 448.936C682.575 440.233 681.946 431.543 681.104 422.883C680.293 412.541 678.863 402.256 676.822 392.085C675.894 387.884 674.895 383.696 674.167 379.452C673.981 378.38 670.726 380.809 670.94 382.053C672.539 391.414 674.995 400.517 676.165 409.964C677.336 419.41 678.321 428.842 678.935 438.317C679.805 452.051 680.248 466.357 676.979 479.834C675.965 484.425 674.184 488.812 671.711 492.81C669.714 495.995 666.938 498.617 663.646 500.427C654.91 505.372 643.918 505.186 634.268 504.129C624.524 502.904 614.861 501.095 605.333 498.712C592.599 495.754 579.966 492.396 567.376 488.909C553.615 485.098 539.891 481.11 526.207 476.947C513.33 473.069 500.483 469.101 487.664 465.042C477.795 461.927 467.946 458.773 458.115 455.581C453.204 453.981 448.322 452.237 443.383 450.737L442.712 450.508C441.599 450.136 440.043 452.252 439.857 453.138L435.732 468.744C435.732 468.958 435.732 469.33 436.046 469.344C440.942 469.73 446.838 470.473 451.035 473.188C453.447 474.76 454.66 478.033 451.548 479.619C446.98 481.963 440.799 481.863 435.846 481.149C432.991 480.72 429.094 479.905 426.996 477.604C426.482 477.061 425.154 478.247 424.883 478.533C421.357 482.22 414.277 482.578 411.008 477.761C410.693 477.29 409.58 478.119 409.337 478.305C406.725 480.42 402.956 482.249 399.63 480.906C395.348 479.162 392.379 474.246 390.866 470.101C389.11 465.257 389.338 460.426 389.695 455.381C390.023 450.765 390.452 446.163 390.908 441.576C391.165 438.961 391.437 436.331 391.722 433.73C391.908 432.115 389.438 434.187 389.153 434.573C386.669 437.879 384.232 441.214 381.844 444.577C377.95 449.727 374.443 455.158 371.352 460.826C368.497 466.543 366.527 472.931 363.158 478.447C362.273 479.877 361.302 481.606 359.375 481.306C357.077 481.006 355.863 478.447 355.264 476.518C353.065 469.373 354.707 460.798 357.348 453.981C359.377 448.875 361.683 443.885 364.257 439.032C367.246 433.123 370.583 427.396 374.249 421.883C377.251 417.061 380.923 412.691 385.156 408.906C388.91 405.805 393.621 404.833 398.26 403.704C405.082 402.066 411.993 400.826 418.959 399.988C434.135 398.235 449.462 398.235 464.639 399.988C486.051 402.275 507.321 405.062 528.633 407.82C544.183 409.84 559.729 411.888 575.27 413.965L576.012 414.051C577.068 414.194 579.195 412.25 578.867 411.193L574.584 393.143C574.313 392.014 571.059 394.572 571.344 395.744V395.601Z" fill="white"/>
<path d="M66.2963 196.452C66.2963 214.145 56.5179 223.606 39.1738 223.606C56.3038 223.606 66.2963 232.695 66.2963 250.759C66.2963 233.052 75.2324 223.606 93.4187 223.606C75.2324 223.606 66.2963 213.787 66.2963 196.452Z" fill="white"/>
<path d="M64.6821 197.753C64.6821 204.155 63.383 211.372 58.6437 216.074C53.9044 220.776 46.8098 221.933 40.486 221.933C40.0278 222.002 39.5887 222.165 39.1958 222.411C38.8029 222.656 38.4647 222.98 38.202 223.363C38.045 223.563 37.0315 225.149 37.8737 225.149C45.0112 225.149 52.4199 226.721 57.6588 231.852C62.8977 236.982 64.6392 244.714 64.6821 251.988C64.6821 252.845 66.2666 251.816 66.4664 251.659C66.8477 251.399 67.1712 251.063 67.4168 250.672C67.6624 250.281 67.8249 249.844 67.8939 249.387C67.8939 243.056 68.9931 235.796 73.6039 231.066C78.2147 226.335 85.7234 225.178 92.09 225.149C92.5497 225.085 92.9908 224.925 93.3844 224.678C93.778 224.432 94.1152 224.106 94.374 223.72C94.531 223.52 95.5445 221.948 94.7023 221.933C87.4364 221.933 79.785 220.361 74.5318 214.974C69.2786 209.586 67.9225 202.211 67.8939 195.094C67.8939 194.237 66.3094 195.266 66.1096 195.423C65.7249 195.683 65.3991 196.021 65.1531 196.414C64.9072 196.808 64.7467 197.25 64.6821 197.71C64.6821 204.955 66.2951 212.644 71.5198 218.003C76.7444 223.363 84.7241 225.149 92.1186 225.149L94.7309 221.905C86.5656 221.905 78.3575 223.891 72.4477 229.879C66.5378 235.867 64.7249 243.899 64.6821 251.988L67.9225 249.387C67.9225 241.97 66.1524 234.167 60.6851 228.822C55.2178 223.477 47.7234 221.948 40.486 221.905L37.8737 225.149C45.9676 225.149 53.9473 223.02 59.8286 217.174C65.7099 211.329 67.8796 203.212 67.9225 195.066C67.9225 194.208 66.3379 195.252 66.1381 195.394C65.7398 195.659 65.4034 196.007 65.1521 196.414C64.9008 196.821 64.7404 197.278 64.6821 197.753Z" fill="#092857"/>
<path d="M143.951 291.032C147.177 291.146 150.403 291.132 153.629 291.032C154.086 290.965 154.524 290.804 154.915 290.557C155.306 290.311 155.641 289.986 155.899 289.603C156.042 289.417 157.084 287.788 156.242 287.816C153.001 287.931 149.789 287.931 146.549 287.816C146.091 287.879 145.651 288.038 145.259 288.285C144.868 288.531 144.534 288.859 144.279 289.245C144.122 289.46 143.109 291.003 143.951 291.032Z" fill="#092857"/>
<path d="M137.485 287.802C134.116 287.802 130.757 287.802 127.407 287.802C126.946 287.862 126.504 288.021 126.11 288.268C125.715 288.514 125.379 288.843 125.123 289.231C124.966 289.431 123.952 291.003 124.795 291.018C128.163 291.075 131.523 291.099 134.873 291.089C135.332 291.023 135.772 290.862 136.166 290.616C136.559 290.37 136.897 290.044 137.157 289.66C137.299 289.46 138.327 287.873 137.485 287.873V287.802Z" fill="#092857"/>
<path d="M142.352 284.815C142.524 281.543 142.566 278.284 142.452 275.012C142.452 274.697 142.053 274.683 141.838 274.711C141.406 274.831 141.006 275.046 140.668 275.34C140.025 275.883 139.24 276.769 139.24 277.627C139.355 280.699 139.326 283.758 139.169 286.83C139.169 287.102 139.169 287.359 139.469 287.445C139.849 287.45 140.22 287.33 140.525 287.102C140.993 286.801 141.408 286.424 141.753 285.987C142.062 285.659 142.279 285.255 142.381 284.815H142.352Z" fill="#092857"/>
<path d="M139.497 294.347C139.062 297.449 139.134 300.601 139.711 303.68C139.854 304.508 141.225 303.565 141.496 303.337C141.939 302.998 142.316 302.582 142.609 302.108C142.834 301.806 142.954 301.44 142.952 301.064C142.692 299.595 142.525 298.11 142.452 296.62C142.432 295.186 142.518 293.753 142.709 292.332C142.823 291.432 141.824 291.775 141.367 292.075C140.9 292.372 140.486 292.744 140.14 293.175C139.831 293.512 139.61 293.919 139.497 294.362V294.347Z" fill="#092857"/>
<path d="M320.375 221.147C324.729 221.29 329.069 221.276 333.423 221.147C333.878 221.077 334.315 220.914 334.706 220.669C335.096 220.423 335.432 220.099 335.692 219.718C335.835 219.532 336.863 217.903 336.021 217.932C331.738 218.089 327.327 218.089 322.988 217.932C322.528 217.996 322.087 218.156 321.693 218.402C321.3 218.648 320.962 218.975 320.704 219.361C320.532 219.575 319.533 221.119 320.375 221.147Z" fill="#092857"/>
<path d="M310.754 217.903C306.229 217.903 301.704 217.903 297.178 217.803C296.719 217.867 296.278 218.027 295.884 218.274C295.49 218.52 295.153 218.847 294.894 219.232C294.737 219.432 293.724 221.004 294.566 221.019C299.091 221.019 303.616 221.119 308.142 221.119C308.6 221.05 309.039 220.887 309.432 220.642C309.825 220.396 310.163 220.072 310.426 219.69C310.583 219.49 311.596 217.903 310.754 217.903Z" fill="#092857"/>
<path d="M317.206 213.702C317.435 209.343 317.492 204.984 317.335 200.611C317.335 199.753 315.765 200.754 315.55 200.939C315.169 201.199 314.845 201.535 314.599 201.926C314.353 202.317 314.191 202.755 314.123 203.212C314.266 207.385 314.228 211.558 314.009 215.731C314.009 216.617 314.851 216.331 315.365 215.988C315.879 215.645 317.178 214.559 317.221 213.702H317.206Z" fill="#092857"/>
<path d="M314.494 225.806C314.216 227.895 314.087 230.002 314.109 232.109C314.19 234.18 314.414 236.243 314.78 238.283C314.922 239.112 316.293 238.183 316.564 237.954C317.121 237.482 318.149 236.525 317.992 235.667C317.637 233.689 317.417 231.688 317.335 229.679C317.304 227.711 317.423 225.742 317.692 223.791C317.792 222.877 316.807 223.22 316.264 223.52C315.376 224.016 314.712 224.834 314.409 225.806H314.494Z" fill="#092857"/>
<path d="M116.815 141.374C121.145 141.517 125.47 141.517 129.791 141.374C130.247 141.305 130.684 141.143 131.075 140.897C131.466 140.651 131.801 140.327 132.06 139.944C132.217 139.759 133.231 138.13 132.389 138.158C128.106 138.315 123.752 138.315 119.413 138.158C118.955 138.222 118.516 138.383 118.125 138.629C117.734 138.875 117.399 139.202 117.143 139.587C116.972 139.802 115.972 141.345 116.815 141.374Z" fill="#092857"/>
<path d="M107.25 138.129C102.74 138.129 98.2429 138.129 93.7321 138.029C93.2743 138.093 92.8354 138.254 92.4441 138.5C92.0529 138.746 91.7182 139.073 91.4623 139.458C91.291 139.659 90.2918 141.231 91.134 141.245C95.6306 141.245 100.142 141.345 104.638 141.345C105.096 141.276 105.535 141.113 105.928 140.868C106.321 140.622 106.659 140.298 106.922 139.916C107.079 139.716 108.093 138.129 107.25 138.129Z" fill="#092857"/>
<path d="M113.674 133.956C113.903 129.669 113.96 125.267 113.803 120.923C113.803 120.065 112.232 121.08 112.018 121.251C111.376 121.78 110.591 122.68 110.591 123.524C110.734 127.687 110.695 131.836 110.477 135.971C110.477 136.872 111.319 136.572 111.904 136.243C112.489 135.914 113.717 134.814 113.76 133.956H113.674Z" fill="#092857"/>
<path d="M110.948 146.004C110.674 148.083 110.55 150.18 110.577 152.278C110.653 154.339 110.873 156.392 111.233 158.423C111.376 159.252 112.746 158.323 113.018 158.094C113.589 157.623 114.617 156.665 114.445 155.808C114.091 153.838 113.872 151.847 113.789 149.848C113.753 147.889 113.867 145.93 114.131 143.989C114.245 143.074 113.246 143.417 112.789 143.717C111.9 144.216 111.232 145.033 110.919 146.004H110.948Z" fill="#092857"/>
<path d="M344.586 427.799C347.358 426.808 350.345 426.579 353.235 427.137C356.125 427.695 358.812 429.02 361.017 430.972C363.148 432.928 364.734 435.407 365.618 438.164C366.501 440.92 366.652 443.86 366.056 446.693C365.842 447.621 366.998 447.207 367.398 446.964C368.28 446.457 368.945 445.643 369.268 444.677C369.928 441.617 369.766 438.435 368.798 435.458C367.83 432.48 366.091 429.813 363.758 427.728C361.304 425.705 358.355 424.373 355.216 423.871C352.077 423.368 348.861 423.713 345.9 424.87C344.94 425.287 344.175 426.053 343.758 427.013C343.444 427.785 343.758 428.142 344.586 427.842V427.799Z" fill="#092857"/>
<path d="M572.957 394.301L577.325 412.351C577.325 412.351 489.491 400.575 460.199 397.716C430.907 394.858 403.685 400.26 390.823 404.433C377.961 408.606 361.673 440.004 356.063 453.952C350.453 467.901 352.209 482.892 358.576 482.892C364.942 482.892 368.925 466.243 374.278 457.397C379.631 448.55 390.109 434.531 390.109 434.531C390.109 434.531 388.182 451.68 387.739 461.984C387.297 472.288 394.549 482.821 400.758 482.821C404.898 482.821 409.48 479.077 409.48 479.077C410.359 480.29 411.521 481.27 412.864 481.933C414.208 482.595 415.692 482.92 417.189 482.878C420.323 482.556 423.248 481.157 425.468 478.919C425.468 478.919 428.423 482.221 437.002 482.821C445.582 483.421 455.046 481.478 455.046 475.175C455.046 468.873 437.316 467.529 437.316 467.529L441.413 452.023C441.413 452.023 586.633 500.528 632.784 505.616C678.935 510.703 687.185 482.635 677.521 406.42C676.094 395.301 674.367 388.813 672.939 380.395" fill="white"/>
<path d="M571.344 395.601L575.712 413.651L578.567 410.793C564.549 408.887 550.522 407.034 536.485 405.234C514.001 402.375 491.504 399.374 468.964 396.902C453.774 395.094 438.431 394.965 423.213 396.516C415.749 397.328 408.34 398.593 401.029 400.303C396.162 401.461 390.937 402.504 386.754 405.419C382.029 408.98 377.911 413.285 374.564 418.167C370.546 423.721 366.903 429.536 363.657 435.574C357.334 447.164 350.282 460.155 351.038 473.76C351.253 477.69 352.709 485.693 358.361 484.421C363.643 483.25 366.627 476.347 368.611 471.988C371.466 465.771 373.864 459.526 377.604 453.752C381.144 448.279 384.941 442.977 388.796 437.732L390.98 434.802L388.396 435.645C387.568 443.091 386.84 450.551 386.326 458.04C385.955 463.528 385.826 468.715 388.039 473.903C389.795 478.033 392.793 482.635 397.261 484.164C401.458 485.593 406.368 482.735 409.552 480.148L407.867 480.691C412.307 487.223 421.385 484.407 425.953 479.62L423.841 480.534C425.911 482.792 429.722 483.721 432.563 484.193C438.173 485.122 444.911 485.036 450.107 482.507C453.39 480.906 458.144 476.576 456.174 472.503C454.746 469.459 450.349 468.301 447.38 467.543C444.472 466.811 441.506 466.333 438.515 466.114L438.815 466.715L442.941 451.123L440.086 453.752L450.606 457.225C459.771 460.207 468.935 463.161 478.1 466.086C490.69 470.087 503.3 474.013 515.929 477.862C529.861 482.111 543.827 486.222 557.826 490.195C570.973 493.911 584.163 497.498 597.439 500.699C607.692 503.328 618.074 505.427 628.544 506.987C638.536 508.417 649.471 508.802 659.064 504.958C663.314 503.154 667.156 500.509 670.36 497.182C673.564 493.854 676.063 489.912 677.707 485.593C682.36 474.16 682.846 461.155 682.689 448.936C682.575 440.233 681.946 431.544 681.104 422.883C680.105 412.536 678.949 402.189 676.979 391.971C676.165 387.684 675.266 383.482 674.552 379.209C674.367 378.137 671.098 380.567 671.312 381.81C672.91 391.214 674.98 400.489 676.151 409.964C677.321 419.439 678.306 428.843 678.92 438.318C679.791 452.052 680.234 466.357 676.965 479.834C675.951 484.425 674.17 488.812 671.697 492.81C669.7 495.995 666.924 498.617 663.632 500.428C654.895 505.373 643.904 505.187 634.254 504.129C624.509 502.904 614.847 501.095 605.318 498.713C592.585 495.754 579.952 492.396 567.361 488.909C553.6 485.098 539.877 481.111 526.192 476.947C513.316 473.069 500.469 469.101 487.65 465.043C477.781 461.927 467.931 458.773 458.101 455.582C453.19 453.981 448.308 452.238 443.369 450.737L442.698 450.508C441.585 450.137 440.029 452.252 439.843 453.138L435.718 468.744C435.718 468.958 435.718 469.33 436.032 469.344C440.928 469.73 446.823 470.473 451.02 473.189C453.433 474.761 454.646 478.033 451.534 479.62C446.966 481.963 440.785 481.863 435.832 481.149C432.977 480.72 429.08 479.906 426.981 477.605C426.467 477.062 425.14 478.248 424.869 478.533C421.343 482.221 414.262 482.578 410.993 477.762C410.679 477.29 409.566 478.119 409.323 478.305C406.711 480.42 402.942 482.249 399.616 480.906C395.334 479.162 392.364 474.246 390.851 470.102C389.095 465.257 389.324 460.426 389.681 455.382C390.009 450.765 390.437 446.164 390.894 441.576C391.151 438.961 391.422 436.331 391.708 433.73C391.893 432.115 389.424 434.188 389.138 434.573C386.654 437.88 384.218 441.214 381.829 444.577C377.936 449.727 374.429 455.158 371.337 460.827C368.482 466.543 366.512 472.931 363.144 478.448C362.259 479.877 361.288 481.606 359.361 481.306C357.062 481.006 355.849 478.448 355.25 476.518C353.051 469.373 354.693 460.798 357.334 453.981C359.363 448.876 361.669 443.885 364.243 439.032C367.232 433.123 370.568 427.396 374.235 421.883C377.237 417.061 380.909 412.692 385.141 408.906C388.896 405.805 393.606 404.833 398.246 403.704C405.068 402.067 411.979 400.826 418.944 399.989C434.121 398.235 449.448 398.235 464.624 399.989C486.037 402.275 507.306 405.062 528.619 407.82C544.169 409.84 559.715 411.888 575.255 413.965L575.998 414.051C577.054 414.194 579.181 412.251 578.853 411.193L574.57 393.143C574.299 392.014 571.044 394.572 571.33 395.744L571.344 395.601Z" fill="#092857"/>
<path d="M422.398 448.364C420.024 453.643 418.441 459.244 417.702 464.985C417.321 467.569 417.611 470.207 418.544 472.645C419.597 474.932 420.967 477.058 422.612 478.962C423.283 479.805 426.438 476.918 425.639 475.932C424.087 474.153 422.79 472.167 421.785 470.03C420.831 467.621 420.55 464.998 420.971 462.441C421.722 457.137 423.201 451.962 425.368 447.064C425.71 446.278 425.268 445.964 424.54 446.221C423.589 446.65 422.828 447.413 422.398 448.364Z" fill="#092857"/>
<path d="M407.21 442.491C405.295 448.182 403.694 453.973 402.414 459.84C401.644 462.865 401.47 466.01 401.9 469.101C402.664 472.776 404.394 476.18 406.91 478.962C407.596 479.805 410.75 476.918 409.951 475.932C407.521 473.278 405.859 470.013 405.14 466.486C404.734 463.442 404.933 460.348 405.726 457.382C406.915 451.903 408.402 446.493 410.179 441.176C410.893 439.075 407.553 441.447 407.196 442.491H407.21Z" fill="#092857"/>
<path d="M295.452 316.999H99.4136C90.2062 316.999 84.3392 325.131 86.2949 335.163L113.817 476.39C115.773 486.394 124.823 494.554 134.03 494.554H330.069C339.276 494.554 345.143 486.422 343.187 476.39L315.651 335.163C313.695 325.131 304.659 316.999 295.452 316.999Z" fill="#092857"/>
<path d="M296.779 315.384H104.067C101.225 315.182 98.3683 315.458 95.6163 316.199C86.98 319.171 83.1115 328.389 84.7531 336.921C86.5089 346.025 88.3076 355.128 90.0777 364.217L99.8988 414.594L108.978 461.169L111.604 474.632C112.561 479.548 113.931 484.164 117.214 488.166C119.235 490.681 121.796 492.707 124.708 494.093C127.62 495.479 130.806 496.188 134.03 496.169H328.184C331.999 496.174 335.704 494.888 338.698 492.519C341.691 490.151 343.796 486.839 344.672 483.121C345.628 479.091 344.786 475.246 344.015 471.316L341.246 457.125L332.038 409.892L322.303 359.873C320.618 351.298 318.977 342.638 317.264 334.02C315.322 324.345 306.957 315.441 296.708 315.341C296.248 315.404 295.806 315.564 295.413 315.811C295.019 316.057 294.682 316.384 294.424 316.77C294.267 316.985 293.253 318.557 294.096 318.557C304.088 318.714 312.182 327.346 314.08 336.821C314.651 339.679 315.222 342.666 315.779 345.582L323.902 386.855L333.894 437.989L340.818 473.546C341.517 477.09 342.402 480.691 341.76 484.25C341.434 486.729 340.192 488.997 338.279 490.605C336.366 492.213 333.92 493.046 331.425 492.939H136.414C132.958 492.92 129.559 492.047 126.521 490.396C123.483 488.746 120.899 486.369 118.999 483.478C116.444 479.762 115.558 475.718 114.716 471.445L107.936 436.646L97.9432 385.597L89.7922 343.781C89.1926 340.665 88.5788 337.564 87.9792 334.463C87.4209 331.964 87.3675 329.379 87.8222 326.86C88.9214 321.601 92.7756 318.714 98.0716 318.614C104.01 318.514 109.963 318.614 115.901 318.614H294.153C294.61 318.55 295.049 318.389 295.441 318.143C295.832 317.897 296.166 317.57 296.422 317.185C296.579 316.97 297.607 315.384 296.779 315.384Z" fill="#092857"/>
<path d="M225.316 420.009C231.63 415.323 232.018 405.135 226.182 397.253C220.346 389.372 210.497 386.782 204.182 391.468C197.868 396.154 197.48 406.342 203.316 414.224C209.152 422.105 219.002 424.695 225.316 420.009Z" fill="white"/>
<path d="M201.136 404.476C200.194 399.231 201.322 392.786 207.16 391.199C213.241 389.556 219.608 392.9 223.562 397.416C227.516 401.932 230 408.849 228.059 414.78C226.217 420.497 220.151 421.654 214.912 420.111C211.447 418.944 208.35 416.885 205.932 414.141C203.514 411.396 201.86 408.063 201.136 404.476C200.908 403.376 197.653 405.905 197.91 407.077C198.658 410.87 200.413 414.391 202.99 417.271C205.568 420.15 208.872 422.282 212.556 423.441C215.905 424.359 219.467 424.101 222.649 422.71C225.831 421.319 228.44 418.878 230.043 415.795C237.181 402.704 222.906 383.225 208.074 388.384C200.351 391.071 196.525 399.374 197.939 407.12C198.096 408.163 201.35 405.719 201.136 404.476Z" fill="#092857"/>
<path d="M479.385 483.164H327.156V494.597H468.079C471.108 494.597 474.012 493.393 476.154 491.248C478.296 489.104 479.499 486.196 479.499 483.164H479.385Z" fill="#092857"/>
<path d="M480.683 481.549H347.241C341.103 481.549 334.85 481.177 328.683 481.549H328.426C327.702 481.66 327.03 481.995 326.505 482.508C325.98 483.02 325.629 483.685 325.5 484.407V495.84C325.509 495.92 325.545 495.995 325.602 496.052C325.659 496.109 325.734 496.146 325.814 496.155H465.709C468.493 496.206 471.238 495.489 473.643 494.082C476.047 492.676 478.019 490.634 479.341 488.18C480.414 486.243 480.979 484.064 480.983 481.849C480.983 480.977 479.398 482.021 479.199 482.178C478.816 482.436 478.491 482.771 478.245 483.163C477.999 483.554 477.838 483.993 477.771 484.45C477.807 485.573 477.612 486.691 477.199 487.735C476.787 488.779 476.164 489.728 475.371 490.522C474.578 491.316 473.63 491.939 472.587 492.353C471.544 492.766 470.427 492.961 469.306 492.925H328.455C328.955 492.925 328.669 493.368 328.769 492.582C328.812 491.868 328.812 491.152 328.769 490.438V481.863L325.843 484.722H459.285C465.438 484.722 471.661 485.022 477.842 484.722H478.071C478.53 484.656 478.971 484.495 479.364 484.249C479.757 484.003 480.095 483.677 480.355 483.293C480.512 483.135 481.525 481.549 480.683 481.549Z" fill="#092857"/>
<path d="M0.316438 490.481H101.669C102.126 490.416 102.565 490.255 102.956 490.009C103.347 489.763 103.682 489.436 103.938 489.052C104.095 488.852 105.123 487.265 104.281 487.265H2.92874C2.4718 487.332 2.03383 487.494 1.64295 487.74C1.25207 487.986 0.916926 488.311 0.659023 488.695C0.501998 488.895 -0.511518 490.481 0.330705 490.481H0.316438Z" fill="#092857"/>
<path d="M464.596 490.481H554.528C554.985 490.414 555.423 490.253 555.814 490.007C556.205 489.761 556.54 489.435 556.798 489.052C556.955 488.852 557.969 487.265 557.126 487.265H467.194C466.735 487.332 466.295 487.493 465.902 487.739C465.509 487.985 465.171 488.311 464.91 488.695C464.753 488.895 463.739 490.481 464.582 490.481H464.596Z" fill="#092857"/>
<path d="M558.597 349.269L569.717 389.899C570.031 391.042 573.271 388.47 572.943 387.284L561.823 346.668C561.509 345.525 558.268 348.097 558.597 349.269Z" fill="#092857"/>
<path d="M568.546 381.01C596.497 374.365 624.974 370.171 653.653 368.476C661.875 367.991 670.103 367.714 678.334 367.648C678.792 367.583 679.231 367.423 679.622 367.177C680.014 366.93 680.348 366.604 680.604 366.218C680.761 366.018 681.789 364.418 680.947 364.432C652.015 364.662 623.16 367.431 594.712 372.707C586.632 374.212 578.595 375.913 570.601 377.809C569.634 378.127 568.82 378.794 568.317 379.681C568.075 380.081 567.632 381.253 568.588 381.024L568.546 381.01Z" fill="#092857"/>
<path d="M237.31 247.901C237.31 247.901 233.027 94.9838 233.027 80.0351C233.027 70.9459 233.412 58.9269 232.128 49.9234C229.501 31.5162 219.48 17.8109 207.86 3.834C207.272 3.12619 206.536 2.55664 205.703 2.16576C204.87 1.77488 203.962 1.57227 203.042 1.57227C202.123 1.57227 201.215 1.77488 200.382 2.16576C199.549 2.55664 198.813 3.12619 198.225 3.834C186.662 17.8109 176.627 31.5162 173.957 49.9234C172.672 58.9269 173.058 70.9459 173.058 80.0351C173.058 94.9695 168.775 247.901 168.775 247.901H237.31Z" fill="#0A7AF9"/>
<path d="M238.922 246.6L238.251 223.477C237.756 206.013 237.281 188.544 236.824 171.071C236.31 152.301 235.834 133.532 235.396 114.763C235.111 103.187 234.74 91.5825 234.64 79.9923C234.525 67.1302 235.582 53.9393 232.27 41.4058C228.402 26.8716 219.508 14.7097 210.115 3.27671C208.103 0.8329 205.519 -0.624812 202.278 0.261248C199.038 1.14731 197.025 3.9484 194.998 6.44938C190.172 12.195 185.791 18.3008 181.894 24.7136C178.116 31.0495 175.288 37.9062 173.5 45.0644C171.941 52.5293 171.246 60.1492 171.43 67.7733C171.344 80.5211 171.287 93.2403 170.988 105.988C170.559 123.795 170.083 141.602 169.56 159.409C169.056 177.978 168.547 196.557 168.033 215.145L167.19 247.658V249.201C167.196 249.28 167.23 249.355 167.284 249.412C167.339 249.469 167.412 249.506 167.49 249.516H236.01C236.469 249.45 236.91 249.289 237.303 249.043C237.696 248.797 238.034 248.471 238.294 248.086C238.451 247.886 239.465 246.3 238.622 246.3H173.143C172.284 246.222 171.419 246.222 170.559 246.3C169.76 246.443 170.459 246.229 170.374 246.514C170.417 246.182 170.417 245.846 170.374 245.514C170.374 243.799 170.474 242.084 170.516 240.383C170.983 223.748 171.459 207.113 171.944 190.478C172.563 168.317 173.157 146.151 173.728 123.981C174.099 109.389 174.571 94.7981 174.713 80.2067C174.856 65.0579 173.628 49.6662 179.153 35.232C182.448 27.1334 186.87 19.5413 192.286 12.6804C193.571 10.994 194.884 9.32193 196.226 7.66414C197.439 6.14927 198.71 3.79121 200.708 3.37676C205.09 2.36208 207.76 7.07818 210.058 9.96502C215.52 16.5284 220.258 23.663 224.19 31.2448C228.132 39.2422 230.484 47.9304 231.114 56.8261C231.827 66.9587 231.328 77.1198 231.499 87.2666C231.813 104.216 232.284 121.151 232.727 138.086C233.298 160.333 233.897 182.58 234.525 204.827C234.916 218.937 235.306 233.042 235.696 247.143C235.696 247.829 235.696 248.572 235.696 249.201C235.696 249.83 237.281 249.044 237.48 248.872C237.868 248.618 238.197 248.283 238.445 247.892C238.694 247.5 238.857 247.06 238.922 246.6Z" fill="#0A7AF9"/>
<path d="M232.855 114.106L243.276 96.9562C243.793 96.0593 244.518 95.2996 245.389 94.7411C248.073 93.0547 250.214 94.8983 251.841 96.6704C256.533 101.819 260.256 107.774 262.833 114.249C263.157 115.092 263.322 115.989 263.318 116.893L263.39 241.884L234.74 242.67L232.855 114.106Z" fill="#0A7AF9"/>
<path d="M234.126 113.848L243.02 99.1712C243.505 98.3852 243.962 97.5706 244.447 96.7989C246.089 94.2979 248.844 96.6702 250.243 98.228C254.777 103.137 258.39 108.826 260.906 115.02C261.622 117.438 261.864 119.971 261.62 122.48V176.787V219.861V235.281C261.62 237.768 261.391 240.383 261.62 242.856C261.627 242.97 261.627 243.085 261.62 243.199L264.546 240.269L248.844 240.712L238.851 240.984C237.996 240.878 237.13 240.902 236.282 241.055C235.768 241.255 236.282 241.227 236.282 241.269C236.446 239.17 236.417 237.061 236.196 234.967L235.996 220.504L235.397 178.331L234.797 135.628L234.583 120.465L234.512 115.62C234.583 114.774 234.583 113.923 234.512 113.077C234.497 112.968 234.497 112.857 234.512 112.748C234.512 111.89 232.941 112.919 232.727 113.077C232.343 113.337 232.018 113.675 231.772 114.069C231.526 114.463 231.365 114.904 231.3 115.363L231.471 128.225L231.914 158.966L232.428 195.966L232.884 228.121L233.041 238.697V242.013C232.977 242.592 232.977 243.177 233.041 243.756C233.048 243.832 233.048 243.909 233.041 243.985C233.051 244.065 233.087 244.14 233.144 244.197C233.201 244.254 233.275 244.29 233.355 244.299L261.991 243.513C262.714 243.398 263.384 243.062 263.908 242.55C264.432 242.038 264.785 241.376 264.917 240.655V177.187V134.313V120.465C264.917 118.193 265.246 115.435 264.518 113.32C262.225 107.094 258.771 101.362 254.34 96.4273C252.584 94.3836 250.471 91.9684 247.488 92.7258C245.161 93.533 243.214 95.1717 242.02 97.3276C238.794 102.415 235.768 107.632 232.656 112.777L231.628 114.463C231.286 115.035 231.014 115.806 231.885 115.821C232.756 115.835 233.755 114.463 234.126 113.848Z" fill="#0A7AF9"/>
<path d="M187.59 114.106L177.169 96.9563C176.667 96.083 175.968 95.3392 175.128 94.784C172.444 93.0977 170.303 94.9412 168.675 96.7134C163.984 101.862 160.26 107.817 157.684 114.292C157.36 115.135 157.195 116.032 157.198 116.936L157.127 241.941L185.777 242.727L187.59 114.106Z" fill="#0A7AF9"/>
<path d="M189.103 112.576L179.952 97.4849C178.325 94.8124 176.341 91.4396 172.629 92.7401C169.903 93.6977 167.876 96.2129 166.091 98.3566C163.877 100.991 161.895 103.812 160.167 106.788C158.169 110.218 155.628 114.291 155.571 118.364V132.484V173.743V240.055C155.492 240.972 155.492 241.895 155.571 242.813C155.585 242.936 155.585 243.061 155.571 243.184C155.58 243.265 155.616 243.339 155.673 243.397C155.73 243.454 155.805 243.49 155.885 243.499L184.52 244.285C185.255 244.17 185.934 243.824 186.46 243.297C186.986 242.771 187.332 242.091 187.447 241.355L187.632 228.493L188.06 197.752L188.589 160.752L189.045 128.597L189.188 118.036V114.706C189.267 114.127 189.267 113.541 189.188 112.962C189.181 112.886 189.181 112.81 189.188 112.734C189.188 111.876 187.604 112.919 187.404 113.062C187.022 113.325 186.697 113.663 186.452 114.057C186.206 114.45 186.044 114.89 185.976 115.349L185.791 128.211L185.362 158.952L184.834 195.952L184.378 228.107L184.235 238.683C184.111 240.366 184.087 242.056 184.163 243.742C184.17 243.818 184.17 243.894 184.163 243.971L187.018 241.041L167.319 240.498L161.78 240.355C160.75 240.156 159.694 240.127 158.654 240.269C158.126 240.512 158.768 239.697 158.654 240.555C158.64 240.484 158.64 240.411 158.654 240.341C158.697 239.975 158.697 239.606 158.654 239.24V205.284V152.521V117.421C158.654 116.678 158.654 115.992 158.654 115.206C158.98 113.352 159.632 111.572 160.581 109.947C161.493 108.055 162.513 106.218 163.636 104.445C164.635 102.873 165.72 101.343 166.876 99.8715C168.033 98.3995 169.303 96.2987 170.959 95.8128C174.314 94.8267 176.74 100.515 178.096 102.787L184.549 113.42L185.876 115.62C186.576 116.421 189.802 113.748 189.103 112.576Z" fill="#0A7AF9"/>
<path d="M225.847 248.358V257.933C211.892 261.444 197.289 261.468 183.322 258.005L182.894 248.344" fill="#0A7AF9"/>
<path d="M224.233 249.659V259.234L226.86 256.376C214.433 259.515 201.466 259.861 188.889 257.39C187.77 257.285 186.667 257.045 185.605 256.676C184.62 256.176 184.863 255.018 184.82 253.989L184.52 247.086C184.52 246.229 182.95 247.258 182.736 247.429C182.35 247.684 182.023 248.019 181.777 248.411C181.53 248.803 181.371 249.243 181.309 249.702L181.737 259.362C181.746 259.443 181.782 259.517 181.839 259.575C181.896 259.632 181.971 259.668 182.051 259.677C196.122 263.124 210.819 263.094 224.876 259.591C225.535 259.405 226.13 259.039 226.594 258.535C227.057 258.03 227.372 257.406 227.502 256.733V247.172C227.502 246.315 225.918 247.344 225.718 247.501C225.334 247.758 225.009 248.094 224.763 248.485C224.517 248.876 224.356 249.315 224.291 249.773L224.233 249.659Z" fill="#0A7AF9"/>
<path d="M184.35 270.338C184.164 275.24 184.35 280.199 184.421 285.101C184.421 292.432 184.592 299.749 184.649 307.081C184.649 308.439 184.649 309.796 184.649 311.154V312.583C184.649 312.74 184.649 313.569 184.649 313.183C184.649 314.798 187.818 312.297 187.861 311.168C188.061 306.252 187.861 301.307 187.861 296.391C187.79 289.074 187.704 281.742 187.647 274.425C187.647 273.068 187.647 271.71 187.647 270.352V268.923C187.647 268.752 187.647 267.937 187.647 268.309C187.718 266.694 184.478 269.209 184.435 270.338H184.35Z" fill="#092857"/>
<path d="M218.495 270.338C218.295 275.24 218.495 280.199 218.495 285.101C218.581 292.428 218.657 299.754 218.723 307.081C218.723 308.439 218.723 309.796 218.723 311.154C218.723 311.626 218.723 312.111 218.723 312.583C218.723 312.74 218.723 313.569 218.723 313.183C218.723 314.798 221.893 312.297 221.935 311.168C222.135 306.252 221.935 301.307 221.864 296.391C221.793 289.074 221.707 281.742 221.65 274.425C221.65 273.068 221.65 271.71 221.65 270.352V268.923C221.65 268.752 221.65 267.937 221.65 268.309C221.721 266.694 218.495 269.209 218.452 270.338H218.495Z" fill="#092857"/>
<path d="M186.148 302.508C182.738 302.6 179.483 303.954 177.012 306.309C174.327 308.567 172.544 311.718 171.988 315.184C171.888 316.084 172.873 315.741 173.344 315.441C174.235 314.949 174.9 314.129 175.199 313.155C175.317 311.965 175.677 310.813 176.256 309.768C176.113 310.039 176.256 309.768 176.341 309.625L176.598 309.224C176.598 309.124 176.941 308.739 176.598 309.124L176.841 308.81L177.141 308.438L177.298 308.267L177.184 308.396L177.512 308.053C177.512 308.053 177.969 307.652 177.712 307.867L177.855 307.752L178.226 307.452C178.583 307.167 177.969 307.624 178.326 307.452L178.725 307.195L179.125 306.952C179.568 306.695 178.825 307.095 179.282 306.866L180.139 306.481C181.202 306.056 182.334 305.833 183.479 305.823C183.939 305.761 184.381 305.601 184.775 305.355C185.169 305.109 185.505 304.781 185.763 304.394C185.906 304.194 186.933 302.608 186.091 302.608L186.148 302.508Z" fill="#092857"/>
<path d="M232.071 115.535C232.509 133.428 232.985 151.325 233.499 169.227C233.956 186.586 234.431 203.95 234.926 221.319L235.483 241.212C235.483 242.07 237.053 241.055 237.267 240.884C237.652 240.628 237.978 240.293 238.225 239.901C238.471 239.509 238.631 239.07 238.695 238.611C238.314 225.035 237.938 211.453 237.567 197.867C237.053 179.298 236.549 160.719 236.054 142.131C235.797 132.384 235.55 122.638 235.312 112.891C235.312 112.034 233.741 113.063 233.527 113.22C233.143 113.479 232.817 113.817 232.571 114.211C232.325 114.605 232.164 115.046 232.1 115.506L232.071 115.535Z" fill="#092857"/>
<path d="M170.374 246.6C170.746 233.738 171.107 220.876 171.459 208.014C172.163 182.737 172.844 157.461 173.501 132.184C173.815 120.132 174.114 108.084 174.4 96.0414C174.4 95.1839 172.801 96.2272 172.616 96.3701C172.234 96.6296 171.91 96.9654 171.664 97.3565C171.418 97.7476 171.256 98.1855 171.188 98.6424C170.655 121.937 170.06 145.232 169.404 168.527C168.795 190.888 168.176 213.244 167.548 235.596C167.419 240.14 167.305 244.685 167.177 249.215C167.177 250.087 168.761 249.03 168.947 248.887C169.33 248.628 169.655 248.293 169.901 247.902C170.146 247.51 170.308 247.072 170.374 246.614V246.6Z" fill="#092857"/>
<path d="M219.695 293.018C225.891 293.367 231.785 295.81 236.414 299.948C241.042 304.086 244.131 309.674 245.175 315.799C245.347 316.87 248.616 314.455 248.402 313.198C247.335 306.916 244.175 301.181 239.437 296.927C234.698 292.674 228.66 290.152 222.307 289.774C221.408 289.774 220.537 290.589 220.023 291.203C219.852 291.432 218.852 292.947 219.695 292.99V293.018Z" fill="#092857"/>
<path d="M103.31 398.702C92.0617 404.419 83.7108 415.981 82.6687 428.714C82.5403 430.3 85.795 427.828 85.8806 426.699C86.2422 421.51 87.9096 416.496 90.7276 412.126C93.5455 407.756 97.4224 404.17 101.997 401.704C102.939 401.261 103.697 400.503 104.138 399.56C104.41 398.86 104.138 398.302 103.31 398.717V398.702Z" fill="#092857"/>
<path d="M102.068 433.202C96.5007 426.499 86.8794 424.827 78.971 427.914C70.4061 431.258 63.9966 439.218 61.4699 447.922C59.9022 453.722 59.697 459.807 60.8704 465.7C61.0702 466.786 64.3249 464.271 64.0965 463.085C62.1837 452.623 63.9395 440.033 73.1183 433.359C81.0266 427.642 92.7035 428.6 99.0416 436.217C99.7411 437.06 102.882 434.159 102.068 433.187V433.202Z" fill="#092857"/>
<path d="M51.2494 475.832C48.6934 473.786 45.6021 472.521 42.3461 472.189C39.0901 471.857 35.8075 472.472 32.8918 473.96C29.8809 475.486 27.3084 477.755 25.4175 480.554C23.5267 483.352 22.3799 486.587 22.0857 489.952C22 491.553 25.2262 489.052 25.2975 487.923C25.3305 485.455 26.0721 483.048 27.4339 480.991C28.7956 478.933 30.7201 477.311 32.9774 476.318C35.5209 475.387 38.2628 475.134 40.9334 475.585C43.604 476.036 46.1114 477.175 48.2088 478.891C49.1795 479.691 52.0916 476.561 51.2351 475.861L51.2494 475.832Z" fill="#092857"/>
<path d="M177.154 225.792L137.884 226.078C137.884 182.175 139.197 181.003 148.048 171.371C159.339 159.095 165.32 150.949 178.939 139.144L177.154 225.792Z" fill="#A1CDFF"/>
<path d="M178.454 224.177L156.713 224.334L145.85 224.406C144.095 224.498 142.337 224.498 140.582 224.406C139.512 224.291 139.497 224.177 139.497 222.977V219.99C139.497 210.457 139.497 200.854 140.325 191.407C140.739 187.034 141.31 182.432 143.423 178.545C143.337 178.688 143.723 178.002 143.851 177.802L144.508 176.801C144.75 176.458 145.521 175.472 145.935 174.915C146.192 174.6 146.478 174.286 146.749 173.986L146.977 173.714L147.491 173.157L151.688 168.555C160.51 158.737 169.046 148.819 179.025 140.13L177.24 140.459L176.641 169.727L175.684 216.388L175.47 227.107C175.47 227.978 177.055 226.935 177.255 226.778C177.639 226.522 177.966 226.187 178.212 225.795C178.458 225.403 178.618 224.964 178.682 224.506L179.282 195.237L180.238 148.576L180.466 137.858C180.466 136.986 178.796 138.086 178.682 138.186C171.108 144.857 163.979 152.018 157.341 159.623C152.83 164.725 148.048 169.627 143.694 174.901C138.427 181.246 137.285 188.863 136.756 196.909C136.114 207.042 136.171 217.231 136.171 227.378C136.185 227.457 136.222 227.529 136.278 227.585C136.335 227.642 136.407 227.679 136.485 227.693L175.77 227.407C176.228 227.343 176.667 227.182 177.058 226.936C177.449 226.69 177.784 226.363 178.04 225.978C178.297 225.763 179.296 224.163 178.454 224.177Z" fill="#A1CDFF"/>
<path d="M193.414 224.22L194.699 250.73L164.279 251.216L163.479 240.455C172.681 233.661 182.694 228.044 193.286 223.734" fill="#A1CDFF"/>
<path d="M191.801 225.52L193.071 252.031L195.926 249.172L175.442 249.501L170.488 249.573H168.005C167.405 249.573 166.192 249.858 165.792 249.33C165.392 248.801 165.649 247.443 165.606 246.943L165.449 244.228L165.064 239.154L163.636 241.427C172.587 234.866 182.304 229.424 192.572 225.22C193.528 224.799 194.292 224.034 194.713 223.077C194.999 222.319 194.713 221.919 193.885 222.233C186.397 225.323 179.185 229.048 172.33 233.366C170.66 234.41 169.018 235.481 167.391 236.596C165.6 237.603 163.957 238.854 162.509 240.312C161.31 241.827 162.038 244.185 162.18 246.028L162.666 252.617C162.679 252.695 162.717 252.767 162.773 252.824C162.829 252.88 162.901 252.918 162.98 252.931L193.385 252.431C194.111 252.322 194.784 251.987 195.309 251.474C195.834 250.961 196.185 250.296 196.312 249.573L195.027 223.048C195.027 222.191 193.471 223.205 193.243 223.391C192.855 223.644 192.527 223.979 192.281 224.371C192.034 224.763 191.876 225.204 191.815 225.663L191.801 225.52Z" fill="#A1CDFF"/>
<path d="M62.6696 451.852C59.2225 450.515 55.4768 450.144 51.835 450.779C48.1931 451.413 44.7928 453.029 41.9995 455.453C39.1443 457.798 36.9395 460.838 35.5971 464.282C34.2546 467.726 33.8196 471.457 34.3338 475.118C34.5194 476.19 37.7883 473.761 37.5742 472.503C36.6321 466.944 38.3165 460.47 42.9273 456.911C45.3878 455.165 48.2548 454.079 51.2539 453.759C54.2531 453.439 57.2842 453.894 60.0573 455.082C61.1279 455.525 63.883 452.338 62.6696 451.852Z" fill="#092857"/>
<path d="M222.549 225.792L259.036 226.078C259.036 182.175 257.808 181.003 249.586 171.371C239.108 159.095 233.555 150.949 220.907 139.144L222.549 225.792Z" fill="#A1CDFF"/>
<path d="M221.207 227.407L257.694 227.693C258.419 227.582 259.091 227.247 259.616 226.734C260.14 226.221 260.492 225.557 260.621 224.834C260.621 215.674 260.621 206.484 260.221 197.324C260.141 192.423 259.587 187.541 258.565 182.747C257.864 179.854 256.624 177.119 254.911 174.686C251.784 170.27 247.973 166.297 244.547 162.124C237.703 153.476 230.297 145.288 222.378 137.615C221.364 136.672 219.223 139.587 219.237 140.473L219.808 169.742L220.693 216.403L220.893 227.121C220.893 227.993 222.464 226.964 222.678 226.792C223.062 226.535 223.388 226.2 223.634 225.809C223.88 225.417 224.04 224.978 224.105 224.52L223.548 195.251L222.649 148.59L222.449 137.872L219.323 140.73C226.361 147.44 232.955 154.601 239.065 162.167C243.048 167.04 247.302 171.728 251.128 176.716C255.767 182.775 256.424 190.292 256.838 197.681C257.409 207.585 257.352 217.517 257.352 227.435L260.278 224.506L223.791 224.234C223.331 224.297 222.89 224.457 222.496 224.704C222.102 224.95 221.765 225.277 221.507 225.663C221.379 225.821 220.365 227.407 221.207 227.407Z" fill="#A1CDFF"/>
<path d="M113.774 454.181C95.8878 447.579 76.0884 460.241 72.8622 478.676C72.7052 479.62 73.7758 479.191 74.2897 478.948C75.1744 478.448 75.8373 477.631 76.1455 476.661C76.7115 473.075 78.0472 469.654 80.0606 466.635C82.0739 463.615 84.7171 461.068 87.8081 459.169C91.3424 457.181 95.2691 455.993 99.3116 455.69C103.354 455.386 107.414 455.974 111.205 457.411C112.304 457.811 115.016 454.624 113.817 454.181H113.774Z" fill="#092857"/>
<path d="M76.7592 471.76C65.8816 468.401 54.3189 479.077 56.1604 490.167C56.3031 491.01 57.6735 490.067 57.9448 489.838C58.5158 489.381 59.5436 488.409 59.3723 487.566C59.0177 485.488 59.1695 483.355 59.8148 481.349C60.3335 479.651 61.2943 478.122 62.5984 476.919C64.2183 475.68 66.116 474.857 68.1263 474.521C70.1366 474.185 72.1985 474.346 74.1326 474.989C75.2746 475.347 77.9154 472.131 76.7306 471.76H76.7592Z" fill="#092857"/>
<path d="M360.203 423.212C360.086 419.359 358.859 415.622 356.671 412.451C354.483 409.279 351.427 406.807 347.869 405.334C340.247 402.318 331.739 404.805 325.857 410.178C325.5 410.507 324.43 411.765 324.944 412.293C325.458 412.822 326.728 411.65 327.042 411.364C332.195 406.648 340.703 406.091 346.77 409.249C349.783 410.862 352.313 413.247 354.104 416.159C355.895 419.072 356.881 422.408 356.962 425.827C356.962 426.685 358.533 425.656 358.747 425.499C359.132 425.239 359.457 424.901 359.703 424.507C359.949 424.113 360.11 423.672 360.174 423.212H360.203Z" fill="#092857"/>
<path d="M352.451 468.472C354.051 468.263 355.678 468.519 357.136 469.211C358.595 469.903 359.823 471.001 360.674 472.374C361.279 473.406 361.643 474.562 361.739 475.754C361.836 476.947 361.662 478.146 361.23 479.262C361.126 479.547 360.992 479.82 360.831 480.077C360.831 480.163 360.531 480.549 360.588 480.463C360.645 480.377 360.088 481.02 360.445 480.634C360.088 481.02 359.018 482.163 359.517 482.749C360.017 483.335 361.345 482.106 361.63 481.82C364.485 478.691 366.084 474.117 364.1 470.073C363.2 468.361 361.786 466.975 360.057 466.11C358.328 465.246 356.372 464.948 354.464 465.257C353.493 465.56 352.675 466.225 352.18 467.115C351.909 467.572 351.509 468.615 352.451 468.544V468.472Z" fill="#092857"/>
<path d="M575.141 413.437L600.636 418.224C601.864 418.467 604.348 415.195 603.248 414.995L577.753 410.207C576.526 409.978 574.042 413.237 575.141 413.437Z" fill="#092857"/>
</svg>
