<svg width="827" height="524" viewBox="0 0 827 524" fill="none" xmlns="http://www.w3.org/2000/svg">
<path d="M648.017 197.146C649.688 196.266 651.131 195.008 652.232 193.473C653.334 191.937 654.063 190.166 654.362 188.3C654.661 186.433 654.522 184.523 653.956 182.719C653.39 180.916 652.412 179.269 651.1 177.91C648.745 175.438 645.39 174.008 643.377 171.236C640.522 167.392 641.122 162.147 640.108 157.502C639.406 154.324 637.932 151.369 635.818 148.896C633.704 146.424 631.014 144.51 627.987 143.325C624.959 142.14 621.686 141.72 618.457 142.101C615.229 142.482 612.144 143.654 609.474 145.512C603.764 149.456 600.31 156.273 594.029 159.088C585.721 162.818 575.557 158.274 567.078 161.589C563.701 163.019 560.921 165.571 559.207 168.816C557.493 172.06 556.95 175.798 557.671 179.396C559.426 187.056 566.906 192.258 574.601 193.945C582.295 195.631 590.303 194.273 598.012 193.144C605.72 192.015 613.857 191.072 621.38 193.33C625.991 194.759 630.187 197.246 634.77 198.704C639.352 200.161 644.762 200.419 648.588 197.532" fill="#092857"/>
<path d="M647.789 198.432C655.155 194.288 659.024 184.441 653.385 177.267C650.787 173.98 646.404 172.536 644.306 168.806C642.208 165.076 642.707 159.974 641.637 155.716C640.619 151.735 638.425 148.154 635.34 145.443C632.255 142.732 628.424 141.018 624.35 140.524C620.13 140.081 615.874 140.897 612.116 142.868C608.537 144.929 605.348 147.604 602.694 150.771C599.725 154.015 596.785 157.33 592.345 158.445C587.906 159.56 583.223 158.902 578.698 158.745C574.502 158.364 570.277 159.058 566.422 160.76C563.041 162.52 560.225 165.2 558.299 168.492C556.302 171.713 555.471 175.523 555.944 179.285C556.417 183.047 558.165 186.532 560.897 189.157C567.264 195.445 576.371 196.774 584.951 196.303C596.371 195.603 608.076 191.715 619.468 194.874C628.775 197.446 638.839 205.706 648.346 198.918C648.988 198.461 650.23 197.489 650.216 196.632C650.202 195.774 649.416 195.96 648.86 196.36C641.508 201.605 632.101 195.317 625.078 192.644C616.513 189.357 607.262 190.458 598.369 191.744C589.476 193.03 580.026 194.602 571.475 191.072C564.866 188.4 558.785 182.497 558.956 174.837C559.003 171.406 560.332 168.117 562.682 165.619C565.408 162.875 569.405 162.132 573.145 162.032C580.997 161.847 589.033 163.833 596.071 159.174C602.395 155.03 606.063 147.298 613.401 144.74C617.189 143.448 621.285 143.368 625.122 144.51C628.958 145.652 632.345 147.96 634.813 151.114C637.342 154.54 638.829 158.624 639.096 162.875C639.595 167.334 640.152 171.665 643.692 174.78C647.232 177.896 650.83 179.539 652.257 184.098C653.685 188.657 652.414 193.573 648.232 195.917C647.575 196.289 646.362 197.346 646.376 198.204C646.39 199.061 647.147 198.789 647.718 198.475L647.789 198.432Z" fill="#092857"/>
<path d="M575.786 187.914C577.927 188.486 579.969 186.656 581.096 184.741C582.224 182.826 583.038 180.597 584.894 179.382C588.577 176.967 593.316 180.125 597.741 180.325C602.166 180.525 606.534 177.253 608.79 173.18C611.045 169.107 611.731 164.462 612.387 159.903C612.91 163.948 614.8 167.692 617.742 170.512C620.684 173.333 624.502 175.061 628.561 175.409C632.843 175.666 637.697 174.38 641.308 176.838C644.434 178.939 645.405 183.055 645.791 186.842C646.315 190.534 647.244 194.157 648.56 197.646C650.387 203.149 669.887 243.378 669.887 243.378C669.887 243.378 692.213 265.216 692.47 266.516C692.727 267.817 653.756 301.344 653.756 301.344L616.884 303.673L602.495 288.225L598.369 266.216L601.453 237.162V237.005C599.868 237.247 598.255 237.247 596.67 237.005C591.246 236.261 588.105 230.516 585.993 225.457C580.985 213.419 577.758 200.714 576.414 187.743" fill="white"/>
<path d="M574.487 189.543C575.604 189.639 576.728 189.46 577.761 189.021C578.793 188.583 579.703 187.899 580.411 187.028C582.067 185.341 582.838 183.255 584.137 181.311C585.436 179.368 588.805 180.225 590.832 180.754C593.124 181.556 595.542 181.938 597.969 181.883C602.566 181.44 606.62 177.981 609.132 174.308C612.259 169.778 613.158 164.305 613.914 158.917L610.703 161.232C611.029 163.776 611.888 166.223 613.224 168.412C614.56 170.602 616.342 172.484 618.454 173.937C620.489 175.345 622.793 176.318 625.22 176.795C628.065 177.1 630.932 177.143 633.785 176.924C636.74 176.924 639.609 177.61 641.494 180.054C643.049 182.459 643.936 185.237 644.063 188.1C644.64 192.434 645.802 196.669 647.518 200.69C652.728 213.295 658.938 225.528 664.833 237.847L667.688 243.735C667.96 244.408 668.363 245.02 668.873 245.536C673.241 249.795 677.581 254.082 681.892 258.398C684.147 260.671 686.403 262.943 688.587 265.272C689.229 265.958 689.871 266.702 690.471 267.388C690.54 267.505 690.622 267.615 690.714 267.716C690.614 267.859 691.014 267.859 690.714 267.716C690.614 267.716 691.342 266.401 691.113 266.716C690.714 267.316 691.37 266.487 690.928 266.945L690.114 267.788C689.372 268.517 688.615 269.217 687.859 269.946C685.746 271.946 683.576 273.904 681.406 275.848C672.385 283.937 663.22 291.897 654.041 299.814L653.47 300.3L654.641 299.672L631.987 301.101L619.582 301.901C619.139 301.901 618.639 301.901 618.154 301.987C617.426 302.101 618.154 301.858 618.154 302.058C618.054 301.758 617.583 301.429 617.383 301.215L615.442 299.129L605.449 288.467C605.007 287.981 604.564 287.467 604.093 287.038C603.991 286.945 603.896 286.845 603.808 286.738C603.708 286.552 603.965 287.067 603.808 286.738C603.445 285.363 603.182 283.964 603.023 282.551L600.325 268.116C600.125 267.045 599.825 265.958 599.711 264.887C599.782 265.487 599.711 264.729 599.711 264.515C599.796 263.843 599.854 263.172 599.925 262.5L602.78 235.947C602.78 235.504 602.651 235.289 602.195 235.347C600.033 235.779 597.791 235.556 595.757 234.705C593.722 233.855 591.988 232.416 590.775 230.573C588.034 226.743 586.492 222.07 584.865 217.711C581.251 207.6 578.855 197.093 577.727 186.413C577.627 185.398 574.358 187.742 574.487 189.014C575.767 200.376 578.477 211.531 582.552 222.213C584.123 226.414 585.75 230.916 588.591 234.46C591.645 238.262 595.728 239.319 600.453 238.633L599.854 238.048L596.87 266.216C596.542 269.36 597.727 272.733 598.298 275.805L600.011 284.952C600.134 286.512 600.426 288.055 600.881 289.553C601.737 290.828 602.771 291.973 603.95 292.955L610.331 299.8C611.887 301.487 613.372 303.287 615.042 304.874C615.656 305.46 616.255 305.288 617.083 305.231L649.402 303.173C650.519 303.18 651.635 303.109 652.742 302.959C653.665 302.582 654.49 302 655.155 301.258C658.562 298.314 661.964 295.365 665.361 292.412C674.055 284.837 682.977 277.391 691.171 269.288C692.287 268.379 693.217 267.263 693.911 266.001C694.368 264.872 693.355 264.086 692.627 263.286C688.787 258.999 684.633 254.997 680.55 250.953C677.538 247.966 674.183 245.15 671.4 241.949C671.6 242.178 671.4 241.949 671.257 241.692L670.486 240.091L667.631 234.203C662.235 222.97 656.754 211.737 651.743 200.319C650.986 198.589 650.316 196.874 649.702 195.088C648.703 192.303 647.958 189.433 647.475 186.513C647.28 184.017 646.727 181.563 645.833 179.225C643.592 174.308 639.053 173.594 634.142 173.794C629.231 173.994 624.606 173.437 620.509 170.193C618.711 168.794 617.205 167.055 616.078 165.073C614.952 163.092 614.226 160.907 613.943 158.645C613.8 157.388 610.831 160.203 610.717 160.96C610.074 165.491 609.503 170.507 606.905 174.408C604.307 178.31 600.253 179.282 595.928 178.224C592.145 177.295 588.448 175.88 584.908 178.224C583.35 179.348 582.071 180.815 581.168 182.512C580.168 184.241 579.512 186.799 577.071 186.299C575.843 186.07 573.359 189.343 574.458 189.543H574.487Z" fill="#092857"/>
<path d="M601.466 237.047C608.746 235.89 617.169 229.544 629.174 213.095C629.174 213.095 628.246 248.452 600.924 248.452L601.466 237.019" fill="#092857"/>
<path d="M600.453 238.648C605.344 237.595 609.873 235.274 613.586 231.917C619.854 226.41 625.417 220.145 630.145 213.267L627.561 214.41C627.561 214.038 627.561 214.81 627.561 215.096C627.561 215.882 627.432 216.654 627.332 217.44C627.035 220.065 626.558 222.668 625.905 225.228C624.249 231.688 621.337 238.534 615.912 242.664C611.945 245.475 607.182 246.937 602.323 246.837L602.637 247.437L603.165 236.004C603.25 234.403 600.01 236.904 599.953 238.033L599.425 249.466C599.425 249.652 599.425 250.067 599.725 250.067C604.411 250.035 609.014 248.83 613.116 246.561C617.217 244.292 620.686 241.031 623.207 237.076C627.118 230.913 629.592 223.948 630.444 216.697C630.685 215.072 630.833 213.436 630.887 211.795C630.887 210.651 628.446 212.724 628.303 212.938C624.06 219.093 619.101 224.721 613.528 229.702C610.419 232.573 606.591 234.549 602.451 235.418C601.474 235.718 600.654 236.39 600.167 237.29C599.896 237.733 599.482 238.791 600.424 238.634L600.453 238.648Z" fill="#092857"/>
<path d="M621.608 176.152C621.923 173.595 623.065 171.212 624.859 169.365C626.654 167.518 629.003 166.31 631.547 165.925C634.091 165.539 636.692 165.998 638.952 167.23C641.212 168.463 643.007 170.402 644.063 172.751C646.433 178.053 644.577 184.398 641.294 189.186C639.794 191.578 637.685 193.526 635.184 194.831C633.925 195.463 632.523 195.756 631.116 195.681C629.709 195.606 628.346 195.165 627.161 194.402" fill="white"/>
<path d="M623.222 175.137C623.429 173.09 624.365 171.185 625.858 169.77C627.352 168.356 629.304 167.527 631.358 167.434C633.65 167.339 635.919 167.915 637.887 169.093C639.855 170.271 641.436 172 642.436 174.066C644.549 178.667 643.292 184.07 640.78 188.271C639.664 190.409 637.947 192.173 635.841 193.345C634.71 193.882 633.462 194.121 632.213 194.041C630.964 193.961 629.756 193.564 628.703 192.887C627.604 192.158 624.835 195.36 625.677 195.917C630.159 198.932 635.527 196.517 639.053 193.187C642.886 189.58 645.496 184.863 646.518 179.696C647.035 177.378 646.909 174.963 646.155 172.711C645.4 170.459 644.045 168.457 642.236 166.92C640.475 165.525 638.372 164.629 636.147 164.328C633.922 164.026 631.656 164.329 629.588 165.205C627.141 166.257 624.993 167.901 623.337 169.989C621.68 172.076 620.566 174.543 620.096 177.167C619.953 178.096 620.981 177.696 621.437 177.424C622.332 176.932 623.002 176.113 623.307 175.137H623.222Z" fill="#092857"/>
<path d="M591.189 193.988L592.973 204.12L593.844 209.079C593.966 210.616 594.273 212.132 594.757 213.595C596.185 216.74 599.868 213.696 601.452 212.424L609.646 205.892C610.146 205.478 611.345 204.378 611.074 203.606C610.802 202.834 609.646 203.692 609.289 203.935L602.152 209.651L600.41 211.08C600.053 211.456 599.59 211.715 599.083 211.823C597.826 211.823 597.655 210.251 597.484 209.351L594.358 191.473C594.215 190.644 592.859 191.587 592.573 191.801C592.017 192.259 590.974 193.23 591.146 194.088L591.189 193.988Z" fill="#092857"/>
<path d="M648.673 196.488L638.98 192.201C641.678 190.2 645.047 183.355 647.745 181.354C648.017 184.812 647.645 193.116 647.917 196.574" fill="#092857"/>
<path d="M649.987 194.903L640.28 190.615L639.138 193.202C641.161 191.441 642.896 189.372 644.277 187.071L645.347 185.513L645.947 184.656L646.29 184.199C646.646 183.727 647.018 183.27 647.389 182.77C647.06 183.155 647.574 182.598 647.688 182.484C647.803 182.369 647.688 182.484 647.589 182.555C647.489 182.627 647.803 182.384 647.917 182.298L646.133 182.627C646.518 187.7 645.918 192.788 646.304 197.847C646.304 198.704 647.845 197.704 648.088 197.518C648.702 197.018 649.601 196.089 649.516 195.246C649.13 190.187 649.73 185.085 649.344 180.026C649.344 179.154 647.731 180.226 647.56 180.354C645.541 182.116 643.811 184.185 642.435 186.485C642.078 187 641.722 187.529 641.35 188.043L640.765 188.9C640.894 188.7 640.494 189.243 640.408 189.372C640.066 189.829 639.694 190.287 639.309 190.73C639.652 190.344 639.138 190.901 639.024 191.03C638.909 191.158 639.024 191.03 639.123 190.944C639.009 191.016 638.909 191.116 638.795 191.201C638.353 191.53 636.583 193.316 637.653 193.788L647.36 198.075C647.631 198.19 648.217 197.847 648.402 197.732C648.873 197.435 649.288 197.058 649.63 196.618C649.958 196.218 650.715 195.189 649.972 194.831L649.987 194.903Z" fill="#092857"/>
<path d="M838.688 312.605C829.309 293.655 825.612 281.708 793.179 270.703C769.854 262.8 690.785 242.35 669.858 243.436C664.167 260.87 653.653 276.332 639.538 288.024C638.655 288.858 637.603 289.492 636.454 289.882C634.596 290.195 632.687 289.894 631.016 289.025C618.585 283.941 607.435 276.161 598.369 266.245L597.526 266.516C597.526 266.516 570.847 278.564 544.709 291.654C521.355 303.359 499.729 317.379 495.018 336.701C491.007 353.236 485.025 398.496 485.025 398.496L488.095 504.852H734.68C678.465 489.031 615.413 468.023 615.413 468.023L611.287 483.615C611.287 483.615 629.017 484.958 629.017 491.261C629.017 497.563 619.553 499.507 610.973 498.907C602.394 498.306 599.439 495.005 599.439 495.005C597.219 497.243 594.294 498.642 591.16 498.964C589.663 499.005 588.179 498.681 586.835 498.019C585.492 497.356 584.331 496.376 583.451 495.162C583.451 495.162 578.869 498.907 574.729 498.907C568.52 498.907 561.268 488.417 561.711 478.07C562.153 467.723 564.08 450.616 564.08 450.616C564.08 450.616 553.574 464.565 548.249 473.482C542.925 482.4 538.928 498.978 532.547 498.978C526.166 498.978 524.41 483.987 530.034 470.038C535.659 456.09 551.918 424.692 564.794 420.519C577.67 416.346 604.964 410.858 634.199 413.716C663.434 416.575 751.254 428.379 751.254 428.379L746.885 410.329C753.894 408.9 760.918 407.471 767.955 406.156C783.586 403.298 799.289 400.668 815.063 398.782C822.971 397.839 843.07 396.067 843.07 396.067C854.019 395.323 862.812 394.952 864.768 400.354C864.84 400.34 845.511 326.397 838.688 312.605Z" fill="#FFB321"/>
<path d="M840.201 311.09C835.005 300.586 830.294 289.825 820.916 282.322C810.595 274.047 797.576 269.874 785.086 266.116C758.834 258.241 732.097 251.553 705.217 246.236C698.508 244.907 691.756 243.678 684.975 242.778C680.307 242.043 675.582 241.727 670.857 241.835C669.715 241.835 668.573 243.478 668.245 244.45C664.286 256.507 657.935 267.638 649.573 277.177C647.466 279.573 645.231 281.853 642.878 284.008C641.751 285.051 640.58 286.08 639.381 287.052C638.675 287.685 637.81 288.113 636.879 288.289C635.948 288.466 634.987 288.384 634.099 288.053C628.004 286.252 622.051 282.679 616.784 279.192C610.591 275.067 604.917 270.211 599.882 264.729C599.81 264.674 599.725 264.637 599.636 264.623C599.546 264.608 599.454 264.615 599.368 264.644C596.559 265.681 593.814 266.884 591.146 268.245C584.341 271.379 577.547 274.562 570.761 277.792C554.059 285.737 536.815 293.398 521.455 303.802C509.322 312.019 497.045 322.909 493.391 337.715C490.65 348.776 489.108 360.195 487.41 371.442C486.058 380.484 484.778 389.535 483.57 398.596C483.372 401.404 483.396 404.223 483.641 407.028L485.226 461.649L486.039 489.946C486.182 495.076 486.125 500.264 486.482 505.395C486.482 505.638 486.482 505.895 486.482 506.138C486.491 506.218 486.527 506.293 486.584 506.35C486.641 506.407 486.716 506.443 486.796 506.452H703.161C713.068 506.452 723.061 506.809 732.968 506.452H733.439C734.381 506.452 737.421 503.594 736.051 503.208C714.382 497.106 692.826 490.589 671.343 483.872C655.945 479.108 640.575 474.192 625.234 469.123L616.784 466.265C615.67 465.893 614.114 468.009 613.929 468.895L609.803 484.501C609.803 484.715 609.803 485.087 610.117 485.101C614.999 485.487 620.866 486.23 625.063 488.917C627.561 490.532 628.732 493.833 625.52 495.434C620.923 497.72 614.757 497.62 609.817 496.863C606.962 496.434 603.151 495.619 601.081 493.347C600.567 492.804 599.24 493.99 598.968 494.276C595.443 497.963 588.376 498.32 585.093 493.504C584.779 493.033 583.666 493.861 583.423 494.047C580.811 496.148 577.085 497.977 573.759 496.663C569.476 494.976 566.621 490.146 565.037 486.073C563.21 481.171 563.424 476.312 563.781 471.195C564.109 466.594 564.523 461.992 564.98 457.404C565.251 454.761 565.522 452.102 565.808 449.473C565.993 447.858 563.524 449.93 563.238 450.316C560.769 453.589 558.37 456.904 556.001 460.234C552.042 465.461 548.482 470.978 545.352 476.74C542.497 482.457 540.57 488.774 537.215 494.262C536.316 495.691 535.359 497.377 533.432 497.12C531.148 496.805 529.949 494.262 529.349 492.347C527.108 485.072 528.836 476.398 531.548 469.481C533.557 464.485 535.82 459.596 538.328 454.832C541.318 448.923 544.655 443.196 548.321 437.682C551.348 432.783 555.081 428.358 559.398 424.549C563.138 421.505 567.963 420.561 572.531 419.461C579.395 417.816 586.35 416.576 593.358 415.745C608.469 414.016 623.728 414.016 638.839 415.745C660.251 418.046 681.663 420.847 702.976 423.606C718.45 425.606 733.895 427.893 749.37 429.708L750.126 429.808C751.183 429.951 753.309 428.007 752.981 426.95L748.699 408.9L746.072 411.758C777.777 404.92 809.892 400.146 842.214 397.467C846.614 396.998 851.047 396.921 855.461 397.238C858.473 397.552 862.099 398.324 863.341 401.525C863.826 402.74 866.867 400.011 866.581 398.91C864.316 390.278 861.994 381.656 859.615 373.043C855.418 357.723 851.15 342.402 846.297 327.311C844.702 321.737 842.703 316.287 840.315 311.004C839.944 310.247 836.675 312.777 837.289 314.034C839.348 318.599 841.084 323.303 842.485 328.111C844.812 335.257 846.968 342.502 849.066 349.734C853.191 363.897 857.103 378.116 860.9 392.35C861.728 395.423 862.542 398.481 863.341 401.554L866.581 398.939C864.126 392.765 854.705 393.78 849.451 394.037C844.626 394.251 839.83 394.737 835.019 395.18C817.989 396.752 801.074 398.896 784.215 401.754C772.138 403.812 760.076 406.042 748.099 408.614C747.171 408.814 745.244 410.372 745.473 411.472L749.841 429.522L752.696 426.664C738.649 424.758 724.593 422.905 710.527 421.105C688.03 418.175 665.533 415.231 642.978 412.773C627.892 410.982 612.656 410.848 597.541 412.373C589.945 413.18 582.407 414.464 574.972 416.217C570.162 417.36 564.98 418.418 560.911 421.29C556.133 424.873 551.976 429.218 548.606 434.152C544.586 439.714 540.942 445.539 537.7 451.588C531.362 463.235 524.239 476.355 525.21 490.046C525.481 493.904 526.98 501.379 532.433 500.278C537.886 499.178 540.712 492.289 542.668 488.002C545.523 481.857 547.836 475.654 551.504 469.966C555.173 464.278 558.941 459.005 562.853 453.674L565.123 450.63L562.539 451.473C561.697 459.048 560.954 466.651 560.44 474.254C560.069 479.727 560.041 484.887 562.31 489.974C564.109 494.062 567.15 498.663 571.646 499.978C575.786 501.25 580.582 498.392 583.694 495.877L582.01 496.42C586.449 502.951 595.514 500.135 600.096 495.348L597.984 496.262C600.025 498.478 603.765 499.421 606.548 499.892C612.159 500.85 618.911 500.778 624.135 498.277C627.447 496.705 632.272 492.361 630.316 488.173C628.889 485.115 624.478 483.886 621.509 483.2C618.601 482.467 615.635 481.989 612.644 481.771L612.944 482.371L617.069 466.779L614.214 469.409C622.394 472.139 630.602 474.797 638.81 477.441C657.843 483.586 676.924 489.55 696.053 495.333C708.5 499.087 720.977 502.741 733.482 506.295L736.094 503.051H516.259C507.38 503.051 498.487 502.851 489.608 503.051C490.108 503.051 489.779 503.594 489.879 502.736C489.943 501.861 489.943 500.982 489.879 500.107L489.594 490.289L488.666 458.133L486.967 399.468C486.967 398.739 486.967 398.038 486.967 397.31C486.967 397.209 486.967 397.109 486.967 397.009C486.967 397.681 486.967 396.895 487.038 396.724C487.638 392.851 488.081 388.963 488.623 385.076C490.579 371.156 492.563 357.222 495.218 343.417C496.517 336.672 498.002 330.226 501.856 324.395C506.923 316.692 514.404 310.719 521.998 305.66C530.763 300.027 539.88 294.962 549.292 290.496C559.113 285.656 568.991 280.893 578.926 276.205C584.565 273.576 590.204 270.946 595.885 268.374L596.799 267.959C596.328 268.159 596.799 267.959 596.884 267.959C597.298 268.045 597.227 268.088 597.655 268.674C598.618 269.807 599.668 270.863 600.796 271.832C604.469 275.374 608.432 278.6 612.644 281.479C616.741 284.279 621.062 286.736 625.563 288.824C627.806 290.056 630.208 290.974 632.7 291.554C633.879 291.674 635.07 291.543 636.195 291.169C637.319 290.794 638.352 290.185 639.224 289.382C646.851 283.282 653.503 276.053 658.952 267.945C664.29 260.085 668.494 251.512 671.443 242.478L668.844 245.079C672.923 244.991 677.002 245.254 681.035 245.865C686.845 246.608 692.612 247.594 698.365 248.723C712.454 251.381 726.43 254.611 740.334 258.055C753.181 261.214 765.857 264.572 778.505 268.259C790.895 271.875 803.714 275.634 814.492 282.936C819.863 286.552 824.447 291.219 827.968 296.656C831.37 302.319 834.445 308.174 837.175 314.191C837.546 314.892 840.829 312.348 840.201 311.09Z" fill="#FFB321"/>
<path d="M499.129 411.215C503.997 398.625 518.957 390.907 531.961 394.237C544.966 397.567 554.473 411.515 552.731 424.906C556.333 424.006 560.086 423.898 563.734 424.589C567.381 425.28 570.835 426.753 573.859 428.909C576.883 431.064 579.405 433.85 581.25 437.074C583.096 440.299 584.222 443.885 584.55 447.587C591.818 446.077 599.359 446.57 606.369 449.013C613.38 451.455 619.597 455.756 624.358 461.457C629.119 467.158 632.246 474.046 633.406 481.386C634.566 488.726 633.715 496.243 630.944 503.137L505.981 504.294L499.129 411.215Z" fill="white"/>
<path d="M500.614 410.558C504.268 401.397 513.461 395.681 523.097 395.123C533.304 394.523 542.625 400.497 547.636 409.229C550.577 414.268 551.818 420.121 551.176 425.921C551.176 426.336 551.319 426.621 551.776 426.521C555.426 425.642 559.225 425.58 562.902 426.341C566.579 427.102 570.042 428.667 573.045 430.923C575.832 433.083 578.147 435.791 579.848 438.88C581.55 441.97 582.601 445.375 582.938 448.887C582.938 449.187 583.309 449.245 583.537 449.187C589.046 448.132 594.711 448.203 600.192 449.397C605.672 450.591 610.855 452.882 615.428 456.133C620.018 459.456 623.857 463.71 626.695 468.617C629.533 473.525 631.307 478.976 631.901 484.615C632.658 491.099 631.815 497.67 629.446 503.751L632.301 501.479L598.74 501.794L537.443 502.351L514.761 502.565H508.836C508.391 502.501 507.94 502.501 507.495 502.565C507.309 502.565 507.495 502.994 507.637 502.565C507.682 501.966 507.634 501.363 507.495 500.779L507.252 497.492L506.495 487.188L504.354 458.062L500.757 410.758L500.685 409.915C500.685 409.057 499.144 410.058 498.901 410.244C498.273 410.73 497.388 411.673 497.474 412.516L499.786 443.957L503.469 494.091L504.311 505.524C504.32 505.604 504.356 505.679 504.413 505.736C504.471 505.793 504.545 505.829 504.625 505.838L517.016 505.724L546.993 505.452L583.038 505.123L614.214 504.838C619.239 504.838 624.392 505.038 629.417 504.695H629.631C630.262 504.594 630.857 504.332 631.357 503.934C631.857 503.536 632.246 503.015 632.486 502.422C634.637 496.924 635.634 491.041 635.416 485.141C635.197 479.24 633.768 473.447 631.216 468.123C628.617 462.859 624.921 458.212 620.378 454.497C615.835 450.783 610.55 448.085 604.878 446.586C598.599 444.865 592.005 444.635 585.621 445.915L586.221 446.215C585.891 442.451 584.747 438.804 582.87 435.527C580.992 432.25 578.425 429.42 575.347 427.234C572.269 425.048 568.753 423.558 565.043 422.868C561.333 422.177 557.517 422.302 553.86 423.234L554.445 423.835C555.025 418.273 554.018 412.66 551.539 407.649C549.06 402.637 545.212 398.433 540.441 395.524C530.734 389.707 518.6 391.093 509.479 397.41C504.225 400.944 500.129 405.949 497.702 411.801C497.374 412.616 497.788 412.859 498.53 412.63C499.457 412.222 500.2 411.484 500.614 410.558Z" fill="#092857"/>
<path d="M499.329 112.284C499.329 133.05 487.838 144.154 467.496 144.154C487.638 144.154 499.329 154.83 499.329 176.024C499.329 155.244 509.807 144.154 531.162 144.154C509.736 144.154 499.329 132.635 499.329 112.284Z" fill="white"/>
<path d="M497.631 113.599C497.631 121.274 496.032 129.805 490.379 135.422C484.726 141.038 476.304 142.568 468.724 142.568C468.267 142.635 467.83 142.797 467.439 143.043C467.048 143.289 466.713 143.614 466.454 143.997C466.283 144.197 465.269 145.783 466.112 145.783C474.462 145.783 483.242 147.641 489.38 153.672C495.518 159.703 497.602 168.792 497.631 177.338C497.631 178.196 499.215 177.167 499.415 177.01C499.798 176.751 500.123 176.416 500.369 176.024C500.615 175.633 500.776 175.195 500.843 174.737C500.843 167.177 502.184 158.517 507.723 152.9C513.262 147.284 522.084 145.754 529.749 145.754C530.209 145.691 530.65 145.53 531.044 145.284C531.437 145.038 531.775 144.711 532.033 144.325C532.19 144.125 533.204 142.553 532.362 142.539C523.797 142.539 514.818 140.681 508.651 134.35C502.484 128.019 500.871 119.344 500.843 110.984C500.843 110.126 499.258 111.17 499.058 111.327C498.674 111.584 498.348 111.919 498.102 112.31C497.856 112.702 497.696 113.141 497.631 113.599C497.631 122.088 499.529 131.106 505.653 137.38C511.777 143.654 521.113 145.74 529.778 145.783L532.39 142.539C524.967 142.539 517.316 143.825 510.978 148.041C505.325 151.917 501.205 157.65 499.329 164.247C498.156 168.505 497.589 172.907 497.645 177.324L500.885 174.723C500.885 166.034 498.83 156.887 492.42 150.628C486.011 144.368 477.218 142.568 468.738 142.525L466.126 145.769C473.463 145.769 480.929 144.34 487.11 140.238C492.807 136.386 497.021 130.705 499.058 124.132C500.329 119.862 500.945 115.424 500.885 110.97C500.885 110.112 499.301 111.155 499.101 111.312C498.71 111.57 498.378 111.906 498.124 112.3C497.871 112.694 497.703 113.136 497.631 113.599Z" fill="#092857"/>
<path d="M746.957 410.301L751.325 428.35C751.325 428.35 663.491 416.574 634.199 413.716C604.907 410.858 577.685 416.26 564.823 420.433C551.961 424.606 535.673 456.004 530.063 469.952C524.453 483.901 526.209 498.892 532.576 498.892C538.942 498.892 542.925 482.243 548.278 473.397C553.631 464.55 564.109 450.531 564.109 450.531C564.109 450.531 562.182 467.68 561.739 477.984C561.297 488.288 568.549 498.821 574.758 498.821C578.898 498.821 583.48 495.077 583.48 495.077C584.359 496.29 585.521 497.27 586.864 497.933C588.208 498.595 589.692 498.92 591.189 498.878C594.323 498.556 597.248 497.157 599.468 494.919C599.468 494.919 602.423 498.221 611.002 498.821C619.582 499.421 629.046 497.477 629.046 491.175C629.046 484.873 611.316 483.529 611.316 483.529L615.413 468.023C615.413 468.023 760.633 516.528 806.784 521.615C852.935 526.703 861.185 498.635 851.521 422.42C850.094 411.301 847.967 405.056 846.554 396.695" fill="white"/>
<path d="M745.344 411.601L749.712 429.651L752.567 426.793C738.549 424.887 724.522 423.034 710.485 421.233C688.001 418.375 665.504 415.374 642.964 412.901C627.774 411.094 612.431 410.965 597.213 412.516C589.749 413.327 582.34 414.592 575.029 416.303C570.162 417.46 564.937 418.504 560.754 421.419C556.029 424.98 551.911 429.285 548.564 434.167C544.546 439.72 540.903 445.535 537.657 451.574C531.334 463.164 524.282 476.155 525.038 489.76C525.253 493.69 526.709 501.693 532.361 500.421C537.643 499.249 540.627 492.347 542.611 487.988C545.466 481.771 547.864 475.526 551.604 469.752C555.144 464.279 558.941 458.976 562.796 453.732L564.98 450.802L562.396 451.645C561.568 459.091 560.84 466.551 560.326 474.04C559.955 479.527 559.826 484.715 562.039 489.903C563.795 494.033 566.793 498.635 571.261 500.164C575.458 501.593 580.368 498.735 583.552 496.148L581.867 496.691C586.307 503.222 595.385 500.407 599.953 495.619L597.841 496.534C599.911 498.792 603.722 499.721 606.563 500.193C612.173 501.122 618.911 501.036 624.107 498.506C627.39 496.906 632.144 492.575 630.174 488.502C628.746 485.458 624.349 484.301 621.38 483.543C618.472 482.81 615.506 482.332 612.515 482.114L612.815 482.714L616.941 467.123L614.086 469.752L624.606 473.225C633.771 476.207 642.935 479.161 652.1 482.086C664.69 486.087 677.3 490.012 689.929 493.862C703.861 498.111 717.827 502.222 731.826 506.195C744.973 509.911 758.163 513.498 771.439 516.699C781.692 519.328 792.074 521.427 802.544 522.987C812.536 524.416 823.471 524.802 833.064 520.958C837.314 519.154 841.156 516.509 844.36 513.181C847.564 509.854 850.063 505.912 851.707 501.593C856.36 490.16 856.846 477.155 856.689 464.936C856.575 456.233 855.946 447.543 855.104 438.883C854.293 428.541 852.863 418.256 850.822 408.085C849.894 403.884 848.895 399.696 848.167 395.452C847.981 394.38 844.726 396.809 844.94 398.053C846.539 407.414 848.995 416.517 850.165 425.964C851.336 435.41 852.321 444.842 852.935 454.317C853.805 468.051 854.248 482.357 850.979 495.834C849.965 500.425 848.184 504.812 845.711 508.81C843.714 511.995 840.938 514.617 837.646 516.427C828.91 521.372 817.918 521.186 808.268 520.129C798.524 518.904 788.861 517.095 779.333 514.712C766.599 511.754 753.966 508.396 741.376 504.909C727.615 501.098 713.891 497.11 700.207 492.947C687.33 489.069 674.483 485.101 661.664 481.042C651.795 477.927 641.946 474.773 632.115 471.581C627.204 469.981 622.322 468.237 617.383 466.737L616.712 466.508C615.599 466.136 614.043 468.252 613.857 469.138L609.732 484.744C609.732 484.958 609.732 485.33 610.046 485.344C614.942 485.73 620.838 486.473 625.035 489.188C627.447 490.76 628.66 494.033 625.548 495.619C620.98 497.963 614.799 497.863 609.846 497.149C606.991 496.72 603.094 495.905 600.996 493.604C600.482 493.061 599.154 494.247 598.883 494.533C595.357 498.22 588.277 498.578 585.008 493.761C584.693 493.29 583.58 494.119 583.337 494.305C580.725 496.42 576.956 498.249 573.63 496.906C569.348 495.162 566.379 490.246 564.866 486.101C563.11 481.257 563.338 476.426 563.695 471.381C564.023 466.765 564.452 462.163 564.908 457.576C565.165 454.961 565.437 452.331 565.722 449.73C565.908 448.115 563.438 450.187 563.153 450.573C560.669 453.879 558.232 457.214 555.844 460.577C551.95 465.727 548.443 471.158 545.352 476.826C542.497 482.543 540.527 488.931 537.158 494.447C536.273 495.877 535.302 497.606 533.375 497.306C531.077 497.006 529.863 494.447 529.264 492.518C527.065 485.373 528.707 476.798 531.348 469.981C533.377 464.875 535.683 459.885 538.257 455.032C541.246 449.123 544.583 443.396 548.249 437.883C551.251 433.061 554.923 428.691 559.156 424.906C562.91 421.805 567.621 420.833 572.26 419.704C579.082 418.066 585.993 416.826 592.959 415.988C608.135 414.235 623.462 414.235 638.639 415.988C660.051 418.275 681.321 421.062 702.633 423.82C718.183 425.84 733.729 427.888 749.27 429.965L750.012 430.051C751.068 430.194 753.195 428.25 752.867 427.193L748.584 409.143C748.313 408.014 745.059 410.572 745.344 411.744V411.601Z" fill="white"/>
<path d="M240.296 212.452C240.296 230.145 230.518 239.606 213.174 239.606C230.304 239.606 240.296 248.695 240.296 266.759C240.296 249.052 249.232 239.606 267.419 239.606C249.232 239.606 240.296 229.787 240.296 212.452Z" fill="white"/>
<path d="M238.682 213.753C238.682 220.155 237.383 227.372 232.644 232.074C227.904 236.776 220.81 237.933 214.486 237.933C214.028 238.002 213.589 238.165 213.196 238.411C212.803 238.656 212.465 238.98 212.202 239.363C212.045 239.563 211.031 241.149 211.874 241.149C219.011 241.149 226.42 242.721 231.659 247.852C236.898 252.982 238.639 260.714 238.682 267.988C238.682 268.845 240.267 267.816 240.466 267.659C240.848 267.399 241.171 267.063 241.417 266.672C241.662 266.281 241.825 265.844 241.894 265.387C241.894 259.056 242.993 251.796 247.604 247.066C252.215 242.335 259.723 241.178 266.09 241.149C266.55 241.085 266.991 240.925 267.384 240.678C267.778 240.432 268.115 240.106 268.374 239.72C268.531 239.52 269.545 237.948 268.702 237.933C261.436 237.933 253.785 236.361 248.532 230.974C243.279 225.586 241.922 218.211 241.894 211.094C241.894 210.237 240.309 211.266 240.11 211.423C239.725 211.683 239.399 212.021 239.153 212.414C238.907 212.808 238.747 213.25 238.682 213.71C238.682 220.955 240.295 228.644 245.52 234.003C250.744 239.363 258.724 241.149 266.119 241.149L268.731 237.905C260.566 237.905 252.357 239.891 246.448 245.879C240.538 251.867 238.725 259.899 238.682 267.988L241.922 265.387C241.922 257.97 240.152 250.167 234.685 244.822C229.218 239.477 221.723 237.948 214.486 237.905L211.874 241.149C219.968 241.149 227.947 239.02 233.829 233.174C239.71 227.329 241.88 219.212 241.922 211.066C241.922 210.208 240.338 211.252 240.138 211.394C239.74 211.659 239.403 212.007 239.152 212.414C238.901 212.821 238.74 213.278 238.682 213.753Z" fill="#092857"/>
<path d="M317.951 307.032C321.177 307.146 324.403 307.132 327.629 307.032C328.086 306.965 328.524 306.804 328.915 306.557C329.306 306.311 329.641 305.986 329.899 305.603C330.042 305.417 331.084 303.788 330.242 303.816C327.001 303.931 323.789 303.931 320.549 303.816C320.091 303.879 319.651 304.038 319.259 304.285C318.868 304.531 318.534 304.859 318.279 305.245C318.122 305.46 317.109 307.003 317.951 307.032Z" fill="#092857"/>
<path d="M311.485 303.802C308.116 303.802 304.757 303.802 301.407 303.802C300.946 303.862 300.504 304.021 300.11 304.268C299.715 304.514 299.379 304.843 299.123 305.231C298.966 305.431 297.952 307.003 298.795 307.018C302.163 307.075 305.523 307.099 308.873 307.089C309.332 307.023 309.772 306.862 310.166 306.616C310.559 306.37 310.897 306.044 311.157 305.66C311.299 305.46 312.327 303.873 311.485 303.873V303.802Z" fill="#092857"/>
<path d="M316.352 300.815C316.524 297.543 316.566 294.284 316.452 291.012C316.452 290.697 316.053 290.683 315.838 290.711C315.406 290.831 315.006 291.046 314.668 291.34C314.025 291.883 313.24 292.769 313.24 293.627C313.355 296.699 313.326 299.758 313.169 302.83C313.169 303.102 313.169 303.359 313.469 303.445C313.849 303.45 314.22 303.33 314.525 303.102C314.993 302.801 315.408 302.424 315.753 301.987C316.062 301.659 316.279 301.255 316.381 300.815H316.352Z" fill="#092857"/>
<path d="M313.497 310.347C313.062 313.449 313.134 316.601 313.711 319.68C313.854 320.508 315.225 319.565 315.496 319.337C315.939 318.998 316.316 318.582 316.609 318.108C316.834 317.806 316.954 317.44 316.952 317.064C316.692 315.595 316.525 314.11 316.452 312.62C316.432 311.186 316.518 309.753 316.709 308.332C316.823 307.432 315.824 307.775 315.367 308.075C314.9 308.372 314.486 308.744 314.14 309.175C313.831 309.512 313.61 309.919 313.497 310.362V310.347Z" fill="#092857"/>
<path d="M494.375 237.147C498.729 237.29 503.069 237.276 507.423 237.147C507.878 237.077 508.315 236.914 508.706 236.669C509.096 236.423 509.432 236.099 509.692 235.718C509.835 235.532 510.863 233.903 510.021 233.932C505.738 234.089 501.327 234.089 496.988 233.932C496.528 233.996 496.087 234.156 495.693 234.402C495.3 234.648 494.962 234.975 494.704 235.361C494.532 235.575 493.533 237.119 494.375 237.147Z" fill="#092857"/>
<path d="M484.754 233.903C480.229 233.903 475.704 233.903 471.178 233.803C470.719 233.867 470.278 234.027 469.884 234.274C469.49 234.52 469.153 234.847 468.894 235.232C468.737 235.432 467.724 237.004 468.566 237.019C473.091 237.019 477.616 237.119 482.142 237.119C482.6 237.05 483.039 236.887 483.432 236.642C483.825 236.396 484.163 236.072 484.426 235.69C484.583 235.49 485.596 233.903 484.754 233.903Z" fill="#092857"/>
<path d="M491.206 229.702C491.435 225.343 491.492 220.984 491.335 216.611C491.335 215.753 489.765 216.754 489.55 216.939C489.169 217.199 488.845 217.535 488.599 217.926C488.353 218.317 488.191 218.755 488.123 219.212C488.266 223.385 488.228 227.558 488.009 231.731C488.009 232.617 488.851 232.331 489.365 231.988C489.879 231.645 491.178 230.559 491.221 229.702H491.206Z" fill="#092857"/>
<path d="M488.494 241.806C488.216 243.895 488.087 246.002 488.109 248.109C488.19 250.18 488.414 252.243 488.78 254.283C488.922 255.112 490.293 254.183 490.564 253.954C491.121 253.482 492.149 252.525 491.992 251.667C491.637 249.689 491.417 247.688 491.335 245.679C491.304 243.711 491.423 241.742 491.692 239.791C491.792 238.877 490.807 239.22 490.264 239.52C489.376 240.016 488.712 240.834 488.409 241.806H488.494Z" fill="#092857"/>
<path d="M290.815 157.374C295.145 157.517 299.47 157.517 303.791 157.374C304.247 157.305 304.684 157.143 305.075 156.897C305.466 156.651 305.801 156.327 306.06 155.944C306.217 155.759 307.231 154.13 306.389 154.158C302.106 154.315 297.752 154.315 293.413 154.158C292.955 154.222 292.516 154.383 292.125 154.629C291.734 154.875 291.399 155.202 291.143 155.587C290.972 155.802 289.972 157.345 290.815 157.374Z" fill="#092857"/>
<path d="M281.25 154.129C276.74 154.129 272.243 154.129 267.732 154.029C267.274 154.093 266.835 154.254 266.444 154.5C266.053 154.746 265.718 155.073 265.462 155.458C265.291 155.659 264.292 157.231 265.134 157.245C269.631 157.245 274.142 157.345 278.638 157.345C279.096 157.276 279.535 157.113 279.928 156.868C280.321 156.622 280.659 156.298 280.922 155.916C281.079 155.716 282.093 154.129 281.25 154.129Z" fill="#092857"/>
<path d="M287.674 149.956C287.903 145.669 287.96 141.267 287.803 136.923C287.803 136.065 286.232 137.08 286.018 137.251C285.376 137.78 284.591 138.68 284.591 139.524C284.734 143.687 284.695 147.836 284.477 151.971C284.477 152.872 285.319 152.572 285.904 152.243C286.489 151.914 287.717 150.814 287.76 149.956H287.674Z" fill="#092857"/>
<path d="M284.948 162.004C284.674 164.083 284.55 166.18 284.577 168.278C284.653 170.339 284.873 172.392 285.233 174.423C285.376 175.252 286.746 174.323 287.018 174.094C287.589 173.623 288.617 172.665 288.445 171.808C288.091 169.838 287.872 167.847 287.789 165.848C287.753 163.889 287.867 161.93 288.131 159.989C288.245 159.074 287.246 159.417 286.789 159.717C285.9 160.216 285.232 161.033 284.919 162.004H284.948Z" fill="#092857"/>
<path d="M518.586 443.799C521.358 442.808 524.345 442.579 527.235 443.137C530.125 443.695 532.812 445.02 535.017 446.972C537.148 448.928 538.734 451.407 539.618 454.164C540.501 456.92 540.652 459.86 540.056 462.693C539.842 463.621 540.998 463.207 541.398 462.964C542.28 462.457 542.945 461.643 543.268 460.677C543.928 457.617 543.766 454.435 542.798 451.458C541.83 448.48 540.091 445.813 537.758 443.728C535.304 441.705 532.355 440.373 529.216 439.871C526.077 439.368 522.861 439.713 519.9 440.87C518.94 441.287 518.175 442.053 517.758 443.013C517.444 443.785 517.758 444.142 518.586 443.842V443.799Z" fill="#092857"/>
<path d="M746.957 410.301L751.325 428.351C751.325 428.351 663.491 416.575 634.199 413.716C604.907 410.858 577.685 416.26 564.823 420.433C551.961 424.606 535.673 456.004 530.063 469.952C524.453 483.901 526.209 498.892 532.576 498.892C538.942 498.892 542.925 482.243 548.278 473.397C553.631 464.55 564.109 450.531 564.109 450.531C564.109 450.531 562.182 467.68 561.739 477.984C561.297 488.288 568.549 498.821 574.758 498.821C578.898 498.821 583.48 495.077 583.48 495.077C584.359 496.29 585.521 497.27 586.864 497.933C588.208 498.595 589.692 498.92 591.189 498.878C594.323 498.556 597.248 497.157 599.468 494.919C599.468 494.919 602.423 498.221 611.002 498.821C619.582 499.421 629.046 497.478 629.046 491.175C629.046 484.873 611.316 483.529 611.316 483.529L615.413 468.023C615.413 468.023 760.633 516.528 806.784 521.616C852.935 526.703 861.185 498.635 851.521 422.42C850.094 411.301 848.367 404.813 846.939 396.395" fill="white"/>
<path d="M745.344 411.601L749.712 429.651L752.567 426.793C738.549 424.887 724.522 423.034 710.485 421.234C688.001 418.375 665.504 415.374 642.964 412.902C627.774 411.094 612.431 410.965 597.213 412.516C589.749 413.328 582.34 414.593 575.029 416.303C570.162 417.461 564.937 418.504 560.754 421.419C556.029 424.98 551.911 429.285 548.564 434.167C544.546 439.721 540.903 445.536 537.657 451.574C531.334 463.164 524.282 476.155 525.038 489.76C525.253 493.69 526.709 501.693 532.361 500.421C537.643 499.25 540.627 492.347 542.611 487.988C545.466 481.771 547.864 475.526 551.604 469.752C555.144 464.279 558.941 458.977 562.796 453.732L564.98 450.802L562.396 451.645C561.568 459.091 560.84 466.551 560.326 474.04C559.955 479.528 559.826 484.715 562.039 489.903C563.795 494.033 566.793 498.635 571.261 500.164C575.458 501.593 580.368 498.735 583.552 496.148L581.867 496.691C586.307 503.223 595.385 500.407 599.953 495.62L597.841 496.534C599.911 498.792 603.722 499.721 606.563 500.193C612.173 501.122 618.911 501.036 624.107 498.507C627.39 496.906 632.144 492.576 630.174 488.503C628.746 485.459 624.349 484.301 621.38 483.543C618.472 482.811 615.506 482.333 612.515 482.114L612.815 482.715L616.941 467.123L614.086 469.752L624.606 473.225C633.771 476.207 642.935 479.161 652.1 482.086C664.69 486.087 677.3 490.013 689.929 493.862C703.861 498.111 717.827 502.222 731.826 506.195C744.973 509.911 758.163 513.498 771.439 516.699C781.692 519.328 792.074 521.427 802.544 522.987C812.536 524.417 823.471 524.802 833.064 520.958C837.314 519.154 841.156 516.509 844.36 513.182C847.564 509.854 850.063 505.912 851.707 501.593C856.36 490.16 856.846 477.155 856.689 464.936C856.575 456.233 855.946 447.544 855.104 438.883C854.105 428.536 852.949 418.189 850.979 407.971C850.165 403.684 849.266 399.482 848.552 395.209C848.367 394.137 845.098 396.567 845.312 397.81C846.91 407.214 848.98 416.489 850.151 425.964C851.321 435.439 852.306 444.843 852.92 454.318C853.791 468.052 854.234 482.357 850.965 495.834C849.951 500.425 848.17 504.812 845.697 508.81C843.7 511.995 840.924 514.617 837.632 516.428C828.895 521.373 817.904 521.187 808.254 520.129C798.509 518.904 788.847 517.095 779.318 514.713C766.585 511.754 753.952 508.396 741.361 504.909C727.6 501.098 713.877 497.111 700.192 492.947C687.316 489.069 674.469 485.101 661.65 481.043C651.781 477.927 641.931 474.773 632.101 471.582C627.19 469.981 622.308 468.238 617.369 466.737L616.698 466.508C615.585 466.137 614.029 468.252 613.843 469.138L609.718 484.744C609.718 484.958 609.718 485.33 610.032 485.344C614.928 485.73 620.823 486.473 625.02 489.189C627.433 490.761 628.646 494.033 625.534 495.62C620.966 497.963 614.785 497.863 609.832 497.149C606.977 496.72 603.08 495.906 600.981 493.605C600.467 493.062 599.14 494.248 598.869 494.533C595.343 498.221 588.262 498.578 584.993 493.762C584.679 493.29 583.566 494.119 583.323 494.305C580.711 496.42 576.942 498.249 573.616 496.906C569.334 495.162 566.364 490.246 564.851 486.102C563.095 481.257 563.324 476.426 563.681 471.382C564.009 466.765 564.437 462.164 564.894 457.576C565.151 454.961 565.422 452.331 565.708 449.73C565.893 448.115 563.424 450.188 563.138 450.573C560.654 453.88 558.218 457.214 555.829 460.577C551.936 465.727 548.429 471.158 545.337 476.827C542.482 482.543 540.512 488.931 537.144 494.448C536.259 495.877 535.288 497.606 533.361 497.306C531.062 497.006 529.849 494.448 529.25 492.518C527.051 485.373 528.693 476.798 531.334 469.981C533.363 464.876 535.669 459.885 538.243 455.032C541.232 449.123 544.568 443.396 548.235 437.883C551.237 433.061 554.909 428.692 559.141 424.906C562.896 421.805 567.606 420.833 572.246 419.704C579.068 418.067 585.979 416.826 592.944 415.989C608.121 414.235 623.448 414.235 638.624 415.989C660.037 418.275 681.306 421.062 702.619 423.82C718.169 425.84 733.715 427.888 749.255 429.965L749.998 430.051C751.054 430.194 753.181 428.251 752.853 427.193L748.57 409.143C748.299 408.014 745.044 410.572 745.33 411.744L745.344 411.601Z" fill="#092857"/>
<path d="M596.398 464.364C594.024 469.643 592.441 475.244 591.702 480.985C591.321 483.569 591.611 486.207 592.544 488.645C593.597 490.932 594.967 493.058 596.612 494.962C597.283 495.805 600.438 492.918 599.639 491.932C598.087 490.153 596.79 488.167 595.785 486.03C594.831 483.621 594.55 480.998 594.971 478.441C595.722 473.137 597.201 467.962 599.368 463.064C599.71 462.278 599.268 461.964 598.54 462.221C597.589 462.65 596.828 463.413 596.398 464.364Z" fill="#092857"/>
<path d="M581.21 458.491C579.295 464.182 577.694 469.973 576.414 475.84C575.644 478.865 575.47 482.01 575.9 485.101C576.664 488.776 578.394 492.18 580.91 494.962C581.596 495.805 584.75 492.918 583.951 491.932C581.521 489.278 579.859 486.013 579.14 482.486C578.734 479.442 578.933 476.348 579.726 473.382C580.915 467.903 582.402 462.493 584.179 457.176C584.893 455.075 581.553 457.447 581.196 458.491H581.21Z" fill="#092857"/>
<path d="M469.452 332.999H273.414C264.206 332.999 258.339 341.131 260.295 351.163L287.817 492.39C289.773 502.394 298.823 510.554 308.03 510.554H504.069C513.276 510.554 519.143 502.422 517.187 492.39L489.651 351.163C487.695 341.131 478.659 332.999 469.452 332.999Z" fill="#092857"/>
<path d="M470.779 331.384H278.067C275.225 331.182 272.368 331.458 269.616 332.199C260.98 335.171 257.111 344.389 258.753 352.921C260.509 362.025 262.308 371.128 264.078 380.217L273.899 430.594L282.978 477.169L285.604 490.632C286.561 495.548 287.931 500.164 291.214 504.166C293.235 506.681 295.796 508.707 298.708 510.093C301.62 511.479 304.806 512.188 308.03 512.169H502.184C505.999 512.174 509.704 510.888 512.698 508.519C515.691 506.151 517.796 502.839 518.672 499.121C519.628 495.091 518.786 491.246 518.015 487.316L515.246 473.125L506.038 425.892L496.303 375.873C494.618 367.298 492.977 358.638 491.264 350.02C489.322 340.345 480.957 331.441 470.708 331.341C470.248 331.404 469.806 331.564 469.413 331.811C469.019 332.057 468.682 332.384 468.424 332.77C468.267 332.985 467.253 334.557 468.096 334.557C478.088 334.714 486.182 343.346 488.08 352.821C488.651 355.679 489.222 358.666 489.779 361.582L497.902 402.855L507.894 453.989L514.818 489.546C515.517 493.09 516.402 496.691 515.76 500.25C515.434 502.729 514.192 504.997 512.279 506.605C510.366 508.213 507.92 509.046 505.425 508.939H310.414C306.958 508.92 303.559 508.047 300.521 506.396C297.483 504.746 294.899 502.369 292.999 499.478C290.444 495.762 289.558 491.718 288.716 487.445L281.936 452.646L271.943 401.597L263.792 359.781C263.193 356.665 262.579 353.564 261.979 350.463C261.421 347.964 261.368 345.379 261.822 342.86C262.921 337.601 266.776 334.714 272.072 334.614C278.01 334.514 283.963 334.614 289.901 334.614H468.153C468.61 334.55 469.049 334.389 469.441 334.143C469.832 333.897 470.166 333.57 470.422 333.185C470.579 332.97 471.607 331.384 470.779 331.384Z" fill="#092857"/>
<path d="M399.316 436.009C405.63 431.323 406.018 421.135 400.182 413.253C394.346 405.372 384.497 402.782 378.182 407.468C371.868 412.154 371.48 422.342 377.316 430.224C383.152 438.105 393.002 440.695 399.316 436.009Z" fill="white"/>
<path d="M375.136 420.476C374.194 415.231 375.322 408.786 381.16 407.199C387.241 405.556 393.608 408.9 397.562 413.416C401.516 417.932 404 424.849 402.059 430.78C400.217 436.497 394.151 437.654 388.912 436.111C385.447 434.944 382.35 432.885 379.932 430.141C377.514 427.396 375.86 424.063 375.136 420.476C374.908 419.376 371.653 421.905 371.91 423.077C372.658 426.87 374.413 430.391 376.99 433.271C379.568 436.15 382.872 438.282 386.556 439.441C389.905 440.359 393.467 440.101 396.649 438.71C399.831 437.319 402.44 434.878 404.043 431.795C411.181 418.704 396.906 399.225 382.074 404.384C374.351 407.071 370.525 415.374 371.939 423.12C372.096 424.163 375.35 421.719 375.136 420.476Z" fill="#092857"/>
<path d="M653.385 499.164H501.156V510.597H642.079C645.108 510.597 648.012 509.393 650.154 507.248C652.296 505.104 653.499 502.196 653.499 499.164H653.385Z" fill="#092857"/>
<path d="M654.683 497.549H521.241C515.103 497.549 508.85 497.177 502.683 497.549H502.426C501.702 497.66 501.03 497.995 500.505 498.508C499.98 499.02 499.629 499.685 499.5 500.407V511.84C499.509 511.92 499.545 511.995 499.602 512.052C499.659 512.109 499.734 512.146 499.814 512.155H639.709C642.493 512.206 645.238 511.489 647.643 510.082C650.047 508.676 652.019 506.634 653.341 504.18C654.414 502.243 654.979 500.064 654.983 497.849C654.983 496.977 653.398 498.021 653.199 498.178C652.816 498.436 652.491 498.771 652.245 499.163C651.999 499.554 651.838 499.993 651.771 500.45C651.807 501.573 651.612 502.691 651.199 503.735C650.787 504.779 650.164 505.728 649.371 506.522C648.578 507.316 647.63 507.939 646.587 508.353C645.544 508.766 644.427 508.961 643.306 508.925H502.455C502.955 508.925 502.669 509.368 502.769 508.582C502.812 507.868 502.812 507.152 502.769 506.438V497.863L499.843 500.722H633.285C639.438 500.722 645.661 501.022 651.842 500.722H652.071C652.53 500.656 652.971 500.495 653.364 500.249C653.757 500.003 654.095 499.677 654.355 499.293C654.512 499.135 655.525 497.549 654.683 497.549Z" fill="#092857"/>
<path d="M174.316 506.481H275.669C276.126 506.416 276.565 506.255 276.956 506.009C277.347 505.763 277.682 505.436 277.938 505.052C278.095 504.852 279.123 503.265 278.281 503.265H176.929C176.472 503.332 176.034 503.494 175.643 503.74C175.252 503.986 174.917 504.311 174.659 504.695C174.502 504.895 173.488 506.481 174.331 506.481H174.316Z" fill="#092857"/>
<path d="M638.596 506.481H728.528C728.985 506.414 729.423 506.253 729.814 506.007C730.205 505.761 730.54 505.435 730.798 505.052C730.955 504.852 731.969 503.265 731.126 503.265H641.194C640.735 503.332 640.295 503.493 639.902 503.739C639.509 503.985 639.171 504.311 638.91 504.695C638.753 504.895 637.739 506.481 638.582 506.481H638.596Z" fill="#092857"/>
<path d="M732.597 365.269L743.717 405.899C744.031 407.042 747.271 404.47 746.943 403.284L735.823 362.668C735.509 361.525 732.268 364.097 732.597 365.269Z" fill="#092857"/>
<path d="M742.546 397.01C770.497 390.365 798.974 386.171 827.653 384.476C835.875 383.991 844.103 383.714 852.334 383.648C852.792 383.583 853.231 383.423 853.622 383.177C854.014 382.93 854.348 382.604 854.604 382.218C854.761 382.018 855.789 380.418 854.947 380.432C826.015 380.662 797.16 383.431 768.712 388.707C760.632 390.212 752.595 391.913 744.601 393.809C743.634 394.127 742.82 394.794 742.317 395.681C742.075 396.081 741.632 397.253 742.588 397.024L742.546 397.01Z" fill="#092857"/>
<path d="M411.31 263.901C411.31 263.901 407.027 110.984 407.027 96.0351C407.027 86.9459 407.412 74.9269 406.128 65.9234C403.501 47.5162 393.48 33.8109 381.86 19.834C381.272 19.1262 380.536 18.5566 379.703 18.1658C378.87 17.7749 377.962 17.5723 377.042 17.5723C376.123 17.5723 375.215 17.7749 374.382 18.1658C373.549 18.5566 372.813 19.1262 372.225 19.834C360.662 33.8109 350.627 47.5162 347.957 65.9234C346.672 74.9269 347.058 86.9459 347.058 96.0351C347.058 110.97 342.775 263.901 342.775 263.901H411.31Z" fill="#0A7AF9"/>
<path d="M412.922 262.6L412.251 239.477C411.756 222.013 411.281 204.544 410.824 187.071C410.31 168.301 409.834 149.532 409.396 130.763C409.111 119.187 408.74 107.583 408.64 95.9923C408.525 83.1302 409.582 69.9393 406.27 57.4058C402.402 42.8716 393.508 30.7097 384.115 19.2767C382.103 16.8329 379.519 15.3752 376.278 16.2612C373.038 17.1473 371.025 19.9484 368.998 22.4494C364.172 28.195 359.791 34.3008 355.894 40.7136C352.116 47.0495 349.288 53.9062 347.5 61.0644C345.941 68.5293 345.246 76.1492 345.43 83.7733C345.344 96.5211 345.287 109.24 344.988 121.988C344.559 139.795 344.083 157.602 343.56 175.409C343.056 193.978 342.547 212.557 342.033 231.145L341.19 263.658V265.201C341.196 265.28 341.23 265.355 341.284 265.412C341.339 265.469 341.412 265.506 341.49 265.516H410.01C410.469 265.45 410.91 265.289 411.303 265.043C411.696 264.797 412.034 264.471 412.294 264.086C412.451 263.886 413.465 262.3 412.622 262.3H347.143C346.284 262.222 345.419 262.222 344.559 262.3C343.76 262.443 344.459 262.229 344.374 262.514C344.417 262.182 344.417 261.846 344.374 261.514C344.374 259.799 344.474 258.084 344.516 256.383C344.983 239.748 345.459 223.113 345.944 206.478C346.563 184.317 347.157 162.151 347.728 139.981C348.099 125.389 348.571 110.798 348.713 96.2067C348.856 81.0579 347.628 65.6662 353.153 51.232C356.448 43.1334 360.87 35.5413 366.286 28.6804C367.571 26.994 368.884 25.3219 370.226 23.6641C371.439 22.1493 372.71 19.7912 374.708 19.3768C379.09 18.3621 381.76 23.0782 384.058 25.965C389.52 32.5284 394.258 39.663 398.19 47.2448C402.132 55.2422 404.484 63.9304 405.114 72.8261C405.827 82.9587 405.328 93.1198 405.499 103.267C405.813 120.216 406.284 137.151 406.727 154.086C407.298 176.333 407.897 198.58 408.525 220.827C408.916 234.937 409.306 249.042 409.696 263.143C409.696 263.829 409.696 264.572 409.696 265.201C409.696 265.83 411.281 265.044 411.48 264.872C411.868 264.618 412.197 264.283 412.445 263.892C412.694 263.5 412.857 263.06 412.922 262.6Z" fill="#0A7AF9"/>
<path d="M406.855 130.106L417.276 112.956C417.793 112.059 418.518 111.3 419.389 110.741C422.073 109.055 424.214 110.898 425.841 112.67C430.533 117.819 434.256 123.774 436.833 130.249C437.157 131.092 437.322 131.989 437.318 132.893L437.39 257.884L408.74 258.67L406.855 130.106Z" fill="#0A7AF9"/>
<path d="M408.126 129.848L417.02 115.171C417.505 114.385 417.962 113.571 418.447 112.799C420.089 110.298 422.844 112.67 424.243 114.228C428.777 119.137 432.39 124.826 434.906 131.02C435.622 133.438 435.864 135.971 435.62 138.48V192.787V235.861V251.281C435.62 253.768 435.391 256.383 435.62 258.856C435.627 258.97 435.627 259.085 435.62 259.199L438.546 256.269L422.844 256.712L412.851 256.984C411.996 256.878 411.13 256.902 410.282 257.055C409.768 257.255 410.282 257.227 410.282 257.269C410.446 255.17 410.417 253.061 410.196 250.967L409.996 236.504L409.397 194.331L408.797 151.628L408.583 136.465L408.512 131.62C408.583 130.774 408.583 129.923 408.512 129.077C408.497 128.968 408.497 128.857 408.512 128.748C408.512 127.89 406.941 128.919 406.727 129.077C406.343 129.337 406.018 129.675 405.772 130.069C405.526 130.463 405.365 130.904 405.3 131.363L405.471 144.225L405.914 174.966L406.428 211.966L406.884 244.121L407.041 254.697V258.013C406.977 258.592 406.977 259.177 407.041 259.756C407.048 259.832 407.048 259.909 407.041 259.985C407.051 260.065 407.087 260.14 407.144 260.197C407.201 260.254 407.275 260.29 407.355 260.299L435.991 259.513C436.714 259.398 437.384 259.062 437.908 258.55C438.432 258.038 438.785 257.376 438.917 256.655V193.187V150.313V136.465C438.917 134.193 439.246 131.435 438.518 129.32C436.225 123.094 432.771 117.362 428.34 112.427C426.584 110.384 424.471 107.968 421.488 108.726C419.161 109.533 417.214 111.172 416.02 113.328C412.794 118.415 409.768 123.632 406.656 128.777L405.628 130.463C405.286 131.035 405.014 131.806 405.885 131.821C406.756 131.835 407.755 130.463 408.126 129.848Z" fill="#0A7AF9"/>
<path d="M361.59 130.106L351.169 112.956C350.667 112.083 349.968 111.339 349.128 110.784C346.444 109.098 344.303 110.941 342.675 112.713C337.984 117.862 334.26 123.817 331.684 130.292C331.36 131.135 331.195 132.032 331.198 132.936L331.127 257.941L359.777 258.727L361.59 130.106Z" fill="#0A7AF9"/>
<path d="M363.103 128.576L353.952 113.485C352.325 110.812 350.341 107.44 346.629 108.74C343.903 109.698 341.876 112.213 340.091 114.357C337.877 116.991 335.895 119.812 334.167 122.788C332.169 126.218 329.628 130.291 329.571 134.364V148.484V189.743V256.055C329.492 256.972 329.492 257.895 329.571 258.813C329.585 258.936 329.585 259.061 329.571 259.184C329.58 259.265 329.616 259.339 329.673 259.397C329.73 259.454 329.805 259.49 329.885 259.499L358.52 260.285C359.255 260.17 359.934 259.824 360.46 259.297C360.986 258.771 361.332 258.091 361.447 257.355L361.632 244.493L362.06 213.752L362.589 176.752L363.045 144.597L363.188 134.036V130.706C363.267 130.127 363.267 129.541 363.188 128.962C363.181 128.886 363.181 128.81 363.188 128.734C363.188 127.876 361.604 128.919 361.404 129.062C361.022 129.325 360.697 129.663 360.452 130.057C360.206 130.45 360.044 130.89 359.976 131.349L359.791 144.211L359.362 174.952L358.834 211.952L358.378 244.107L358.235 254.683C358.111 256.366 358.087 258.056 358.163 259.742C358.17 259.818 358.17 259.894 358.163 259.971L361.018 257.041L341.319 256.498L335.78 256.355C334.75 256.156 333.694 256.127 332.654 256.269C332.126 256.512 332.768 255.697 332.654 256.555C332.64 256.484 332.64 256.411 332.654 256.341C332.697 255.975 332.697 255.606 332.654 255.24V221.284V168.521V133.421C332.654 132.678 332.654 131.992 332.654 131.206C332.98 129.352 333.632 127.572 334.581 125.947C335.493 124.055 336.513 122.218 337.636 120.445C338.635 118.873 339.72 117.343 340.876 115.871C342.033 114.399 343.303 112.299 344.959 111.813C348.314 110.827 350.74 116.515 352.096 118.787L358.549 129.42L359.876 131.62C360.576 132.421 363.802 129.748 363.103 128.576Z" fill="#0A7AF9"/>
<path d="M399.847 264.358V273.933C385.892 277.444 371.289 277.468 357.322 274.005L356.894 264.344" fill="#0A7AF9"/>
<path d="M398.233 265.659V275.234L400.86 272.376C388.433 275.515 375.466 275.861 362.889 273.39C361.77 273.285 360.667 273.045 359.605 272.676C358.62 272.176 358.863 271.018 358.82 269.989L358.52 263.086C358.52 262.229 356.95 263.258 356.736 263.429C356.35 263.684 356.023 264.019 355.777 264.411C355.53 264.803 355.371 265.243 355.309 265.702L355.737 275.362C355.746 275.443 355.782 275.517 355.839 275.575C355.896 275.632 355.971 275.668 356.051 275.677C370.122 279.124 384.819 279.094 398.876 275.591C399.535 275.405 400.13 275.039 400.594 274.535C401.057 274.03 401.372 273.406 401.502 272.733V263.172C401.502 262.315 399.918 263.344 399.718 263.501C399.334 263.758 399.009 264.094 398.763 264.485C398.517 264.876 398.356 265.315 398.291 265.773L398.233 265.659Z" fill="#0A7AF9"/>
<path d="M358.35 286.338C358.164 291.24 358.35 296.199 358.421 301.101C358.421 308.432 358.592 315.749 358.649 323.081C358.649 324.439 358.649 325.796 358.649 327.154V328.583C358.649 328.74 358.649 329.569 358.649 329.183C358.649 330.798 361.818 328.297 361.861 327.168C362.061 322.252 361.861 317.307 361.861 312.391C361.79 305.074 361.704 297.742 361.647 290.425C361.647 289.068 361.647 287.71 361.647 286.352V284.923C361.647 284.752 361.647 283.937 361.647 284.309C361.718 282.694 358.478 285.209 358.435 286.338H358.35Z" fill="#092857"/>
<path d="M392.495 286.338C392.295 291.24 392.495 296.199 392.495 301.101C392.581 308.428 392.657 315.754 392.723 323.081C392.723 324.439 392.723 325.796 392.723 327.154C392.723 327.626 392.723 328.111 392.723 328.583C392.723 328.74 392.723 329.569 392.723 329.183C392.723 330.798 395.893 328.297 395.935 327.168C396.135 322.252 395.935 317.307 395.864 312.391C395.793 305.074 395.707 297.742 395.65 290.425C395.65 289.068 395.65 287.71 395.65 286.352V284.923C395.65 284.752 395.65 283.937 395.65 284.309C395.721 282.694 392.495 285.209 392.452 286.338H392.495Z" fill="#092857"/>
<path d="M360.148 318.508C356.738 318.6 353.483 319.954 351.012 322.309C348.327 324.567 346.544 327.718 345.988 331.184C345.888 332.084 346.873 331.741 347.344 331.441C348.235 330.949 348.9 330.129 349.199 329.155C349.317 327.965 349.677 326.813 350.256 325.768C350.113 326.039 350.256 325.768 350.341 325.625L350.598 325.224C350.598 325.124 350.941 324.739 350.598 325.124L350.841 324.81L351.141 324.438L351.298 324.267L351.184 324.396L351.512 324.053C351.512 324.053 351.969 323.652 351.712 323.867L351.855 323.752L352.226 323.452C352.583 323.167 351.969 323.624 352.326 323.452L352.725 323.195L353.125 322.952C353.568 322.695 352.825 323.095 353.282 322.866L354.139 322.481C355.202 322.056 356.334 321.833 357.479 321.823C357.939 321.761 358.381 321.601 358.775 321.355C359.169 321.109 359.505 320.781 359.763 320.394C359.906 320.194 360.933 318.608 360.091 318.608L360.148 318.508Z" fill="#092857"/>
<path d="M406.071 131.535C406.509 149.428 406.985 167.325 407.499 185.227C407.956 202.586 408.431 219.95 408.926 237.319L409.483 257.212C409.483 258.07 411.053 257.055 411.267 256.884C411.652 256.628 411.978 256.293 412.225 255.901C412.471 255.509 412.631 255.07 412.695 254.611C412.314 241.035 411.938 227.453 411.567 213.867C411.053 195.298 410.549 176.719 410.054 158.131C409.797 148.384 409.55 138.638 409.312 128.891C409.312 128.034 407.741 129.063 407.527 129.22C407.143 129.479 406.817 129.817 406.571 130.211C406.325 130.605 406.164 131.046 406.1 131.506L406.071 131.535Z" fill="#092857"/>
<path d="M344.374 262.6C344.746 249.738 345.107 236.876 345.459 224.014C346.163 198.737 346.844 173.461 347.501 148.184C347.815 136.132 348.114 124.084 348.4 112.041C348.4 111.184 346.801 112.227 346.616 112.37C346.234 112.63 345.91 112.965 345.664 113.357C345.418 113.748 345.256 114.185 345.188 114.642C344.655 137.937 344.06 161.232 343.404 184.527C342.795 206.888 342.176 229.244 341.548 251.596C341.419 256.14 341.305 260.685 341.177 265.215C341.177 266.087 342.761 265.03 342.947 264.887C343.33 264.628 343.655 264.293 343.901 263.902C344.146 263.51 344.308 263.072 344.374 262.614V262.6Z" fill="#092857"/>
<path d="M393.695 309.018C399.891 309.367 405.785 311.81 410.414 315.948C415.042 320.086 418.131 325.674 419.175 331.799C419.347 332.87 422.616 330.455 422.402 329.198C421.335 322.916 418.175 317.181 413.437 312.927C408.698 308.674 402.66 306.152 396.307 305.774C395.408 305.774 394.537 306.589 394.023 307.203C393.852 307.432 392.852 308.947 393.695 308.99V309.018Z" fill="#092857"/>
<path d="M277.31 414.702C266.062 420.419 257.711 431.981 256.669 444.714C256.54 446.3 259.795 443.828 259.881 442.699C260.242 437.51 261.91 432.496 264.728 428.126C267.546 423.756 271.422 420.17 275.997 417.704C276.939 417.261 277.697 416.503 278.138 415.56C278.41 414.86 278.138 414.302 277.31 414.717V414.702Z" fill="#092857"/>
<path d="M276.068 449.202C270.501 442.499 260.879 440.827 252.971 443.914C244.406 447.258 237.997 455.218 235.47 463.922C233.902 469.722 233.697 475.807 234.87 481.7C235.07 482.786 238.325 480.271 238.097 479.085C236.184 468.623 237.94 456.033 247.118 449.359C255.027 443.642 266.704 444.6 273.042 452.217C273.741 453.06 276.882 450.159 276.068 449.187V449.202Z" fill="#092857"/>
<path d="M225.249 491.832C222.693 489.786 219.602 488.521 216.346 488.189C213.09 487.857 209.807 488.472 206.892 489.96C203.881 491.486 201.308 493.755 199.418 496.554C197.527 499.352 196.38 502.587 196.086 505.952C196 507.553 199.226 505.052 199.298 503.923C199.33 501.455 200.072 499.048 201.434 496.991C202.796 494.933 204.72 493.311 206.977 492.318C209.521 491.387 212.263 491.134 214.933 491.585C217.604 492.036 220.111 493.175 222.209 494.891C223.18 495.691 226.092 492.561 225.235 491.861L225.249 491.832Z" fill="#092857"/>
<path d="M351.154 241.792L311.884 242.078C311.884 198.175 313.197 197.003 322.048 187.371C333.339 175.095 339.32 166.949 352.939 155.144L351.154 241.792Z" fill="#A1CDFF"/>
<path d="M352.454 240.177L330.713 240.334L319.85 240.406C318.095 240.498 316.337 240.498 314.582 240.406C313.512 240.291 313.497 240.177 313.497 238.977V235.99C313.497 226.457 313.497 216.854 314.325 207.407C314.739 203.034 315.31 198.432 317.423 194.545C317.337 194.688 317.723 194.002 317.851 193.802L318.508 192.801C318.75 192.458 319.521 191.472 319.935 190.915C320.192 190.6 320.478 190.286 320.749 189.986L320.977 189.714L321.491 189.157L325.688 184.555C334.51 174.737 343.046 164.819 353.025 156.13L351.24 156.459L350.641 185.727L349.684 232.388L349.47 243.107C349.47 243.978 351.055 242.935 351.255 242.778C351.639 242.522 351.966 242.187 352.212 241.795C352.458 241.403 352.618 240.964 352.682 240.506L353.282 211.237L354.238 164.576L354.466 153.858C354.466 152.986 352.796 154.086 352.682 154.186C345.108 160.857 337.979 168.018 331.341 175.623C326.83 180.725 322.048 185.627 317.694 190.901C312.427 197.246 311.285 204.863 310.756 212.909C310.114 223.042 310.171 233.231 310.171 243.378C310.185 243.457 310.222 243.529 310.278 243.585C310.335 243.642 310.407 243.679 310.485 243.693L349.77 243.407C350.228 243.343 350.667 243.182 351.058 242.936C351.449 242.69 351.784 242.363 352.04 241.978C352.297 241.763 353.296 240.163 352.454 240.177Z" fill="#A1CDFF"/>
<path d="M367.414 240.22L368.699 266.73L338.279 267.216L337.479 256.455C346.681 249.661 356.694 244.044 367.286 239.734" fill="#A1CDFF"/>
<path d="M365.801 241.52L367.071 268.031L369.926 265.172L349.442 265.501L344.488 265.573H342.005C341.405 265.573 340.192 265.858 339.792 265.33C339.392 264.801 339.649 263.443 339.606 262.943L339.449 260.228L339.064 255.154L337.636 257.427C346.587 250.866 356.304 245.424 366.572 241.22C367.528 240.799 368.292 240.034 368.713 239.077C368.999 238.319 368.713 237.919 367.885 238.233C360.397 241.323 353.185 245.048 346.33 249.366C344.66 250.41 343.018 251.481 341.391 252.596C339.6 253.603 337.957 254.854 336.509 256.312C335.31 257.827 336.038 260.185 336.18 262.028L336.666 268.617C336.679 268.695 336.717 268.767 336.773 268.824C336.829 268.88 336.901 268.918 336.98 268.931L367.385 268.431C368.111 268.322 368.784 267.987 369.309 267.474C369.834 266.961 370.185 266.296 370.312 265.573L369.027 239.048C369.027 238.191 367.471 239.205 367.243 239.391C366.855 239.644 366.527 239.979 366.281 240.371C366.034 240.763 365.876 241.204 365.815 241.663L365.801 241.52Z" fill="#A1CDFF"/>
<path d="M236.67 467.852C233.223 466.515 229.477 466.144 225.835 466.779C222.193 467.413 218.793 469.029 215.999 471.453C213.144 473.798 210.94 476.838 209.597 480.282C208.255 483.726 207.82 487.457 208.334 491.118C208.519 492.19 211.788 489.761 211.574 488.503C210.632 482.944 212.317 476.47 216.927 472.911C219.388 471.165 222.255 470.079 225.254 469.759C228.253 469.439 231.284 469.894 234.057 471.082C235.128 471.525 237.883 468.338 236.67 467.852Z" fill="#092857"/>
<path d="M396.549 241.792L433.036 242.078C433.036 198.175 431.808 197.003 423.586 187.371C413.108 175.095 407.555 166.949 394.907 155.144L396.549 241.792Z" fill="#A1CDFF"/>
<path d="M395.207 243.407L431.694 243.693C432.419 243.582 433.091 243.247 433.616 242.734C434.14 242.221 434.492 241.557 434.621 240.834C434.621 231.674 434.621 222.484 434.221 213.324C434.141 208.423 433.587 203.541 432.565 198.747C431.864 195.854 430.624 193.119 428.911 190.686C425.784 186.27 421.973 182.297 418.547 178.124C411.703 169.476 404.297 161.288 396.378 153.615C395.364 152.672 393.223 155.587 393.237 156.473L393.808 185.742L394.693 232.403L394.893 243.121C394.893 243.993 396.464 242.964 396.678 242.792C397.062 242.535 397.388 242.2 397.634 241.809C397.88 241.417 398.04 240.978 398.105 240.52L397.548 211.251L396.649 164.59L396.449 153.872L393.323 156.73C400.361 163.44 406.955 170.601 413.065 178.167C417.048 183.04 421.302 187.728 425.128 192.716C429.767 198.775 430.424 206.292 430.838 213.681C431.409 223.585 431.352 233.517 431.352 243.435L434.278 240.506L397.791 240.234C397.331 240.297 396.89 240.457 396.496 240.704C396.102 240.95 395.765 241.277 395.507 241.663C395.379 241.821 394.365 243.407 395.207 243.407Z" fill="#A1CDFF"/>
<path d="M287.774 470.181C269.888 463.579 250.088 476.241 246.862 494.676C246.705 495.62 247.776 495.191 248.29 494.948C249.174 494.448 249.837 493.631 250.145 492.661C250.712 489.075 252.047 485.654 254.061 482.635C256.074 479.615 258.717 477.068 261.808 475.169C265.342 473.181 269.269 471.993 273.312 471.69C277.354 471.386 281.414 471.974 285.205 473.411C286.304 473.811 289.016 470.624 287.817 470.181H287.774Z" fill="#092857"/>
<path d="M250.759 487.76C239.882 484.401 228.319 495.077 230.16 506.167C230.303 507.01 231.674 506.067 231.945 505.838C232.516 505.381 233.544 504.409 233.372 503.566C233.018 501.488 233.17 499.355 233.815 497.349C234.334 495.651 235.294 494.122 236.598 492.919C238.218 491.68 240.116 490.857 242.126 490.521C244.137 490.185 246.199 490.346 248.133 490.989C249.275 491.347 251.915 488.131 250.731 487.76H250.759Z" fill="#092857"/>
<path d="M534.203 439.212C534.086 435.359 532.859 431.622 530.671 428.451C528.483 425.279 525.427 422.807 521.869 421.334C514.247 418.318 505.739 420.805 499.857 426.178C499.5 426.507 498.43 427.765 498.944 428.293C499.458 428.822 500.728 427.65 501.042 427.364C506.195 422.648 514.703 422.091 520.77 425.249C523.783 426.862 526.313 429.247 528.104 432.159C529.895 435.072 530.881 438.408 530.962 441.827C530.962 442.685 532.533 441.656 532.747 441.499C533.132 441.239 533.457 440.901 533.703 440.507C533.949 440.113 534.11 439.672 534.174 439.212H534.203Z" fill="#092857"/>
<path d="M526.451 484.472C528.051 484.263 529.678 484.519 531.136 485.211C532.595 485.903 533.823 487.001 534.674 488.374C535.279 489.406 535.643 490.562 535.739 491.754C535.836 492.947 535.662 494.146 535.23 495.262C535.126 495.547 534.992 495.82 534.831 496.077C534.831 496.163 534.531 496.549 534.588 496.463C534.645 496.377 534.088 497.02 534.445 496.634C534.088 497.02 533.018 498.163 533.517 498.749C534.017 499.335 535.345 498.106 535.63 497.82C538.485 494.691 540.084 490.117 538.1 486.073C537.2 484.361 535.786 482.975 534.057 482.11C532.328 481.246 530.372 480.948 528.464 481.257C527.493 481.56 526.675 482.225 526.18 483.115C525.909 483.572 525.509 484.615 526.451 484.544V484.472Z" fill="#092857"/>
<path d="M749.141 429.437L774.636 434.224C775.864 434.467 778.348 431.195 777.248 430.995L751.753 426.207C750.526 425.978 748.042 429.237 749.141 429.437Z" fill="#092857"/>
<g filter="url(#filter0_d_3903_632)">
<rect x="128" y="104" width="246" height="72" rx="36" fill="white"/>
<rect x="136" y="112" width="56" height="56" rx="28" fill="#FFB321"/>
<path fill-rule="evenodd" clip-rule="evenodd" d="M155.98 129.795C157.05 129.25 158.45 129.25 161.25 129.25H166.75C169.55 129.25 170.95 129.25 172.02 129.795C172.961 130.274 173.726 131.039 174.205 131.98C174.75 133.05 174.75 134.45 174.75 137.25V142.75C174.75 145.55 174.75 146.95 174.205 148.02C173.726 148.961 172.961 149.726 172.02 150.205C170.95 150.75 169.55 150.75 166.75 150.75H161.25C158.45 150.75 157.05 150.75 155.98 150.205C155.039 149.726 154.274 148.961 153.795 148.02C153.25 146.95 153.25 145.55 153.25 142.75V137.25C153.25 134.45 153.25 133.05 153.795 131.98C154.274 131.039 155.039 130.274 155.98 129.795ZM169.707 137.707C170.098 137.317 170.098 136.683 169.707 136.293C169.317 135.902 168.683 135.902 168.293 136.293L165 139.586L163.707 138.293C163.317 137.902 162.683 137.902 162.293 138.293L158.293 142.293C157.902 142.683 157.902 143.317 158.293 143.707C158.683 144.098 159.317 144.098 159.707 143.707L163 140.414L164.293 141.707C164.48 141.895 164.735 142 165 142C165.265 142 165.52 141.895 165.707 141.707L169.707 137.707Z" fill="url(#paint0_linear_3903_632)"/>
<path d="M213.432 138.818V133.742H215.376V146H213.432V140.618H207.24V146H205.314V133.742H207.24V138.818H213.432ZM218.329 136.046C217.981 136.046 217.687 135.932 217.447 135.704C217.219 135.476 217.105 135.194 217.105 134.858C217.105 134.522 217.219 134.24 217.447 134.012C217.687 133.772 217.981 133.652 218.329 133.652C218.665 133.652 218.947 133.772 219.175 134.012C219.415 134.24 219.535 134.522 219.535 134.858C219.535 135.194 219.415 135.476 219.175 135.704C218.947 135.932 218.665 136.046 218.329 136.046ZM219.265 146H217.375V137.558H219.265V146ZM227.522 137.558H229.178V145.568C229.178 146.516 228.98 147.302 228.584 147.926C228.188 148.55 227.672 149.006 227.036 149.294C226.4 149.582 225.722 149.726 225.002 149.726C223.814 149.726 222.842 149.45 222.086 148.898C221.342 148.346 220.892 147.572 220.736 146.576H222.662C222.794 147.044 223.064 147.404 223.472 147.656C223.88 147.92 224.39 148.052 225.002 148.052C225.662 148.052 226.208 147.842 226.64 147.422C227.084 147.014 227.306 146.396 227.306 145.568V144.722C227.006 145.166 226.604 145.514 226.1 145.766C225.608 146.006 225.068 146.126 224.48 146.126C223.784 146.126 223.13 145.958 222.518 145.622C221.906 145.274 221.414 144.77 221.042 144.11C220.67 143.438 220.484 142.652 220.484 141.752C220.484 140.852 220.67 140.072 221.042 139.412C221.414 138.74 221.906 138.236 222.518 137.9C223.13 137.552 223.784 137.378 224.48 137.378C225.092 137.378 225.65 137.51 226.154 137.774C226.67 138.026 227.072 138.392 227.36 138.872L227.522 137.558ZM224.876 144.434C225.296 144.434 225.692 144.326 226.064 144.11C226.448 143.894 226.754 143.588 226.982 143.192C227.222 142.784 227.342 142.304 227.342 141.752C227.342 141.2 227.222 140.726 226.982 140.33C226.754 139.922 226.448 139.61 226.064 139.394C225.692 139.178 225.296 139.07 224.876 139.07C224.42 139.07 224 139.178 223.616 139.394C223.232 139.61 222.926 139.922 222.698 140.33C222.47 140.738 222.356 141.212 222.356 141.752C222.356 142.292 222.47 142.766 222.698 143.174C222.926 143.582 223.232 143.894 223.616 144.11C224 144.326 224.42 144.434 224.876 144.434ZM235.664 137.378C236.252 137.378 236.786 137.516 237.266 137.792C237.746 138.056 238.13 138.464 238.418 139.016C238.706 139.556 238.85 140.216 238.85 140.996V146H236.942V141.338C236.942 140.582 236.762 140.018 236.402 139.646C236.054 139.274 235.622 139.088 235.106 139.088C234.758 139.088 234.422 139.19 234.098 139.394C233.786 139.586 233.528 139.868 233.324 140.24C233.132 140.6 233.036 141.014 233.036 141.482V146H231.146V133.742H233.036V138.782C233.324 138.314 233.702 137.966 234.17 137.738C234.638 137.498 235.136 137.378 235.664 137.378ZM248.713 146.18C247.741 146.18 246.913 145.988 246.229 145.604C245.545 145.22 245.029 144.728 244.681 144.128C244.345 143.516 244.165 142.88 244.141 142.22H246.139C246.223 142.916 246.487 143.462 246.931 143.858C247.387 144.242 247.981 144.434 248.713 144.434C249.373 144.434 249.907 144.284 250.315 143.984C250.723 143.672 250.927 143.27 250.927 142.778C250.927 142.406 250.807 142.094 250.567 141.842C250.327 141.59 250.027 141.386 249.667 141.23C249.319 141.074 248.827 140.888 248.191 140.672C247.375 140.408 246.709 140.15 246.193 139.898C245.689 139.646 245.251 139.286 244.879 138.818C244.519 138.35 244.339 137.75 244.339 137.018C244.339 136.358 244.513 135.77 244.861 135.254C245.209 134.726 245.695 134.312 246.319 134.012C246.943 133.712 247.651 133.562 248.443 133.562C249.331 133.562 250.087 133.748 250.711 134.12C251.347 134.492 251.827 134.978 252.151 135.578C252.487 136.166 252.667 136.79 252.691 137.45H250.711C250.663 136.826 250.435 136.316 250.027 135.92C249.619 135.512 249.091 135.308 248.443 135.308C247.795 135.308 247.273 135.47 246.877 135.794C246.481 136.118 246.283 136.526 246.283 137.018C246.283 137.378 246.397 137.678 246.625 137.918C246.853 138.146 247.141 138.338 247.489 138.494C247.837 138.638 248.317 138.806 248.929 138.998C249.769 139.274 250.447 139.538 250.963 139.79C251.491 140.03 251.941 140.396 252.313 140.888C252.685 141.368 252.871 141.998 252.871 142.778C252.871 143.438 252.685 144.026 252.313 144.542C251.953 145.058 251.455 145.46 250.819 145.748C250.195 146.036 249.493 146.18 248.713 146.18ZM259.039 137.378C259.735 137.378 260.389 137.552 261.001 137.9C261.613 138.248 262.105 138.758 262.477 139.43C262.849 140.09 263.035 140.876 263.035 141.788C263.035 142.688 262.849 143.474 262.477 144.146C262.105 144.806 261.613 145.31 261.001 145.658C260.389 146.006 259.735 146.18 259.039 146.18C258.439 146.18 257.893 146.06 257.401 145.82C256.921 145.568 256.537 145.22 256.249 144.776V149.546H254.359V137.558H256.033L256.195 138.89C256.483 138.41 256.873 138.038 257.365 137.774C257.869 137.51 258.427 137.378 259.039 137.378ZM258.679 144.488C259.375 144.488 259.957 144.248 260.425 143.768C260.905 143.276 261.145 142.616 261.145 141.788C261.145 140.972 260.905 140.318 260.425 139.826C259.957 139.334 259.375 139.088 258.679 139.088C258.247 139.088 257.839 139.196 257.455 139.412C257.083 139.628 256.783 139.94 256.555 140.348C256.327 140.756 256.213 141.236 256.213 141.788C256.213 142.34 256.327 142.82 256.555 143.228C256.783 143.636 257.083 143.948 257.455 144.164C257.839 144.38 258.247 144.488 258.679 144.488ZM272.089 141.788C272.089 142.064 272.083 142.292 272.071 142.472H265.591C265.711 143.12 265.987 143.624 266.419 143.984C266.851 144.344 267.373 144.524 267.985 144.524C268.981 144.524 269.659 144.17 270.019 143.462H271.873C271.621 144.302 271.141 144.968 270.433 145.46C269.725 145.94 268.915 146.18 268.003 146.18C267.175 146.18 266.431 145.994 265.771 145.622C265.123 145.25 264.613 144.734 264.241 144.074C263.881 143.402 263.701 142.64 263.701 141.788C263.701 140.936 263.881 140.18 264.241 139.52C264.613 138.848 265.123 138.326 265.771 137.954C266.419 137.57 267.157 137.378 267.985 137.378C268.741 137.378 269.431 137.57 270.055 137.954C270.691 138.338 271.189 138.866 271.549 139.538C271.909 140.21 272.089 140.96 272.089 141.788ZM267.985 139.034C267.373 139.034 266.851 139.214 266.419 139.574C265.999 139.934 265.723 140.42 265.591 141.032H270.217C270.157 140.48 269.917 140.012 269.497 139.628C269.077 139.232 268.573 139.034 267.985 139.034ZM281.169 141.788C281.169 142.064 281.163 142.292 281.151 142.472H274.671C274.791 143.12 275.067 143.624 275.499 143.984C275.931 144.344 276.453 144.524 277.065 144.524C278.061 144.524 278.739 144.17 279.099 143.462H280.953C280.701 144.302 280.221 144.968 279.513 145.46C278.805 145.94 277.995 146.18 277.083 146.18C276.255 146.18 275.511 145.994 274.851 145.622C274.203 145.25 273.693 144.734 273.321 144.074C272.961 143.402 272.781 142.64 272.781 141.788C272.781 140.936 272.961 140.18 273.321 139.52C273.693 138.848 274.203 138.326 274.851 137.954C275.499 137.57 276.237 137.378 277.065 137.378C277.821 137.378 278.511 137.57 279.135 137.954C279.771 138.338 280.269 138.866 280.629 139.538C280.989 140.21 281.169 140.96 281.169 141.788ZM277.065 139.034C276.453 139.034 275.931 139.214 275.499 139.574C275.079 139.934 274.803 140.42 274.671 141.032H279.297C279.237 140.48 278.997 140.012 278.577 139.628C278.157 139.232 277.653 139.034 277.065 139.034ZM288.628 133.742H290.536V146H288.826L288.682 144.722C288.406 145.19 288.016 145.55 287.512 145.802C287.02 146.054 286.462 146.18 285.838 146.18C285.142 146.18 284.488 146.006 283.876 145.658C283.264 145.31 282.772 144.806 282.4 144.146C282.04 143.474 281.86 142.688 281.86 141.788C281.86 140.876 282.04 140.09 282.4 139.43C282.772 138.758 283.264 138.248 283.876 137.9C284.488 137.552 285.142 137.378 285.838 137.378C286.438 137.378 286.978 137.498 287.458 137.738C287.95 137.966 288.34 138.302 288.628 138.746V133.742ZM286.216 144.488C286.648 144.488 287.05 144.38 287.422 144.164C287.806 143.948 288.112 143.636 288.34 143.228C288.568 142.82 288.682 142.34 288.682 141.788C288.682 141.236 288.568 140.756 288.34 140.348C288.112 139.94 287.806 139.628 287.422 139.412C287.05 139.196 286.648 139.088 286.216 139.088C285.508 139.088 284.92 139.334 284.452 139.826C283.984 140.306 283.75 140.96 283.75 141.788C283.75 142.616 283.984 143.276 284.452 143.768C284.92 144.248 285.508 144.488 286.216 144.488Z" fill="#092857"/>
<path d="M319 152.5C319 152.5 319.95 137.287 329 139C333.766 139.902 333.694 146.35 338.5 147C346.396 148.067 350.5 130.5 350.5 130.5" stroke="url(#paint1_linear_3903_632)" stroke-width="2" stroke-linecap="round"/>
</g>
<defs>
<filter id="filter0_d_3903_632" x="0" y="0" width="502" height="328" filterUnits="userSpaceOnUse" color-interpolation-filters="sRGB">
<feFlood flood-opacity="0" result="BackgroundImageFix"/>
<feColorMatrix in="SourceAlpha" type="matrix" values="0 0 0 0 0 0 0 0 0 0 0 0 0 0 0 0 0 0 127 0" result="hardAlpha"/>
<feMorphology radius="12" operator="erode" in="SourceAlpha" result="effect1_dropShadow_3903_632"/>
<feOffset dy="24"/>
<feGaussianBlur stdDeviation="70"/>
<feComposite in2="hardAlpha" operator="out"/>
<feColorMatrix type="matrix" values="0 0 0 0 0.7954 0 0 0 0 0.808787 0 0 0 0 0.82 0 0 0 1 0"/>
<feBlend mode="normal" in2="BackgroundImageFix" result="effect1_dropShadow_3903_632"/>
<feBlend mode="normal" in="SourceGraphic" in2="effect1_dropShadow_3903_632" result="shape"/>
</filter>
<linearGradient id="paint0_linear_3903_632" x1="164" y1="129.25" x2="171.199" y2="151.88" gradientUnits="userSpaceOnUse">
<stop offset="0.164583" stop-color="white"/>
<stop offset="1" stop-color="white" stop-opacity="0.41"/>
</linearGradient>
<linearGradient id="paint1_linear_3903_632" x1="351" y1="130" x2="319" y2="152" gradientUnits="userSpaceOnUse">
<stop offset="0.337623" stop-color="#FFB321"/>
<stop offset="1" stop-color="#FFB321" stop-opacity="0"/>
</linearGradient>
</defs>
</svg>
