<svg width="48" height="48" viewBox="0 0 48 48" fill="none" xmlns="http://www.w3.org/2000/svg">
<rect width="48" height="48" rx="24" fill="#F5F7F9"/>
<path d="M27.8914 15.5396C25.4188 15.5396 23.3932 17.5062 23.3932 19.9597C23.3932 20.0174 23.3944 20.0749 23.3969 20.1325C20.6742 19.7829 18.2579 18.4142 16.6022 16.4486C16.4728 16.295 16.2774 16.213 16.0771 16.2281C15.8768 16.2432 15.696 16.3536 15.5911 16.5249C14.7725 17.8617 14.8136 19.5054 15.5167 20.819C15.1997 20.8465 14.9458 21.1212 14.9458 21.4416C14.9458 22.7659 15.5424 23.9873 16.5085 24.8167C16.3365 24.9779 16.2677 25.2334 16.3397 25.4612C16.7352 26.7131 17.6818 27.7036 18.8886 28.1963C17.6602 28.7797 16.2789 29.0131 14.9091 28.8454C14.6194 28.8099 14.3437 28.9796 14.245 29.2542C14.1462 29.5288 14.2506 29.8352 14.4965 29.9924C16.2952 31.1418 18.441 31.7895 20.772 31.7895C28.2944 31.7895 32.4228 25.7019 32.4228 20.3935V19.9898L32.4388 19.9749C32.5985 19.8254 32.8028 19.6031 33.0042 19.2971C33.4106 18.6796 33.7914 17.7417 33.7914 16.4176C33.7914 16.1934 33.6713 15.9864 33.4767 15.8751C33.2822 15.7637 33.0429 15.7652 32.8496 15.8788C32.2627 16.2238 31.5954 16.4962 30.9172 16.6716C30.0948 15.9477 29.0415 15.5396 27.8914 15.5396Z" fill="#7785A0"/>
</svg>
