<svg width="48" height="48" viewBox="0 0 48 48" fill="none" xmlns="http://www.w3.org/2000/svg">
<rect width="48" height="48" rx="24" fill="#F5F7F9"/>
<path fill-rule="evenodd" clip-rule="evenodd" d="M18.9665 15.1108C20.0223 14.7062 21.3483 14.7062 24.0003 14.7062C26.6523 14.7062 27.9783 14.7062 29.0342 15.1108C30.6538 15.7314 31.9334 17.011 32.554 18.6307C32.9586 19.6865 32.9586 21.0125 32.9586 23.6645C32.9586 26.3165 32.9586 27.6425 32.554 28.6983C31.9334 30.318 30.6538 31.5976 29.0342 32.2182C28.2269 32.5275 27.2618 32.6004 25.667 32.6175V26.1645H28.167C28.6272 26.1645 29.0003 25.7914 29.0003 25.3312C29.0003 24.8709 28.6272 24.4978 28.167 24.4978H25.667V23.6645C25.667 23.1354 25.6674 22.7803 25.6862 22.5053C25.7044 22.2378 25.7372 22.1076 25.7727 22.0219C25.9137 21.6816 26.184 21.4112 26.5244 21.2702C26.6101 21.2347 26.7403 21.202 27.0078 21.1837C27.2828 21.1649 27.6379 21.1645 28.167 21.1645V19.4978H28.1389H28.1389C27.6451 19.4978 27.2328 19.4978 26.8943 19.5209C26.542 19.545 26.2092 19.5968 25.8866 19.7304C25.1379 20.0405 24.543 20.6354 24.2329 21.3841C24.0993 21.7067 24.0474 22.0395 24.0234 22.3919C24.0003 22.7303 24.0003 23.1426 24.0003 23.6364V23.6645V24.4978H22.3336C21.8734 24.4978 21.5003 24.8709 21.5003 25.3312C21.5003 25.7914 21.8734 26.1645 22.3336 26.1645H24.0003V32.6228C21.3483 32.6228 20.0223 32.6228 18.9665 32.2182C17.3468 31.5976 16.0672 30.318 15.4466 28.6983C15.042 27.6425 15.042 26.3165 15.042 23.6645C15.042 21.0125 15.042 19.6865 15.4466 18.6307C16.0672 17.011 17.3468 15.7314 18.9665 15.1108Z" fill="#7785A0"/>
</svg>
