<svg width="48" height="48" viewBox="0 0 48 48" fill="none" xmlns="http://www.w3.org/2000/svg">
<rect width="48" height="48" rx="24" fill="#F5F7F9"/>
<path fill-rule="evenodd" clip-rule="evenodd" d="M19.4349 15.7819C20.6214 15.5909 22.1235 15.5396 24.0003 15.5396C25.8771 15.5396 27.3792 15.5909 28.5657 15.7819C29.7532 15.9729 30.6984 16.3144 31.3999 16.9521C32.1092 17.5969 32.4904 18.4721 32.7 19.5621C32.9076 20.6419 32.9586 21.9969 32.9586 23.6646C32.9586 25.3322 32.9076 26.6872 32.7 27.767C32.4904 28.857 32.1092 29.7322 31.3999 30.377C30.6984 31.0147 29.7532 31.3562 28.5657 31.5472C27.3792 31.7382 25.8771 31.7895 24.0003 31.7895C22.1235 31.7895 20.6214 31.7382 19.4349 31.5472C18.2475 31.3562 17.3022 31.0147 16.6007 30.377C15.8914 29.7322 15.5103 28.857 15.3006 27.767C15.093 26.6872 15.042 25.3322 15.042 23.6646C15.042 21.9969 15.093 20.6419 15.3006 19.5621C15.5103 18.4721 15.8914 17.5969 16.6007 16.9521C17.3022 16.3144 18.2475 15.9729 19.4349 15.7819ZM22.0257 20.6207C22.2217 20.5097 22.4621 20.5128 22.6552 20.6286L26.8219 23.1286C27.0101 23.2416 27.1253 23.445 27.1253 23.6645C27.1253 23.8841 27.0101 24.0875 26.8219 24.2005L22.6552 26.7005C22.4621 26.8163 22.2217 26.8193 22.0257 26.7084C21.8298 26.5975 21.7086 26.3897 21.7086 26.1645V21.1645C21.7086 20.9394 21.8298 20.7316 22.0257 20.6207Z" fill="#7785A0"/>
</svg>
