<svg width="48" height="48" viewBox="0 0 48 48" fill="none" xmlns="http://www.w3.org/2000/svg">
<rect width="48" height="48" rx="24" fill="#F5F7F9"/>
<path fill-rule="evenodd" clip-rule="evenodd" d="M24.0003 14.7062C21.3483 14.7062 20.0223 14.7062 18.9665 15.1108C17.3468 15.7314 16.0672 17.0111 15.4466 18.6307C15.042 19.6866 15.042 21.0126 15.042 23.6646C15.042 26.3165 15.042 27.6425 15.4466 28.6984C16.0672 30.318 17.3468 31.5977 18.9665 32.2183C20.0223 32.6229 21.3483 32.6229 24.0003 32.6229C26.6523 32.6229 27.9783 32.6229 29.0342 32.2183C30.6538 31.5977 31.9334 30.318 32.554 28.6984C32.9586 27.6425 32.9586 26.3165 32.9586 23.6646C32.9586 21.0126 32.9586 19.6866 32.554 18.6307C31.9334 17.0111 30.6538 15.7314 29.0342 15.1108C27.9783 14.7062 26.6523 14.7062 24.0003 14.7062ZM20.042 23.6646C20.042 21.4784 21.8142 19.7062 24.0003 19.7062C26.1864 19.7062 27.9586 21.4784 27.9586 23.6646C27.9586 25.8507 26.1864 27.6229 24.0003 27.6229C21.8142 27.6229 20.042 25.8507 20.042 23.6646ZM29.417 19.4979C30.1073 19.4979 30.667 18.9383 30.667 18.2479C30.667 17.5575 30.1073 16.9979 29.417 16.9979C28.7266 16.9979 28.167 17.5575 28.167 18.2479C28.167 18.9383 28.7266 19.4979 29.417 19.4979Z" fill="#7785A0"/>
</svg>
