<svg width="40" height="41" viewBox="0 0 40 41" fill="none" xmlns="http://www.w3.org/2000/svg">
<rect y="0.335449" width="40" height="40" rx="20" fill="#F7F7FC"/>
<path fill-rule="evenodd" clip-rule="evenodd" d="M20 11.9375C17.6132 11.9375 16.4198 11.9375 15.4695 12.3016C14.0119 12.8602 12.8602 14.0119 12.3016 15.4695C11.9375 16.4198 11.9375 17.6132 11.9375 20C11.9375 22.3868 11.9375 23.5802 12.3016 24.5305C12.8602 25.9881 14.0119 27.1398 15.4695 27.6984C16.4198 28.0625 17.6132 28.0625 20 28.0625C22.3868 28.0625 23.5802 28.0625 24.5305 27.6984C25.9881 27.1398 27.1398 25.9881 27.6984 24.5305C28.0625 23.5802 28.0625 22.3868 28.0625 20C28.0625 17.6132 28.0625 16.4198 27.6984 15.4695C27.1398 14.0119 25.9881 12.8602 24.5305 12.3016C23.5802 11.9375 22.3868 11.9375 20 11.9375ZM16.4375 20C16.4375 18.0325 18.0325 16.4375 20 16.4375C21.9675 16.4375 23.5625 18.0325 23.5625 20C23.5625 21.9675 21.9675 23.5625 20 23.5625C18.0325 23.5625 16.4375 21.9675 16.4375 20ZM24.875 16.25C25.4963 16.25 26 15.7463 26 15.125C26 14.5037 25.4963 14 24.875 14C24.2537 14 23.75 14.5037 23.75 15.125C23.75 15.7463 24.2537 16.25 24.875 16.25Z" fill="#677488"/>
</svg>
