<svg width="48" height="48" viewBox="0 0 48 48" fill="none" xmlns="http://www.w3.org/2000/svg">
<path d="M29.4998 11.6038C29.4998 6.12013 29.4998 3.37827 28.4745 2.25545C27.587 1.28356 26.271 0.82193 24.9708 1.02642C23.4687 1.26266 21.7559 3.4037 18.3302 7.68578L9.03098 19.3098C6.42129 22.5719 5.11644 24.203 5.11496 25.5757C5.11367 26.7695 5.65645 27.8988 6.58946 28.6436C7.66227 29.4999 9.75104 29.4999 13.9286 29.4999H15.3638C16.4615 29.4999 17.0104 29.4999 17.4297 29.7136C17.7985 29.9015 18.0983 30.2013 18.2862 30.5701C18.4998 30.9894 18.4998 31.5382 18.4998 32.6359V36.396C18.4998 41.8797 18.4998 44.6216 19.5252 45.7444C20.4127 46.7163 21.7287 47.1779 23.0289 46.9734C24.531 46.7372 26.2438 44.5962 29.6695 40.3141L38.9687 28.69C41.5784 25.4279 42.8832 23.7968 42.8847 22.4242C42.886 21.2304 42.3432 20.101 41.4102 19.3563C40.3374 18.4999 38.2486 18.4999 34.0711 18.4999H32.6358C31.5381 18.4999 30.9893 18.4999 30.57 18.2863C30.2012 18.0984 29.9014 17.7985 29.7135 17.4297C29.4998 17.0105 29.4998 16.4616 29.4998 15.3639V11.6038Z" fill="url(#paint0_linear_889_7107)"/>
<defs>
<linearGradient id="paint0_linear_889_7107" x1="1.23139" y1="-6.60895" x2="61.4256" y2="16.6003" gradientUnits="userSpaceOnUse">
<stop offset="0.189369" stop-color="white"/>
<stop offset="1" stop-color="white" stop-opacity="0.5"/>
</linearGradient>
</defs>
</svg>
