<svg width="104" height="96" viewBox="0 0 104 96" fill="none" xmlns="http://www.w3.org/2000/svg">
<path d="M0 52C0 23.2812 23.2812 0 52 0V0C80.7188 0 104 23.2812 104 52V96H0V52Z" fill="url(#paint0_linear_3975_1389)"/>
<path fill-rule="evenodd" clip-rule="evenodd" d="M52.9971 51.9259C56.206 51.4445 58.6665 48.6763 58.6665 45.3333C58.6665 41.6514 55.6817 38.6666 51.9998 38.6666C48.3179 38.6666 45.3332 41.6514 45.3332 45.3333C45.3332 48.6763 47.7937 51.4445 51.0025 51.9259C51.0008 51.9503 50.9998 51.975 50.9998 52V60C50.9998 60.5522 51.4476 61 51.9998 61C52.5521 61 52.9998 60.5522 52.9998 60V52C52.9998 51.975 52.9989 51.9503 52.9971 51.9259ZM45.5384 55.6453C46.0789 55.532 46.4252 55.0019 46.3119 54.4614C46.1985 53.9209 45.6685 53.5746 45.128 53.6879C42.8454 54.1665 41.0189 54.92 39.7397 55.9145C38.4462 56.9201 37.6665 58.2175 37.6665 59.7076C37.6665 60.8281 38.209 61.8082 39.0081 62.6053C39.8033 63.3986 40.9035 64.067 42.183 64.6069C44.7461 65.6884 48.2175 66.3333 51.9998 66.3333C55.7822 66.3333 59.2536 65.6884 61.8167 64.6069C63.0962 64.067 64.1964 63.3986 64.9916 62.6053C65.7907 61.8082 66.3332 60.8281 66.3332 59.7076C66.3332 58.2175 65.5535 56.9201 64.26 55.9145C62.9808 54.92 61.1543 54.1665 58.8717 53.6879C58.3312 53.5746 57.8011 53.9209 57.6878 54.4614C57.5744 55.0019 57.9208 55.532 58.4613 55.6453C60.569 56.0873 62.0758 56.7498 63.0324 57.4935C63.9746 58.226 64.3332 58.9888 64.3332 59.7076C64.3332 60.1405 64.1294 60.6404 63.5791 61.1894C63.0249 61.7422 62.1725 62.286 61.0392 62.7642C58.7766 63.7189 55.5813 64.3333 51.9998 64.3333C48.4184 64.3333 45.2231 63.7189 42.9605 62.7642C41.8272 62.286 40.9747 61.7422 40.4205 61.1894C39.8702 60.6404 39.6665 60.1405 39.6665 59.7076C39.6665 58.9888 40.025 58.226 40.9672 57.4935C41.9238 56.7498 43.4306 56.0873 45.5384 55.6453Z" fill="url(#paint1_linear_3975_1389)"/>
<defs>
<linearGradient id="paint0_linear_3975_1389" x1="0.139838" y1="-3.1817e-05" x2="95.5565" y2="103.792" gradientUnits="userSpaceOnUse">
<stop stop-color="#F6C149"/>
<stop offset="1" stop-color="#EB5779"/>
</linearGradient>
<linearGradient id="paint1_linear_3975_1389" x1="37.885" y1="38.5146" x2="71.5385" y2="56.1203" gradientUnits="userSpaceOnUse">
<stop offset="0.189369" stop-color="white"/>
<stop offset="1" stop-color="white" stop-opacity="0.5"/>
</linearGradient>
</defs>
</svg>
