<svg width="107" height="101" viewBox="0 0 107 101" fill="none" xmlns="http://www.w3.org/2000/svg">
<path d="M49.9703 8.57779L20.3615 20.2191C8.78443 24.7709 4.19371 35.9602 8.94692 48.0496L19.9169 75.9508C24.6567 88.006 35.6387 93.0725 47.2159 88.5207L76.8246 76.8794C88.4017 72.3276 92.9583 61.1517 88.2185 49.0965L77.2485 21.1953C72.4953 9.10591 61.5474 4.02599 49.9703 8.57779Z" fill="url(#paint0_linear_983_5279)"/>
<g opacity="0.5" filter="url(#filter0_f_983_5279)">
<path d="M52.7502 20.8404L30.5746 29.5168C22.531 32.6639 19.468 38.6376 22.2444 45.7337L31.6478 69.7674C34.4697 76.9798 40.7369 79.1957 48.7806 76.0486L70.9562 67.3722C79.1295 64.1743 82.0965 58.3454 79.2746 51.133L69.8712 27.0993C67.0948 20.0032 60.9235 17.6425 52.7502 20.8404Z" fill="#30AD31"/>
</g>
<g filter="url(#filter1_b_983_5279)">
<mask id="path-3-outside-1_983_5279" maskUnits="userSpaceOnUse" x="31.6094" y="25.2991" width="76" height="76" fill="black">
<rect fill="white" x="31.6094" y="25.2991" width="76" height="76"/>
<path d="M85.2308 26.2991H53.4158C40.976 26.2991 32.6094 35.0327 32.6094 48.0229V78.0032C32.6094 90.9567 40.976 99.6903 53.4158 99.6903H85.2308C97.6706 99.6903 106.001 90.9567 106.001 78.0032V48.0229C106.001 35.0327 97.6706 26.2991 85.2308 26.2991Z"/>
</mask>
<path d="M85.2308 26.2991H53.4158C40.976 26.2991 32.6094 35.0327 32.6094 48.0229V78.0032C32.6094 90.9567 40.976 99.6903 53.4158 99.6903H85.2308C97.6706 99.6903 106.001 90.9567 106.001 78.0032V48.0229C106.001 35.0327 97.6706 26.2991 85.2308 26.2991Z" fill="#72DC60" fill-opacity="0.35"/>
<path d="M85.2308 27.2991C85.7831 27.2991 86.2308 26.8514 86.2308 26.2991C86.2308 25.7468 85.7831 25.2991 85.2308 25.2991V27.2991ZM85.2308 25.2991C84.6785 25.2991 84.2308 25.7468 84.2308 26.2991C84.2308 26.8514 84.6785 27.2991 85.2308 27.2991V25.2991ZM85.2308 25.2991H53.4158V27.2991H85.2308V25.2991ZM53.4158 25.2991C46.9531 25.2991 41.4805 27.5733 37.6255 31.598C33.7741 35.6189 31.6094 41.311 31.6094 48.0229H33.6094C33.6094 41.7446 35.628 36.5748 39.0698 32.9814C42.5081 29.3918 47.4386 27.2991 53.4158 27.2991V25.2991ZM31.6094 48.0229V78.0032H33.6094V48.0229H31.6094ZM31.6094 78.0032C31.6094 84.6974 33.7745 90.3804 37.6259 94.3965C41.4808 98.4162 46.9531 100.69 53.4158 100.69V98.6903C47.4386 98.6903 42.5078 96.5976 39.0694 93.0122C35.6275 89.4231 33.6094 84.2625 33.6094 78.0032H31.6094ZM53.4158 100.69H85.2308V98.6903H53.4158V100.69ZM85.2308 100.69C91.6936 100.69 97.1573 98.416 101.003 94.3956C104.845 90.379 107.001 84.6962 107.001 78.0032H105.001C105.001 84.2637 102.991 89.4244 99.558 93.0131C96.1289 96.5978 91.2078 98.6903 85.2308 98.6903V100.69ZM107.001 78.0032V48.0229H105.001V78.0032H107.001ZM107.001 48.0229C107.001 41.3122 104.846 35.6203 101.004 31.5989C97.1576 27.5734 91.6937 25.2991 85.2308 25.2991V27.2991C91.2077 27.2991 96.1286 29.3916 99.5575 32.9805C102.99 36.5734 105.001 41.7433 105.001 48.0229H107.001Z" fill="url(#paint1_linear_983_5279)" mask="url(#path-3-outside-1_983_5279)"/>
</g>
<g filter="url(#filter2_bd_983_5279)">
<mask id="path-5-inside-2_983_5279" fill="white">
<path fill-rule="evenodd" clip-rule="evenodd" d="M87.5443 72.3938C89.0635 72.3938 90.2965 71.1608 90.2965 69.6416V62.8456C90.2965 61.3264 89.0635 60.0934 87.5443 60.0934H66.6572C65.4683 56.178 61.8648 53.3011 57.564 53.3011C52.3019 53.3011 48.0195 57.5835 48.0195 62.8456C48.0195 68.1114 52.3019 72.3938 57.564 72.3938C61.8648 72.3938 65.4683 69.5169 66.6572 65.5978H74.4073V69.6416C74.4073 71.1608 75.6403 72.3938 77.1595 72.3938C78.6787 72.3938 79.9117 71.1608 79.9117 69.6416V65.5978H84.7922V69.6416C84.7922 71.1608 86.0251 72.3938 87.5443 72.3938ZM53.5201 62.8452C53.5201 60.6141 55.3366 58.8014 57.564 58.8014C59.7914 58.8014 61.6078 60.6141 61.6078 62.8452C61.6078 65.0726 59.7914 66.8854 57.564 66.8854C55.3366 66.8854 53.5201 65.0726 53.5201 62.8452Z"/>
</mask>
<path fill-rule="evenodd" clip-rule="evenodd" d="M87.5443 72.3938C89.0635 72.3938 90.2965 71.1608 90.2965 69.6416V62.8456C90.2965 61.3264 89.0635 60.0934 87.5443 60.0934H66.6572C65.4683 56.178 61.8648 53.3011 57.564 53.3011C52.3019 53.3011 48.0195 57.5835 48.0195 62.8456C48.0195 68.1114 52.3019 72.3938 57.564 72.3938C61.8648 72.3938 65.4683 69.5169 66.6572 65.5978H74.4073V69.6416C74.4073 71.1608 75.6403 72.3938 77.1595 72.3938C78.6787 72.3938 79.9117 71.1608 79.9117 69.6416V65.5978H84.7922V69.6416C84.7922 71.1608 86.0251 72.3938 87.5443 72.3938ZM53.5201 62.8452C53.5201 60.6141 55.3366 58.8014 57.564 58.8014C59.7914 58.8014 61.6078 60.6141 61.6078 62.8452C61.6078 65.0726 59.7914 66.8854 57.564 66.8854C55.3366 66.8854 53.5201 65.0726 53.5201 62.8452Z" fill="url(#paint2_linear_983_5279)"/>
<path d="M66.6572 60.0934L66.4658 60.1515L66.5089 60.2934H66.6572V60.0934ZM66.6572 65.5978V65.3978H66.5089L66.4658 65.5397L66.6572 65.5978ZM74.4073 65.5978H74.6073V65.3978H74.4073V65.5978ZM79.9117 65.5978V65.3978H79.7117V65.5978H79.9117ZM84.7922 65.5978H84.9922V65.3978H84.7922V65.5978ZM90.0965 69.6416C90.0965 71.0504 88.9531 72.1938 87.5443 72.1938V72.5938C89.174 72.5938 90.4965 71.2713 90.4965 69.6416H90.0965ZM90.0965 62.8456V69.6416H90.4965V62.8456H90.0965ZM87.5443 60.2934C88.9531 60.2934 90.0965 61.4369 90.0965 62.8456H90.4965C90.4965 61.216 89.174 59.8934 87.5443 59.8934V60.2934ZM66.6572 60.2934H87.5443V59.8934H66.6572V60.2934ZM57.564 53.5011C61.7725 53.5011 65.3012 56.3163 66.4658 60.1515L66.8486 60.0353C65.6353 56.0398 61.9571 53.1011 57.564 53.1011V53.5011ZM48.2195 62.8456C48.2195 57.6939 52.4124 53.5011 57.564 53.5011V53.1011C52.1914 53.1011 47.8195 57.473 47.8195 62.8456H48.2195ZM57.564 72.1938C52.4124 72.1938 48.2195 68.001 48.2195 62.8456H47.8195C47.8195 68.2218 52.1914 72.5938 57.564 72.5938V72.1938ZM66.4658 65.5397C65.3012 69.3786 61.7724 72.1938 57.564 72.1938V72.5938C61.9571 72.5938 65.6353 69.6551 66.8486 65.6558L66.4658 65.5397ZM74.4073 65.3978H66.6572V65.7978H74.4073V65.3978ZM74.6073 69.6416V65.5978H74.2073V69.6416H74.6073ZM77.1595 72.1938C75.7507 72.1938 74.6073 71.0504 74.6073 69.6416H74.2073C74.2073 71.2713 75.5298 72.5938 77.1595 72.5938V72.1938ZM79.7117 69.6416C79.7117 71.0504 78.5682 72.1938 77.1595 72.1938V72.5938C78.7891 72.5938 80.1117 71.2713 80.1117 69.6416H79.7117ZM79.7117 65.5978V69.6416H80.1117V65.5978H79.7117ZM84.7922 65.3978H79.9117V65.7978H84.7922V65.3978ZM84.9922 69.6416V65.5978H84.5922V69.6416H84.9922ZM87.5443 72.1938C86.1356 72.1938 84.9922 71.0504 84.9922 69.6416H84.5922C84.5922 71.2713 85.9147 72.5938 87.5443 72.5938V72.1938ZM57.564 58.6014C55.2262 58.6014 53.3201 60.5035 53.3201 62.8452H53.7201C53.7201 60.7247 55.4469 59.0014 57.564 59.0014V58.6014ZM61.8078 62.8452C61.8078 60.5035 59.9017 58.6014 57.564 58.6014V59.0014C59.6811 59.0014 61.4078 60.7247 61.4078 62.8452H61.8078ZM57.564 67.0854C59.9016 67.0854 61.8078 65.1833 61.8078 62.8452H61.4078C61.4078 64.9619 59.6812 66.6854 57.564 66.6854V67.0854ZM53.3201 62.8452C53.3201 65.1833 55.2263 67.0854 57.564 67.0854V66.6854C55.4468 66.6854 53.7201 64.9619 53.7201 62.8452H53.3201Z" fill="url(#paint3_linear_983_5279)" fill-opacity="0.5" mask="url(#path-5-inside-2_983_5279)"/>
</g>
<defs>
<filter id="filter0_f_983_5279" x="4.24219" y="2.44031" width="93.0723" height="92.0027" filterUnits="userSpaceOnUse" color-interpolation-filters="sRGB">
<feFlood flood-opacity="0" result="BackgroundImageFix"/>
<feBlend mode="normal" in="SourceGraphic" in2="BackgroundImageFix" result="shape"/>
<feGaussianBlur stdDeviation="8.5" result="effect1_foregroundBlur_983_5279"/>
</filter>
<filter id="filter1_b_983_5279" x="7.60938" y="1.29913" width="123.391" height="123.391" filterUnits="userSpaceOnUse" color-interpolation-filters="sRGB">
<feFlood flood-opacity="0" result="BackgroundImageFix"/>
<feGaussianBlur in="BackgroundImageFix" stdDeviation="12"/>
<feComposite in2="SourceAlpha" operator="in" result="effect1_backgroundBlur_983_5279"/>
<feBlend mode="normal" in="SourceGraphic" in2="effect1_backgroundBlur_983_5279" result="shape"/>
</filter>
<filter id="filter2_bd_983_5279" x="33.0195" y="38.3011" width="72.2773" height="49.0927" filterUnits="userSpaceOnUse" color-interpolation-filters="sRGB">
<feFlood flood-opacity="0" result="BackgroundImageFix"/>
<feGaussianBlur in="BackgroundImageFix" stdDeviation="7.5"/>
<feComposite in2="SourceAlpha" operator="in" result="effect1_backgroundBlur_983_5279"/>
<feColorMatrix in="SourceAlpha" type="matrix" values="0 0 0 0 0 0 0 0 0 0 0 0 0 0 0 0 0 0 127 0" result="hardAlpha"/>
<feOffset dx="5" dy="5"/>
<feGaussianBlur stdDeviation="5"/>
<feColorMatrix type="matrix" values="0 0 0 0 0.454902 0 0 0 0 0.870588 0 0 0 0 0.376471 0 0 0 0.5 0"/>
<feBlend mode="normal" in2="effect1_backgroundBlur_983_5279" result="effect2_dropShadow_983_5279"/>
<feBlend mode="normal" in="SourceGraphic" in2="effect2_dropShadow_983_5279" result="shape"/>
</filter>
<linearGradient id="paint0_linear_983_5279" x1="69.2996" y1="0.978022" x2="43.2859" y2="76.237" gradientUnits="userSpaceOnUse">
<stop stop-color="#9BF763"/>
<stop offset="1" stop-color="#26AB5B"/>
</linearGradient>
<linearGradient id="paint1_linear_983_5279" x1="44.292" y1="34.8493" x2="91.1078" y2="92.8317" gradientUnits="userSpaceOnUse">
<stop stop-color="white" stop-opacity="0.25"/>
<stop offset="1" stop-color="white" stop-opacity="0"/>
</linearGradient>
<linearGradient id="paint2_linear_983_5279" x1="87.2991" y1="56.7488" x2="40.4009" y2="60.1347" gradientUnits="userSpaceOnUse">
<stop stop-color="white"/>
<stop offset="1" stop-color="white" stop-opacity="0.2"/>
</linearGradient>
<linearGradient id="paint3_linear_983_5279" x1="52.5737" y1="59.7058" x2="88.4684" y2="60.1445" gradientUnits="userSpaceOnUse">
<stop stop-color="white"/>
<stop offset="1" stop-color="white" stop-opacity="0"/>
</linearGradient>
</defs>
</svg>
