<svg width="56" height="56" viewBox="0 0 56 56" fill="none" xmlns="http://www.w3.org/2000/svg">
<rect width="56" height="56" rx="28" fill="#0A7AF9"/>
<path d="M22.4136 35.8558C24.2802 37.4426 26.6984 38.4 29.3402 38.4C33.936 38.4 37.8554 35.5022 39.3706 31.4341L35.4763 32.8291C32.6346 33.7931 29.6513 34.6289 26.6196 35.2227L22.4136 35.8558Z" fill="url(#paint0_linear_723_10307)"/>
<path d="M18.6402 27.7C18.6402 28.3131 18.6917 28.9141 18.7908 29.4989L19.0142 30.5146C19.2143 31.2502 19.4908 31.9543 19.8348 32.6177L23.3331 31.9899C22.4681 30.7809 21.959 29.2999 21.959 27.7C21.959 23.6235 25.2639 20.3188 29.3402 20.3188C29.9166 20.3188 30.478 20.385 31.0166 20.5101L35.0016 18.6187C33.3596 17.5928 31.4189 17 29.3402 17C23.431 17 18.6402 21.7905 18.6402 27.7Z" fill="url(#paint1_linear_723_10307)"/>
<path d="M40.0063 26.958C40.0063 26.958 29.0141 30.8943 23.3331 31.9899L19.8348 32.6177L19.7615 32.63C16.4586 33.1808 16.0993 32.1627 19.0142 30.5146L18.7908 29.4989C14.0843 31.881 11.5775 35.4227 17.3206 35.4227C17.6058 35.4227 17.8914 35.4196 18.1772 35.4134C19.348 35.3881 20.524 35.3119 21.7 35.1912L26.4195 34.4808C29.4512 33.887 32.4346 33.0512 35.2763 32.0872L39.6661 30.5146C39.91 29.6178 40.0402 28.6741 40.0402 27.7C40.0402 27.3807 40.0063 26.958 40.0063 26.958Z" fill="url(#paint2_linear_723_10307)"/>
<defs>
<linearGradient id="paint0_linear_723_10307" x1="20.0798" y1="22.6745" x2="41.1563" y2="40.9138" gradientUnits="userSpaceOnUse">
<stop offset="0.256016" stop-color="white"/>
<stop offset="1" stop-color="white" stop-opacity="0.5"/>
</linearGradient>
<linearGradient id="paint1_linear_723_10307" x1="20.0798" y1="22.6745" x2="41.1563" y2="40.9138" gradientUnits="userSpaceOnUse">
<stop offset="0.256016" stop-color="white"/>
<stop offset="1" stop-color="white" stop-opacity="0.5"/>
</linearGradient>
<linearGradient id="paint2_linear_723_10307" x1="20.0798" y1="22.6745" x2="41.1563" y2="40.9138" gradientUnits="userSpaceOnUse">
<stop offset="0.256016" stop-color="white"/>
<stop offset="1" stop-color="white" stop-opacity="0.5"/>
</linearGradient>
</defs>
</svg>
