<svg width="29" height="30" viewBox="0 0 29 30" fill="none" xmlns="http://www.w3.org/2000/svg">
<path d="M26.5833 15.4898C26.5833 8.81633 21.1734 3.40643 14.5 3.40643" stroke="#0A7AF9" stroke-width="2.5" stroke-linecap="round" stroke-linejoin="round"/>
<path d="M26.5832 15.4898C26.5832 22.1632 21.1733 27.5731 14.4998 27.5731C13.1231 27.5731 11.9424 27.377 10.8462 26.9849C9.81005 26.6142 9.29196 26.4289 9.09317 26.3822C7.25902 25.9508 6.49814 27.2079 4.91733 27.4713C4.1409 27.6006 3.45004 26.9649 3.51447 26.1804C3.57081 25.4945 4.0452 24.8457 4.2345 24.187C4.62802 22.8176 4.09403 21.7793 3.52986 20.5615C2.81543 19.0193 2.4165 17.3011 2.4165 15.4898C2.4165 8.81633 7.8264 3.40643 14.4998 3.40643" stroke="#092857" stroke-width="2.5" stroke-linecap="round" stroke-linejoin="round"/>
</svg>
