<svg width="85" height="102" viewBox="0 0 85 102" fill="none" xmlns="http://www.w3.org/2000/svg">
<g id="Star">
<g id="Bg">
<path id="Rectangle 1028" d="M25.5992 43.3613C21.9393 40.1911 20.1093 38.606 19.0321 36.7861C17.197 33.6857 16.7308 29.9628 17.7448 26.5056C18.34 24.4763 19.7226 22.4889 22.4878 18.5141C25.2531 14.5393 26.6357 12.552 28.3315 11.2883C31.2204 9.13546 34.8731 8.27807 38.4181 8.92065C40.4991 9.29785 42.6216 10.4625 46.8666 12.7918L58.9375 19.4153C65.404 22.9635 68.6373 24.7377 70.3835 27.2615C72.2533 29.9638 73.0302 33.2739 72.5581 36.5259C72.1172 39.5631 70.011 42.5906 65.7986 48.6455C61.5862 54.7004 59.48 57.7279 56.7856 59.1974C53.9006 60.7708 50.5269 61.1932 47.3431 60.3798C44.3695 59.62 41.5819 57.2054 36.0065 52.3761L25.5992 43.3613Z" fill="url(#paint0_linear_1921_456)"/>
<g id="Rectangle 1029" opacity="0.5" filter="url(#filter0_f_1921_456)">
<path d="M31.7382 39.46C27.4604 35.7545 26.6671 29.4189 29.8991 24.7731C33.1312 20.1272 39.3475 18.6681 44.3091 21.3907L51.4441 25.3057C57.6602 28.7166 59.5489 36.7629 55.4996 42.5834C51.4503 48.4038 43.2493 49.4307 37.8899 44.7884L31.7382 39.46Z" fill="#0062FF"/>
</g>
</g>
<g id="Icon">
<g id="Fill 1" filter="url(#filter1_b_1921_456)">
<mask id="path-3-outside-1_1921_456" maskUnits="userSpaceOnUse" x="0.666016" y="26.0842" width="84" height="76" fill="black">
<rect fill="white" x="0.666016" y="26.0842" width="84" height="76"/>
<path d="M80.2702 69.8627C76.9178 69.8627 74.1901 67.16 74.1901 63.8382C74.1901 60.5124 76.9178 57.8096 80.2702 57.8096C81.0828 57.8096 81.8627 57.49 82.4344 56.9236C83.0101 56.3531 83.3327 55.5803 83.3327 54.7751L83.3286 43.8428C83.3286 34.6017 75.7377 27.0842 66.4114 27.0842H18.5873C9.26102 27.0842 1.6701 34.6017 1.6701 43.8428L1.66602 55.1271C1.66602 55.9323 1.9886 56.7051 2.56435 57.2756C3.13602 57.842 3.91593 58.1616 4.72852 58.1616C8.19527 58.1616 10.8086 60.6014 10.8086 63.8382C10.8086 67.16 8.08093 69.8627 4.72852 69.8627C3.03802 69.8627 1.66602 71.2222 1.66602 72.8973V83.8215C1.66602 93.0626 9.25285 100.584 18.5833 100.584H66.4154C75.7459 100.584 83.3327 93.0626 83.3327 83.8215V72.8973C83.3327 71.2222 81.9607 69.8627 80.2702 69.8627Z"/>
</mask>
<path d="M80.2702 69.8627C76.9178 69.8627 74.1901 67.16 74.1901 63.8382C74.1901 60.5124 76.9178 57.8096 80.2702 57.8096C81.0828 57.8096 81.8627 57.49 82.4344 56.9236C83.0101 56.3531 83.3327 55.5803 83.3327 54.7751L83.3286 43.8428C83.3286 34.6017 75.7377 27.0842 66.4114 27.0842H18.5873C9.26102 27.0842 1.6701 34.6017 1.6701 43.8428L1.66602 55.1271C1.66602 55.9323 1.9886 56.7051 2.56435 57.2756C3.13602 57.842 3.91593 58.1616 4.72852 58.1616C8.19527 58.1616 10.8086 60.6014 10.8086 63.8382C10.8086 67.16 8.08093 69.8627 4.72852 69.8627C3.03802 69.8627 1.66602 71.2222 1.66602 72.8973V83.8215C1.66602 93.0626 9.25285 100.584 18.5833 100.584H66.4154C75.7459 100.584 83.3327 93.0626 83.3327 83.8215V72.8973C83.3327 71.2222 81.9607 69.8627 80.2702 69.8627Z" fill="#3EA0FE" fill-opacity="0.35"/>
<path d="M80.2702 70.8627C80.8225 70.8627 81.2702 70.415 81.2702 69.8627C81.2702 69.3105 80.8225 68.8627 80.2702 68.8627V70.8627ZM82.4344 56.9236L81.7305 56.2132L82.4344 56.9236ZM83.3327 54.7751H84.3327V54.7748L83.3327 54.7751ZM83.3286 43.8428H82.3286V43.8432L83.3286 43.8428ZM1.6701 43.8428L2.6701 43.8431V43.8428H1.6701ZM1.66602 55.1271L0.666016 55.1268V55.1271H1.66602ZM2.56435 57.2756L3.2682 56.5652L2.56435 57.2756ZM80.2702 68.8627C79.7179 68.8627 79.2702 69.3105 79.2702 69.8627C79.2702 70.415 79.7179 70.8627 80.2702 70.8627V68.8627ZM80.2702 68.8627C77.4614 68.8627 75.1901 66.5991 75.1901 63.8382H73.1901C73.1901 67.7209 76.3742 70.8627 80.2702 70.8627V68.8627ZM75.1901 63.8382C75.1901 61.0729 77.4618 58.8096 80.2702 58.8096V56.8096C76.3737 56.8096 73.1901 59.9519 73.1901 63.8382H75.1901ZM80.2702 58.8096C81.3439 58.8096 82.3775 58.3876 83.1382 57.6339L81.7305 56.2132C81.3478 56.5924 80.8216 56.8096 80.2702 56.8096V58.8096ZM83.1382 57.6339C83.9026 56.8765 84.3327 55.8484 84.3327 54.7751H82.3327C82.3327 55.3122 82.1176 55.8296 81.7305 56.2132L83.1382 57.6339ZM84.3327 54.7748L84.3286 43.8424L82.3286 43.8432L82.3327 54.7755L84.3327 54.7748ZM84.3286 43.8428C84.3286 34.0404 76.281 26.0842 66.4114 26.0842V28.0842C75.1944 28.0842 82.3286 35.1629 82.3286 43.8428H84.3286ZM66.4114 26.0842H18.5873V28.0842H66.4114V26.0842ZM18.5873 26.0842C8.71772 26.0842 0.670099 34.0404 0.670099 43.8428H2.6701C2.6701 35.1629 9.80431 28.0842 18.5873 28.0842V26.0842ZM0.670099 43.8424L0.666016 55.1268L2.66602 55.1275L2.6701 43.8431L0.670099 43.8424ZM0.666016 55.1271C0.666016 56.2004 1.09613 57.2285 1.8605 57.9859L3.2682 56.5652C2.88107 56.1816 2.66602 55.6642 2.66602 55.1271H0.666016ZM1.8605 57.9859C2.62117 58.7396 3.65477 59.1616 4.72852 59.1616V57.1616C4.1771 57.1616 3.65086 56.9444 3.2682 56.5652L1.8605 57.9859ZM4.72852 59.1616C7.70879 59.1616 9.8086 61.2173 9.8086 63.8382H11.8086C11.8086 59.9855 8.68174 57.1616 4.72852 57.1616V59.1616ZM9.8086 63.8382C9.8086 66.5991 7.53732 68.8627 4.72852 68.8627V70.8627C8.62454 70.8627 11.8086 67.7209 11.8086 63.8382H9.8086ZM4.72852 68.8627C2.4944 68.8627 0.666016 70.6613 0.666016 72.8973H2.66602C2.66602 71.7831 3.58163 70.8627 4.72852 70.8627V68.8627ZM0.666016 72.8973V83.8215H2.66602V72.8973H0.666016ZM0.666016 83.8215C0.666016 93.6234 8.70908 101.584 18.5833 101.584V99.5842C9.79662 99.5842 2.66602 92.5019 2.66602 83.8215H0.666016ZM18.5833 101.584H66.4154V99.5842H18.5833V101.584ZM66.4154 101.584C76.2896 101.584 84.3327 93.6234 84.3327 83.8215H82.3327C82.3327 92.5019 75.2021 99.5842 66.4154 99.5842V101.584ZM84.3327 83.8215V72.8973H82.3327V83.8215H84.3327ZM84.3327 72.8973C84.3327 70.6613 82.5043 68.8627 80.2702 68.8627V70.8627C81.4171 70.8627 82.3327 71.7831 82.3327 72.8973H84.3327Z" fill="url(#paint1_linear_1921_456)" mask="url(#path-3-outside-1_1921_456)"/>
</g>
<g id="Fill 4" filter="url(#filter2_bd_1921_456)">
<path d="M56.5072 62.1542L51.6929 66.8419L52.8322 73.4691C53.0282 74.6165 52.5668 75.7476 51.6235 76.4254C50.6884 77.1114 49.4675 77.1972 48.4385 76.65L42.4973 73.5263L36.5438 76.6541C36.1028 76.8869 35.6209 77.0094 35.1432 77.0094C34.5184 77.0094 33.9018 76.8134 33.371 76.4295C32.4318 75.7476 31.9704 74.6165 32.1664 73.4691L33.3016 66.8419L28.4873 62.1542C27.6543 61.3457 27.3644 60.1574 27.7238 59.0509C28.0872 57.9484 29.0263 57.1644 30.1738 57.001L36.8133 56.0333L39.79 50.0022C40.3086 48.965 41.3458 48.3199 42.4973 48.3199H42.5054C43.661 48.3239 44.6982 48.9691 45.2086 50.0063L48.1853 56.0333L54.8371 57.0051C55.9723 57.1644 56.9114 57.9484 57.2708 59.0509C57.6342 60.1574 57.3443 61.3457 56.5072 62.1542Z" fill="url(#paint2_linear_1921_456)"/>
<path d="M56.4374 62.0825L56.4377 62.0823C57.247 61.3006 57.5273 60.1525 57.1757 59.0821L57.1757 59.0818C56.8282 58.0156 55.9204 57.2581 54.8232 57.1041L54.8226 57.1041L48.1709 56.1322L48.1189 56.1246L48.0957 56.0776L45.1189 50.0506L45.1189 50.0504C44.6253 49.0475 43.6229 48.4239 42.5052 48.4199H42.4973C41.3841 48.4199 40.3815 49.0431 39.8796 50.0466C39.8795 50.0467 39.8795 50.0468 39.8794 50.0469L36.9029 56.0775L36.8797 56.1246L36.8277 56.1322L30.1882 57.1L30.1878 57.1C29.0781 57.258 28.1703 58.0157 27.8188 59.082C27.4712 60.1526 27.7517 61.3008 28.557 62.0824L28.5571 62.0825L33.3713 66.7702L33.409 66.8069L33.4002 66.8587L32.265 73.4859C32.0754 74.5958 32.5213 75.6889 33.4296 76.3485C33.9435 76.7201 34.5396 76.9094 35.1432 76.9094C35.6039 76.9094 36.0698 76.7912 36.4971 76.5657L36.4972 76.5656L42.4507 73.4377L42.4973 73.4133L42.5438 73.4378L48.485 76.5615L48.4855 76.5617C49.4808 77.091 50.6605 77.0079 51.5644 76.3448L51.5651 76.3442C52.4772 75.6889 52.9232 74.596 52.7336 73.486L56.4374 62.0825ZM56.4374 62.0825L51.6232 66.7702L51.5854 66.8069L51.5944 66.8588L52.7336 73.4859L56.4374 62.0825Z" stroke="url(#paint3_linear_1921_456)" stroke-opacity="0.5" stroke-width="0.2"/>
</g>
</g>
</g>
<defs>
<filter id="filter0_f_1921_456" x="7.91602" y="0.0247498" width="69.7227" height="67.6779" filterUnits="userSpaceOnUse" color-interpolation-filters="sRGB">
<feFlood flood-opacity="0" result="BackgroundImageFix"/>
<feBlend mode="normal" in="SourceGraphic" in2="BackgroundImageFix" result="shape"/>
<feGaussianBlur stdDeviation="10" result="effect1_foregroundBlur_1921_456"/>
</filter>
<filter id="filter1_b_1921_456" x="-23.334" y="2.08417" width="131.666" height="123.5" filterUnits="userSpaceOnUse" color-interpolation-filters="sRGB">
<feFlood flood-opacity="0" result="BackgroundImageFix"/>
<feGaussianBlur in="BackgroundImageFix" stdDeviation="12"/>
<feComposite in2="SourceAlpha" operator="in" result="effect1_backgroundBlur_1921_456"/>
<feBlend mode="normal" in="SourceGraphic" in2="effect1_backgroundBlur_1921_456" result="shape"/>
</filter>
<filter id="filter2_bd_1921_456" x="12.5723" y="33.3199" width="59.8516" height="58.6895" filterUnits="userSpaceOnUse" color-interpolation-filters="sRGB">
<feFlood flood-opacity="0" result="BackgroundImageFix"/>
<feGaussianBlur in="BackgroundImageFix" stdDeviation="7.5"/>
<feComposite in2="SourceAlpha" operator="in" result="effect1_backgroundBlur_1921_456"/>
<feColorMatrix in="SourceAlpha" type="matrix" values="0 0 0 0 0 0 0 0 0 0 0 0 0 0 0 0 0 0 127 0" result="hardAlpha"/>
<feOffset dx="5" dy="5"/>
<feGaussianBlur stdDeviation="5"/>
<feColorMatrix type="matrix" values="0 0 0 0 0.15375 0 0 0 0 0.522433 0 0 0 0 0.9 0 0 0 0.5 0"/>
<feBlend mode="normal" in2="effect1_backgroundBlur_1921_456" result="effect2_dropShadow_1921_456"/>
<feBlend mode="normal" in="SourceGraphic" in2="effect2_dropShadow_1921_456" result="shape"/>
</filter>
<linearGradient id="paint0_linear_1921_456" x1="33.4754" y1="2.72061" x2="28.8862" y2="62.4962" gradientUnits="userSpaceOnUse">
<stop stop-color="#39AFFD"/>
<stop offset="1" stop-color="#477FFF"/>
</linearGradient>
<linearGradient id="paint1_linear_1921_456" x1="14.666" y1="35.647" x2="74.3032" y2="103.148" gradientUnits="userSpaceOnUse">
<stop stop-color="white" stop-opacity="0.25"/>
<stop offset="1" stop-color="white" stop-opacity="0"/>
</linearGradient>
<linearGradient id="paint2_linear_1921_456" x1="55.3082" y1="53.5006" x2="22.0583" y2="54.6286" gradientUnits="userSpaceOnUse">
<stop stop-color="white"/>
<stop offset="1" stop-color="white" stop-opacity="0.2"/>
</linearGradient>
<linearGradient id="paint3_linear_1921_456" x1="30.788" y1="57.9438" x2="56.1368" y2="58.0894" gradientUnits="userSpaceOnUse">
<stop stop-color="white"/>
<stop offset="1" stop-color="white" stop-opacity="0"/>
</linearGradient>
</defs>
</svg>
