<svg width="104" height="96" viewBox="0 0 104 96" fill="none" xmlns="http://www.w3.org/2000/svg">
<path d="M0 52C0 23.2812 23.2812 0 52 0V0C80.7188 0 104 23.2812 104 52V96H0V52Z" fill="url(#paint0_linear_3975_1388)"/>
<path fill-rule="evenodd" clip-rule="evenodd" d="M40.9164 37.7777C41.378 37.6666 41.847 37.6666 42.7851 37.6666C43.6148 37.6666 44.0297 37.6666 44.3949 37.7351C45.6711 37.9743 46.7518 38.8181 47.2934 39.9982C47.4484 40.3359 47.5491 40.7384 47.7503 41.5434L47.7503 41.5434L47.9113 42.1875C48.2922 43.7112 48.4827 44.473 48.4921 45.2199C48.505 46.2481 48.2701 47.2642 47.807 48.1823C47.4707 48.8494 46.9555 49.4616 45.9252 50.6861C45.1934 51.5558 44.8276 51.9906 44.6337 52.551C44.4187 53.1726 44.429 54.0933 44.6577 54.7099C44.8639 55.2659 45.157 55.5989 45.7431 56.2649C46.2445 56.8347 46.7742 57.3776 47.331 57.8925C48.0897 58.594 48.469 58.9447 49.1091 59.1637C49.6073 59.3341 50.3488 59.3725 50.8619 59.2545C51.5212 59.1029 52.0324 58.7201 53.0547 57.9546L53.361 57.7253L53.361 57.7253C54.6517 56.7588 55.2971 56.2756 56.0075 55.9731C56.81 55.6314 57.6738 55.4573 58.5459 55.4615C59.318 55.4653 60.1002 55.6608 61.6645 56.0519L62.4569 56.25C63.2619 56.4512 63.6644 56.5519 64.0021 56.7069C65.1822 57.2485 66.026 58.3292 66.2652 59.6054C66.3337 59.9706 66.3337 60.3855 66.3337 61.2152C66.3337 62.1524 66.3337 62.6209 66.2225 63.0826C65.8594 64.5901 64.3371 65.9396 62.7969 66.1191C62.3252 66.1741 61.9591 66.1299 61.2269 66.0414C57.1675 65.5508 53.2416 64.3908 49.6836 62.183C46.3134 60.0918 43.5518 57.2673 41.5297 53.8416C39.5 50.4028 38.4232 46.6482 37.957 42.7735C37.8688 42.0399 37.8246 41.6731 37.8798 41.2016C38.0601 39.6615 39.4089 38.1407 40.9164 37.7777ZM54.667 40.1334C54.0043 40.1334 53.467 40.6707 53.467 41.3334C53.467 41.9962 54.0043 42.5334 54.667 42.5334C58.4225 42.5334 61.467 45.5779 61.467 49.3334C61.467 49.9962 62.0043 50.5334 62.667 50.5334C63.3297 50.5334 63.867 49.9962 63.867 49.3334C63.867 44.2524 59.748 40.1334 54.667 40.1334ZM54.667 44.1334C54.0043 44.1334 53.467 44.6707 53.467 45.3334C53.467 45.9962 54.0043 46.5334 54.667 46.5334C55.144 46.5334 55.8115 46.8725 56.4576 47.5627C56.7836 47.911 57.0512 48.2953 57.2315 48.6463C57.424 49.0209 57.467 49.2586 57.467 49.3334C57.467 49.9962 58.0043 50.5334 58.667 50.5334C59.3297 50.5334 59.867 49.9962 59.867 49.3334C59.867 48.7172 59.6413 48.0847 59.3662 47.5493C59.0789 46.9903 58.6798 46.4248 58.2098 45.9226C57.3761 45.0319 56.1168 44.1334 54.667 44.1334Z" fill="url(#paint1_linear_3975_1388)"/>
<defs>
<linearGradient id="paint0_linear_3975_1388" x1="0.139959" y1="-2.26452e-07" x2="95.5566" y2="103.792" gradientUnits="userSpaceOnUse">
<stop stop-color="#7EB5F9"/>
<stop offset="1" stop-color="#6475FF"/>
</linearGradient>
<linearGradient id="paint1_linear_3975_1388" x1="38.0725" y1="37.5102" x2="72.0038" y2="54.6429" gradientUnits="userSpaceOnUse">
<stop offset="0.189369" stop-color="white"/>
<stop offset="1" stop-color="white" stop-opacity="0.5"/>
</linearGradient>
</defs>
</svg>
