<svg width="25" height="25" viewBox="0 0 25 25" fill="none" xmlns="http://www.w3.org/2000/svg">
<path fill-rule="evenodd" clip-rule="evenodd" d="M12.5002 2.96826C7.11543 2.96826 2.75021 7.33348 2.75021 12.7183C2.75021 13.2745 2.7968 13.8199 2.88628 14.3508C2.23056 15.1362 1.72672 15.914 1.43892 16.647C1.12048 17.458 1.02259 18.3388 1.45827 19.0934C1.89856 19.856 2.72258 20.2111 3.59545 20.3376C4.47897 20.4655 5.54981 20.384 6.7162 20.1453C9.05707 19.6663 11.955 18.518 14.8751 16.832C17.8256 15.1285 20.29 13.17 21.8739 11.3662C22.6469 10.486 23.2393 9.60986 23.5613 8.7898C23.8797 7.9788 23.9776 7.09802 23.5419 6.34342C23.1061 5.58857 22.294 5.23296 21.4321 5.10333C20.6533 4.98619 19.7277 5.03375 18.7194 5.20901C17.0316 3.80953 14.8641 2.96826 12.5002 2.96826ZM20.0549 6.55428C20.7114 7.35796 21.2423 8.26835 21.6174 9.25544C21.8625 8.8875 22.0449 8.54747 22.165 8.24159C22.403 7.63552 22.3537 7.28534 22.2429 7.09342C22.132 6.90143 21.8533 6.68354 21.209 6.58665C20.8835 6.53768 20.497 6.52575 20.0549 6.55428ZM4.94573 18.8825C4.2891 18.0788 3.7582 17.1683 3.38303 16.1811C3.13779 16.5491 2.95529 16.8893 2.83514 17.1952C2.59717 17.8013 2.6465 18.1515 2.75731 18.3434C2.8693 18.5374 3.15302 18.7578 3.81046 18.853C4.13232 18.8997 4.51243 18.9105 4.94573 18.8825ZM12.5002 22.4683C10.7241 22.4683 9.05894 21.9934 7.62473 21.1636L7.71626 21.1452C10.0571 20.6661 12.955 19.5178 15.8752 17.8319C18.4598 16.3396 20.6714 14.6516 22.2449 13.0434C22.0734 18.2777 17.7762 22.4683 12.5002 22.4683Z" fill="#0A7AF9"/>
</svg>
