<svg width="1440" height="1031" viewBox="0 0 1440 1031" fill="none" xmlns="http://www.w3.org/2000/svg">
<g opacity="0.35">
<path d="M1156.47 -39.2654C928.947 149.587 741.958 304.231 741.277 304.231C740.595 304.231 742.298 301.97 745.023 299.142C747.748 296.598 769.887 273.981 793.729 249.102C850.95 190.015 863.211 177.576 892.162 148.739C968.457 72.1237 1029.42 12.1885 1120.36 -76.0181C1239.57 -191.365 1293.73 -243.102 1401.36 -344.03L1442.91 -382.762H1570.3L1156.47 -39.2654Z" fill="url(#paint0_radial_936_5925)"/>
<path d="M1304.29 -379.369C1302.93 -377.39 1283.85 -355.904 1262.05 -331.874C1210.62 -275.331 1120.36 -172.706 1072.34 -117.011C996.386 -28.5222 966.073 7.94781 895.909 95.0235C822.68 186.057 816.89 193.69 768.525 257.584C753.198 277.656 739.914 294.902 738.892 295.467C734.124 299.425 747.748 276.243 814.506 164.288C880.923 53.1819 904.765 14.1675 936.781 -33.6111C942.912 -42.9406 951.767 -56.2281 956.536 -63.2959C980.378 -99.7659 990.255 -114.184 1038.62 -184.014C1067.23 -225.573 1110.83 -287.205 1135.01 -320.565L1178.95 -381.348L1242.98 -382.196C1294.07 -382.762 1306.33 -382.196 1304.29 -379.369Z" fill="url(#paint1_radial_936_5925)"/>
<path d="M1028.06 -348.271C931.331 -170.444 833.92 36.5018 756.263 229.312C742.298 263.521 731.059 289.53 730.718 286.986C730.718 281.049 761.713 151.566 776.699 95.0234C779.424 84.8458 787.939 53.1818 795.432 24.3451C824.724 -85.6304 895.568 -320.848 916.686 -377.956C918.389 -382.197 924.519 -382.762 982.762 -382.762H1046.79L1028.06 -348.271Z" fill="url(#paint2_radial_936_5925)"/>
<path d="M783.852 -372.302C782.83 -366.365 781.127 -353.36 780.105 -343.182C779.083 -333.004 776.018 -303.885 773.293 -278.158C754.56 -102.31 731.399 152.697 725.268 248.254C723.906 268.327 721.862 284.441 720.841 284.441C719.478 284.441 716.413 258.149 714.369 225.637C710.282 169.942 706.535 126.122 694.955 -3.92621C684.396 -118.708 663.279 -325.088 657.489 -369.474L655.445 -382.762H785.895L783.852 -372.302Z" fill="url(#paint3_radial_936_5925)"/>
<path d="M527.38 -368.061C552.925 -293.142 602.652 -130.864 630.241 -32.1975C655.105 57.1399 714.369 291.792 713.347 298.294C713.347 299.142 702.107 272.002 688.143 237.794C638.756 114.248 596.862 19.539 537.257 -104.289C503.197 -174.685 412.938 -351.098 399.995 -371.736L393.524 -382.762H522.611L527.38 -368.061Z" fill="url(#paint4_radial_936_5925)"/>
<path d="M263.074 -379.369C279.764 -361.276 426.221 -151.22 498.429 -42.0925C568.592 64.4904 727.312 328.545 703.129 298.577C701.426 296.315 681.331 269.458 658.511 239.207C545.772 89.3691 367.638 -122.948 184.055 -326.219C159.532 -353.36 138.074 -377.39 136.712 -379.369C134.668 -381.914 147.611 -382.762 196.998 -382.762C243.319 -382.762 260.69 -381.914 263.074 -379.369Z" fill="url(#paint5_radial_936_5925)"/>
<path d="M13.7548 -368.909C21.248 -361.558 54.2863 -330.177 86.9838 -299.362C175.54 -216.244 307.693 -89.0229 390.458 -8.1669C493.66 92.479 581.876 181.534 660.554 263.238C702.789 307.058 691.549 298.012 288.278 -36.4383C59.3953 -226.139 -127.594 -381.631 -127.594 -381.914C-127.594 -382.479 -98.9838 -382.762 -63.902 -382.479H0.130859L13.7548 -368.909Z" fill="url(#paint6_radial_936_5925)"/>
<path d="M1572 -166.204L1527.04 -138.215C1265.8 24.9105 1010.35 172.487 805.65 279.352C750.813 307.906 751.154 307.624 751.154 306.21C751.154 305.645 764.437 296.315 780.786 285.572C825.405 256.453 952.449 170.225 1021.93 122.164C1156.47 28.5858 1515.8 -228.966 1557.35 -262.043L1572 -273.635V-166.204Z" fill="url(#paint7_radial_936_5925)"/>
<path d="M-67.989 -226.704C48.4962 -140.477 393.865 106.615 451.426 144.498C458.579 149.022 501.494 178.424 547.135 209.522C592.775 240.621 643.524 274.829 659.873 285.572C688.484 304.231 698.702 312.43 682.012 303.666C677.925 301.121 664.642 294.336 652.38 288.117C473.565 197.083 174.859 24.6279 -87.7438 -139.346L-131 -166.486V-219.354C-131 -248.756 -130.659 -272.504 -130.319 -272.221C-129.638 -272.221 -101.708 -251.583 -67.989 -226.704Z" fill="url(#paint8_radial_936_5925)"/>
<path d="M1572 -1.9472V51.2029L1550.88 59.1189C1313.14 147.891 1035.9 237.511 811.781 298.577C749.11 315.823 732.08 318.932 767.503 307.058C792.367 298.86 1002.18 212.915 1071.32 182.665C1203.81 124.708 1430.31 17.2773 1569.28 -53.9665C1570.98 -54.5319 1572 -31.0667 1572 -1.9472Z" fill="url(#paint9_radial_936_5925)"/>
<path d="M-61.1771 -20.3235C31.8066 26.0414 111.166 64.2077 219.818 114.813C353.674 177.01 594.478 279.07 670.091 305.645C682.693 310.168 692.571 314.126 691.89 314.692C689.505 316.953 485.486 258.714 367.979 222.244C233.442 180.686 19.545 107.463 -112.948 57.988L-131 51.2029V-1.9472C-131 -31.0667 -130.659 -54.8145 -130.319 -54.8145C-129.638 -54.5318 -98.6432 -39.2653 -61.1771 -20.3235Z" fill="url(#paint10_radial_936_5925)"/>
<path d="M1571.32 215.742L1570.3 268.892L1486.85 275.112C1271.25 290.944 1163.28 298.012 940.187 311.016C800.882 319.215 753.879 321.477 751.835 320.063C750.813 319.215 753.198 318.367 757.285 318.367C766.822 318.367 865.936 302.252 967.435 284.441C1136.71 254.756 1363.21 209.522 1505.92 177.01C1539.98 169.094 1568.59 162.875 1569.96 162.875C1570.98 162.875 1571.66 186.623 1571.32 215.742Z" fill="url(#paint11_radial_936_5925)"/>
<path d="M-67.989 175.879C86.3029 211.501 335.622 260.976 519.546 292.64C597.543 305.927 676.222 318.367 684.056 318.367C687.802 318.367 690.187 319.215 688.824 320.063C687.121 321.759 655.786 320.063 500.813 311.016C296.453 299.142 142.502 289.247 -16.899 277.373C-48.9154 274.829 -87.0626 272.002 -102.049 270.871L-129.297 268.892L-130.319 215.742C-131 174.466 -130.319 162.875 -126.913 163.157C-124.529 163.157 -97.9618 169.094 -67.989 175.879Z" fill="url(#paint12_radial_936_5925)"/>
<path d="M848.225 331.372C881.944 333.351 943.934 337.026 986.168 339.57C1139.1 348.334 1449.04 369.255 1510.69 374.91C1526.7 376.606 1546.8 377.737 1555.65 377.737H1572V431.452C1572 460.854 1570.64 485.168 1569.28 485.168C1567.91 485.168 1553.61 482.058 1537.94 478.383C1456.88 459.158 1217.44 409.118 1108.78 389.045C1091.07 385.653 1062.46 380.564 1045.77 377.171C1028.74 374.061 956.195 361.622 883.988 349.183C747.067 326.283 744.682 324.869 848.225 331.372Z" fill="url(#paint13_radial_936_5925)"/>
<path d="M557.012 349.183C484.805 361.622 411.576 374.061 394.205 377.454C377.175 380.846 348.565 385.935 331.194 389.328C225.608 408.835 35.8938 448.132 -83.6567 475.273C-107.158 480.644 -127.594 485.168 -128.616 485.168C-129.978 485.168 -131 461.42 -131 432.018V379.15L-60.4958 374.061C-21.3268 371.234 34.1909 367.276 63.142 365.015C145.908 358.795 332.216 346.638 453.129 339.57C494.342 337.309 560.759 333.351 600.609 331.089C640.459 328.827 676.222 326.848 680.65 327.131C684.737 327.131 629.219 337.026 557.012 349.183Z" fill="url(#paint14_radial_936_5925)"/>
<path d="M827.789 353.423C927.925 381.977 979.356 396.961 1052.58 419.296C1174.86 456.896 1341.07 512.308 1444.27 549.909C1470.5 559.521 1510.01 573.94 1531.81 581.856L1572 596.557V703.14L1555.65 695.506C1546.8 691.266 1535.9 685.611 1531.13 682.784C1519.55 676.282 1442.57 637.833 1441.21 637.833C1440.53 637.833 1429.97 632.744 1417.71 626.524C1345.84 590.337 1192.23 519.093 1064.51 462.551C1027.38 446.153 863.552 378.585 774.996 343.246C746.045 331.654 760.691 334.482 827.789 353.423Z" fill="url(#paint15_radial_936_5925)"/>
<path d="M700.064 335.895C699.042 336.743 662.598 361.057 619.001 390.176C481.399 481.775 338.006 581.29 141.48 722.364C68.9319 774.666 -14.8555 835.167 -18.6021 838.559C-19.6239 839.407 -45.1689 858.067 -75.823 880.401L-131 920.829V814.529L-41.7631 759.117C213.346 601.08 410.213 487.43 616.617 378.585C693.593 338.157 703.129 333.351 700.064 335.895Z" fill="url(#paint16_radial_936_5925)"/>
<path d="M667.707 342.398C658.17 346.356 610.146 365.863 560.418 385.653C482.761 416.751 371.726 464.247 299.859 496.476C176.562 552.171 15.4579 629.069 -85.0192 680.24C-105.796 690.7 -124.529 700.03 -126.913 701.161C-129.978 702.857 -131 691.548 -131 649.707V596.274L-103.071 586.096C-87.4033 580.725 -47.8937 566.306 -15.196 554.432C131.262 501 333.238 434.845 492.979 387.914C553.947 369.821 679.969 335.33 682.693 335.612C683.715 335.612 676.903 338.722 667.707 342.398Z" fill="url(#paint17_radial_936_5925)"/>
<path d="M699.383 345.79C694.614 350.314 668.047 377.171 640.459 406.008C595.84 452.09 380.581 667.801 369.001 677.695C366.616 679.957 351.63 694.376 335.622 709.925C319.614 725.474 305.99 738.762 304.968 739.61C303.946 740.458 284.191 759.4 260.69 782.017C237.529 804.634 176.221 862.873 124.45 911.782C73.0193 960.409 23.9729 1007.06 15.4579 1015.54L0.130859 1030.52H-64.5831L-129.297 1030.8L287.938 684.481C653.402 381.129 735.146 313.844 699.383 345.79Z" fill="url(#paint18_radial_936_5925)"/>
<path d="M829.492 381.412C1030.45 487.147 1232.42 603.907 1475.61 754.876L1572 814.529V921.111L1544.41 900.473C1529.08 888.882 1508.65 873.899 1498.77 866.831C1488.89 859.763 1456.54 836.298 1426.9 814.529C1397.27 792.76 1350.61 758.834 1323.36 739.61C1296.11 720.103 1273.29 703.705 1272.27 702.857C1267.16 698.616 1213.69 660.45 1175.2 633.592C1150.68 616.629 1130.24 601.928 1129.22 600.797C1128.2 599.949 1075.41 563.197 1011.71 519.093C948.021 475.273 892.503 436.824 888.416 433.997C884.329 431.169 853.675 410.814 820.296 388.763C757.966 347.486 748.429 340.984 751.154 340.984C752.176 340.984 787.258 359.078 829.492 381.412Z" fill="url(#paint19_radial_936_5925)"/>
<path d="M1156.47 687.308L1570.3 1030.8H1442.91L1404.42 994.9C1201.43 805.482 934.056 544.538 793.729 398.657C769.887 373.779 748.089 351.444 745.023 348.617C742.298 346.073 740.595 343.811 741.277 343.811C741.958 343.811 928.947 498.455 1156.47 687.308Z" fill="url(#paint20_radial_936_5925)"/>
<path d="M695.636 366.994C670.091 415.62 549.519 613.519 504.219 681.653C500.132 687.873 487.189 707.663 475.268 725.474C417.707 812.267 272.611 1018.36 262.733 1027.41C259.668 1029.96 243.319 1030.8 196.657 1030.24L134.327 1029.39L196.657 960.126C231.058 921.96 265.118 883.793 272.611 875.312C279.764 866.83 262.393 886.903 272.611 875.312C424.859 701.161 623.088 461.137 689.846 366.994C697.68 355.968 704.832 346.638 705.513 346.638C705.854 346.638 701.767 355.968 695.636 366.994Z" fill="url(#paint21_radial_936_5925)"/>
<path d="M753.879 412.51C774.996 466.226 798.838 522.486 834.601 603.907C878.879 704.836 969.819 889.448 1025 990.659C1035.55 1009.88 1044.07 1026.85 1044.07 1028.26C1044.07 1029.67 1017.16 1030.8 981.4 1030.8C924.519 1030.8 918.389 1030.24 916.686 1025.72C890.8 955.885 818.252 710.773 776.699 553.019C761.372 494.78 726.971 351.727 728.334 350.596C728.674 350.314 740.255 378.302 753.879 412.51Z" fill="url(#paint22_radial_936_5925)"/>
<path d="M713.347 349.748C714.029 352.575 675.541 509.764 660.554 567.155C620.023 721.233 566.889 901.039 527.38 1015.82L522.611 1030.8H393.524L399.995 1019.78C412.938 999.141 503.197 822.727 537.257 752.332C593.116 636.702 638.075 535.208 684.737 418.73C700.405 379.716 713.347 348.9 713.347 349.748Z" fill="url(#paint23_radial_936_5925)"/>
<path d="M778.743 403.746C885.01 545.951 1068.93 765.619 1249.45 965.78L1306.67 1029.39L1244.34 1030.24C1188.14 1030.8 1181.67 1030.52 1177.59 1026C1167.37 1014.69 1037.26 832.057 1004.9 783.43C999.451 775.514 988.893 759.682 981.059 748.091C960.964 718.406 952.108 705.119 933.375 675.999C924.179 661.863 909.192 638.964 899.996 625.111C882.626 598.818 743.32 365.863 739.914 357.099C738.552 354.554 738.211 352.293 738.892 352.293C739.574 352.293 757.285 375.475 778.743 403.746Z" fill="url(#paint24_radial_936_5925)"/>
<path d="M725.268 398.092C730.718 488.278 754.56 749.787 773.293 926.2C776.018 951.927 779.083 981.047 780.105 991.224C781.127 1001.4 782.83 1014.41 783.852 1020.06L785.895 1030.8H655.786L657.489 1018.93C660.214 997.727 675.881 848.454 684.737 760.813C694.955 654.23 708.92 495.628 714.029 422.971C716.413 391.024 719.138 363.884 720.5 362.753C721.862 361.622 723.906 377.454 725.268 398.092Z" fill="url(#paint25_radial_936_5925)"/>
</g>
<defs>
<radialGradient id="paint0_radial_936_5925" cx="0" cy="0" r="1" gradientUnits="userSpaceOnUse" gradientTransform="translate(720.5 -186.435) rotate(90) scale(510.421 654.009)">
<stop stop-color="white"/>
<stop offset="0.617708" stop-color="white"/>
<stop offset="1" stop-color="white" stop-opacity="0"/>
</radialGradient>
<radialGradient id="paint1_radial_936_5925" cx="0" cy="0" r="1" gradientUnits="userSpaceOnUse" gradientTransform="translate(720.5 -186.435) rotate(90) scale(510.421 654.009)">
<stop stop-color="white"/>
<stop offset="0.617708" stop-color="white"/>
<stop offset="1" stop-color="white" stop-opacity="0"/>
</radialGradient>
<radialGradient id="paint2_radial_936_5925" cx="0" cy="0" r="1" gradientUnits="userSpaceOnUse" gradientTransform="translate(720.5 -186.435) rotate(90) scale(510.421 654.009)">
<stop stop-color="white"/>
<stop offset="0.617708" stop-color="white"/>
<stop offset="1" stop-color="white" stop-opacity="0"/>
</radialGradient>
<radialGradient id="paint3_radial_936_5925" cx="0" cy="0" r="1" gradientUnits="userSpaceOnUse" gradientTransform="translate(720.5 -186.435) rotate(90) scale(510.421 654.009)">
<stop stop-color="white"/>
<stop offset="0.617708" stop-color="white"/>
<stop offset="1" stop-color="white" stop-opacity="0"/>
</radialGradient>
<radialGradient id="paint4_radial_936_5925" cx="0" cy="0" r="1" gradientUnits="userSpaceOnUse" gradientTransform="translate(720.5 -186.435) rotate(90) scale(510.421 654.009)">
<stop stop-color="white"/>
<stop offset="0.617708" stop-color="white"/>
<stop offset="1" stop-color="white" stop-opacity="0"/>
</radialGradient>
<radialGradient id="paint5_radial_936_5925" cx="0" cy="0" r="1" gradientUnits="userSpaceOnUse" gradientTransform="translate(720.5 -186.435) rotate(90) scale(510.421 654.009)">
<stop stop-color="white"/>
<stop offset="0.617708" stop-color="white"/>
<stop offset="1" stop-color="white" stop-opacity="0"/>
</radialGradient>
<radialGradient id="paint6_radial_936_5925" cx="0" cy="0" r="1" gradientUnits="userSpaceOnUse" gradientTransform="translate(720.5 -186.435) rotate(90) scale(510.421 654.009)">
<stop stop-color="white"/>
<stop offset="0.617708" stop-color="white"/>
<stop offset="1" stop-color="white" stop-opacity="0"/>
</radialGradient>
<radialGradient id="paint7_radial_936_5925" cx="0" cy="0" r="1" gradientUnits="userSpaceOnUse" gradientTransform="translate(720.5 -186.435) rotate(90) scale(510.421 654.009)">
<stop stop-color="white"/>
<stop offset="0.617708" stop-color="white"/>
<stop offset="1" stop-color="white" stop-opacity="0"/>
</radialGradient>
<radialGradient id="paint8_radial_936_5925" cx="0" cy="0" r="1" gradientUnits="userSpaceOnUse" gradientTransform="translate(720.5 -186.435) rotate(90) scale(510.421 654.009)">
<stop stop-color="white"/>
<stop offset="0.617708" stop-color="white"/>
<stop offset="1" stop-color="white" stop-opacity="0"/>
</radialGradient>
<radialGradient id="paint9_radial_936_5925" cx="0" cy="0" r="1" gradientUnits="userSpaceOnUse" gradientTransform="translate(720.5 -186.435) rotate(90) scale(510.421 654.009)">
<stop stop-color="white"/>
<stop offset="0.617708" stop-color="white"/>
<stop offset="1" stop-color="white" stop-opacity="0"/>
</radialGradient>
<radialGradient id="paint10_radial_936_5925" cx="0" cy="0" r="1" gradientUnits="userSpaceOnUse" gradientTransform="translate(720.5 -186.435) rotate(90) scale(510.421 654.009)">
<stop stop-color="white"/>
<stop offset="0.617708" stop-color="white"/>
<stop offset="1" stop-color="white" stop-opacity="0"/>
</radialGradient>
<radialGradient id="paint11_radial_936_5925" cx="0" cy="0" r="1" gradientUnits="userSpaceOnUse" gradientTransform="translate(720.5 -186.435) rotate(90) scale(510.421 654.009)">
<stop stop-color="white"/>
<stop offset="0.617708" stop-color="white"/>
<stop offset="1" stop-color="white" stop-opacity="0"/>
</radialGradient>
<radialGradient id="paint12_radial_936_5925" cx="0" cy="0" r="1" gradientUnits="userSpaceOnUse" gradientTransform="translate(720.5 -186.435) rotate(90) scale(510.421 654.009)">
<stop stop-color="white"/>
<stop offset="0.617708" stop-color="white"/>
<stop offset="1" stop-color="white" stop-opacity="0"/>
</radialGradient>
<radialGradient id="paint13_radial_936_5925" cx="0" cy="0" r="1" gradientUnits="userSpaceOnUse" gradientTransform="translate(720.5 -186.435) rotate(90) scale(510.421 654.009)">
<stop stop-color="white"/>
<stop offset="0.617708" stop-color="white"/>
<stop offset="1" stop-color="white" stop-opacity="0"/>
</radialGradient>
<radialGradient id="paint14_radial_936_5925" cx="0" cy="0" r="1" gradientUnits="userSpaceOnUse" gradientTransform="translate(720.5 -186.435) rotate(90) scale(510.421 654.009)">
<stop stop-color="white"/>
<stop offset="0.617708" stop-color="white"/>
<stop offset="1" stop-color="white" stop-opacity="0"/>
</radialGradient>
<radialGradient id="paint15_radial_936_5925" cx="0" cy="0" r="1" gradientUnits="userSpaceOnUse" gradientTransform="translate(720.5 -186.435) rotate(90) scale(510.421 654.009)">
<stop stop-color="white"/>
<stop offset="0.617708" stop-color="white"/>
<stop offset="1" stop-color="white" stop-opacity="0"/>
</radialGradient>
<radialGradient id="paint16_radial_936_5925" cx="0" cy="0" r="1" gradientUnits="userSpaceOnUse" gradientTransform="translate(720.5 -186.435) rotate(90) scale(510.421 654.009)">
<stop stop-color="white"/>
<stop offset="0.617708" stop-color="white"/>
<stop offset="1" stop-color="white" stop-opacity="0"/>
</radialGradient>
<radialGradient id="paint17_radial_936_5925" cx="0" cy="0" r="1" gradientUnits="userSpaceOnUse" gradientTransform="translate(720.5 -186.435) rotate(90) scale(510.421 654.009)">
<stop stop-color="white"/>
<stop offset="0.617708" stop-color="white"/>
<stop offset="1" stop-color="white" stop-opacity="0"/>
</radialGradient>
<radialGradient id="paint18_radial_936_5925" cx="0" cy="0" r="1" gradientUnits="userSpaceOnUse" gradientTransform="translate(720.5 -186.435) rotate(90) scale(510.421 654.009)">
<stop stop-color="white"/>
<stop offset="0.617708" stop-color="white"/>
<stop offset="1" stop-color="white" stop-opacity="0"/>
</radialGradient>
<radialGradient id="paint19_radial_936_5925" cx="0" cy="0" r="1" gradientUnits="userSpaceOnUse" gradientTransform="translate(720.5 -186.435) rotate(90) scale(510.421 654.009)">
<stop stop-color="white"/>
<stop offset="0.617708" stop-color="white"/>
<stop offset="1" stop-color="white" stop-opacity="0"/>
</radialGradient>
<radialGradient id="paint20_radial_936_5925" cx="0" cy="0" r="1" gradientUnits="userSpaceOnUse" gradientTransform="translate(720.5 -186.435) rotate(90) scale(510.421 654.009)">
<stop stop-color="white"/>
<stop offset="0.617708" stop-color="white"/>
<stop offset="1" stop-color="white" stop-opacity="0"/>
</radialGradient>
<radialGradient id="paint21_radial_936_5925" cx="0" cy="0" r="1" gradientUnits="userSpaceOnUse" gradientTransform="translate(720.5 -186.435) rotate(90) scale(510.421 654.009)">
<stop stop-color="white"/>
<stop offset="0.617708" stop-color="white"/>
<stop offset="1" stop-color="white" stop-opacity="0"/>
</radialGradient>
<radialGradient id="paint22_radial_936_5925" cx="0" cy="0" r="1" gradientUnits="userSpaceOnUse" gradientTransform="translate(720.5 -186.435) rotate(90) scale(510.421 654.009)">
<stop stop-color="white"/>
<stop offset="0.617708" stop-color="white"/>
<stop offset="1" stop-color="white" stop-opacity="0"/>
</radialGradient>
<radialGradient id="paint23_radial_936_5925" cx="0" cy="0" r="1" gradientUnits="userSpaceOnUse" gradientTransform="translate(720.5 -186.435) rotate(90) scale(510.421 654.009)">
<stop stop-color="white"/>
<stop offset="0.617708" stop-color="white"/>
<stop offset="1" stop-color="white" stop-opacity="0"/>
</radialGradient>
<radialGradient id="paint24_radial_936_5925" cx="0" cy="0" r="1" gradientUnits="userSpaceOnUse" gradientTransform="translate(720.5 -186.435) rotate(90) scale(510.421 654.009)">
<stop stop-color="white"/>
<stop offset="0.617708" stop-color="white"/>
<stop offset="1" stop-color="white" stop-opacity="0"/>
</radialGradient>
<radialGradient id="paint25_radial_936_5925" cx="0" cy="0" r="1" gradientUnits="userSpaceOnUse" gradientTransform="translate(720.5 -186.435) rotate(90) scale(510.421 654.009)">
<stop stop-color="white"/>
<stop offset="0.617708" stop-color="white"/>
<stop offset="1" stop-color="white" stop-opacity="0"/>
</radialGradient>
</defs>
</svg>
