<svg width="22" height="22" viewBox="0 0 22 22" fill="none" xmlns="http://www.w3.org/2000/svg">
<path fill-rule="evenodd" clip-rule="evenodd" d="M15.0191 0.91127C14.0406 0.968424 13.1171 1.38291 12.4239 2.07604L4.80376 9.69621C3.25131 11.2486 3.24032 13.7622 4.77912 15.3282L5.08569 15.6402C5.28043 15.8384 5.5994 15.8398 5.79587 15.6433L8.43915 13C8.73205 12.7071 9.20692 12.7071 9.49981 13C9.79271 13.2929 9.79271 13.7678 9.49981 14.0607L6.85653 16.704C6.66006 16.9004 6.66146 17.2194 6.85964 17.4141L7.17175 17.7208C8.73772 19.2596 11.2513 19.2486 12.8038 17.6962L20.4361 10.0639C21.1219 9.37808 21.5352 8.46647 21.599 7.49872L21.837 3.89047C21.9558 2.09007 20.4698 0.592914 18.6686 0.698118L15.0191 0.91127ZM16.5024 7.99953C16.5024 9.1041 15.6069 9.99953 14.5024 9.99953C13.3978 9.99953 12.5024 9.1041 12.5024 7.99953C12.5024 6.89496 13.3978 5.99953 14.5024 5.99953C15.6069 5.99953 16.5024 6.89496 16.5024 7.99953Z" fill="url(#paint0_linear_2786_584)"/>
<path d="M0.850947 7.74768C0.327075 7.39712 0.254265 6.65519 0.699993 6.20948L2.59782 4.31171C3.62789 3.28167 5.13648 2.89305 6.53601 3.29721L8.15582 3.765C8.5215 3.8706 8.63979 4.32979 8.37065 4.59892L3.75993 9.20964C3.59117 9.37841 3.32666 9.40437 3.12831 9.27163L0.850947 7.74768Z" fill="url(#paint1_linear_2786_584)"/>
<path d="M13.7283 18.8413C13.5956 18.6429 13.6215 18.3784 13.7903 18.2096L18.4011 13.5988C18.6702 13.3297 19.1293 13.448 19.235 13.8136L19.7032 15.4338C20.1076 16.8335 19.719 18.3424 18.6888 19.3726L16.7911 21.2703C16.3454 21.716 15.6036 21.6432 15.253 21.1194L13.7283 18.8413Z" fill="url(#paint2_linear_2786_584)"/>
<defs>
<linearGradient id="paint0_linear_2786_584" x1="10.9498" y1="0.5" x2="10.9498" y2="22.1312" gradientUnits="userSpaceOnUse">
<stop offset="0.391146" stop-color="#F8F8F8"/>
<stop offset="1" stop-color="#F8F8F8" stop-opacity="0.7"/>
</linearGradient>
<linearGradient id="paint1_linear_2786_584" x1="10.9498" y1="0.5" x2="10.9498" y2="22.1312" gradientUnits="userSpaceOnUse">
<stop offset="0.391146" stop-color="#F8F8F8"/>
<stop offset="1" stop-color="#F8F8F8" stop-opacity="0.7"/>
</linearGradient>
<linearGradient id="paint2_linear_2786_584" x1="10.9498" y1="0.5" x2="10.9498" y2="22.1312" gradientUnits="userSpaceOnUse">
<stop offset="0.391146" stop-color="#F8F8F8"/>
<stop offset="1" stop-color="#F8F8F8" stop-opacity="0.7"/>
</linearGradient>
</defs>
</svg>
