<svg width="48" height="48" viewBox="0 0 48 48" fill="none" xmlns="http://www.w3.org/2000/svg">
<path fill-rule="evenodd" clip-rule="evenodd" d="M33.308 3.69C32.2731 3.75044 31.7557 3.78066 31.2619 3.85399C29.2221 4.1569 27.3056 5.01708 25.7235 6.33971C25.3405 6.6599 24.9767 7.02368 24.2492 7.75125L11.1568 20.8436C7.74803 24.2524 7.72389 29.7715 11.1027 33.21C11.5303 33.6451 12.2306 33.6482 12.662 33.2168L17.8788 28C18.4646 27.4142 19.4143 27.4142 20.0001 28C20.5859 28.5858 20.5859 29.5356 20.0001 30.1213L14.7834 35.3381C14.352 35.7695 14.355 36.4699 14.7902 36.8975C18.2288 40.2764 23.7481 40.2523 27.157 36.8434L40.3032 23.6972C41.0113 22.9891 41.3653 22.6351 41.678 22.2628C42.9973 20.6922 43.8599 18.7894 44.1718 16.762C44.2457 16.2815 44.2787 15.7819 44.3446 14.7827C44.483 12.6834 44.5523 11.6338 44.4333 10.7806C43.9182 7.0854 41.0274 4.17279 37.3362 3.62985C36.4839 3.5045 35.4253 3.56633 33.308 3.69ZM34.0052 17.999C34.0052 20.2082 32.2144 21.999 30.0052 21.999C27.7961 21.999 26.0052 20.2082 26.0052 17.999C26.0052 15.7899 27.7961 13.999 30.0052 13.999C32.2144 13.999 34.0052 15.7899 34.0052 17.999Z" fill="url(#paint0_linear_889_7085)"/>
<path d="M4.22021 18.5111C3.57612 18.08 3.25407 17.8645 3.04021 17.6397C2.15541 16.7093 2.01675 15.2964 2.7038 14.2117C2.86986 13.9496 3.14387 13.6756 3.69189 13.1276L4.44123 12.3783C4.84692 11.9726 5.04977 11.7697 5.24797 11.5896C7.98457 9.10305 11.7721 8.12736 15.3695 8.9823C15.63 9.04422 15.9056 9.12381 16.4568 9.28299C16.6348 9.33438 16.7237 9.36007 16.7844 9.38389C17.6719 9.73239 17.959 10.8468 17.3503 11.5807C17.3087 11.6309 17.2433 11.6964 17.1123 11.8273L9.24044 19.6992C8.77714 20.1625 8.5455 20.3941 8.27268 20.5009C8.03211 20.595 7.77019 20.6207 7.51591 20.5751C7.22755 20.5235 6.95529 20.3413 6.41076 19.9769L4.22021 18.5111Z" fill="url(#paint1_linear_889_7085)"/>
<path d="M29.0236 40.5289C28.6591 39.9844 28.4769 39.7121 28.4253 39.4237C28.3797 39.1694 28.4054 38.9075 28.4995 38.6669C28.6062 38.3941 28.8379 38.1624 29.3012 37.6991L37.1732 29.8271C37.3042 29.6961 37.3697 29.6306 37.4199 29.5889C38.1538 28.9804 39.268 29.2674 39.6166 30.1546C39.6404 30.2153 39.6662 30.3044 39.7176 30.4824C39.877 31.0342 39.9568 31.3101 40.0188 31.5709C40.8741 35.1684 39.8986 38.9563 37.412 41.6932C37.2317 41.8916 37.0286 42.0947 36.6225 42.5008L35.8738 43.2495C35.3261 43.7972 35.0522 44.0711 34.7902 44.2371C33.7055 44.9243 32.2924 44.7857 31.362 43.9008C31.1372 43.687 30.9218 43.3651 30.4909 42.7214L29.0236 40.5289Z" fill="url(#paint2_linear_889_7085)"/>
<defs>
<linearGradient id="paint0_linear_889_7085" x1="1.01699" y1="2.76229" x2="53.3831" y2="29.9236" gradientUnits="userSpaceOnUse">
<stop offset="0.189369" stop-color="white"/>
<stop offset="1" stop-color="white" stop-opacity="0.5"/>
</linearGradient>
<linearGradient id="paint1_linear_889_7085" x1="1.01699" y1="2.76229" x2="53.3831" y2="29.9236" gradientUnits="userSpaceOnUse">
<stop offset="0.189369" stop-color="white"/>
<stop offset="1" stop-color="white" stop-opacity="0.5"/>
</linearGradient>
<linearGradient id="paint2_linear_889_7085" x1="1.01699" y1="2.76229" x2="53.3831" y2="29.9236" gradientUnits="userSpaceOnUse">
<stop offset="0.189369" stop-color="white"/>
<stop offset="1" stop-color="white" stop-opacity="0.5"/>
</linearGradient>
</defs>
</svg>
