<svg width="22" height="22" viewBox="0 0 22 22" fill="none" xmlns="http://www.w3.org/2000/svg">
<path fill-rule="evenodd" clip-rule="evenodd" d="M15.9306 0.576276C15.0315 0.628792 14.5819 0.655051 14.1606 0.774595C13.7869 0.880622 13.4306 1.04052 13.103 1.24925C12.7336 1.48459 12.4152 1.80303 11.7783 2.43991L5.07814 9.14007C4.82312 9.39509 4.69561 9.5226 4.59604 9.63868C3.31952 11.1269 3.30993 13.3211 4.57338 14.8204C4.67193 14.9374 4.79832 15.066 5.05109 15.3232C5.08319 15.3559 5.09924 15.3722 5.11381 15.3849C5.30083 15.5479 5.57908 15.5491 5.76752 15.3878C5.78221 15.3752 5.7984 15.359 5.83078 15.3266L8.43915 12.7183C8.73205 12.4254 9.20692 12.4254 9.49981 12.7183C9.79271 13.0112 9.79271 13.486 9.49981 13.7789L6.89145 16.3873C6.85906 16.4197 6.84286 16.4359 6.83028 16.4506C6.66895 16.639 6.67016 16.9172 6.83314 17.1043C6.84585 17.1188 6.86219 17.1349 6.89487 17.167C7.15221 17.4199 7.28089 17.5463 7.39789 17.6449C8.89722 18.9083 11.0912 18.8987 12.5794 17.6222C12.6956 17.5226 12.8231 17.3951 13.0783 17.14L19.7978 10.4204C20.4276 9.79058 20.7426 9.47565 20.9763 9.11066C21.1836 8.78693 21.3431 8.435 21.45 8.06574C21.5705 7.64943 21.5998 7.20501 21.6584 6.31619L21.7028 5.643C21.8265 3.76819 21.8883 2.83078 21.5544 2.12629C21.2612 1.5077 20.7652 1.00799 20.1488 0.710126C19.4469 0.370903 18.509 0.42568 16.6333 0.535232L15.9306 0.576276ZM16.5024 7.71777C16.5024 8.82234 15.6069 9.71777 14.5024 9.71777C13.3978 9.71777 12.5024 8.82234 12.5024 7.71777C12.5024 6.6132 13.3978 5.71777 14.5024 5.71777C15.6069 5.71777 16.5024 6.6132 16.5024 7.71777Z" fill="#0A7AF9"/>
<path d="M1.45814 7.87225C0.903002 7.50076 0.625432 7.31502 0.50713 7.07081C0.403364 6.85661 0.3794 6.61243 0.439545 6.38214C0.508116 6.1196 0.744282 5.88344 1.21661 5.41112L1.72037 4.90738C2.5713 4.05647 2.99676 3.63102 3.49049 3.35799C4.0841 3.02972 4.75146 2.85781 5.42979 2.85842C5.99398 2.85893 6.57204 3.02587 7.72818 3.35974C8.10281 3.46793 8.29013 3.52203 8.38484 3.62484C8.49832 3.74803 8.54259 3.91985 8.50275 4.08254C8.4695 4.21832 8.33164 4.35618 8.0559 4.63192L3.93415 8.75367C3.76868 8.91914 3.68595 9.00187 3.58852 9.03998C3.5026 9.07359 3.40906 9.08277 3.31824 9.06651C3.21526 9.04806 3.11802 8.983 2.92355 8.85286L1.45814 7.87225Z" fill="#0A7AF9"/>
<path d="M13.8654 18.7643C13.7352 18.5698 13.6701 18.4726 13.6517 18.3696C13.6354 18.2788 13.6446 18.1852 13.6782 18.0993C13.7163 18.0018 13.799 17.9191 13.9645 17.7536L18.0863 13.6318C18.3621 13.3561 18.5 13.2182 18.6358 13.185C18.7984 13.1451 18.9702 13.1894 19.0933 13.3028C19.1962 13.3975 19.2503 13.5848 19.3586 13.9595C19.6927 15.116 19.8598 15.6943 19.8604 16.2587C19.861 16.9369 19.6892 17.6043 19.361 18.1979C19.0879 18.6918 18.6623 19.1174 17.811 19.9687L17.3077 20.4719C16.8354 20.9442 16.5993 21.1804 16.3368 21.249C16.1065 21.3091 15.8623 21.2851 15.6481 21.1814C15.4039 21.0631 15.2182 20.7856 14.8467 20.2305L13.8654 18.7643Z" fill="#0A7AF9"/>
</svg>
