<svg width="143" height="102" viewBox="0 0 143 102" fill="none" xmlns="http://www.w3.org/2000/svg">
<path d="M28.2533 7.60178C28.0805 7.95211 28.0039 8.32084 28.0235 8.70797C28.0517 9.09215 28.1498 9.46722 28.3178 9.83317C28.4886 10.1933 28.7233 10.5269 29.022 10.8339C29.3235 11.135 29.664 11.3792 30.0435 11.5664C30.1603 11.624 30.2843 11.6743 30.4156 11.7173C30.5497 11.7544 30.6794 11.7712 30.8045 11.7676C30.9297 11.764 31.0446 11.7372 31.1491 11.6871C31.2565 11.6312 31.3419 11.5391 31.4053 11.4106C31.5263 11.1654 31.5582 10.8799 31.5011 10.5541C31.4499 10.2312 31.3417 9.88381 31.1767 9.51202C31.0145 9.13439 30.81 8.73952 30.5632 8.3274C30.3193 7.90945 30.0681 7.49154 29.8096 7.07366C29.5512 6.65579 29.2985 6.2408 29.0517 5.82868C28.8078 5.41073 28.6033 5.01586 28.4383 4.64407C28.2761 4.26644 28.1665 3.91473 28.1094 3.58894C28.061 3.26019 28.0973 2.9732 28.2183 2.72797C28.3335 2.49442 28.4984 2.30719 28.7131 2.16628C28.9365 2.0224 29.1878 1.91768 29.467 1.85212C29.7462 1.78656 30.0488 1.75436 30.3749 1.75551C30.701 1.75666 31.0287 1.784 31.358 1.83755C31.6873 1.89109 32.0051 1.96799 32.3113 2.06824C32.6263 2.16553 32.9152 2.27898 33.1779 2.40859C33.3706 2.50363 33.5779 2.61315 33.7998 2.73715C34.0305 2.85819 34.2336 2.99103 34.4091 3.13566C34.5933 3.27733 34.7309 3.42508 34.822 3.5789C34.9131 3.73273 34.9183 3.89138 34.8377 4.05486C34.8117 4.10741 34.7699 4.17024 34.712 4.24334C34.6571 4.3106 34.5441 4.41457 34.3731 4.55525C34.2078 4.68426 34.0481 4.76519 33.894 4.79805C33.7485 4.82795 33.5912 4.80114 33.4218 4.71761C33.1825 4.59953 32.9414 4.44797 32.6988 4.26294C32.4648 4.07495 32.2136 3.91472 31.945 3.78223C31.799 3.71023 31.6458 3.64555 31.4854 3.58818C31.3336 3.52786 31.1864 3.48789 31.0436 3.46828C30.9037 3.44283 30.7771 3.44934 30.6638 3.4878C30.5533 3.52042 30.4707 3.5922 30.416 3.70314C30.3613 3.81407 30.3782 3.97849 30.4667 4.19638C30.561 4.41715 30.6978 4.677 30.8771 4.97593C31.0621 5.27773 31.2736 5.61433 31.5114 5.98573C31.7521 6.3513 31.9901 6.73725 32.2252 7.14361C32.469 7.547 32.6955 7.96359 32.9045 8.39338C33.1164 8.81733 33.2817 9.24007 33.4005 9.66161C33.5279 10.0802 33.5913 10.4889 33.5905 10.8878C33.5956 11.2896 33.5132 11.6627 33.3433 12.0072C33.1359 12.4276 32.8567 12.7508 32.5056 12.9769C32.1545 13.203 31.7739 13.3492 31.3637 13.4155C30.9535 13.4817 30.5386 13.4767 30.1189 13.4003C29.6964 13.3298 29.3099 13.2082 28.9596 13.0354C28.6034 12.8597 28.263 12.6373 27.9384 12.3683C27.6167 12.108 27.3254 11.8155 27.0646 11.4908C26.8008 11.172 26.5733 10.8311 26.3821 10.4682C26.1996 10.1023 26.0666 9.73177 25.983 9.35663C25.9024 8.97564 25.8756 8.59583 25.9026 8.21717C25.9355 7.8414 26.037 7.48127 26.2069 7.13679C26.2789 6.99082 26.3596 6.84917 26.4492 6.71184C26.5474 6.57156 26.6501 6.45891 26.7574 6.37389C26.8676 6.28304 26.9866 6.22562 27.1146 6.20163C27.2455 6.17181 27.3839 6.1929 27.5299 6.2649C27.5766 6.28794 27.6262 6.3197 27.6789 6.36018C27.7344 6.39482 27.8236 6.4715 27.9465 6.59021C28.0899 6.72628 28.197 6.88438 28.2679 7.06452C28.3475 7.2417 28.3426 7.42078 28.2533 7.60178ZM42.3265 9.49114C42.6476 9.64954 42.9326 9.85181 43.1814 10.098C43.4302 10.3441 43.6253 10.6109 43.7666 10.8984C43.9079 11.1859 43.9852 11.4854 43.9986 11.7968C44.0177 12.1112 43.9539 12.4172 43.807 12.715C43.7465 12.8376 43.6583 12.9429 43.5423 13.0309C43.435 13.1159 43.3131 13.1792 43.1764 13.2207C43.0427 13.2563 42.9016 13.2702 42.753 13.2623C42.6132 13.2514 42.4791 13.2142 42.3506 13.1509C42.3389 13.1451 42.3258 13.1423 42.3113 13.1424C42.3054 13.1395 42.2967 13.1352 42.285 13.1294C42.2704 13.1295 42.2573 13.1266 42.2456 13.1209L41.9351 13.8388C41.5466 14.6853 41.3624 15.353 41.3825 15.842C41.4084 16.334 41.5937 16.6649 41.9381 16.8348C42.0608 16.8953 42.1745 16.9369 42.2795 16.9596C42.3902 16.9852 42.4937 17.0036 42.5899 17.0147C42.6947 17.0229 42.7909 17.034 42.8783 17.0481C42.9657 17.0622 43.0474 17.0879 43.1233 17.1254C43.2576 17.1916 43.3455 17.3076 43.3872 17.4734C43.4347 17.642 43.4181 17.808 43.3375 17.9715C43.2568 18.135 43.112 18.2668 42.9029 18.3669C42.6996 18.4699 42.4627 18.5382 42.1921 18.5717C41.9244 18.5993 41.6419 18.5906 41.3447 18.5457C41.0475 18.5007 40.7675 18.4134 40.5047 18.2838C40.0493 18.0591 39.7415 17.675 39.5814 17.1314C39.4241 16.582 39.4525 15.9063 39.6665 15.1045C39.6891 14.9704 39.6712 14.889 39.6128 14.8602C39.5427 14.8256 39.4641 14.8304 39.377 14.8746C38.439 15.3193 37.5523 15.5643 36.7169 15.6096C35.8844 15.649 35.1499 15.5117 34.5135 15.1978C34.2157 15.0509 33.9687 14.8747 33.7725 14.669C33.5764 14.4633 33.4325 14.2399 33.3409 13.9987C33.2581 13.7546 33.2261 13.4957 33.245 13.2219C33.2726 12.9451 33.357 12.6637 33.4981 12.3776C33.6969 11.9747 33.9932 11.5946 34.3873 11.2373C34.7872 10.8828 35.2455 10.5644 35.7622 10.2821C36.279 9.99983 36.8323 9.761 37.4223 9.56565C38.0182 9.37318 38.6085 9.23606 39.1933 9.15429C39.7839 9.0754 40.3501 9.0607 40.8919 9.11018C41.4338 9.15967 41.912 9.28665 42.3265 9.49114ZM40.5427 12.3789C40.7457 12.2322 40.9126 12.1367 41.0434 12.0923C41.1771 12.0421 41.3329 12.0427 41.5108 12.0941C41.6478 12.14 41.7322 12.1308 41.7639 12.0666C41.787 12.0199 41.7939 11.9616 41.7848 11.8918C41.7487 11.6852 41.6968 11.4963 41.6289 11.3248C41.5639 11.1476 41.4292 11.0086 41.2248 10.9077C41.003 10.7983 40.7231 10.7401 40.3854 10.7332C40.0476 10.7263 39.6824 10.7603 39.2897 10.8352C38.9057 10.9072 38.5089 11.0127 38.0991 11.1517C37.698 11.2878 37.3218 11.4471 36.9705 11.6295C36.6192 11.8119 36.3102 12.0116 36.0435 12.2285C35.7768 12.4454 35.5887 12.6647 35.4793 12.8866C35.3814 13.0851 35.3576 13.2658 35.408 13.4286C35.4642 13.5942 35.5857 13.7231 35.7726 13.8153C36.2513 14.0515 36.8992 14.0552 37.7161 13.8266C38.533 13.598 39.4752 13.1154 40.5427 12.3789ZM51.0381 14.899C51.1362 14.7441 51.2229 14.6199 51.2981 14.5263C51.382 14.4298 51.4661 14.3624 51.5503 14.3241C51.6433 14.2828 51.7407 14.2692 51.8427 14.2832C51.9447 14.2972 52.0628 14.3373 52.1971 14.4036C52.6233 14.6138 52.904 14.8321 53.0392 15.0585C53.1831 15.2819 53.1873 15.5308 53.0519 15.8053C53.026 15.8578 52.9567 15.9688 52.8441 16.1383C52.7402 16.3048 52.6059 16.5108 52.4413 16.7563C52.2795 16.9959 52.0975 17.2618 51.8953 17.5541C51.7018 17.8434 51.5054 18.1385 51.3061 18.4395C50.8324 19.135 50.2994 19.9138 49.7072 20.7759C49.3547 21.2844 48.9968 21.5979 48.6335 21.7163C48.276 21.8376 47.8608 21.7817 47.3879 21.5484C47.0317 21.3727 46.7085 21.1007 46.4183 20.7325C46.128 20.3643 45.8812 19.9377 45.6777 19.4525C45.4741 18.9674 45.3126 18.4413 45.1931 17.8741C45.0823 17.3041 45.0209 16.7294 45.0091 16.15C45.0001 15.5648 45.0451 14.9954 45.144 14.4416C45.2487 13.8908 45.4149 13.3847 45.6424 12.9235C45.8987 12.4038 46.1632 12.0515 46.4359 11.8666C46.7173 11.6788 47.042 11.6756 47.4098 11.857C47.6667 11.9837 47.8712 12.1064 48.0232 12.2249C48.1781 12.3377 48.2851 12.4594 48.344 12.5901C48.4117 12.7178 48.4343 12.856 48.4118 13.0046C48.3951 13.1561 48.3393 13.3282 48.2442 13.5209C48.1809 13.6493 48.1117 13.7749 48.0366 13.8976C47.9616 14.0203 47.8924 14.1458 47.829 14.2743C47.6821 14.5721 47.5572 14.8988 47.4544 15.2546C47.3602 15.6074 47.2893 15.9645 47.2418 16.3258C47.1942 16.6871 47.1714 17.0424 47.1733 17.3918C47.178 17.7353 47.2074 18.0511 47.2614 18.339C47.3153 18.627 47.3909 18.8711 47.4881 19.0715C47.5911 19.2748 47.7185 19.4138 47.8703 19.4887C47.9754 19.5406 48.0715 19.5444 48.1586 19.5003C48.2515 19.459 48.3485 19.358 48.4496 19.1973L51.0381 14.899ZM59.3339 25.0127C59.5752 24.9503 59.7776 24.9594 59.9411 25.04C60.0345 25.0861 60.1077 25.1512 60.1605 25.2354C60.2134 25.3195 60.2621 25.4343 60.3065 25.5796C60.3279 25.7571 60.3344 25.8983 60.3263 26.0031C60.3268 26.105 60.3069 26.1969 60.2666 26.2786C60.1802 26.4538 60.0106 26.577 59.7576 26.6482C59.3622 26.7435 58.9549 26.8039 58.5357 26.8295C58.1195 26.8492 57.7016 26.8355 57.2821 26.7882C56.8626 26.741 56.4472 26.6559 56.036 26.5329C55.6219 26.4158 55.228 26.265 54.8544 26.0807C54.3814 25.8474 53.9679 25.5672 53.6139 25.2401C53.2569 24.9189 52.9697 24.5667 52.7521 24.1835C52.5405 23.8032 52.4 23.4037 52.3308 22.9848C52.2644 22.56 52.281 22.129 52.3806 21.6917C52.4087 21.5023 52.4109 21.3728 52.3872 21.303C52.3723 21.2303 52.3152 21.1695 52.2159 21.1205C51.9999 21.0139 51.8594 20.8793 51.7944 20.7166C51.7295 20.5539 51.746 20.3733 51.8439 20.1748C51.8843 20.093 51.916 20.0434 51.9392 20.0258L52.0431 19.8593C52.176 19.6635 52.3064 19.539 52.4342 19.4859C52.5678 19.4357 52.7252 19.4552 52.9062 19.5445L53.0375 19.6093C53.2828 19.7303 53.5112 19.7014 53.7228 19.5226C54.1025 19.2091 54.5146 18.955 54.959 18.7604C55.4034 18.5658 55.8584 18.4382 56.3239 18.3774C56.7923 18.3109 57.2567 18.3113 57.7171 18.3787C58.1862 18.4431 58.628 18.5776 59.0426 18.782C59.4747 18.9952 59.8459 19.2581 60.1562 19.5709C60.4752 19.8807 60.7201 20.2157 60.8909 20.5758C61.0618 20.9359 61.1526 21.3037 61.1633 21.6793C61.1799 22.0577 61.1033 22.4191 60.9333 22.7636C60.8152 23.003 60.6605 23.1989 60.4692 23.3514C60.2778 23.5038 60.0572 23.6127 59.8071 23.6781C59.5599 23.7377 59.2878 23.7523 58.9906 23.7218C58.6993 23.6943 58.3888 23.6174 58.0591 23.491L54.8689 22.2985C54.7521 22.2409 54.6414 22.2225 54.5367 22.2435C54.4378 22.2673 54.3639 22.3289 54.3149 22.4281C54.24 22.5799 54.2235 22.7533 54.2653 22.9481C54.313 23.1458 54.4029 23.3463 54.535 23.5494C54.6758 23.7495 54.853 23.9422 55.0666 24.1273C55.2859 24.3154 55.527 24.4743 55.7897 24.6039C56.0408 24.7277 56.3092 24.8311 56.595 24.914C56.8895 24.9939 57.1883 25.0505 57.4913 25.0838C57.8001 25.12 58.1088 25.1343 58.4174 25.1269C58.7288 25.1135 59.0344 25.0755 59.3339 25.0127ZM58.4954 21.7898C58.5917 21.8154 58.6877 21.812 58.7836 21.7795C58.8824 21.7411 58.9563 21.6723 59.0053 21.573C59.0485 21.4854 59.0567 21.3878 59.0299 21.2803C59.0031 21.1727 58.9486 21.0623 58.8665 20.9492C58.7872 20.8303 58.6833 20.7173 58.5546 20.6102C58.4259 20.5032 58.2798 20.4094 58.1163 20.3287C57.8769 20.2106 57.6144 20.1247 57.3288 20.0709C57.0432 20.0172 56.7694 19.9983 56.5074 20.0142C56.2484 20.0244 56.02 20.0678 55.8225 20.1446C55.6278 20.2155 55.4973 20.3181 55.4311 20.4524C55.3648 20.5867 55.4134 20.6942 55.5769 20.7748C55.6762 20.8238 55.8425 20.8913 56.0759 20.9774C56.3093 21.0635 56.5675 21.1582 56.8505 21.2614C57.1363 21.3589 57.4265 21.4549 57.7211 21.5494C58.0157 21.6439 58.2738 21.724 58.4954 21.7898ZM68.1089 22.7642C68.2448 22.5771 68.4189 22.4743 68.6314 22.4557C68.8467 22.4312 69.1441 22.5126 69.5236 22.6998C69.728 22.8006 69.8597 22.9309 69.9188 23.0907C69.9837 23.2534 69.9701 23.4282 69.878 23.615C69.8636 23.6442 69.8477 23.669 69.8303 23.6895C69.813 23.71 69.7971 23.7348 69.7827 23.764C69.5313 24.1119 69.2843 24.4801 69.0418 24.8686C68.7993 25.2572 68.5744 25.6616 68.3671 26.082C68.0992 26.625 67.8925 27.1619 67.7469 27.6926C67.6099 28.2203 67.5748 28.7256 67.6415 29.2086C67.7169 29.6886 67.9158 30.1388 68.2384 30.5593C68.5696 30.9768 69.0681 31.3497 69.7337 31.678C70.1074 31.8623 70.4704 31.9579 70.8227 31.9647C71.1751 31.9716 71.5022 31.9043 71.8043 31.7629C72.115 31.6185 72.3963 31.4089 72.6482 31.1338C72.9058 30.8616 73.1268 30.5387 73.3111 30.165C73.4955 29.7914 73.636 29.4034 73.7329 29.001C73.8355 28.6016 73.9061 28.1936 73.9446 27.777C73.9919 27.3575 74.0129 26.9323 74.0076 26.5014C74.0082 26.0734 73.9986 25.6367 73.9787 25.1913C73.9747 24.9934 74.0044 24.8302 74.0678 24.7017C74.1801 24.474 74.3948 24.3404 74.712 24.3008L75.1877 24.2415C75.3972 24.2141 75.572 24.235 75.7121 24.3041C75.9282 24.4107 76.0444 24.6314 76.0607 24.9661C76.0896 25.4667 76.1069 25.9689 76.1125 26.4726C76.1211 26.9704 76.0975 27.467 76.042 27.9622C75.9923 28.4604 75.9003 28.9558 75.7661 29.4486C75.6406 29.9385 75.4613 30.4198 75.228 30.8928C74.9025 31.5525 74.495 32.0992 74.0052 32.5328C73.5214 32.9692 72.9815 33.2837 72.3857 33.4761C71.7927 33.6628 71.1612 33.7215 70.4912 33.6523C69.8241 33.5919 69.1461 33.3917 68.4571 33.0519C67.7097 32.6832 67.1089 32.2235 66.6547 31.6728C66.2033 31.1307 65.8915 30.5341 65.7191 29.8828C65.5496 29.2257 65.5168 28.5344 65.6206 27.8089C65.7273 27.0775 65.962 26.3439 66.3249 25.6083C66.5784 25.0944 66.861 24.595 67.1729 24.11C67.4934 23.6221 67.8054 23.1735 68.1089 22.7642ZM76.9751 28.4987C77.0874 28.271 77.2746 28.1492 77.5365 28.1332C77.8014 28.1114 78.1236 28.1941 78.5031 28.3813C78.5907 28.4245 78.6637 28.4751 78.7223 28.533C78.7808 28.5909 78.8191 28.6679 78.8371 28.7638C78.8638 28.8569 78.8717 28.9733 78.8608 29.1131C78.8499 29.2529 78.8232 29.4248 78.7806 29.6289C78.7265 29.8563 78.7228 29.9815 78.7695 30.0045C78.8104 30.0247 78.9018 29.9645 79.0437 29.824C79.3129 29.543 79.5927 29.3217 79.883 29.16C80.182 28.9953 80.4798 28.8845 80.7765 28.8276C81.0761 28.7649 81.3715 28.7545 81.6629 28.7966C81.9602 28.8416 82.2489 28.9332 82.5292 29.0715C83.0955 29.3508 83.5706 29.7195 83.9545 30.1775C84.3413 30.6296 84.6192 31.1332 84.7881 31.6884C84.96 32.2378 85.0213 32.8198 84.9722 33.4344C84.926 34.0432 84.756 34.6453 84.4623 35.2409C84.1512 35.8715 83.7523 36.4006 83.2654 36.8283C82.7844 37.2589 82.2519 37.5733 81.6677 37.7716C81.0864 37.964 80.471 38.0343 79.8214 37.9824C79.1748 37.9393 78.5304 37.7594 77.8881 37.4426L77.4501 37.2047C77.1874 37.0751 76.9826 37.1592 76.8357 37.457L75.2994 41.6973C75.2446 41.7937 75.1649 41.8669 75.0604 41.917C74.9588 41.9757 74.8396 42.0113 74.7028 42.0237C74.5719 42.039 74.4277 42.0296 74.2703 41.9955C74.1188 41.9643 73.97 41.9126 73.824 41.8406C73.4036 41.6333 73.2436 41.3837 73.3439 41.092C73.7455 39.9689 74.1065 38.8911 74.4271 37.8587C74.7534 36.8292 75.0408 35.8639 75.2893 34.9628C75.5464 34.0589 75.7691 33.2322 75.9572 32.4829C76.1453 31.7336 76.3048 31.0791 76.4357 30.5194C76.5725 29.9625 76.6865 29.5106 76.7778 29.1637C76.8633 28.8138 76.929 28.5922 76.9751 28.4987ZM78.681 32.2149C78.4938 32.5944 78.3226 32.9782 78.1675 33.3663C78.0152 33.7486 77.8647 34.1715 77.7158 34.6353C77.6212 34.9153 77.6908 35.1348 77.9246 35.2936C78.0591 35.4036 78.2112 35.5221 78.3807 35.6493C78.559 35.7735 78.7124 35.8673 78.8408 35.9307C79.2145 36.115 79.5805 36.2266 79.9388 36.2654C80.2972 36.3043 80.6347 36.2748 80.9516 36.177C81.2713 36.0733 81.5601 35.9073 81.818 35.6788C82.0759 35.4503 82.2913 35.1609 82.4641 34.8106C82.6743 34.3843 82.8118 33.9585 82.8764 33.5331C82.944 33.1018 82.9433 32.6985 82.8743 32.3233C82.8111 31.951 82.6812 31.6183 82.4845 31.3253C82.2937 31.0351 82.0407 30.8123 81.7254 30.6568C81.451 30.5214 81.1697 30.4589 80.8815 30.4692C80.602 30.4765 80.3272 30.5479 80.0572 30.6833C79.7959 30.8157 79.5465 31.0121 79.3092 31.2725C79.0718 31.533 78.8624 31.8471 78.681 32.2149ZM93.0165 34.9632C92.9698 34.9402 92.8735 34.9072 92.7277 34.8643C92.5906 34.8185 92.4273 34.767 92.2377 34.7098C92.0482 34.6525 91.847 34.5969 91.6341 34.5427C91.4242 34.4827 91.2273 34.4255 91.0436 34.3712C90.8599 34.3169 90.7009 34.2711 90.5668 34.234C90.4297 34.1882 90.3407 34.1551 90.2999 34.135C89.9087 33.942 89.8139 33.6412 90.0155 33.2325C90.0702 33.1215 90.1352 33.0193 90.2104 32.9257C90.2826 32.8234 90.3666 32.7414 90.4623 32.6798C90.561 32.6123 90.6699 32.568 90.7892 32.547C90.9084 32.526 91.041 32.5369 91.1868 32.5798C91.9218 32.8117 92.6567 33.0362 93.3916 33.2536C94.1265 33.4709 94.8701 33.6852 95.6224 33.8966C95.7886 33.9423 95.9388 33.9837 96.0729 34.0208C96.2099 34.0521 96.3659 34.0819 96.5407 34.11C96.7272 34.144 96.9269 34.188 97.1398 34.2422C97.3555 34.2905 97.5683 34.3447 97.7783 34.4047C97.9941 34.4676 98.1982 34.532 98.3908 34.5979C98.5891 34.6667 98.7642 34.7386 98.916 34.8135C99.1028 34.9056 99.2127 35.0361 99.2457 35.2047C99.2873 35.3705 99.2549 35.5614 99.1483 35.7774C99.0936 35.8883 99.0316 35.992 98.9622 36.0885C98.8957 36.1791 98.819 36.2538 98.7319 36.3125C98.6449 36.3712 98.5476 36.4066 98.4399 36.4189C98.3322 36.4311 98.2113 36.4114 98.0771 36.3597C97.7212 36.2422 97.3363 36.1249 96.9222 36.0078C96.511 35.8848 96.1451 35.7951 95.8245 35.7386C95.6905 35.716 95.5741 35.7312 95.4754 35.7841C95.3796 35.8312 95.2941 35.9088 95.219 36.017C95.1467 36.1193 95.0789 36.2274 95.0154 36.3413C94.9607 36.4522 94.9074 36.5602 94.8556 36.6653C94.7346 36.9105 94.6224 37.1601 94.519 37.414C94.4214 37.6707 94.3209 37.926 94.2174 38.1799C93.8552 39.0466 93.5236 39.9175 93.2226 40.7926C92.9275 41.6706 92.6368 42.5616 92.3505 43.4658C92.3478 43.5007 92.3392 43.5328 92.3248 43.562C92.3104 43.5912 92.296 43.6204 92.2816 43.6496C92.1232 43.9707 91.8299 44.1091 91.4016 44.0648L90.947 43.993C90.8247 43.9762 90.7138 43.9434 90.6146 43.8944C90.4628 43.8195 90.3646 43.7094 90.3202 43.5641C90.2729 43.4246 90.2807 43.2542 90.3436 43.053C90.6755 41.968 91.025 40.8991 91.392 39.846C91.7618 38.7871 92.1784 37.744 92.6416 36.7166C92.7106 36.5473 92.7897 36.3649 92.8789 36.1694C92.9681 35.9738 93.0631 35.7739 93.1639 35.5695C93.305 35.2834 93.2559 35.0813 93.0165 34.9632ZM96.3433 42.0379C96.3923 41.9386 96.4587 41.8335 96.5425 41.7224C96.6263 41.6113 96.7043 41.4828 96.7763 41.3368C96.8252 41.2375 96.8189 41.14 96.7572 41.0443C96.7014 40.9514 96.6368 40.8469 96.5634 40.7309C96.4899 40.6148 96.4339 40.4855 96.3953 40.3431C96.3625 40.2035 96.3922 40.0403 96.4844 39.8534C96.5506 39.7192 96.6519 39.6021 96.7882 39.5024C96.9303 39.4056 97.0988 39.3362 97.2937 39.2944C97.7649 39.2074 98.2348 39.1525 98.7035 39.1296C99.1779 39.1096 99.6337 39.1202 100.071 39.1615C100.513 39.2057 100.935 39.2791 101.334 39.3818C101.733 39.4845 102.1 39.6179 102.432 39.782C102.993 40.0585 103.467 40.4228 103.853 40.8749C104.249 41.3241 104.538 41.819 104.722 42.3595C104.914 42.8971 104.995 43.4601 104.967 44.0484C104.947 44.6337 104.801 45.2008 104.53 45.7497C104.265 46.2868 103.9 46.7415 103.433 47.1138C102.975 47.4832 102.467 47.7552 101.909 47.93C101.351 48.1048 100.763 48.1706 100.145 48.1273C99.5307 48.0928 98.9403 47.9359 98.3739 47.6565C97.8192 47.3829 97.3515 47.036 96.9707 46.6159C96.5899 46.1958 96.308 45.7373 96.1248 45.2404C95.9444 44.7376 95.8688 44.214 95.8979 43.6693C95.9299 43.1189 96.0783 42.5751 96.3433 42.0379ZM99.3442 46.1751C99.5894 46.296 99.8679 46.3717 100.18 46.402C100.491 46.4324 100.801 46.4074 101.109 46.3271C101.426 46.2439 101.723 46.0996 101.998 45.8943C102.279 45.6919 102.505 45.4185 102.675 45.074C102.848 44.7237 102.945 44.365 102.966 43.998C102.987 43.6311 102.939 43.2805 102.821 42.9463C102.711 42.6091 102.533 42.3 102.287 42.0189C102.047 41.7407 101.749 41.5138 101.393 41.3381C100.744 41.0184 100.165 40.9429 99.6532 41.1116C99.1445 41.2745 98.7188 41.7033 98.3761 42.3982C98.1889 42.7777 98.0701 43.1583 98.0198 43.54C97.9781 43.9187 98.0005 44.2782 98.0867 44.6183C98.1759 44.9527 98.3245 45.2547 98.5327 45.5244C98.7467 45.7969 99.0172 46.0138 99.3442 46.1751ZM116.775 51.8765C116.967 51.9861 117.096 52.115 117.161 52.2631C117.226 52.4113 117.214 52.5758 117.124 52.7568C117.098 52.8094 117.057 52.8722 116.999 52.9453C116.941 53.0184 116.88 53.0901 116.817 53.1603C116.753 53.2305 116.692 53.2949 116.634 53.3534C116.579 53.4061 116.537 53.4399 116.508 53.4546C116.409 53.5366 116.314 53.5692 116.22 53.5522C116.133 53.5381 116.047 53.5211 115.962 53.5012C115.881 53.4754 115.803 53.47 115.731 53.485C115.661 53.4941 115.594 53.5629 115.531 53.6913C115.488 53.7789 115.449 53.8941 115.415 54.037C115.381 54.1798 115.345 54.3329 115.308 54.4961C115.271 54.6594 115.23 54.8241 115.184 54.9903C115.139 55.1565 115.085 55.3009 115.025 55.4235C114.858 55.7622 114.576 55.8991 114.18 55.8343C114.037 55.8147 113.919 55.7964 113.826 55.7794C113.733 55.7624 113.654 55.7454 113.59 55.7283C113.526 55.7111 113.473 55.6925 113.432 55.6723C113.388 55.658 113.346 55.6408 113.305 55.6206C113.212 55.5745 113.149 55.4963 113.116 55.3858C113.084 55.2753 113.074 55.14 113.088 54.9798C113.102 54.8196 113.133 54.6316 113.181 54.4159C113.235 54.2031 113.299 53.9698 113.374 53.7161C113.451 53.4274 113.511 53.1883 113.553 52.9988C113.602 52.8122 113.623 52.6593 113.616 52.5399C113.618 52.4176 113.596 52.3231 113.549 52.2564C113.511 52.1867 113.448 52.123 113.36 52.0653L111.761 51.1131C111.598 51.0179 111.412 50.9082 111.205 50.7842C111.006 50.6571 110.801 50.5199 110.591 50.3726C110.389 50.2223 110.196 50.0617 110.012 49.8909C109.836 49.7172 109.69 49.536 109.572 49.3474C109.461 49.1616 109.388 48.9699 109.355 48.772C109.331 48.5713 109.37 48.3658 109.474 48.1556C109.549 48.0038 109.644 47.8693 109.76 47.7523C109.879 47.6293 110.006 47.518 110.143 47.4183C110.282 47.3127 110.425 47.2129 110.573 47.119C110.727 47.0279 110.874 46.9368 111.013 46.8458C111.57 46.4818 112.149 46.154 112.75 45.8625C113.36 45.5681 113.96 45.2649 114.549 44.9531C114.787 44.8383 114.96 44.6728 115.066 44.4568C115.112 44.3634 115.145 44.2599 115.165 44.1462C115.188 44.0267 115.221 43.9232 115.264 43.8356C115.324 43.713 115.404 43.6325 115.503 43.5941C115.607 43.5586 115.718 43.5478 115.834 43.5617C115.957 43.5785 116.082 43.6113 116.211 43.6601C116.339 43.7089 116.462 43.7621 116.578 43.8197C116.882 43.9695 117.074 44.1403 117.153 44.332C117.242 44.5208 117.273 44.7069 117.248 44.8905C117.229 45.077 117.18 45.249 117.102 45.4066C117.033 45.5613 116.992 45.6824 116.978 45.7698C116.822 46.6587 116.674 47.5402 116.533 48.4145C116.395 49.2829 116.237 50.1558 116.058 51.0331C116.027 51.1847 116.039 51.3069 116.095 51.3998C116.151 51.4926 116.243 51.578 116.372 51.6559L116.775 51.8765ZM113.257 49.8909C113.315 49.9342 113.381 49.9775 113.454 50.0208C113.527 50.0641 113.593 50.1001 113.651 50.1289C113.756 50.1808 113.85 50.1978 113.931 50.1798C114.021 50.159 114.089 50.1018 114.135 50.0084C114.15 49.9792 114.161 49.9486 114.17 49.9165C114.181 49.8786 114.19 49.8392 114.195 49.7985C114.218 49.6498 114.242 49.4983 114.267 49.3439C114.301 49.1864 114.332 49.0203 114.361 48.8455C114.395 48.6735 114.424 48.4885 114.449 48.2903C114.483 48.0893 114.51 47.8664 114.529 47.6217C114.537 47.5605 114.534 47.479 114.519 47.3772C114.504 47.2754 114.449 47.2014 114.356 47.1553C114.251 47.1035 114.115 47.1202 113.95 47.2056C113.604 47.3908 113.268 47.5732 112.94 47.7526C112.617 47.9348 112.301 48.1272 111.991 48.3298C111.875 48.4178 111.798 48.4997 111.761 48.5756C111.72 48.6574 111.713 48.7375 111.74 48.8159C111.772 48.8973 111.831 48.9698 111.916 49.0334L113.257 49.8909ZM118.336 52.2218C118.647 51.5913 119.051 51.0577 119.55 50.6212C120.057 50.1817 120.608 49.8585 121.204 49.6514C121.809 49.4414 122.437 49.3522 123.09 49.3836C123.742 49.415 124.378 49.5834 124.996 49.8886C125.656 50.2141 126.22 50.6303 126.689 51.1373C127.16 51.6385 127.516 52.1839 127.755 52.7737C128.002 53.3605 128.124 53.9684 128.118 54.5973C128.119 55.2291 127.977 55.834 127.691 56.4121C127.504 56.7916 127.261 57.1292 126.963 57.4249C126.665 57.7205 126.325 57.9669 125.945 58.1641C125.571 58.3641 125.162 58.5148 124.72 58.6162C124.284 58.7204 123.83 58.7724 123.359 58.772C122.89 58.7658 122.412 58.7043 121.925 58.5876C121.441 58.4796 120.969 58.3118 120.507 58.0842C119.894 57.7818 119.383 57.4134 118.973 56.9788C118.56 56.5502 118.257 56.0816 118.065 55.5731C117.882 55.0616 117.808 54.5205 117.843 53.9496C117.883 53.3816 118.048 52.8057 118.336 52.2218ZM125.763 55.8853C125.955 55.4941 126.051 55.0801 126.048 54.6434C126.046 54.2067 125.958 53.7821 125.784 53.3696C125.61 52.9571 125.356 52.5741 125.022 52.2207C124.691 51.8614 124.295 51.568 123.834 51.3405C123.513 51.1821 123.18 51.098 122.837 51.0882C122.496 51.0726 122.17 51.1224 121.859 51.2376C121.551 51.347 121.264 51.5174 120.997 51.7489C120.739 51.9774 120.528 52.258 120.364 52.5909C119.932 53.4667 119.82 54.2534 120.027 54.9511C120.235 55.6487 120.739 56.1948 121.539 56.5894C121.965 56.7996 122.397 56.94 122.834 57.0104C123.271 57.0808 123.68 57.083 124.061 57.0169C124.448 56.9537 124.789 56.8281 125.085 56.6401C125.384 56.4464 125.61 56.1947 125.763 55.8853ZM137.242 53.8929C137.376 53.7554 137.51 53.6731 137.647 53.6462C137.787 53.6134 137.921 53.6287 138.049 53.692C138.102 53.718 138.154 53.7512 138.207 53.7916C138.265 53.835 138.318 53.89 138.365 53.9568L138.607 54.283C138.724 54.4279 138.792 54.5702 138.81 54.7099C138.834 54.8524 138.813 54.9909 138.747 55.1251C138.698 55.2244 138.63 55.3179 138.543 55.4058C137.996 55.9561 137.45 56.4962 136.906 57.0262C136.361 57.5561 135.805 58.0876 135.237 58.6205C135.159 58.6908 135.104 58.7581 135.072 58.8223C135.023 58.9216 135.04 58.9914 135.121 59.0317C135.203 59.072 135.321 59.0757 135.475 59.0429C135.885 58.9912 136.294 58.9933 136.702 59.0494C137.116 59.1083 137.504 59.227 137.866 59.4056C138.269 59.6043 138.58 59.8559 138.8 60.1605C139.029 60.462 139.181 60.7873 139.256 61.1363C139.33 61.4853 139.338 61.8448 139.279 62.2149C139.22 62.585 139.107 62.9394 138.94 63.278C138.721 63.7218 138.442 64.0887 138.103 64.3787C137.763 64.6688 137.39 64.8805 136.984 65.0137C136.585 65.144 136.172 65.1942 135.744 65.1645C135.313 65.1406 134.902 65.0322 134.511 64.8392C134.166 64.6693 133.875 64.4423 133.638 64.1583C133.401 63.8742 133.227 63.5563 133.117 63.2046C133.011 62.8471 132.971 62.4717 132.998 62.0785C133.033 61.6823 133.148 61.2886 133.341 60.8974C133.398 60.7807 133.463 60.6639 133.535 60.547C133.613 60.433 133.69 60.322 133.765 60.2138L134.051 59.8105L134.007 59.7671C133.138 60.6016 132.274 61.4273 131.413 62.2443C130.553 63.0612 129.699 63.8957 128.85 64.7475C128.587 65.0168 128.315 65.0823 128.034 64.9441C127.982 64.9182 127.926 64.8835 127.868 64.8402C127.815 64.7997 127.76 64.7432 127.701 64.6707L127.468 64.3488C127.245 64.0647 127.201 63.7854 127.337 63.511C127.388 63.4059 127.459 63.3138 127.549 63.2347C128.369 62.4121 129.191 61.6055 130.017 60.8149C130.842 60.0244 131.677 59.2308 132.52 58.4343C132.563 58.3904 132.601 58.3509 132.632 58.3158C132.673 58.2777 132.7 58.2441 132.715 58.2149C132.744 58.1565 132.729 58.1129 132.67 58.0841C132.606 58.0524 132.493 58.0399 132.33 58.0466C132.074 58.0655 131.816 58.0509 131.556 58.0028C131.306 57.9517 131.064 57.8686 130.83 57.7534C130.526 57.6036 130.276 57.4113 130.08 57.1766C129.887 56.9359 129.748 56.6717 129.665 56.3839C129.588 56.099 129.566 55.7978 129.599 55.4802C129.641 55.1597 129.74 54.8419 129.895 54.5266C129.97 54.3748 130.053 54.2375 130.142 54.1147C130.235 53.9861 130.323 53.8735 130.407 53.777C130.499 53.6775 130.58 53.5941 130.65 53.5267C130.725 53.4623 130.782 53.4139 130.82 53.3817C130.895 53.3172 130.95 53.2645 130.985 53.2236C131.022 53.1768 131.05 53.1359 131.067 53.1008C131.081 53.0716 131.086 53.0483 131.08 53.0309C131.074 53.0135 131.078 52.9901 131.092 52.9609C131.11 52.9259 131.156 52.8907 131.232 52.8554C131.31 52.8142 131.416 52.783 131.55 52.7619C131.879 52.7136 132.199 52.7119 132.511 52.7568C132.828 52.8045 133.119 52.8932 133.381 53.0228C133.679 53.1697 133.936 53.3619 134.153 53.5995C134.378 53.8341 134.544 54.1011 134.651 54.4004C134.763 54.7026 134.809 55.0299 134.787 55.3824C134.772 55.7377 134.67 56.1051 134.483 56.4846C134.477 56.4963 134.514 56.467 134.592 56.3967C134.676 56.3292 134.776 56.2443 134.892 56.1417C135.016 56.0362 135.144 55.9249 135.274 55.8077C135.405 55.6906 135.513 55.5881 135.6 55.5003C135.878 55.2309 136.152 54.963 136.421 54.6966C136.696 54.4331 136.97 54.1652 137.242 53.8929ZM135.517 63.528C135.698 63.6172 135.876 63.6541 136.05 63.6386C136.234 63.6202 136.402 63.5654 136.556 63.4743C136.71 63.3832 136.849 63.2631 136.973 63.1139C137.104 62.9677 137.21 62.8098 137.294 62.6405C137.395 62.4362 137.45 62.235 137.461 62.0369C137.48 61.8359 137.46 61.6482 137.401 61.4739C137.348 61.3024 137.261 61.1471 137.141 61.008C137.021 60.8688 136.876 60.7575 136.707 60.674C136.625 60.6337 136.53 60.5978 136.422 60.5664C136.32 60.5378 136.212 60.5209 136.099 60.5157C135.994 60.5075 135.889 60.5139 135.785 60.5349C135.686 60.5587 135.606 60.6028 135.545 60.6672C135.545 60.7254 135.54 60.7662 135.528 60.7896C135.511 60.8246 135.484 60.8655 135.446 60.9123C135.408 60.9591 135.365 61.0175 135.316 61.0877C135.278 61.1345 135.242 61.1856 135.208 61.2411C135.176 61.2908 135.141 61.3536 135.104 61.4295C135.02 61.5988 134.957 61.7855 134.915 61.9895C134.878 62.1964 134.872 62.4003 134.896 62.6011C134.923 62.796 134.987 62.9762 135.087 63.1416C135.187 63.307 135.33 63.4358 135.517 63.528ZM131.68 55.0366C131.628 55.1417 131.582 55.2643 131.542 55.4042C131.505 55.5384 131.486 55.6739 131.483 55.8107C131.481 55.9476 131.508 56.077 131.564 56.199C131.62 56.321 131.718 56.4165 131.858 56.4857C132.022 56.5663 132.186 56.5494 132.351 56.4349C132.526 56.3175 132.664 56.1537 132.768 55.9436C132.831 55.8151 132.874 55.6766 132.897 55.528C132.925 55.3822 132.926 55.241 132.899 55.1043C132.872 54.9676 132.816 54.8383 132.731 54.7165C132.646 54.5947 132.524 54.4949 132.367 54.4171C132.303 54.3855 132.236 54.3887 132.166 54.427C132.096 54.4652 132.03 54.5194 131.966 54.5896C131.908 54.6627 131.852 54.7402 131.797 54.822C131.748 54.9067 131.709 54.9783 131.68 55.0366Z" fill="#0A7AF9"/>
<path d="M0.720234 29.7362C11.4254 27.3727 22.5709 30.6629 31.4399 36.7896C36.2733 40.13 40.5247 44.2263 44.3694 48.5906C46.6496 51.1788 51.9861 55.9506 49.7908 59.7659C47.9179 63.022 41.9746 62.7982 38.9864 61.3207C35.4836 59.5906 33.4102 55.2428 35.3595 51.7654C37.3137 48.2812 41.8652 47.2331 45.653 48.0992C50.8547 49.2837 55.5919 53.0397 59.67 56.2256C70.3443 64.568 79.0586 74.9197 87.6579 85.1823C88.3205 85.9729 87.9346 87.3608 86.8035 87.4754C82.9739 87.8587 79.3312 87.4475 75.6319 86.3582C75.9493 85.5368 76.2597 84.7106 76.5772 83.8892C79.0329 84.9497 82.5808 86.4217 85.3069 86.035C87.6069 85.7102 86.9589 84.3616 86.5945 82.6451C86.2734 81.1309 85.9453 79.6118 85.6242 78.0975C85.2357 76.2833 88.1857 75.8071 88.5453 77.6319C89.0507 80.1504 89.9676 82.8962 90.0546 85.4515C90.1007 86.7766 89.7494 87.7826 88.5223 88.4143C86.8897 89.2541 84.3302 88.7359 82.591 88.4575C80.1778 88.0654 77.8638 87.3408 75.6319 86.3582C74.0177 85.6535 74.8813 83.3768 76.5772 83.8892C79.7914 84.8527 82.9781 85.0618 86.292 84.6889C86.0068 85.4514 85.7217 86.2138 85.4376 86.9821C78.7043 78.83 71.9337 70.6421 64.1245 63.4084C59.9831 59.5754 55.5211 55.9428 50.7043 52.9284C48.1294 51.3193 45.0716 49.6976 41.907 50.1123C38.6217 50.5404 35.8724 53.1833 37.2144 56.5006C38.4865 59.6378 42.2424 60.5986 45.3565 59.8752C50.5808 58.6661 45.557 53.6174 43.8728 51.5915C40.3838 47.3856 36.5774 43.3976 32.2222 40.0109C23.3908 33.1493 12.2576 28.919 0.975324 31.1594C0.0370194 31.3508 -0.209949 29.9382 0.720234 29.7362Z" fill="#003F87"/>
</svg>
