<svg width="25" height="25" viewBox="0 0 25 25" fill="none" xmlns="http://www.w3.org/2000/svg">
<path fill-rule="evenodd" clip-rule="evenodd" d="M2.75 9.38996C2.75 7.88448 2.75 7.13174 2.98675 6.47456C3.19601 5.89366 3.53692 5.3691 3.98276 4.94194C4.48714 4.4587 5.17501 4.15298 6.55073 3.54156L9.90073 2.05268C10.8579 1.62727 11.3365 1.41456 11.834 1.33056C12.2749 1.2561 12.7251 1.2561 13.166 1.33056C13.6635 1.41456 14.1421 1.62727 15.0993 2.05267L18.4493 3.54155C19.825 4.15298 20.5129 4.4587 21.0172 4.94194C21.4631 5.36909 21.804 5.89366 22.0133 6.47456C22.25 7.13174 22.25 7.88447 22.25 9.38995L22.25 14.6944C22.25 15.9467 22.25 16.5728 22.0774 17.1412C21.9246 17.6443 21.6741 18.1124 21.3402 18.5187C20.963 18.9775 20.4421 19.3249 19.4001 20.0195L16.9376 21.6611C15.3338 22.7303 14.5319 23.2649 13.6652 23.4726C12.8992 23.6562 12.1008 23.6562 11.3348 23.4726C10.4681 23.2649 9.66619 22.7303 8.06241 21.6612L5.59992 20.0195C4.55796 19.3249 4.03698 18.9775 3.65982 18.5187C3.32593 18.1124 3.07541 17.6443 2.92261 17.1412C2.75 16.5728 2.75 15.9467 2.75 14.6944L2.75 9.38996ZM5.5 8.48413C5.5 8.02626 5.5 7.79732 5.57266 7.59813C5.63688 7.42208 5.74144 7.26351 5.87796 7.13514C6.03243 6.98989 6.24286 6.89971 6.66371 6.71935L11.3849 4.6961C11.7572 4.53654 11.9434 4.45676 12.0934 4.48526C12.2245 4.51018 12.3402 4.58648 12.4147 4.69717C12.5 4.8238 12.5 5.02634 12.5 5.43142L12.5 19.7529C12.5 20.2301 12.5 20.4688 12.4003 20.602C12.3133 20.7181 12.1803 20.7908 12.0356 20.8011C11.8696 20.813 11.6689 20.6839 11.2674 20.4258L6.38173 17.2849C6.05965 17.0778 5.89861 16.9743 5.78189 16.8356C5.67858 16.7129 5.60093 16.5707 5.55354 16.4174C5.50001 16.2442 5.50001 16.0527 5.50001 15.6699L5.5 8.48413Z" fill="#FFB321"/>
</svg>
