<svg width="23" height="22" viewBox="0 0 23 22" fill="none" xmlns="http://www.w3.org/2000/svg">
<path id="Vector" d="M7.56534 1.62846C8.42253 3.98705 8.85587 6.77869 7.64595 9.10417C6.43602 11.4297 3.86949 12.7926 1.4059 13.5963C1.26501 13.6655 1.14086 13.7616 1.04134 13.8787C0.941821 13.9957 0.869113 14.1311 0.827844 14.2762C0.794517 14.3558 0.642299 14.9508 0.916032 14.8615C3.63016 13.9761 6.69098 13.6163 9.3596 14.8189C12.0282 16.0216 13.7208 18.594 14.6847 21.2175C14.7804 21.4811 15.1805 20.9968 15.2279 20.9273C15.3235 20.8074 15.3916 20.6698 15.4278 20.5235C15.464 20.3771 15.4675 20.2253 15.438 20.0776C14.5936 17.7541 14.0624 14.9502 15.2352 12.6368C16.408 10.3235 19.1044 8.91815 21.5959 8.10538C21.7382 8.037 21.8636 7.94096 21.964 7.82355C22.0644 7.70613 22.1375 7.56998 22.1786 7.42399C22.2073 7.34585 22.3611 6.75525 22.0858 6.84016C19.302 7.74828 16.1762 8.12931 13.4648 6.83743C10.7534 5.54555 9.26021 3.05054 8.31712 0.484154C8.22135 0.220623 7.82288 0.70925 7.77549 0.778754C7.67929 0.898441 7.61085 1.03599 7.57464 1.18241C7.53843 1.32884 7.53526 1.48083 7.56534 1.62846C8.51352 4.23741 10.1378 6.80757 12.8289 8.08643C15.52 9.36528 18.7874 9.01667 21.6083 8.11113L22.095 6.83713C19.6825 7.62417 17.3393 8.83073 15.7503 10.7984C14.3461 12.589 13.6472 14.7878 13.7746 17.0142C13.8688 18.4471 14.1762 19.8602 14.6877 21.2116L15.4503 20.0687C14.4798 17.3982 12.7901 14.8052 10.0078 13.561C7.22551 12.3168 4.16643 12.6957 1.40576 13.5816L0.919069 14.8556C3.30379 14.0777 5.57064 12.8469 7.12144 10.9309C8.54264 9.14311 9.27785 6.9502 9.20573 4.71413C9.14175 3.26722 8.84629 1.83799 8.32944 0.475217C8.23367 0.211687 7.8352 0.700313 7.78781 0.769817C7.68955 0.89037 7.61901 1.02904 7.5807 1.17691C7.54239 1.32478 7.53715 1.47859 7.56534 1.62846Z" fill="#092857"/>
</svg>
