<svg width="37" height="35" viewBox="0 0 37 35" fill="none" xmlns="http://www.w3.org/2000/svg">
<path d="M19.9667 1.7005C19.3772 5.67433 17.8464 9.97559 14.3195 12.4716C10.7927 14.9677 6.06328 15.1454 1.91254 14.5927C1.65729 14.5944 1.40519 14.6463 1.17232 14.7452C0.939441 14.8441 0.730882 14.9879 0.559894 15.1672C0.450724 15.2584 -0.22611 16.0059 0.235083 16.0673C4.80793 16.6762 9.47257 18.2783 12.3706 21.8487C15.2686 25.4191 15.7117 30.2775 15.0709 34.7048C15.005 35.1488 15.9517 34.7315 16.0732 34.6647C16.3028 34.5589 16.5065 34.4089 16.6712 34.2242C16.8358 34.0395 16.9579 33.8242 17.0295 33.5922C17.6101 29.6775 19.0101 25.2909 22.4745 22.7865C25.9388 20.2822 30.8871 20.1336 35.0847 20.6925C35.3414 20.693 35.5952 20.6421 35.8297 20.5433C36.0641 20.4445 36.2738 20.2999 36.4452 20.119C36.5465 20.0269 37.2223 19.2868 36.7622 19.218C32.0721 18.5935 27.298 16.9768 24.4074 13.2489C21.5168 9.52104 21.2998 4.9116 21.9264 0.580486C21.9922 0.136482 21.0444 0.561147 20.9229 0.627976C20.6928 0.73297 20.4886 0.882772 20.3239 1.06759C20.1591 1.25241 20.0374 1.46808 19.9667 1.7005C19.3147 6.09614 19.6616 10.904 22.5332 14.5992C25.4047 18.2943 30.3566 20.0554 35.0981 20.7094L36.7778 19.2201C32.7131 18.6788 28.4244 18.7869 24.6299 20.5078C21.237 22.1028 18.5403 24.7709 17.0066 28.0502C16.0371 30.1693 15.3884 32.4075 15.0798 34.6984L17.054 33.5879C17.7214 29.0886 17.2983 24.2027 14.2694 20.4942C11.2404 16.7856 6.56356 15.212 1.92366 14.5716L0.243979 16.0609C4.26183 16.5959 8.45982 16.4003 12.1596 14.7271C15.5748 13.1479 18.319 10.5134 19.9394 7.25843C20.963 5.14022 21.6412 2.88718 21.9509 0.576201C22.0168 0.132197 21.069 0.556862 20.9475 0.623692C20.7137 0.728501 20.5057 0.878456 20.3368 1.0639C20.1679 1.24934 20.0418 1.46618 19.9667 1.7005Z" fill="#092857"/>
</svg>
