<svg width="488" height="321" viewBox="0 0 488 321" fill="none" xmlns="http://www.w3.org/2000/svg">
<path d="M215.794 44.0856C213.885 43.2187 212.176 41.9707 210.772 40.419C209.369 38.8672 208.301 37.0449 207.634 35.0652C206.322 31.0906 205.969 26.8641 206.604 22.7285C207.255 17.4497 208.994 12.0935 212.656 8.22618C214.853 5.95707 217.604 4.29523 220.64 3.40368C223.677 2.51213 226.894 2.42151 229.976 3.1407C234.532 4.27188 238.641 7.16268 243.323 7.38505C250.861 7.74277 257.447 1.09104 264.976 1.58412C267.272 1.79617 269.467 2.62137 271.331 3.97255C273.195 5.32374 274.657 7.15077 275.564 9.26069C276.424 11.3886 276.774 13.6869 276.585 15.9728C276.396 18.2588 275.674 20.4694 274.476 22.4288C272.007 26.3428 268.082 29.1239 263.557 30.1634C259.293 31.1882 254.815 30.7531 250.453 30.6081C246.092 30.4631 241.468 30.6951 237.67 32.8608C234.066 34.9201 231.569 38.4974 228.024 40.5954C224.235 42.8771 219.65 43.3121 215.25 43.6795" fill="#092857"/>
<path d="M216.231 45.0912C203.603 39.6867 202.943 22.3032 208.509 11.6295C209.905 8.9112 211.956 6.57921 214.478 4.84161C217 3.104 219.915 2.01481 222.963 1.67123C225.975 1.38127 229.014 1.78827 231.842 2.86043C235.018 4.00128 238.059 5.76089 241.449 6.19596C247.685 7.0661 253.106 2.84109 258.847 1.17815C261.644 0.273949 264.656 0.273949 267.453 1.17815C270.244 2.18253 272.69 3.9564 274.506 6.29264C276.421 8.74242 277.535 11.7186 277.697 14.8188C277.858 17.919 277.06 20.9938 275.409 23.6278C271.863 29.3513 265.355 31.8264 258.847 31.9618C251.901 32.1068 244.062 30.3568 237.874 34.4465C235.164 36.2351 233.075 38.7875 230.491 40.7405C227.777 42.6648 224.627 43.8904 221.321 44.3081C219.602 44.5788 217.863 44.7238 216.134 44.8785C215.27 44.9462 213.677 42.7418 214.356 42.6838C217.548 42.5353 220.711 42.0128 223.779 41.1272C226.716 40.012 229.369 38.2656 231.55 36.0127C233.707 34.0018 235.873 32.0391 238.651 30.9369C241.631 29.8799 244.787 29.4008 247.947 29.5254C254.534 29.5254 261.401 30.6952 267.375 27.263C272.534 24.3142 276.031 18.7646 275.526 12.7607C275.02 6.75671 270.251 2.26099 264.112 2.7154C258.507 3.13113 253.805 6.71805 248.453 8.0426C245.772 8.70663 242.96 8.62637 240.322 7.81055C237.408 6.93075 234.736 5.48052 231.842 4.58137C229.09 3.74098 226.176 3.57284 223.345 4.09119C220.515 4.60954 217.851 5.79911 215.58 7.55919C210.189 11.7842 208.062 18.7743 207.547 25.339C207.032 31.9038 208.518 40.1701 215.367 43.0899C216.021 43.3695 216.543 43.8887 216.824 44.5401C216.97 45.0332 216.824 45.3522 216.251 45.1009L216.231 45.0912Z" fill="#092857"/>
<path d="M59.0687 235.371C56.2808 234.163 53.0946 234.405 50.1319 233.718C47.1691 233.032 44.0509 230.818 44.216 227.811C44.3326 225.626 46.2269 223.847 48.3251 223.16C50.4678 222.62 52.6985 222.518 54.882 222.861C57.9614 223.141 61.031 223.46 64.1006 223.828" fill="#092857"/>
<path d="M59.4666 236.377C56.5524 235.188 53.3565 235.517 50.3743 234.704C47.8802 234.056 45.6916 232.562 44.1865 230.479C43.4578 229.546 43.0769 228.391 43.1088 227.209C43.1407 226.028 43.5834 224.894 44.3613 224.002C46.3041 221.865 49.2183 221.488 51.948 221.614C55.7559 221.778 59.5832 222.29 63.3814 222.716C64.0456 222.915 64.6041 223.366 64.9356 223.973C65.1298 224.301 65.3921 224.939 64.751 224.891C61.1957 224.495 57.6306 224.06 54.0656 223.828C51.0154 223.625 47.1881 224.05 45.6824 227.153C45.3817 227.72 45.2435 228.358 45.2829 228.997C45.3223 229.637 45.5378 230.253 45.9058 230.779C46.7389 231.659 47.8187 232.268 49.0046 232.529C52.1714 233.399 55.5033 233.09 58.5923 234.366C59.2429 234.651 59.7627 235.169 60.0494 235.816C60.2437 236.319 60.0494 236.599 59.4763 236.377H59.4666Z" fill="#092857"/>
<path d="M322.269 249.816C323.435 248.907 331.138 247.399 332.595 247.109C334.052 246.819 335.655 245.784 335.509 244.315C335.364 242.845 333.489 242.091 331.944 241.849C328.147 241.3 324.307 241.093 320.472 241.23" fill="#092857"/>
<path d="M321.239 248.791C322.304 248.183 323.468 247.767 324.678 247.563C326.31 247.138 327.952 246.78 329.603 246.442C330.953 246.161 332.517 246.045 333.625 245.127C333.993 244.843 334.262 244.45 334.392 244.005C334.392 243.957 334.392 243.357 334.392 243.348C334.392 243.338 334.528 243.502 334.528 243.502C334.145 243.393 333.772 243.254 333.411 243.087C332.77 242.946 332.121 242.839 331.468 242.768C328.117 242.363 324.739 242.214 321.365 242.323C321.054 242.281 320.754 242.173 320.488 242.006C320.222 241.839 319.994 241.618 319.821 241.356C319.704 241.211 319.024 240.157 319.598 240.148C322.958 240.032 326.322 240.167 329.661 240.554C332.255 240.863 335.286 241.52 336.412 244.247C337.384 246.538 335.043 247.892 333.119 248.278C331.507 248.607 329.894 248.936 328.262 249.313C327.242 249.555 326.213 249.806 325.203 250.106C324.518 250.244 323.861 250.496 323.26 250.85C322.551 251.372 320.618 249.226 321.2 248.801L321.239 248.791Z" fill="#092857"/>
<path d="M252.445 92.8135L261.518 95.9557C256.668 100.617 251.2 104.596 245.266 107.78C229.277 116.114 209.499 116.588 192.898 109.52C180.493 104.241 164.611 91.6726 159.161 77.528C166.175 77.6924 173.188 78.1081 180.163 78.9299C185.341 79.5487 191.169 80.2158 195.239 76.9963C197.444 75.2754 198.717 72.6843 199.921 70.2285L209.373 50.6504C212.287 44.6851 214.745 38.2944 218.582 32.8609C220.602 29.9604 223.079 27.2823 226.411 25.9384C228.568 25.0683 231.21 24.6525 232.415 22.6705C233.619 20.6886 232.725 17.8364 233.707 15.5837C234.95 17.6527 245.762 22.6609 248.618 23.6761C253.87 25.7037 259.57 26.3011 265.131 25.4067L264.84 25.484C263.985 36.0997 262.151 46.6147 259.361 56.8961C258.565 59.7965 257.418 63.016 254.728 64.3696C252.299 65.5684 249.395 64.8723 246.83 63.9925C245.14 63.4221 243.479 62.7743 241.847 62.0589C240.409 66.893 237.106 84.6439 240.681 87.7184C243.061 89.7487 249.492 91.7887 252.445 92.8135Z" fill="white"/>
<path d="M251.998 91.8467L261.129 94.9986C261.547 95.1436 263.169 96.4971 262.605 97.0289C256.155 103.033 248.918 108.205 240.662 111.444C232.8 114.482 224.395 115.881 215.969 115.553C207.673 115.288 199.513 113.382 191.965 109.946C185.239 106.789 179.019 102.657 173.509 97.6863C167.117 91.9917 161.347 85.166 158.199 77.1413C158.151 76.9963 157.986 76.4742 158.326 76.4839C166.32 76.6773 174.218 77.4507 182.164 78.1855C185.389 78.5046 188.847 78.6496 191.878 77.4121C195.103 76.1068 196.939 73.245 198.425 70.2672C202.097 62.8517 205.711 55.3878 209.208 47.8853C212.2 41.4753 214.91 34.5528 219.689 29.1966C220.923 27.7661 222.391 26.5534 224.031 25.6097C225.513 24.9094 227.038 24.3024 228.597 23.7921C229.432 23.5415 230.184 23.0717 230.773 22.432C231.363 21.7924 231.769 21.0065 231.948 20.1569C232.278 18.3489 231.948 16.4926 232.638 14.7426C232.968 13.9015 234.406 15.4871 234.581 15.7965C234.483 15.6515 234.581 15.7288 234.581 15.7288L234.843 15.9512C235.134 16.1639 235.426 16.3669 235.737 16.5699C236.708 17.179 237.679 17.7301 238.651 18.2619C240.827 19.4414 243.071 20.5049 245.324 21.5104C251.218 24.2877 257.802 25.2763 264.257 24.3529C265.015 24.2272 266.86 26.2865 266.025 26.5475C265.763 26.6152 265.782 28.3458 265.753 28.7132C265.646 29.7864 265.539 30.8596 265.413 31.9327C265.189 33.9244 264.937 35.916 264.636 37.898C264.053 41.862 263.324 45.8163 262.46 49.7319C261.779 53.3025 260.858 56.8233 259.701 60.2703C258.73 62.9774 256.991 65.5201 253.921 66.0712C250.036 66.719 245.752 64.6307 242.264 63.1708L242.915 63.0451C241.668 67.4998 240.838 72.0602 240.438 76.6676C240.117 79.2332 240.058 81.8247 240.263 84.4022C240.332 85.2855 240.515 86.1564 240.807 86.9933C240.914 87.2737 241.108 87.4863 240.963 87.3606C241.402 87.6777 241.867 87.9591 242.352 88.2018C245.454 89.6932 248.669 90.9379 251.969 91.924C252.668 92.1657 254.29 94.4281 252.862 93.935C249.619 92.946 246.451 91.7279 243.381 90.2901C241.147 89.1493 239.243 87.7764 238.524 85.3013C237.953 82.9223 237.783 80.4654 238.019 78.0308C238.192 74.9833 238.546 71.9487 239.078 68.9427C239.481 66.3664 240.035 63.816 240.739 61.3048C240.827 60.9954 241.167 61.0824 241.39 61.1791C243.564 62.167 245.811 62.9848 248.112 63.6252C250.142 64.1279 252.415 64.3116 254.271 63.1321C257.496 61.0534 258.215 56.3643 259.07 52.9998C261.398 43.716 262.957 34.2578 263.732 24.7203C263.738 24.666 263.763 24.6154 263.802 24.5768C263.841 24.5381 263.891 24.5138 263.946 24.5076L264.237 24.4302L266.005 26.6249C258.904 27.7754 251.978 26.2188 245.509 23.2893C242.964 22.1388 240.448 20.911 238.01 19.5284C236.183 18.4939 234.056 17.3337 232.881 15.5258L234.823 16.5893C233.697 19.4221 235.105 23.0186 232.249 25.078C231.046 25.8239 229.736 26.3845 228.364 26.7409C226.718 27.2876 225.187 28.1298 223.847 29.2256C218.251 33.8084 215.259 41.2142 212.326 47.5953C208.848 55.1558 205.128 62.6197 201.514 70.1222C200.076 73.1 198.697 76.3872 195.938 78.3885C193.325 80.3222 190.032 80.7186 186.885 80.6509C182.786 80.5542 178.706 79.8581 174.626 79.51C169.769 79.0943 164.912 78.8623 160.006 78.7463L160.133 78.0888C162.775 84.8566 167.399 90.6575 172.664 95.54C177.845 100.417 183.741 104.482 190.149 107.596C204.747 114.468 221.472 115.364 236.727 110.091C245.723 106.958 253.552 101.496 260.468 95.0469L261.945 97.0772L252.823 93.9254C252.192 93.5676 250.57 91.3053 251.998 91.8467Z" fill="#092857"/>
<path d="M253.747 34.2529C253.339 39.7552 252.455 45.2122 251.104 50.5632C251.027 50.8823 250.871 51.2593 250.551 51.298C250.321 51.2871 250.104 51.1864 249.948 51.0176L243.207 45.1104" fill="white"/>
<path d="M254.893 35.1329C254.517 40.1373 253.754 45.1055 252.61 49.9929C252.454 50.66 252.377 52.12 251.57 52.3617C250.599 52.6517 249.511 51.3465 248.889 50.7954L243.139 45.7679C242.818 45.4876 241.954 44.7431 242.167 44.2307C242.381 43.7183 243.139 44.2307 243.382 44.4531L248.384 48.8231L249.637 49.9156L249.88 50.138C250.172 50.4087 250.211 50.4377 250.016 50.225C249.88 50.1573 249.861 50.0703 249.958 49.9833C250.015 49.8914 250.054 49.7898 250.075 49.6836C250.392 48.624 250.642 47.5454 250.822 46.4544C251.75 42.1415 252.382 37.7712 252.717 33.3733C252.717 32.7932 253.766 33.47 253.931 33.5956C254.349 33.934 254.961 34.5625 254.902 35.1329H254.893Z" fill="#092857"/>
<path d="M326.922 233.969C330.04 260.847 328.865 283.451 328.321 308.018C328.321 310.242 331.507 313.365 330.108 315.105C328.71 316.845 325.815 315.347 323.581 315.879C309.466 319.214 295.653 314.593 281.276 316.497C278.119 316.923 274.758 317.271 271.902 315.869C267.424 313.684 265.928 308.134 265.025 303.3C262.324 288.798 260.527 283.316 263.198 268.814C265.87 254.311 273.534 240.157 286.201 232.51C298.868 224.862 316.82 225.287 327.33 235.671" fill="white"/>
<path d="M328.01 234.695C330.448 255.839 330.215 277.061 329.671 298.292C329.613 300.97 329.545 303.639 329.477 306.317C329.351 307.37 329.351 308.435 329.477 309.488C329.782 310.442 330.192 311.36 330.701 312.224C331.313 313.471 332.109 315.26 330.895 316.41C329.467 317.764 327.146 316.855 325.436 316.894C324.267 317.018 323.108 317.224 321.968 317.512C320.559 317.764 319.132 317.938 317.704 318.054C315.025 318.26 312.336 318.312 309.651 318.209C304.337 318.035 299.053 317.455 293.749 317.242C290.946 317.108 288.137 317.134 285.337 317.319C282.733 317.503 280.149 318.044 277.565 318.015C275.45 318.015 273.372 317.464 271.537 316.418C269.702 315.371 268.174 313.866 267.103 312.05C264.84 308.395 264.189 304.064 263.412 299.916C262.567 295.479 261.615 291.031 261.12 286.536C260.275 277.657 261.267 268.701 264.034 260.219C266.585 251.707 271.175 243.94 277.41 237.585C283.402 231.568 291.214 227.675 299.645 226.506C307.756 225.337 316.02 227.078 322.959 231.417C324.684 232.548 326.294 233.843 327.767 235.284C328 235.516 328.739 236.348 328.389 236.715C328.039 237.083 327.175 236.29 326.961 236.087C315.158 224.582 295.177 226.912 283.034 236.483C276.476 241.832 271.38 248.742 268.22 256.574C264.832 264.687 263.064 273.379 263.014 282.166C263.062 286.018 263.452 289.858 264.179 293.642C264.957 298.031 265.675 302.488 266.734 306.819C267.706 310.687 269.221 314.738 273.534 315.598C275.967 315.922 278.437 315.854 280.849 315.395C283.427 315.088 286.023 314.946 288.62 314.97C298.79 314.97 309.019 317.029 319.132 315.521C321.366 315.182 323.367 314.554 325.64 314.834C327.262 315.008 329.963 314.931 329.254 312.562C328.778 310.977 327.631 309.662 327.311 307.999C327.214 307.073 327.214 306.14 327.311 305.215C327.311 303.909 327.369 302.604 327.408 301.347C327.894 281.353 328.457 261.369 326.699 241.404C326.453 238.717 326.177 236.038 325.873 233.37C325.756 232.316 327.971 233.969 328.059 234.733L328.01 234.695Z" fill="#092857"/>
<path d="M233.347 26.5088C233.37 24.2447 232.618 22.0403 231.214 20.2584C229.81 18.4766 227.839 17.2234 225.625 16.7052C223.384 16.294 221.071 16.5835 219.003 17.5339C216.935 18.4844 215.213 20.0492 214.075 22.0131C213.007 24.0113 212.519 26.2652 212.663 28.5236C212.807 30.7821 213.578 32.9563 214.891 34.8041C216.25 36.6219 218.037 38.0795 220.095 39.0489C222.153 40.0182 224.419 40.4696 226.693 40.3634" fill="white"/>
<path d="M232.259 25.6293C232.335 24.1373 231.972 22.6556 231.215 21.3659C230.457 20.0762 229.338 19.0344 227.995 18.3684C226.576 17.7738 225.035 17.5232 223.5 17.6375C221.965 17.7518 220.479 18.2277 219.165 19.0259C213.55 22.255 211.85 30.357 216.105 35.4038C218.436 38.1689 222.273 39.3871 225.819 39.2711C226.132 39.3143 226.432 39.4228 226.7 39.5894C226.967 39.756 227.197 39.977 227.373 40.2379C227.48 40.383 228.17 41.4271 227.596 41.4465C219.388 41.7075 211.491 35.1235 211.549 26.6928C211.542 24.6988 212.067 22.7388 213.071 21.013C214.074 19.2871 215.52 17.8574 217.261 16.8698C218.888 15.9273 220.734 15.4236 222.616 15.4083C224.499 15.3931 226.352 15.8668 227.995 16.7828C231.764 18.8905 234.59 22.9898 234.464 27.4179C234.464 28.0076 233.396 27.3115 233.25 27.1955C232.988 27.0222 232.766 26.7956 232.599 26.5306C232.431 26.2656 232.322 25.9683 232.279 25.6583L232.259 25.6293Z" fill="#092857"/>
<path d="M227.091 26.4024C226.837 25.6267 226.289 24.9802 225.563 24.5994C224.838 24.2187 223.993 24.1337 223.206 24.3624C222.436 24.6256 221.761 25.1057 221.26 25.7442C220.76 26.3828 220.457 27.1522 220.389 27.959C220.276 29.5882 220.797 31.1983 221.846 32.4547C222.9 33.7013 224.161 34.7577 225.576 35.5775" fill="white"/>
<path d="M225.994 25.7161C225.994 25.5614 225.78 25.3874 225.994 25.5808C226.208 25.7741 226.14 25.6581 225.994 25.5808L225.732 25.4647C225.216 25.3055 224.664 25.3055 224.148 25.4647C223.536 25.6794 222.988 26.0431 222.554 26.5227C222.119 27.0024 221.813 27.5826 221.661 28.2105C221.503 28.8884 221.491 29.592 221.624 30.2751C221.758 30.9583 222.036 31.6055 222.439 32.1745C223.255 33.2057 224.264 34.0693 225.411 34.7172C226.018 35.0504 226.47 35.605 226.674 36.2641C226.752 36.8829 226.072 36.6509 225.751 36.4478C222.895 34.6012 219.69 31.9231 219.35 28.2975C219.263 27.5846 219.332 26.8615 219.552 26.1775C219.771 25.4934 220.136 24.8645 220.622 24.3336C221.078 23.8505 221.655 23.4979 222.294 23.3126C222.933 23.1272 223.61 23.1159 224.255 23.2797C225.18 23.5358 226.026 24.0187 226.715 24.6841C227.404 25.3496 227.914 26.1765 228.199 27.089C228.384 27.7174 227.538 27.4177 227.286 27.263C226.691 26.9138 226.24 26.3656 226.013 25.7161H225.994Z" fill="#092857"/>
<path d="M88.2786 101.979C91.1928 95.2113 94.3596 88.0954 100.402 83.7544C107.066 78.9203 115.876 78.4659 124.143 78.1468C136.926 77.6634 149.758 77.18 162.532 77.6248C168.312 90.5222 182.805 101.795 194.239 106.687C210.17 113.455 229.161 113.01 244.518 105.015C249.653 102.276 254.419 98.9007 258.701 94.9696L291.894 106.426C300.636 109.453 310.01 112.923 315.207 120.561C318.879 125.956 319.889 132.656 320.802 139.105C325.164 169.763 335.539 243.522 335.539 243.522C335.393 241.965 333.518 241.298 331.974 241.056C324.387 239.867 316.635 240.534 308.98 241.201L283.423 243.415C282.257 264.118 282.06 284.844 282.83 305.592L281.49 318.547H71.2597C72.6197 311.019 74.1383 303.526 75.8156 296.069C77.2533 289.717 78.8852 283.229 82.6737 277.921C86.6564 272.362 92.6499 268.611 98.6046 265.237C104.559 261.862 110.767 258.633 115.546 253.741C120.966 248.182 124.356 239.896 121.063 232.471C99.2385 227.643 77.1365 224.152 54.882 222.02C52.6978 221.68 50.4671 221.785 48.325 222.329C47.3599 222.643 46.4777 223.168 45.7431 223.866C45.0085 224.563 44.4402 225.416 44.08 226.361C46.5085 218.5 72.6294 138.448 88.2786 101.979Z" fill="#FFB321"/>
<path d="M87.1811 101.099C89.1239 96.6132 91.0667 92.0595 93.9809 88.1148C96.9195 84.1123 101.017 81.0997 105.725 79.4811C110.796 77.7311 116.226 77.3541 121.549 77.122C127.74 76.8513 133.935 76.6419 140.132 76.4936C147.291 76.3293 154.45 76.2906 161.61 76.4936C162.038 76.5653 162.441 76.7439 162.78 77.0127C163.12 77.2816 163.386 77.6319 163.553 78.0309C166.571 84.2801 170.873 89.8298 176.181 94.3218C181.035 98.6556 186.496 102.264 192.393 105.034C205.992 111.188 221.424 112.003 235.601 107.316C243.907 104.541 251.192 99.736 257.671 93.9448C257.837 93.7998 258.089 93.8964 258.254 93.9448L287.911 104.193C295.605 106.842 303.648 109.327 310.127 114.412C313.284 116.861 315.866 119.966 317.694 123.51C319.526 127.431 320.745 131.608 321.308 135.895C322.211 141.416 322.911 146.985 323.697 152.534C325.465 165.019 327.23 177.507 328.991 189.999L334.033 225.771C334.596 229.838 335.166 233.902 335.743 237.963C336.015 239.896 336.481 241.946 336.578 243.928C336.578 244.015 336.578 244.102 336.578 244.189C336.734 245.252 334.528 243.551 334.392 242.826C334.256 242.101 332.527 242.12 332.061 242.052C330.759 241.859 329.458 241.724 328.176 241.637C325.627 241.472 323.072 241.443 320.521 241.549C315.712 241.714 310.933 242.188 306.154 242.603L291.379 243.889L287.969 244.179C286.91 244.276 284.773 244.005 284.443 245.146C284.264 246.287 284.202 247.444 284.259 248.598C284.2 249.932 284.132 251.276 284.074 252.62C283.647 262.501 283.436 272.385 283.443 282.272C283.443 287.261 283.504 292.253 283.627 297.248C283.705 300.487 284.171 303.919 283.831 307.139L282.559 319.408C282.552 319.462 282.528 319.513 282.489 319.551C282.45 319.59 282.399 319.614 282.345 319.62H80.7116C77.9819 319.62 75.2329 319.736 72.5032 319.62H72.1536C71.3958 319.62 70.0165 318.47 70.2108 317.687C71.629 309.836 73.2026 302.015 74.99 294.241C76.486 287.744 78.322 281.102 82.5573 275.794C91.1444 265.014 105.968 262.162 115.177 252.088C120.034 246.79 123.084 239.055 120.102 232.094L121.802 233.631C101.176 229.082 80.305 225.708 59.2922 223.528C54.4352 223.045 47.6354 221.672 45.2361 227.308C44.8864 228.13 42.8076 226.283 43.031 225.549C46.6738 213.715 50.6954 201.997 54.6878 190.269C61.4876 170.198 68.3943 150.175 75.7672 130.326C79.4099 120.523 83.1498 110.738 87.2685 101.128C87.6182 100.316 89.7748 102.163 89.4736 102.888C81.7024 121.122 74.9998 139.869 68.4137 158.577C62.0607 176.624 55.9085 194.717 49.9571 212.854C48.3737 217.688 46.7612 222.474 45.275 227.357L43.0699 225.597C45.5761 219.709 52.1621 220.831 57.398 221.353C64.2755 221.997 71.1368 222.822 77.9819 223.828C91.669 225.761 105.288 228.236 118.781 231.146C120.005 231.408 121.132 231.514 121.899 232.616C122.559 233.749 123.001 234.995 123.201 236.29C123.71 238.817 123.633 241.425 122.977 243.918C121.637 249.216 118.217 253.731 114.079 257.212C104.997 264.84 92.65 268.195 84.9371 277.515C80.4493 282.93 78.6328 289.823 77.098 296.533C75.356 304.151 73.8017 311.805 72.4352 319.495L70.4924 317.561H279.79C280.042 317.58 280.296 317.58 280.548 317.561C280.198 317.667 280.383 317.774 280.392 317.281C280.446 316.251 280.553 315.225 280.713 314.206L281.539 306.249C281.917 302.546 281.48 298.747 281.393 295.034C281.134 283.329 281.179 271.621 281.529 259.909C281.704 254.154 281.95 248.401 282.267 242.652C282.276 242.599 282.302 242.55 282.34 242.512C282.378 242.474 282.428 242.448 282.481 242.439C292.69 241.55 302.88 240.563 313.099 239.8C318.019 239.357 322.967 239.315 327.894 239.674C331.031 239.954 335.869 240.418 336.578 244.315L334.392 242.951C333.745 238.195 333.078 233.438 332.391 228.681L327.729 195.558C325.961 183.073 324.196 170.588 322.435 158.103C321.696 152.831 320.952 147.558 320.2 142.286C319.151 134.948 318.607 126.817 314.294 120.503C309.777 113.91 301.666 110.835 294.4 108.273C285.016 104.957 275.584 101.766 266.181 98.5275L259.109 96.0814H259.692C253.711 101.575 246.754 105.909 239.176 108.863C231.807 111.571 223.972 112.796 216.125 112.469C201.194 111.889 187.468 105.701 176.297 95.9751C170.245 90.7252 164.825 84.5086 161.483 77.1897L163.426 78.727C151.012 78.3016 138.588 78.727 126.183 79.2007C115.993 79.5875 104.861 80.0709 97.6237 88.2599C93.8838 92.4849 91.5913 97.7347 89.3959 102.859C89.0365 103.671 86.8703 101.815 87.1811 101.099Z" fill="#FFB321"/>
<path d="M227.169 53.2994L227.266 53.1833V53.367L227.169 53.2994Z" fill="#092857"/>
<path d="M226.139 52.2746L226.236 52.1586C226.267 52.1271 226.306 52.1043 226.349 52.0924C226.391 52.0806 226.436 52.08 226.479 52.0909C226.599 52.0817 226.719 52.1123 226.819 52.1779L227.091 52.323C227.249 52.4152 227.396 52.5255 227.528 52.6517C227.626 52.7345 227.717 52.825 227.8 52.9224C227.926 53.0547 228.037 53.2006 228.131 53.3575L228.276 53.6282C228.353 53.7596 228.384 53.9126 228.364 54.0633C228.364 54.1309 228.364 54.1889 228.364 54.2566C228.364 54.3243 228.305 54.4113 228.218 54.4306C228.177 54.4544 228.13 54.4669 228.082 54.4669C228.034 54.4669 227.987 54.4544 227.946 54.4306L227.703 54.3533C227.505 54.2602 227.319 54.1433 227.149 54.0052L227.052 53.9279C226.897 53.8102 226.756 53.6738 226.635 53.5218C226.506 53.3931 226.392 53.2505 226.295 53.0964C226.21 52.9797 226.148 52.8486 226.11 52.7097C226.066 52.6095 226.049 52.4994 226.061 52.3906L226.129 52.2456C226.179 52.2083 226.236 52.1835 226.297 52.1734C226.358 52.1633 226.421 52.1682 226.479 52.1876L226.722 52.265C226.923 52.353 227.109 52.4703 227.276 52.613L227.373 52.6807L226.159 52.4583V52.265L228.286 54.1986L228.199 54.3146C228.166 54.3461 228.125 54.3688 228.081 54.3806C228.037 54.3925 227.99 54.393 227.946 54.3823C227.827 54.3821 227.71 54.3522 227.606 54.2953C227.46 54.2337 227.322 54.1523 227.198 54.0536C227.039 53.9471 226.893 53.8239 226.761 53.6862L226.499 53.4058C226.362 53.2321 226.245 53.0441 226.149 52.8451L226.071 52.6033C226.054 52.5473 226.051 52.4878 226.063 52.4303C226.075 52.3728 226.101 52.3193 226.139 52.2746Z" fill="#092857"/>
<path d="M241.789 62.2523C240.895 65.6327 240.214 69.0651 239.749 72.5296C237.831 70.7834 236.024 68.9203 234.338 66.951C232.523 65.0242 230.897 62.9296 229.481 60.6957C228.091 58.4986 227.335 55.9633 227.295 53.3672C231.262 56.4935 235.574 59.1598 240.147 61.3145C240.753 61.5123 241.311 61.8315 241.789 62.2523Z" fill="#092857"/>
<path d="M242.887 63.1417C241.978 66.5186 241.297 69.952 240.847 73.419C240.769 73.9797 239.778 73.3126 239.632 73.187C236.394 70.2749 233.423 67.0814 230.754 63.6444C228.219 60.4055 226.159 56.693 226.169 52.4873C226.169 51.8975 227.296 52.6516 227.383 52.7096C229.741 54.5531 232.224 56.2329 234.814 57.7371C236.11 58.4913 237.444 59.2003 238.817 59.8642C240.046 60.3388 241.188 61.0117 242.197 61.8558C242.43 62.0878 243.168 62.9193 242.819 63.2867C242.469 63.6541 241.595 62.8613 241.391 62.6583C240.895 62.3965 240.386 62.1609 239.866 61.9525C239.234 61.6527 238.622 61.3434 238.01 60.9856C236.738 60.3185 235.494 59.6321 234.27 58.8973C231.802 57.4095 229.427 55.7725 227.16 53.9955L228.374 54.2179C228.374 57.9015 230.239 61.1307 232.512 63.8861C234.745 66.7186 237.204 69.3666 239.866 71.8044L238.651 71.582C239.092 68.1135 239.774 64.6795 240.691 61.3047C240.915 60.5989 243.12 62.3392 242.887 63.1417Z" fill="#092857"/>
<path d="M293.02 128.19H251.736C250.51 128.226 249.334 128.681 248.405 129.479C247.476 130.276 246.852 131.368 246.636 132.569L232.065 224.04C231.953 224.581 231.966 225.139 232.102 225.674C232.238 226.208 232.495 226.705 232.852 227.127C233.209 227.549 233.658 227.884 234.164 228.108C234.671 228.332 235.222 228.439 235.776 228.42H277.06C278.286 228.382 279.461 227.926 280.389 227.129C281.317 226.332 281.943 225.241 282.16 224.04L296.731 132.569C296.843 132.029 296.83 131.471 296.694 130.936C296.558 130.401 296.301 129.904 295.944 129.483C295.587 129.061 295.138 128.726 294.632 128.502C294.125 128.278 293.574 128.171 293.02 128.19Z" fill="#092857"/>
<path d="M293.904 129.292H263.684C260.012 129.292 256.311 129.176 252.639 129.292C251.418 129.333 250.25 129.803 249.344 130.619C248.437 131.435 247.849 132.543 247.685 133.749L247.277 136.33L242.614 165.654L236.465 204.259C235.377 211.124 234.085 217.988 233.192 224.872C233.149 225.105 233.127 225.341 233.124 225.578C233.124 226.844 233.648 227.26 234.901 227.328C235.183 227.328 235.475 227.328 235.756 227.328H276.176C277.263 227.294 278.311 226.92 279.171 226.258C280.031 225.597 280.659 224.682 280.965 223.644C281.103 223.048 281.206 222.444 281.276 221.836L285.443 195.732L291.631 156.547L295.517 132.376C295.517 132.173 295.585 131.97 295.614 131.767C295.808 130.268 295.536 129.359 293.904 129.301C293.595 129.253 293.298 129.142 293.033 128.975C292.767 128.809 292.538 128.591 292.36 128.335C292.263 128.209 291.563 127.107 292.136 127.126C292.945 127.156 293.738 127.351 294.468 127.698C295.198 128.045 295.848 128.538 296.38 129.144C296.911 129.751 297.312 130.46 297.558 131.227C297.804 131.994 297.889 132.803 297.809 133.604C297.702 134.348 297.566 135.093 297.45 135.837L295.614 147.381L289.504 185.764L284.171 219.303C283.87 221.188 283.627 223.083 283.267 224.959C282.996 226.309 282.245 227.517 281.151 228.361C280.057 229.204 278.694 229.627 277.313 229.551H237.485C236.213 229.628 234.946 229.319 233.854 228.665C232.761 228.011 231.894 227.042 231.366 225.887C230.932 224.73 230.858 223.471 231.152 222.271L232.648 212.903L238.476 176.028L244.188 140.188C244.615 137.5 245.033 134.803 245.47 132.115C245.62 130.925 246.139 129.812 246.956 128.932C247.773 128.051 248.847 127.447 250.026 127.204C251.242 127.071 252.468 127.045 253.688 127.126H292.136C292.447 127.171 292.745 127.281 293.011 127.447C293.277 127.614 293.505 127.834 293.681 128.093C293.788 128.219 294.487 129.292 293.904 129.292Z" fill="#092857"/>
<path d="M285.358 139.523C284.142 138.213 284.405 136.003 285.945 134.586C287.486 133.169 289.721 133.082 290.937 134.392C292.153 135.702 291.89 137.912 290.349 139.329C288.809 140.746 286.574 140.833 285.358 139.523Z" fill="white"/>
<path d="M283.54 136.04C283.689 135.201 284.071 134.421 284.642 133.787C285.214 133.153 285.953 132.691 286.774 132.453C288.873 131.863 290.951 133.149 292.069 134.87C292.558 135.611 292.797 136.487 292.751 137.372C292.706 138.257 292.378 139.104 291.816 139.791C291.294 140.462 290.587 140.966 289.78 141.241C288.974 141.516 288.105 141.55 287.279 141.338C285.065 140.69 283.171 138.38 283.51 136.021C283.598 135.45 284.55 136.088 284.725 136.243C285.113 136.562 285.793 137.21 285.696 137.78C285.653 138.056 285.653 138.336 285.696 138.612C285.719 138.759 285.752 138.904 285.793 139.047C285.725 138.844 285.793 139.105 285.793 139.134C285.968 139.405 285.793 139.163 285.793 139.134C285.793 139.134 285.968 139.405 285.793 139.202C285.618 138.999 285.793 139.202 285.852 139.26C285.716 139.018 285.667 139.057 285.764 139.153L285.599 139.008L285.735 139.115C285.735 139.037 285.502 138.95 285.657 139.056C285.813 139.163 285.424 138.969 285.657 139.056L285.822 139.134C285.939 139.134 285.929 139.134 285.822 139.134H285.958C286.599 139.247 287.257 139.192 287.869 138.973C288.481 138.754 289.025 138.38 289.446 137.887C289.89 137.405 290.204 136.82 290.359 136.185C290.42 135.919 290.449 135.646 290.446 135.373C290.441 135.223 290.422 135.074 290.388 134.928C290.371 134.843 290.348 134.759 290.32 134.677C290.369 134.841 290.32 134.677 290.32 134.59C290.32 134.503 290.174 134.338 290.32 134.493C290.466 134.648 290.252 134.435 290.262 134.416C290.271 134.396 290.446 134.657 290.262 134.464C290.077 134.271 290.543 134.744 290.32 134.541C290.621 134.822 290.475 134.667 290.388 134.599C290.689 134.764 290.301 134.532 290.388 134.599C290.087 134.435 290.388 134.599 290.437 134.599L290.116 134.464C290.281 134.464 290.116 134.464 290.116 134.464L289.844 134.406C289.721 134.397 289.598 134.397 289.475 134.406C289.147 134.405 288.82 134.447 288.503 134.532C287.77 134.733 287.108 135.135 286.592 135.692C286.077 136.249 285.73 136.939 285.589 137.684C285.492 138.244 284.56 137.616 284.375 137.461C284.152 137.287 283.442 136.61 283.54 136.04Z" fill="white"/>
<path d="M123.433 226.941C123.307 228.691 121.889 235.42 121.763 237.179C135.838 231.678 147.534 221.604 160.172 213.347L161.143 212.738C171.566 205.97 182.66 200.372 192.733 193.121C197.59 189.66 201.621 185.445 206.216 181.771C210.617 178.252 212.151 171.02 214.405 166.031C217.494 159.202 221.633 152.893 226.674 147.333C228.41 145.216 230.566 143.478 233.007 142.228C237.097 140.391 244.363 143.784 242.08 149.527C241.358 151.049 240.483 152.494 239.467 153.839C236.941 157.649 234.61 161.294 234.144 165.838C233.998 167.346 234.056 169.067 235.183 170.092C236.699 171.464 239.069 170.73 241.012 169.927C249.88 166.147 259.225 161.999 264.714 154.1C266.19 151.964 267.356 149.595 269.036 147.603C270.717 145.612 273.087 143.978 275.7 144.026C278.313 144.074 281.81 145.602 281.81 148.86C284.375 145.786 287.279 146.385 289.96 148.483C291.327 149.572 292.326 151.053 292.821 152.725C293.316 154.396 293.284 156.179 292.729 157.832C296.401 158.325 297.664 162.328 297.333 166.002C297.003 169.676 294.847 172.886 292.758 175.931C294.701 176.289 295.915 178.281 296.022 180.205C295.995 182.145 295.459 184.045 294.468 185.715C289.669 195.229 281.946 203.118 273.097 209.093C264.247 215.068 254.261 219.245 244.052 222.455C238.224 224.292 231.094 225.539 226.149 229.222C221.205 232.906 216.435 237.402 211.578 241.414C201.796 249.526 191.907 257.512 181.766 265.159C161.6 280.377 140.375 294.232 117.333 304.548C110.669 307.535 103.869 310.223 96.9337 312.543C87.4626 315.714 76.8938 318.17 67.6849 314.303C60.6034 311.325 47.0426 308.28 45.129 273.107C44.041 253.19 47.5769 236.783 52.4922 214.43" fill="white"/>
<path d="M124.55 227.821C124.259 231.272 123.171 234.588 122.879 238.059L120.888 236.077C129.232 232.79 136.78 227.908 144.095 222.793C151.409 217.679 158.899 212.313 166.699 207.624C174.898 202.693 183.3 198.062 191.11 192.512C194.785 189.75 198.319 186.808 201.699 183.695C203.37 182.397 204.965 181.006 206.478 179.528C207.7 178.099 208.705 176.5 209.46 174.781C210.995 171.455 211.996 167.916 213.54 164.59C215.376 160.611 217.57 156.805 220.097 153.221C222.515 149.563 225.402 146.235 228.684 143.32C231.142 141.29 233.862 140.091 237.048 141C238.433 141.365 239.715 142.045 240.792 142.986C241.868 143.927 242.712 145.104 243.255 146.424C244.489 149.962 241.672 153.037 239.865 155.792C237.563 159.321 235.309 163.14 235.154 167.472C235.154 168.274 235.047 169.521 235.989 169.753C237.021 169.873 238.065 169.709 239.01 169.279C240.953 168.612 242.779 167.713 244.635 166.882C251.998 163.566 259.419 159.447 263.975 152.573C266.229 149.17 268.065 145.109 272.106 143.485C273.658 142.945 275.336 142.871 276.931 143.274C278.525 143.676 279.965 144.536 281.072 145.747C282.153 146.827 282.784 148.274 282.84 149.798L280.712 147.864C281.269 147.122 282.008 146.534 282.859 146.157C283.709 145.779 284.642 145.625 285.569 145.708C287.516 146.087 289.303 147.041 290.698 148.444C293.447 150.987 295.128 155.096 293.768 158.741L291.981 156.807C295.711 157.426 298.042 161.013 298.372 164.542C298.8 169.27 296.303 173.243 293.739 176.995L292.019 174.887C293.373 175.272 294.579 176.055 295.478 177.133C296.378 178.211 296.929 179.534 297.061 180.93C297.294 184.256 295.118 187.62 293.447 190.356C289.918 196.066 285.479 201.167 280.304 205.458C269.434 214.594 255.874 220.531 242.264 224.369C238.976 225.2 235.734 226.201 232.55 227.366C229.366 228.753 226.417 230.621 223.808 232.906C217.727 237.866 211.879 243.096 205.808 248.066C193.753 257.918 181.523 267.528 168.71 276.461C156.366 285.2 143.432 293.082 130 300.052C123.249 303.503 116.4 306.675 109.319 309.478C102.237 312.282 95.0197 315.047 87.5593 316.526C80.9247 317.832 74.222 317.812 67.9079 315.231C66.0914 314.486 64.2458 313.79 62.4972 312.891C57.0279 309.988 52.644 305.407 49.9953 299.829C44.8761 289.513 43.9629 277.157 43.8949 265.836C43.8172 251.991 46.1777 238.349 49.024 224.843C49.8108 221.082 50.6365 217.34 51.4622 213.589C51.6273 212.844 53.8421 214.556 53.6673 215.358C50.6851 228.894 47.5765 242.555 46.508 256.429C45.5366 268.736 45.8378 281.76 49.3251 293.69C50.3432 297.443 51.9565 301.011 54.1043 304.258C55.4973 306.305 57.2594 308.079 59.3014 309.488C61.0061 310.618 62.8303 311.558 64.7412 312.292C68.5853 314.032 72.732 315.014 76.9517 315.183C83.9846 315.27 90.8621 313.249 97.4385 310.977C104.612 308.51 111.654 305.68 118.537 302.498C131.651 296.393 144.289 289.322 156.344 281.344C168.613 273.31 180.386 264.569 191.888 255.491C198.014 250.65 204.085 245.729 210.101 240.728C212.909 238.398 215.638 235.971 218.407 233.602C221.059 231.125 223.937 228.898 227.004 226.95C232.473 223.818 238.884 222.783 244.819 220.84C251.672 218.669 258.315 215.886 264.665 212.525C276.176 206.309 286.58 197.443 292.835 185.812C293.71 184.349 294.365 182.766 294.778 181.113C295.04 179.769 295.108 177.449 293.438 177.053C292.855 176.908 291.213 175.67 291.718 174.935C293.719 172.035 295.798 168.951 296.196 165.354C296.374 163.967 296.262 162.558 295.866 161.216C295.762 160.623 295.466 160.08 295.022 159.672C294.577 159.263 294.011 159.011 293.409 158.954C292.835 158.857 291.349 157.697 291.621 157.02C292.106 155.761 292.229 154.392 291.976 153.067C291.724 151.742 291.107 150.513 290.193 149.518C287.833 147.255 284.909 147.584 282.83 149.953C282.199 150.668 280.712 148.56 280.693 148.019C280.635 146.259 279.372 145.612 277.779 145.293C276.874 145.119 275.944 145.128 275.043 145.319C274.142 145.51 273.288 145.879 272.533 146.404C268.968 148.763 267.433 152.989 264.908 156.256C260.158 162.396 253.047 166.108 246.082 169.221C244.304 170.014 242.507 170.894 240.662 171.513C239.909 171.83 239.097 171.981 238.28 171.956C237.464 171.931 236.662 171.73 235.931 171.368C232.395 169.337 232.667 165.122 233.716 161.7C234.901 157.832 237.291 154.535 239.544 151.248C241.021 149.063 242.818 145.293 239.7 143.62C236.834 142.092 233.871 142.982 231.462 144.829C228.15 147.323 225.449 150.833 223.011 154.158C220.344 157.8 218.028 161.685 216.095 165.76C214.56 168.999 213.53 172.431 212.112 175.709C211.476 177.244 210.692 178.714 209.771 180.098C208.663 181.561 207.356 182.863 205.885 183.965C202.486 186.818 199.29 189.911 195.793 192.667C188.497 198.419 180.25 202.935 172.256 207.653C164.65 212.148 157.345 216.992 150.137 222.097C143.162 227.047 136.129 231.997 128.436 235.777C126.558 236.699 124.654 237.54 122.724 238.301C121.986 238.591 120.684 236.967 120.733 236.319C121.024 232.877 122.122 229.551 122.413 226.09C122.413 225.413 124.686 226.979 124.609 227.85L124.55 227.821Z" fill="#092857"/>
<path d="M85.3544 108.989H87.3749C90.8622 108.989 94.3592 109.124 97.8466 109.443C104.646 110.081 111.572 111.483 117.77 114.528C120.816 116.006 123.635 117.907 126.143 120.175C128.567 122.444 130.672 125.03 132.399 127.861C135.689 133.209 138.327 138.927 140.258 144.896C142.364 151.291 143.844 157.874 144.678 164.552C145.543 171.322 145.764 178.159 145.338 184.971C144.955 191.591 143.818 198.146 141.948 204.511C140.229 210.468 137.608 216.131 134.177 221.304C130.952 226.061 130.874 230.914 125.289 233.109C125.123 232.626 121.286 233.012 121.073 232.529C99.2479 227.701 77.1458 224.21 54.8913 222.078C52.7071 221.738 50.4764 221.844 48.3343 222.387C47.3692 222.701 46.487 223.226 45.7525 223.924C45.0179 224.621 44.4496 225.474 44.0893 226.419C46.3624 219.003 69.5789 147.797 85.3544 108.989Z" fill="#FFB321"/>
<path d="M84.4706 107.886C95.7777 107.886 107.648 108.553 117.887 113.794C122.648 116.184 126.843 119.556 130.194 123.684C133.571 128.065 136.354 132.87 138.471 137.974C143.04 148.736 145.724 160.197 146.407 171.861C147.184 183.656 146.213 195.742 142.521 207.034C141.592 209.965 140.456 212.828 139.121 215.6C137.81 218.278 136.207 220.705 134.643 223.257C133.4 225.336 132.594 227.637 131.379 229.725C130.214 231.759 128.388 233.338 126.202 234.202C125.619 234.443 124.677 233.235 124.444 232.935V232.877L125.483 233.912C125.881 234.163 125.483 233.96 125.24 233.96C124.997 233.96 124.764 233.96 124.531 233.96C124.016 233.96 123.501 233.96 122.977 233.912C122.494 233.909 122.019 233.797 121.586 233.584C121.154 233.372 120.775 233.064 120.48 232.684L121.831 233.651C101.24 229.107 80.405 225.741 59.4279 223.567C54.5709 223.074 47.6448 221.633 45.2649 227.328C44.9152 228.149 42.8364 226.303 43.0598 225.568C46.3917 214.759 50.0539 204.037 53.6578 193.315C59.9525 174.587 66.4025 155.908 73.1829 137.345C76.7577 127.561 80.4101 117.796 84.3346 108.138C84.6648 107.335 86.8311 109.172 86.5397 109.907C79.2153 127.919 72.6973 146.25 66.2957 164.6C60.5321 181.101 54.9271 197.656 49.4808 214.266C48.0528 218.607 46.5666 222.967 45.2649 227.328L43.0598 225.568C45.4203 219.931 51.5887 220.734 56.6594 221.246C63.1354 221.891 69.5887 222.648 76.0194 223.518C88.6087 225.268 101.295 227.453 113.865 230.102C115.575 230.45 117.284 230.818 118.984 231.185C119.763 231.255 120.514 231.503 121.18 231.91C121.393 232.075 122.375 232.983 121.238 232.055C120.471 231.417 120.811 231.678 121.306 231.727C123.249 231.881 124.9 231.504 126.163 233.312L124.405 232.046C128.504 230.363 129.796 226.602 131.642 222.948C132.71 220.811 134.148 218.897 135.333 216.828C136.69 214.431 137.877 211.944 138.888 209.383C142.949 199.125 144.522 187.978 144.474 176.995C144.464 165.516 142.56 154.117 138.84 143.253C135.527 133.71 130.748 123.443 121.996 117.719C111.563 110.893 98.3908 110.081 86.2677 110.129C85.9554 110.084 85.6559 109.975 85.3883 109.809C85.1207 109.642 84.8909 109.422 84.7134 109.163C84.5871 108.96 83.8974 107.896 84.4706 107.886Z" fill="#FFB321"/>
<path d="M256.573 184.362C265.299 177.363 272.675 168.846 278.342 159.224C280.063 155.929 281.191 152.359 281.674 148.676" fill="white"/>
<path d="M255.544 183.337C261.833 178.281 267.433 172.431 272.203 165.934C276.089 160.626 280.14 154.564 280.577 147.777C280.577 147.207 281.636 147.884 281.791 148.009C282.218 148.338 282.811 148.976 282.762 149.547C282.335 156.314 278.352 162.367 274.496 167.655C269.684 174.282 264.014 180.248 257.632 185.396C256.972 185.928 254.99 183.811 255.573 183.337H255.544Z" fill="#092857"/>
<path d="M271.174 147.971C270.814 148.634 270.59 149.362 270.513 150.111C270.436 150.861 270.509 151.619 270.727 152.341C270.81 152.62 270.924 152.889 271.067 153.143C271.105 153.213 271.148 153.281 271.193 153.346L271.261 153.453C271.261 153.453 271.562 153.791 271.426 153.646C271.576 153.825 271.757 153.976 271.961 154.091C272.21 154.255 272.478 154.391 272.757 154.497C274.074 154.939 275.506 154.899 276.796 154.383C278.085 153.867 279.147 152.91 279.79 151.683C280.081 151.152 282.296 152.911 281.849 153.733C281.195 154.907 280.186 155.848 278.967 156.422C277.747 156.996 276.377 157.175 275.05 156.933C273.477 156.591 272.03 155.823 270.868 154.714C269.705 153.605 268.874 152.198 268.463 150.649C268.094 149.043 268.325 147.359 269.114 145.911C269.406 145.38 271.63 147.149 271.183 147.971H271.174Z" fill="#092857"/>
<path d="M265.675 194.185C274.786 186.203 282.508 176.779 288.532 166.292C290.338 163.299 291.801 160.115 292.894 156.798" fill="white"/>
<path d="M264.646 193.16C270.396 188.101 275.605 182.464 280.188 176.337C282.458 173.297 284.572 170.144 286.522 166.891C288.695 163.445 290.452 159.755 291.758 155.899C292.01 155.115 294.206 156.865 293.963 157.668C291.661 165.045 287.076 171.88 282.5 178.049C277.843 184.307 272.539 190.062 266.676 195.219C266.045 195.77 264.034 193.672 264.617 193.16H264.646Z" fill="#092857"/>
<path d="M293.788 157.803C293.446 158.625 292.921 159.359 292.255 159.951C291.588 160.543 290.795 160.977 289.936 161.222C289.077 161.466 288.173 161.514 287.293 161.363C286.412 161.211 285.577 160.864 284.851 160.346C283.216 159.252 281.948 157.697 281.208 155.879C280.525 153.962 280.247 151.924 280.392 149.895C280.392 149.315 281.461 150.001 281.606 150.117C281.868 150.292 282.091 150.521 282.258 150.787C282.425 151.054 282.534 151.353 282.578 151.664C282.466 153.277 282.64 154.897 283.093 156.45C283.273 156.984 283.524 157.491 283.841 157.958C284.065 158.333 284.406 158.625 284.812 158.79C287.338 160.162 290.495 158.432 291.612 156.034C291.845 155.531 292.583 156.034 292.826 156.257C293.069 156.479 294.03 157.33 293.797 157.803H293.788Z" fill="#092857"/>
<path d="M272.028 199.087C277.057 196.421 281.35 192.566 284.53 187.862C285.783 186.005 290.708 179.702 292.719 176.134" fill="white"/>
<path d="M270.999 198.062C276.155 195.221 280.562 191.206 283.86 186.344C286.492 182.622 289.436 179.083 291.699 175.109C292.01 174.568 294.225 176.357 293.759 177.159C291.495 181.133 288.552 184.671 285.919 188.394C282.627 193.265 278.219 197.288 273.058 200.131C272.232 200.566 270.455 198.371 270.999 198.081V198.062Z" fill="#092857"/>
<path d="M298.236 167.936C298.088 169.259 297.438 170.476 296.42 171.339C295.913 171.758 295.32 172.062 294.682 172.229C294.044 172.396 293.377 172.422 292.729 172.306C289.707 171.803 286.988 168.554 287.512 165.461C287.6 164.9 288.532 165.528 288.726 165.693C289.105 166.002 289.805 166.659 289.698 167.23C289.596 167.721 289.596 168.228 289.698 168.719C289.75 168.925 289.822 169.125 289.911 169.318L289.999 169.483C289.999 169.415 289.999 169.415 289.999 169.483C290.028 169.536 290.06 169.588 290.096 169.637L290.222 169.782C290.115 169.666 290.106 169.647 290.222 169.724L290.174 169.676C290.3 169.773 290.3 169.782 290.174 169.676C290.333 169.802 290.514 169.897 290.708 169.956C291.139 170.119 291.598 170.191 292.058 170.169C293.085 170.079 294.047 169.631 294.773 168.904C295.5 168.177 295.946 167.218 296.031 166.195C296.031 165.615 297.08 166.282 297.246 166.418C297.653 166.756 298.275 167.385 298.217 167.955L298.236 167.936Z" fill="#092857"/>
<path d="M296.031 185.628C295.673 186.585 295.016 187.402 294.157 187.959C293.684 188.211 293.161 188.357 292.626 188.386C292.09 188.414 291.555 188.324 291.058 188.123C288.707 187.32 286.599 184.662 287.172 182.1C287.289 181.549 288.144 182.158 288.386 182.322C288.68 182.556 288.933 182.837 289.134 183.153C289.295 183.357 289.377 183.61 289.368 183.869C289.3 184.24 289.3 184.62 289.368 184.99L289.426 185.29C289.426 185.29 289.523 185.58 289.426 185.445L289.523 185.677C289.55 185.723 289.572 185.772 289.591 185.822C289.533 185.716 289.533 185.696 289.591 185.774L289.669 185.899C289.572 185.774 289.552 185.745 289.62 185.822C289.647 185.868 289.68 185.91 289.717 185.948L289.63 185.851C289.756 185.977 289.387 185.667 289.63 185.851C289.873 186.035 289.426 185.745 289.63 185.851C289.708 185.899 289.912 185.996 289.717 185.909L290.009 186.035C290.271 186.141 289.882 186.035 290.154 186.083L290.456 186.141C290.802 186.207 291.158 186.199 291.501 186.119C291.844 186.039 292.166 185.889 292.447 185.677C293.065 185.197 293.55 184.568 293.855 183.85C294.079 183.347 294.827 183.85 295.07 184.082C295.373 184.308 295.631 184.59 295.827 184.913C295.934 185.077 296.148 185.416 296.061 185.619L296.031 185.628Z" fill="#092857"/>
<path d="M122.306 228.865C123.657 219.796 125.221 210.766 126.852 201.745C128.883 190.298 130.991 178.87 133.312 167.481C134.284 162.647 135.304 157.813 136.498 153.046C136.693 152.283 138.908 154.013 138.704 154.816C136.314 164.339 134.517 174.017 132.691 183.656C130.566 194.897 128.549 206.157 126.639 217.437C125.9 221.826 125.162 226.225 124.511 230.624C124.405 231.34 122.18 229.715 122.306 228.865Z" fill="#092857"/>
<path d="M11.0814 41.9973L92.4943 45.4392C94.8518 45.5392 97.0873 46.5097 98.7648 48.1614C100.442 49.813 101.441 52.0274 101.567 54.3726L104.637 110.313C104.708 111.584 104.519 112.857 104.083 114.054C103.647 115.252 102.973 116.349 102.1 117.28C101.227 118.211 100.174 118.957 99.0039 119.473C97.834 119.988 96.5714 120.263 95.292 120.281L87.8802 120.387C86.4598 124.787 86.3828 129.508 87.6589 133.952C88.935 138.395 91.5069 142.362 95.0491 145.351C89.2207 142.228 83.2466 139.057 78.3022 134.629C73.9702 130.946 70.8021 126.094 69.1807 120.658L12.4122 121.46C9.91227 121.497 7.49864 120.551 5.69475 118.828C3.89085 117.105 2.84212 114.744 2.77592 112.256L1.18282 51.6945C1.14979 50.3989 1.38444 49.1104 1.87224 47.9087C2.36003 46.7071 3.09056 45.6179 4.01858 44.7088C4.94659 43.7997 6.05232 43.0899 7.26722 42.6235C8.48212 42.157 9.78033 41.9439 11.0814 41.9973Z" fill="#A1CDFF"/>
<path d="M10.4014 40.9144L19.28 41.2915L40.3011 42.181L64.994 43.2251L84.9757 44.0759C88.5504 44.2306 92.8537 43.8729 96.0982 45.5648C97.9395 46.5009 99.5078 47.8924 100.653 49.6059C101.798 51.3194 102.48 53.2971 102.636 55.3491C102.743 57.0313 102.82 58.7233 102.917 60.4152L104.103 82.072L105.336 104.415L105.657 110.342C105.831 111.931 105.629 113.538 105.067 115.036C104.505 116.533 103.6 117.879 102.422 118.966C99.1289 121.866 94.8548 121.402 90.7652 121.46C90.3863 121.46 89.1138 121.267 88.8224 121.46C88.667 121.944 88.5501 122.438 88.4727 122.94C88.2383 123.937 88.0664 124.947 87.9579 125.966C87.5617 129.601 88.0722 133.277 89.4441 136.668C90.6706 139.747 92.6151 142.491 95.1171 144.674C95.4377 144.944 96.0885 145.525 96.0885 146.018C96.0885 146.511 95.8262 146.549 95.4473 146.346C84.1694 140.333 71.6675 133.13 68.0733 119.942L70.0161 121.721L44.6626 122.079L14.0733 122.514C12.517 122.605 10.958 122.388 9.48695 121.874C8.01589 121.36 6.66207 120.561 5.50424 119.522C4.34641 118.483 3.40764 117.225 2.74248 115.822C2.07732 114.418 1.69907 112.898 1.62967 111.347C1.55196 108.911 1.50338 106.513 1.43538 104.038L0.463982 67.9274L0.0851212 53.7055C0.0851212 52.7386 0.0268173 51.8395 0.00739288 50.9114C-0.0447617 49.5771 0.181374 48.2465 0.671494 47.0035C1.16161 45.7605 1.90509 44.632 2.85513 43.6892C3.80515 42.7464 4.94112 42.0096 6.19141 41.5254C7.4417 41.0412 8.77924 40.82 10.1197 40.8757C10.4301 40.9225 10.7274 41.0325 10.9932 41.1989C11.259 41.3653 11.4874 41.5844 11.6642 41.8426C11.771 41.9683 12.4705 43.0608 11.8974 43.0511C9.72305 42.9664 7.58715 43.6395 5.85814 44.9545C4.12913 46.2694 2.9154 48.1436 2.42622 50.2539C2.21935 51.4117 2.15736 52.5905 2.24165 53.7635L2.54279 65.2397L3.51418 101.167L3.8056 112.16C3.76055 113.841 4.15199 115.506 4.94212 116.994C6.37007 119.391 9.10941 120.339 11.7905 120.31C20.9896 120.213 30.1791 120.049 39.3685 119.923L67.7334 119.527H68.2385C68.6961 119.615 69.1201 119.828 69.4631 120.142C69.8062 120.456 70.0548 120.859 70.1813 121.306C73.3384 132.908 84.5774 139.037 94.4663 144.316L94.7965 145.979C87.1516 139.395 83.6546 129.243 86.6465 119.478C86.6527 119.424 86.6773 119.374 86.7161 119.335C86.7549 119.296 86.8057 119.272 86.8602 119.266C89.5413 119.266 92.2709 119.353 94.9423 119.13C97.3112 118.908 99.5059 117.795 101.08 116.019C102.653 114.242 103.488 111.936 103.413 109.568C103.277 105.846 103.005 102.124 102.801 98.4017L100.567 57.6694C100.489 56.3642 100.431 55.0687 100.353 53.8021C100.335 51.8769 99.5568 50.0361 98.1862 48.6774C96.8157 47.3187 94.9629 46.5514 93.0286 46.5413C90.3087 46.377 87.579 46.3093 84.8591 46.1933L43.3221 44.4723L12.2373 43.1574H11.7419C11.0231 43.0608 9.29398 40.8661 10.4014 40.9144Z" fill="#A1CDFF"/>
<path d="M232.23 144.481C231.502 145.693 231.173 147.102 231.29 148.51C231.406 149.918 231.963 151.254 232.881 152.331C233.266 152.713 233.721 153.018 234.221 153.23C234.839 153.468 235.508 153.545 236.164 153.453C237.32 153.317 238.865 152.815 239.253 151.587C239.506 150.794 241.701 152.553 241.458 153.356C241.222 153.916 240.847 154.406 240.368 154.782C239.888 155.157 239.321 155.405 238.719 155.502C237.323 155.852 235.845 155.665 234.581 154.98C233.095 154.191 231.823 153.056 230.873 151.672C229.923 150.289 229.322 148.697 229.122 147.033C228.942 145.423 229.319 143.799 230.19 142.431C230.55 141.87 232.745 143.717 232.249 144.481H232.23Z" fill="#092857"/>
<path d="M84.5872 67.2509H21.2714C20.9605 67.2058 20.6625 67.0965 20.3965 66.93C20.1305 66.7635 19.9025 66.5435 19.727 66.2841C19.6201 66.1487 18.9206 65.0756 19.5035 65.0756H82.7804C83.091 65.1218 83.3886 65.2316 83.6544 65.398C83.9203 65.5644 84.1486 65.7838 84.325 66.0424C84.4318 66.1777 85.1215 67.2509 84.5484 67.2509H84.5872Z" fill="#092857"/>
<path d="M84.5872 84.7985H21.2714C20.9605 84.7534 20.6625 84.6442 20.3965 84.4777C20.1305 84.3111 19.9025 84.0911 19.727 83.8317C19.6201 83.706 18.9206 82.6232 19.5035 82.6232H82.7804C83.091 82.6694 83.3886 82.7792 83.6544 82.9456C83.9203 83.112 84.1486 83.3314 84.325 83.59C84.4318 83.7253 85.1215 84.7985 84.5484 84.7985H84.5872Z" fill="#092857"/>
<path d="M84.5872 102.346H36.707C36.3945 102.302 36.0948 102.193 35.8271 102.026C35.5595 101.86 35.3297 101.64 35.1527 101.379C35.0459 101.244 34.3562 100.171 34.9293 100.171H82.7804C83.0912 100.217 83.389 100.326 83.6549 100.493C83.9208 100.659 84.149 100.879 84.325 101.138C84.4318 101.273 85.1215 102.346 84.5484 102.346H84.5872Z" fill="#092857"/>
<path d="M285.346 245.571C285.035 245.528 284.736 245.419 284.47 245.253C284.204 245.086 283.976 244.865 283.802 244.605C283.685 244.469 282.995 243.396 283.569 243.396C283.881 243.439 284.182 243.548 284.449 243.714C284.717 243.881 284.947 244.102 285.123 244.363C285.23 244.489 285.919 245.562 285.346 245.562V245.571Z" fill="#092857"/>
<path d="M281.645 302.479C281.577 301.381 281.577 300.28 281.645 299.182C281.703 296.784 281.781 294.348 281.868 291.998C282.131 284.409 282.432 276.809 282.723 269.21C283.086 260.058 283.449 250.899 283.811 241.733C284.135 233.76 284.443 225.784 284.734 217.804C284.88 213.618 285.132 209.422 285.093 205.236C285.093 204.888 285.093 205.236 285.093 205.042C284.987 203.979 287.201 205.642 287.279 206.405C287.347 207.503 287.347 208.604 287.279 209.702C287.221 212.09 287.143 214.536 287.056 216.876C286.79 224.475 286.502 232.075 286.191 239.674L285.113 267.141C284.789 275.127 284.465 283.107 284.141 291.08C283.996 295.266 283.743 299.462 283.782 303.648C283.782 303.997 283.782 303.648 283.782 303.842C283.889 304.905 281.674 303.242 281.596 302.479H281.645Z" fill="#092857"/>
<path d="M36.2795 14.8392C36.2795 26.1607 42.5838 32.242 53.7646 32.242C42.7101 32.242 36.2795 38.043 36.2795 49.6448C36.2795 38.3137 30.5288 32.242 18.7943 32.242C30.5288 32.2227 36.2795 25.9384 36.2795 14.8392Z" fill="white"/>
<path d="M37.3871 15.7192C37.3871 19.7798 38.1933 24.4206 41.2727 27.3791C44.352 30.3375 48.8496 31.1013 52.9295 31.1207C53.2412 31.1673 53.5401 31.2772 53.8074 31.4435C54.0748 31.6098 54.3049 31.829 54.4837 32.0875C54.5905 32.2228 55.2802 33.296 54.7071 33.296C50.1318 33.296 45.3525 34.2628 41.9721 37.579C38.5916 40.8952 37.4745 45.8164 37.4551 50.4668C37.4551 51.0469 36.3768 50.3508 36.2408 50.2444C35.9791 50.0687 35.7573 49.8401 35.59 49.5737C35.4226 49.3072 35.3134 49.0087 35.2694 48.6975C35.2694 44.6852 34.5797 40.0444 31.6267 37.0956C28.6736 34.1468 23.8554 33.3637 19.795 33.3444C19.4822 33.3011 19.182 33.1927 18.9142 33.0261C18.6464 32.8595 18.4169 32.6385 18.2408 32.3775C18.1339 32.2422 17.4443 31.1787 18.0174 31.169C22.6898 31.169 27.6148 30.2022 31.005 26.712C34.3952 23.2217 35.182 18.5036 35.182 13.9499C35.182 13.3698 36.2602 14.0659 36.3962 14.1723C36.658 14.348 36.8797 14.5765 37.0471 14.843C37.2144 15.1095 37.3236 15.408 37.3676 15.7192C37.3676 20.3599 36.3185 25.2811 32.9575 28.7133C29.5965 32.1455 24.448 33.2863 19.6882 33.3154L17.9105 31.1207C23.2046 31.1207 28.4988 32.4065 32.3261 36.2641C36.1534 40.1218 37.3385 45.2749 37.3676 50.4861L35.1625 48.7168C35.1625 43.9794 36.2991 38.9809 39.8253 35.5487C43.3515 32.1165 48.1793 31.1497 52.842 31.1207L54.61 33.3154C49.3644 33.3154 44.2063 31.9328 40.3984 28.1719C36.5905 24.4109 35.182 19.1997 35.1528 13.9499C35.1528 13.3698 36.2311 14.0756 36.3671 14.1723C36.6366 14.3445 36.8667 14.5712 37.0424 14.8377C37.2182 15.1042 37.3356 15.4045 37.3871 15.7192Z" fill="#092857"/>
<path d="M30.0335 153.076C26.8344 153.192 23.6417 153.192 20.4555 153.076C20.1436 153.029 19.8445 152.92 19.5771 152.753C19.3097 152.587 19.0796 152.368 18.9012 152.109C18.8041 151.983 18.1047 150.881 18.6778 150.9C21.8705 151.023 25.0632 151.023 28.2558 150.9C28.5687 150.943 28.8688 151.052 29.1366 151.218C29.4045 151.385 29.6339 151.606 29.81 151.867C29.9266 152.012 30.6066 153.056 30.0335 153.076Z" fill="#092857"/>
<path d="M33.3554 150.881C36.7812 150.881 40.2135 150.858 43.6523 150.813C43.9634 150.858 44.2616 150.967 44.5277 151.133C44.7938 151.3 45.0217 151.52 45.1968 151.78C45.3134 151.925 45.9933 152.979 45.4202 152.988C41.9944 153.046 38.5622 153.072 35.1234 153.066C34.8128 153.02 34.5152 152.91 34.2494 152.743C33.9836 152.577 33.7552 152.358 33.5788 152.099C33.472 151.964 32.7823 150.89 33.3554 150.89V150.881Z" fill="#092857"/>
<path d="M30.762 148.957C30.5969 145.515 30.5677 142.063 30.6746 138.622C30.6746 138.041 31.7431 138.728 31.8888 138.844C32.151 139.019 32.3731 139.248 32.5405 139.514C32.7079 139.781 32.8168 140.079 32.8602 140.391C32.7534 143.697 32.7728 147.014 32.9282 150.32C32.9282 150.929 32.3551 150.716 31.9568 150.504C31.5585 150.291 30.7232 149.537 30.694 148.957H30.762Z" fill="#092857"/>
<path d="M32.6268 155.019C33.007 158.413 32.9449 161.841 32.4423 165.219C32.3646 165.789 31.4126 165.142 31.228 164.997C30.8395 164.678 30.1595 164.03 30.2566 163.45C30.7437 160.204 30.809 156.909 30.4509 153.646C30.3829 153.027 31.0532 153.269 31.4223 153.472C32.0289 153.805 32.4816 154.36 32.6851 155.019H32.6268Z" fill="#092857"/>
<path d="M479.276 205.719H361.047C356.074 205.719 350.955 209.441 349.624 214.024L321.453 310.842C320.122 315.424 323.075 319.137 328.049 319.137H446.288C451.261 319.137 456.371 315.424 457.711 310.842L485.911 214.024C487.213 209.441 484.26 205.719 479.276 205.719Z" fill="#092857"/>
<path d="M480.17 206.821H362.631C357.939 206.821 353.208 209.258 351.188 213.647C350.639 215.031 350.191 216.453 349.847 217.901L343.611 239.355L334.489 270.709L326.194 299.201C324.989 303.368 323.697 307.525 322.561 311.721C322.286 312.489 322.176 313.307 322.24 314.12C322.303 314.933 322.539 315.723 322.93 316.439C323.814 317.725 325.727 318.015 327.165 318.044H442.635C443.905 318.093 445.176 318.073 446.443 317.986C448.84 317.703 451.1 316.72 452.937 315.161C454.775 313.602 456.108 311.538 456.769 309.227L461.743 292.143L470.485 262.007L479.335 231.61L484.444 214.034C484.532 213.734 484.629 213.444 484.707 213.144C485.211 211.675 485.127 210.068 484.473 208.658C483.648 207.189 481.637 206.841 480.102 206.821C479.79 206.775 479.492 206.665 479.224 206.498C478.957 206.332 478.727 206.113 478.548 205.854C478.451 205.729 477.751 204.636 478.325 204.646C483.939 204.743 488.437 209.577 486.834 215.184C486.342 216.905 485.84 218.626 485.328 220.347L478.169 244.962L468.756 277.303L461.043 303.822L459.052 310.668C458.945 311.016 458.848 311.383 458.741 311.731C458.167 313.439 457.226 315.003 455.983 316.312C454.74 317.621 453.224 318.645 451.543 319.311C449.45 320.087 447.216 320.417 444.986 320.278H328.544C326.738 320.238 324.987 319.654 323.521 318.603C322.056 317.552 320.945 316.083 320.336 314.39C319.598 312.108 320.336 309.991 320.948 307.825L326.99 287.077L336.219 255.346L344.709 226.235C345.981 221.875 347.186 217.485 348.526 213.144C350.09 208.059 355.268 204.646 360.523 204.626H478.392C478.705 204.671 479.004 204.781 479.272 204.947C479.539 205.114 479.769 205.334 479.947 205.593C480.083 205.748 480.743 206.821 480.17 206.821Z" fill="#092857"/>
<path d="M391.945 270.051C388.76 265.215 391.433 257.865 397.916 253.634C404.399 249.404 412.237 249.895 415.423 254.731C418.608 259.567 415.935 266.917 409.452 271.147C402.969 275.378 395.131 274.887 391.945 270.051Z" fill="white"/>
<path d="M389.956 261.543C391.666 255.936 396.756 251.653 402.361 250.203C407.616 248.839 413.484 250.367 416.427 255.162C419.37 259.958 417.33 265.797 413.678 269.587C409.695 273.716 403.264 276.355 397.553 274.683C396.186 274.318 394.905 273.689 393.783 272.831C392.661 271.973 391.72 270.903 391.014 269.682C390.309 268.462 389.852 267.114 389.67 265.718C389.489 264.321 389.586 262.903 389.956 261.543C390.17 260.77 392.375 262.51 392.152 263.313C391.474 265.372 391.574 267.606 392.433 269.597C392.897 270.422 393.544 271.131 394.325 271.669C395.107 272.207 396.001 272.56 396.941 272.701C401.904 273.783 407.237 271.608 410.851 268.273C414.066 265.324 416.786 260.47 415.261 256.033C413.736 251.595 407.976 251.392 404.139 252.388C398.747 253.79 393.803 257.928 392.152 263.313C391.918 264.096 389.743 262.336 389.956 261.543Z" fill="white"/>
<path d="M229.889 304.219H327C331.072 304.219 334.373 307.502 334.373 311.552C334.373 315.602 331.072 318.885 327 318.885H229.889C225.817 318.885 222.516 315.602 222.516 311.552C222.516 307.502 225.817 304.219 229.889 304.219Z" fill="#092857"/>
<path d="M229.005 303.117H322.949C324.183 303.117 325.426 303.117 326.66 303.117C333.848 303.513 338.899 313.471 332.537 318.364C330.526 319.91 328.311 319.959 325.941 319.959H230.948C225.44 319.959 220.262 314.458 221.642 308.85C222.065 307.216 223.014 305.765 224.343 304.717C225.673 303.67 227.31 303.084 229.005 303.049C229.316 303.093 229.615 303.202 229.881 303.368C230.147 303.535 230.375 303.756 230.549 304.016C230.666 304.151 231.356 305.205 230.773 305.224C228.966 305.236 227.23 305.924 225.909 307.151C224.588 308.378 223.779 310.054 223.643 311.847C223.551 312.594 223.623 313.352 223.854 314.069C224.084 314.786 224.468 315.445 224.978 316C225.488 316.556 226.113 316.995 226.81 317.288C227.507 317.581 228.259 317.72 229.015 317.696C230.161 317.696 231.317 317.696 232.463 317.696H311.846C316.538 317.696 321.239 317.696 325.931 317.696C327.832 317.742 329.675 317.048 331.07 315.763C333.421 313.52 334.353 308.927 331.643 306.539C330.001 305.099 327.816 305.253 325.815 305.253H230.792C230.482 305.207 230.184 305.097 229.918 304.931C229.652 304.765 229.424 304.545 229.248 304.287C229.121 304.19 228.432 303.117 229.005 303.117Z" fill="#092857"/>
<path d="M367.342 24.585L462.704 21.9359C463.975 21.9074 465.239 22.1331 466.421 22.5998C467.603 23.0665 468.679 23.7645 469.585 24.6526C470.491 25.5407 471.208 26.6007 471.695 27.7699C472.182 28.939 472.428 30.1936 472.418 31.4591L471.593 131.612C471.569 134.104 470.56 136.486 468.783 138.242C467.006 139.998 464.606 140.985 462.102 140.99L398.145 141.068C395.961 147.339 391.571 152.612 385.787 155.915C380.003 159.219 373.214 160.329 366.672 159.041C371.257 158.161 374.967 154.516 376.784 150.243C377.952 147.333 378.527 144.22 378.474 141.087H370.169C367.692 141.09 365.311 140.13 363.536 138.41C361.761 136.69 360.732 134.348 360.668 131.883L358.065 34.2338C358.013 31.7309 358.96 29.3094 360.699 27.5006C362.438 25.6918 364.827 24.6433 367.342 24.585Z" fill="#0A7AF9"/>
<path d="M366.429 23.4827L387.129 22.9123L428.453 21.7618L459.207 20.911L461.636 20.8433C464.777 20.8356 467.794 22.0676 470.024 24.2695C472.255 26.4714 473.517 29.4635 473.535 32.5902C473.535 33.441 473.535 34.2821 473.535 35.1329L473.283 65.3364L472.943 106.813L472.739 131.883C472.739 137.461 468.63 142.044 462.859 142.083C459.46 142.083 456.06 142.083 452.67 142.083H412.726H400.097C399.893 142.083 399.301 141.976 399.126 142.083C398.951 142.189 398.805 143.108 398.718 143.311C398.147 144.67 397.475 145.986 396.707 147.246C393.739 152.119 389.327 155.959 384.079 158.238C378.835 160.515 373.024 161.172 367.4 160.124C366.924 160.037 364.913 158.132 365.826 157.948C369.294 157.144 372.311 155.029 374.239 152.051C376.619 148.57 377.376 144.316 377.415 140.207L379.358 142.141C374.365 142.141 368.673 143.05 364.398 139.859C362.972 138.831 361.795 137.497 360.954 135.956C360.113 134.415 359.631 132.706 359.541 130.955V129.63L358.968 108.205L358.046 73.5061L357.239 43.1769L357.016 34.8622C357.016 34.3788 357.016 33.8954 357.016 33.4023C356.984 31.811 357.341 30.2358 358.057 28.8125C358.773 27.3893 359.826 26.1607 361.125 25.2327C362.694 24.1419 364.545 23.5212 366.458 23.4441C366.769 23.488 367.068 23.5968 367.334 23.7634C367.6 23.93 367.828 24.1506 368.002 24.4109C368.129 24.5559 368.809 25.5904 368.236 25.6194C366.232 25.6816 364.301 26.3821 362.728 27.6177C361.154 28.8534 360.02 30.559 359.493 32.4838C359.249 33.542 359.154 34.6288 359.211 35.713L359.386 42.2004L360.124 69.8418L361.028 103.797L361.688 128.654C361.688 130.007 361.688 131.361 361.795 132.714C361.802 134.531 362.495 136.278 363.737 137.609C364.979 138.94 366.678 139.757 368.498 139.898C370.763 140.013 373.032 140.013 375.298 139.898H377.6C378.085 139.981 378.532 140.211 378.88 140.557C379.228 140.904 379.459 141.349 379.543 141.831C379.484 149.566 375.948 158.267 367.536 159.998L365.962 157.813C372.426 159.077 379.13 157.975 384.842 154.71C390.553 151.445 394.888 146.236 397.047 140.043C397.053 139.99 397.076 139.94 397.113 139.902C397.15 139.864 397.198 139.838 397.251 139.83H421.313H456.477C459.838 139.83 463.491 140.236 466.415 138.244C467.674 137.381 468.703 136.226 469.414 134.878C470.124 133.531 470.495 132.032 470.495 130.51C470.495 129.823 470.495 129.137 470.495 128.451L470.718 101.94L471.039 63.0548L471.34 34.3401C471.34 31.9908 471.641 29.3803 470.67 27.176C469.407 24.2755 466.483 22.9703 463.433 23.038L461.257 23.096L433.708 23.8598L394.764 24.9426L369.508 25.6387H368.255C367.942 25.5955 367.642 25.4871 367.374 25.3205C367.106 25.1539 366.877 24.9329 366.701 24.6719C366.574 24.5559 365.885 23.5021 366.429 23.4827Z" fill="#0A7AF9"/>
<path d="M297.528 309.711H308.592C309.316 309.711 309.903 310.295 309.903 311.016V311.025C309.903 311.746 309.316 312.331 308.592 312.331H297.528C296.803 312.331 296.216 311.746 296.216 311.025V311.016C296.216 310.295 296.803 309.711 297.528 309.711Z" fill="white"/>
<path d="M309.466 313.433H299.995C299.348 313.481 298.699 313.481 298.052 313.433C296.401 313.162 293.632 309.971 295.993 308.811C296.653 308.61 297.348 308.55 298.033 308.637H305.717C306.506 308.579 307.298 308.579 308.087 308.637C308.766 308.794 309.391 309.13 309.895 309.609C310.4 310.089 310.765 310.695 310.953 311.364C311.018 311.598 311.03 311.844 310.988 312.083C310.946 312.323 310.851 312.55 310.709 312.748C310.568 312.946 310.384 313.111 310.17 313.229C309.957 313.348 309.72 313.417 309.476 313.433C308.874 313.433 308.281 312.882 307.931 312.466C307.805 312.311 307.135 311.296 307.708 311.257C307.901 311.262 308.091 311.218 308.261 311.128C308.432 311.038 308.576 310.906 308.679 310.745C308.754 310.589 308.807 310.423 308.835 310.252C308.835 310.126 308.835 310.145 308.835 310.184C308.961 309.759 309.865 310.755 309.534 310.842C309.534 310.842 309.282 310.842 309.185 310.842H300.131C299.587 310.842 299.033 310.842 298.48 310.842C298.293 310.837 298.107 310.874 297.936 310.948C297.786 311.028 297.657 311.14 297.557 311.277C297.411 311.48 297.46 311.75 297.353 311.934C297.353 311.876 297.353 311.992 297.353 311.934C297.353 311.876 296.634 311.199 296.605 311.228C296.576 311.257 296.712 311.228 296.683 311.228H296.848C298.674 311.286 300.51 311.228 302.336 311.228H307.727C308.039 311.272 308.337 311.381 308.603 311.548C308.87 311.714 309.097 311.935 309.272 312.195C309.35 312.359 310.088 313.433 309.466 313.433Z" fill="white"/>
<path d="M278.051 309.711H289.115C289.84 309.711 290.427 310.295 290.427 311.016V311.025C290.427 311.746 289.84 312.331 289.115 312.331H278.051C277.327 312.331 276.74 311.746 276.74 311.025V311.016C276.74 310.295 277.327 309.711 278.051 309.711Z" fill="white"/>
<path d="M289.999 313.433H280.518C279.872 313.481 279.222 313.481 278.576 313.433C276.924 313.162 274.156 309.971 276.526 308.811C277.185 308.607 277.881 308.548 278.566 308.637H286.24C287.029 308.579 287.821 308.579 288.61 308.637C289.29 308.794 289.914 309.13 290.419 309.609C290.923 310.089 291.288 310.695 291.476 311.364C291.541 311.597 291.554 311.842 291.512 312.081C291.471 312.32 291.376 312.547 291.236 312.745C291.095 312.943 290.912 313.107 290.7 313.226C290.488 313.345 290.252 313.416 290.009 313.433C289.397 313.433 288.804 312.882 288.455 312.466C288.328 312.311 287.658 311.296 288.231 311.257C288.424 311.262 288.614 311.218 288.785 311.128C288.955 311.038 289.099 310.906 289.203 310.745C289.278 310.589 289.33 310.423 289.358 310.252C289.358 310.126 289.358 310.145 289.358 310.184C289.484 309.759 290.388 310.755 290.058 310.842C290.058 310.842 289.805 310.842 289.708 310.842H280.654C280.11 310.842 279.557 310.842 279.003 310.842C278.816 310.837 278.63 310.874 278.459 310.948C278.309 311.028 278.18 311.14 278.08 311.277C277.934 311.48 277.983 311.75 277.876 311.934C277.876 311.876 277.876 311.992 277.876 311.934C277.876 311.876 277.157 311.199 277.128 311.228C277.099 311.257 277.245 311.228 277.206 311.228H277.371C279.197 311.286 281.033 311.228 282.859 311.228H288.251C288.562 311.272 288.86 311.381 289.127 311.548C289.393 311.714 289.621 311.935 289.795 312.195C289.873 312.359 290.572 313.433 289.999 313.433Z" fill="white"/>
<path d="M339.123 110.535C339.123 117.081 342.766 120.58 349.216 120.58C342.834 120.58 339.123 123.955 339.123 130.635C339.123 124.08 335.801 120.58 329.02 120.58C335.801 120.58 339.123 116.984 339.123 110.535Z" fill="white"/>
<path d="M340.201 111.415C340.201 113.504 340.561 116.066 342.144 117.613C343.727 119.16 346.243 119.469 348.322 119.488C348.634 119.533 348.934 119.642 349.202 119.808C349.47 119.975 349.699 120.195 349.876 120.455C349.983 120.6 350.673 121.664 350.1 121.664C347.467 121.664 344.738 122.234 342.795 124.119C340.852 126.005 340.201 128.837 340.201 131.486C340.201 132.067 339.133 131.37 338.987 131.264C338.724 131.089 338.502 130.861 338.334 130.594C338.167 130.328 338.058 130.029 338.015 129.717C338.015 127.668 337.724 125.076 336.199 123.52C334.674 121.963 331.983 121.664 329.904 121.644C329.592 121.6 329.292 121.491 329.024 121.324C328.757 121.158 328.527 120.938 328.35 120.677C328.243 120.542 327.554 119.469 328.127 119.469C330.817 119.469 333.625 118.898 335.577 116.916C337.53 114.934 337.996 112.247 338.015 109.627C338.015 109.047 339.084 109.743 339.23 109.859C339.492 110.032 339.714 110.259 339.881 110.524C340.049 110.789 340.158 111.086 340.201 111.396C340.201 114.103 339.589 116.965 337.627 118.966C335.665 120.967 332.663 121.635 329.856 121.654L328.078 119.469C329.702 119.394 331.325 119.645 332.85 120.206C334.376 120.768 335.772 121.628 336.957 122.737C339.317 125.096 340.143 128.248 340.162 131.496L337.967 129.727C337.967 126.971 338.637 124.052 340.687 122.06C342.736 120.068 345.544 119.488 348.273 119.469L350.051 121.654C348.436 121.762 346.816 121.526 345.301 120.96C343.785 120.394 342.409 119.511 341.264 118.372C340.12 117.233 339.233 115.863 338.664 114.355C338.096 112.846 337.858 111.234 337.967 109.627C337.967 109.047 339.045 109.752 339.181 109.859C339.454 110.029 339.687 110.257 339.863 110.525C340.039 110.794 340.155 111.098 340.201 111.415Z" fill="#092857"/>
<path d="M452.31 104.183H378.882C378.571 104.138 378.273 104.029 378.007 103.863C377.741 103.696 377.513 103.476 377.338 103.217C377.231 103.081 376.541 102.008 377.114 102.008H450.542C450.853 102.053 451.151 102.162 451.417 102.329C451.683 102.495 451.911 102.715 452.087 102.975C452.194 103.11 452.893 104.183 452.31 104.183Z" fill="#092857"/>
<path d="M452.31 121.731H396.785C396.473 121.687 396.173 121.578 395.905 121.411C395.638 121.245 395.408 121.024 395.231 120.764C395.124 120.629 394.434 119.556 395.007 119.556H450.542C450.853 119.6 451.152 119.709 451.418 119.876C451.684 120.042 451.912 120.263 452.087 120.523C452.194 120.658 452.893 121.731 452.31 121.731Z" fill="#092857"/>
<path d="M377.804 41.2239H451.494V85.4947H377.804V41.2239Z" fill="white"/>
<path d="M376.91 40.1216H450.61C451.101 40.2101 451.552 40.4485 451.9 40.8037C452.248 41.1589 452.476 41.6133 452.553 42.1036V86.3744C452.547 86.4287 452.522 86.4792 452.484 86.5179C452.445 86.5565 452.394 86.5809 452.34 86.5871H378.649C378.149 86.5092 377.687 86.2753 377.329 85.9191C376.971 85.5629 376.736 85.1028 376.658 84.6051V40.3343C376.658 39.7542 377.736 40.46 377.872 40.5664C378.134 40.7401 378.355 40.9669 378.523 41.2318C378.69 41.4967 378.799 41.7938 378.843 42.1036V86.3744L376.852 84.4407H449.707C449.942 84.4069 450.181 84.4069 450.416 84.4407C450.63 84.5278 450.416 84.7115 450.329 84.5471C450.284 84.2264 450.284 83.901 450.329 83.5803V40.3343L452.272 42.3163H378.581C378.27 42.2724 377.971 42.1636 377.705 41.997C377.439 41.8304 377.211 41.6097 377.037 41.3495C377.037 41.1948 376.337 40.1216 376.91 40.1216Z" fill="white"/>
<path d="M443.373 84.2571L432.561 61.3724L431.007 58.0659L433.047 59.5354L413.25 82.9132L410.414 86.2487C409.928 86.8288 407.8 84.8565 408.354 84.1991L428.151 60.831L430.988 57.4858C431.512 56.867 432.863 58.588 433.028 58.9553L443.839 81.84L445.403 85.1466C445.656 85.6976 445.306 85.8523 444.83 85.7073C444.183 85.4166 443.665 84.901 443.373 84.2571Z" fill="#092857"/>
<path d="M413.134 78.8042L404.945 61.469L406.994 62.9386L390.228 82.7295L387.858 85.5332C387.372 86.1037 385.245 84.1314 385.798 83.4836L402.555 63.6927L404.935 60.889C405.45 60.2702 406.8 61.9911 406.975 62.3585L415.164 79.6936C415.416 80.2447 415.076 80.3994 414.591 80.2544C413.944 79.9637 413.426 79.4481 413.134 78.8042Z" fill="#092857"/>
<path d="M410.569 52.5841C410.45 51.1859 410.82 49.7896 411.617 48.6319C412.413 47.4742 413.588 46.6264 414.941 46.2321C418.088 45.2073 421.303 46.6091 423.392 49.0069C424.425 50.1139 425.089 51.5125 425.29 53.0102C425.492 54.5079 425.223 56.031 424.519 57.3699C423.784 58.6206 422.657 59.5974 421.312 60.1509C419.966 60.7043 418.476 60.804 417.068 60.4347C415.337 59.8945 413.8 58.8647 412.646 57.4708C411.493 56.0769 410.771 54.379 410.569 52.5841C410.511 51.9654 411.162 52.207 411.492 52.4101C412.101 52.7408 412.554 53.2964 412.755 53.957C412.84 55.0606 413.212 56.1234 413.833 57.0412C414.02 57.3077 414.257 57.5345 414.533 57.7083C414.917 57.951 415.336 58.1336 415.776 58.2497C416.925 58.5237 418.129 58.4543 419.239 58.0501C420.348 57.646 421.313 56.925 422.013 55.9776C422.697 55.0921 423.103 54.0253 423.181 52.9108C423.259 51.7963 423.004 50.6838 422.45 49.7127C422.278 49.4225 422.05 49.1694 421.779 48.9682C421.399 48.6935 420.98 48.4753 420.536 48.3204C419.393 47.9771 418.173 47.9771 417.029 48.3204C415.772 48.6234 414.659 49.3505 413.88 50.3782C413.101 51.4059 412.703 52.6705 412.755 53.957C412.804 54.5661 412.172 54.3437 411.842 54.131C411.512 53.9183 410.618 53.1739 410.569 52.5841Z" fill="#092857"/>
<path d="M335.159 59.5355C328.599 59.7675 322.036 59.7675 315.469 59.5355C315.159 59.4887 314.861 59.3787 314.596 59.2123C314.33 59.046 314.102 58.8268 313.925 58.5686C313.828 58.4526 313.128 57.3408 313.701 57.3601C320.255 57.6244 326.815 57.6244 333.382 57.3601C333.695 57.4021 333.996 57.5101 334.264 57.6768C334.532 57.8435 334.761 58.0651 334.936 58.3269C335.053 58.472 335.733 59.5065 335.159 59.5355Z" fill="#092857"/>
<path d="M343.854 57.3408C350.906 57.3408 357.958 57.2925 365.011 57.1958C365.322 57.2403 365.62 57.3493 365.886 57.5159C366.152 57.6825 366.38 57.9028 366.555 58.1626C366.672 58.3076 367.361 59.3615 366.788 59.3712C359.736 59.4872 352.684 59.5355 345.631 59.5162C345.319 59.4718 345.019 59.3628 344.751 59.1963C344.484 59.0298 344.254 58.8095 344.077 58.5493C343.97 58.414 343.281 57.3408 343.854 57.3408Z" fill="#092857"/>
<path d="M338.744 52.9418C338.414 45.942 338.359 38.9357 338.579 31.923C338.579 31.3429 339.648 32.0391 339.793 32.1454C340.056 32.3202 340.278 32.5485 340.446 32.8152C340.613 33.0818 340.722 33.3808 340.765 33.6923C340.551 40.5697 340.603 47.4437 340.92 54.3146C340.969 55.4071 338.764 53.7152 338.734 52.9418H338.744Z" fill="#092857"/>
<path d="M340.279 63.9634C341.044 70.8674 340.913 77.8406 339.89 84.7114C339.784 85.4268 337.559 83.8026 337.685 82.9518C338.7 76.2103 338.837 69.3668 338.093 62.5905C338.025 61.9717 338.686 62.2231 339.016 62.4165C339.623 62.7496 340.075 63.3043 340.279 63.9634Z" fill="#092857"/>
<path d="M468.057 192.396L485.853 170.739C486.319 170.169 488.456 172.132 487.912 172.799L470.116 194.456C469.65 195.026 467.513 193.063 468.057 192.396Z" fill="#092857"/>
<path d="M462.335 179.905C469.639 169.945 475.828 159.22 480.792 147.922C481.151 147.11 483.308 148.976 482.997 149.692C477.98 161.086 471.733 171.904 464.365 181.954C463.948 182.525 461.772 180.62 462.296 179.905H462.335Z" fill="#092857"/>
<path d="M451.446 188.896C449.728 179.831 449.151 170.588 449.726 161.381C449.726 160.8 450.785 161.487 450.941 161.603C451.368 161.941 451.96 162.57 451.912 163.15C451.348 172.225 451.922 181.335 453.622 190.269C453.738 190.907 452.99 190.617 452.65 190.443C452.046 190.107 451.594 189.554 451.387 188.896H451.446Z" fill="#092857"/>
<path d="M28.6539 320.5H10.7509C10.4398 320.456 10.1416 320.346 9.87552 320.18C9.60946 320.013 9.3815 319.793 9.20644 319.533C9.09959 319.398 8.40992 318.325 8.98304 318.325H26.8762C27.1887 318.369 27.4884 318.478 27.7561 318.645C28.0237 318.811 28.2534 319.031 28.4304 319.292C28.5373 319.427 29.227 320.5 28.6539 320.5Z" fill="#092857"/>
<path d="M222.885 320.5H51.6957C49.374 320.5 47.0524 320.5 44.7405 320.5H44.4296C44.1185 320.456 43.8202 320.346 43.5542 320.18C43.2881 320.013 43.0601 319.793 42.8851 319.533C42.7782 319.398 42.0885 318.325 42.6617 318.325H213.851C216.163 318.325 218.485 318.325 220.807 318.325H221.108C221.42 318.369 221.72 318.478 221.987 318.645C222.255 318.811 222.485 319.031 222.662 319.292C222.769 319.427 223.458 320.5 222.885 320.5Z" fill="#092857"/>
</svg>
