<svg width="488" height="323" viewBox="0 0 488 323" fill="none" xmlns="http://www.w3.org/2000/svg">
<path d="M272.813 102.474C270.676 98.3948 273.843 93.5132 277.312 90.4903C280.781 87.4674 285.086 84.5326 285.805 79.9738C286.272 77.1857 285.271 74.2705 285.931 71.5215C286.903 67.6084 290.848 65.2214 292.918 61.7387C295.726 57.0234 294.677 51.0559 295.124 45.5678C295.557 40.2956 297.443 35.2497 300.569 30.9977C303.696 26.7457 307.938 23.4563 312.82 21.4994C317.702 19.5426 323.03 18.996 328.203 19.9211C333.377 20.8462 338.192 23.2063 342.106 26.7359C344.292 28.6925 346.177 31.0404 348.626 32.6741C354.145 36.372 361.258 35.8926 367.915 36.0687C374.571 36.2448 382.082 37.8198 385.328 43.6308C388.243 48.9037 386.513 55.7712 389.049 61.2398C391.77 67.1095 398.446 69.7117 403.625 73.4683C410.449 78.3905 415.153 85.7469 416.778 94.0388C418.403 102.331 416.827 110.935 412.37 118.097L272.813 102.474Z" fill="#092857"/>
<path d="M273.843 101.437C271.754 97.1426 275.282 92.9556 278.381 90.3436C281.481 87.7316 284.678 85.2272 286.233 81.5391C288.021 77.2933 285.436 72.3824 288.176 68.4595C289.36 66.9494 290.622 65.5028 291.956 64.1257C293.34 62.5773 294.407 60.7687 295.095 58.8039C296.523 54.519 295.93 49.9407 296.212 45.5091C296.457 41.4289 297.62 37.458 299.613 33.8969C301.588 30.3457 304.368 27.3138 307.726 25.0479C311.085 22.782 314.927 21.3459 318.94 20.8565C323.131 20.3664 327.378 20.8138 331.377 22.1666C335.377 23.5195 339.03 25.7444 342.077 28.6827C343.659 30.3723 345.357 31.9479 347.159 33.398C348.862 34.6146 350.767 35.5157 352.785 36.0589C357.177 37.2818 361.793 37.1155 366.301 37.2035C373.706 37.3503 383.015 38.9937 385.405 47.27C386.639 51.5353 386.066 56.0745 387.349 60.3691C388.505 64.2236 391.236 67.0116 394.471 69.2519C397.707 71.4921 401.409 73.3704 404.519 75.9629C407.767 78.6883 410.474 82.0075 412.497 85.7456C414.657 89.757 415.962 94.1787 416.327 98.7272C416.691 103.276 416.108 107.851 414.615 112.159C413.863 114.321 412.886 116.397 411.7 118.352L413.449 117.06L399.437 115.446L366.136 111.719L325.762 107.199L290.877 103.286L279.421 102.005C277.623 101.809 275.787 101.476 273.97 101.398H273.727C272.872 101.3 271.249 103.541 271.958 103.619L285.931 105.184L319.232 108.911L359.597 113.402L394.481 117.315L405.938 118.596C407.735 118.792 409.581 119.144 411.389 119.203H411.632C412.302 119.281 413.08 118.42 413.381 117.921C415.811 114.098 417.449 109.82 418.197 105.344C418.946 100.868 418.788 96.2861 417.735 91.8727C416.681 87.4594 414.753 83.3057 412.067 79.6608C409.38 76.0158 405.99 72.9545 402.099 70.6606C398.65 68.4888 394.899 66.5029 392.198 63.3627C389.078 59.743 388.826 55.2136 388.437 50.6451C388.058 46.3113 387.086 42.0655 383.578 39.209C380.556 36.7437 376.602 35.6774 372.802 35.2176C368.362 34.6698 363.862 35.0415 359.402 34.6209C357.114 34.4425 354.862 33.9488 352.707 33.1534C350.44 32.214 348.387 30.8193 346.673 29.0545C345.041 27.3528 343.312 25.749 341.494 24.2511C339.838 22.9879 338.045 21.918 336.149 21.0619C330.352 18.3945 323.848 17.7078 317.628 19.1066C311.407 20.5053 305.811 23.9128 301.693 28.8099C298.931 31.9463 296.817 35.6043 295.474 39.5709C294.045 43.7971 293.948 48.0037 293.899 52.4157C293.968 54.8259 293.696 57.2336 293.093 59.5669C292.369 61.6461 291.167 63.5234 289.585 65.0453C288.136 66.4703 286.873 68.0744 285.825 69.8193C284.83 71.7862 284.434 74.0052 284.688 76.1977C284.863 78.7021 285.086 81.138 283.765 83.388C282.587 85.1522 281.122 86.7034 279.431 87.9761C276.156 90.7544 272.726 93.7186 271.434 98.0035C270.836 99.828 270.972 101.816 271.813 103.541C272.036 104.039 274.261 102.298 273.843 101.437Z" fill="#092857"/>
<path d="M323.906 33.4862C323.702 37.1939 323.517 41.0874 325.14 44.4233C326.763 47.7593 330.824 50.1952 334.196 48.6789C337.177 63.5019 341.117 78.1127 345.993 92.4177C345.993 92.4177 349.685 93.3959 364.319 95.4797C378.953 97.5634 375.212 115.446 375.212 115.446L333.263 136.235L284.678 118.234C284.678 118.234 276.38 105.135 284.027 102.191C291.674 99.2461 307.601 96.6243 307.601 96.6243L307.95 92.359C308.138 86.1371 308.32 79.912 308.495 73.6836C304.53 75.2685 300.361 75.6402 297.028 72.6075C294.22 70.0542 294.541 65.5346 294.706 61.7291C294.933 56.7529 295.153 51.7767 295.367 46.8006C300.478 46.6547 305.507 45.4673 310.15 43.31C314.793 41.1528 318.954 38.0705 322.38 34.2493" fill="white"/>
<path d="M322.818 34.1707C322.584 38.3186 322.283 43.0534 324.761 46.6241C326.773 49.4807 330.378 51.0753 333.711 49.7057L333.06 49.5785C335.042 59.4461 337.448 69.2289 340.279 78.9269C340.985 81.3465 341.721 83.7563 342.485 86.1564C342.864 87.3499 343.253 88.5532 343.641 89.7466C343.836 90.3434 344.04 90.9401 344.234 91.5369C344.352 92.189 344.568 92.8192 344.876 93.4054C345.206 93.7576 346.09 93.7674 346.537 93.8652C352.367 95.0293 358.305 95.6163 364.135 96.7315C366.601 97.1705 368.874 98.3624 370.645 100.146C372.417 101.929 373.6 104.217 374.036 106.7C374.71 109.825 374.733 113.056 374.105 116.189L375.65 114.478L352.387 126.002L337.811 133.221L334.148 135.041C333.39 135.422 334.148 135.041 334.148 135.168C333.944 135.065 333.729 134.986 333.507 134.933L305.978 124.701L290.81 119.075L286.515 117.461C286.2 117.378 285.894 117.264 285.601 117.119C285.446 117.011 285.737 117.226 285.601 117.119C285.463 116.919 285.34 116.71 285.232 116.493C283.874 114.234 282.85 111.789 282.191 109.234C281.798 107.861 281.718 106.416 281.957 105.008C282.268 103.609 283.046 103.325 284.328 102.865C291.062 100.459 298.282 99.187 305.308 97.9739C305.813 97.8761 306.279 97.7881 306.833 97.7098C307.255 97.586 307.639 97.3571 307.95 97.0441C308.261 96.7312 308.488 96.3444 308.611 95.9196C309.253 88.2205 309.301 80.4823 309.525 72.7735C309.525 72.4213 309.01 72.5876 308.864 72.6463C306.085 73.7224 302.946 74.2898 300.119 72.9985C298.852 72.4074 297.771 71.4768 296.995 70.3087C296.218 69.1405 295.776 67.7798 295.717 66.3756C295.535 63.3043 295.587 60.2235 295.872 57.1602L296.368 46.0861L294.424 47.8861C299.783 47.7045 305.05 46.438 309.911 44.1622C314.773 41.8864 319.129 38.648 322.721 34.6402C322.944 34.3859 323.692 33.5739 323.352 33.1924C323.012 32.8109 322.108 33.613 321.914 33.8283C318.641 37.4424 314.676 40.3539 310.258 42.3879C305.84 44.422 301.059 45.5367 296.203 45.6654C295.744 45.7526 295.319 45.9675 294.975 46.2857C294.632 46.6038 294.384 47.0126 294.259 47.4655C294.084 51.4829 293.906 55.4971 293.725 59.5081C293.589 62.6875 293.161 66.0528 293.725 69.2028C293.953 70.6141 294.556 71.937 295.469 73.0321C296.383 74.1271 297.573 74.9537 298.914 75.4246C301.897 76.5399 305.152 75.7964 308.019 74.6811L307.358 74.554C307.134 82.1356 307.095 89.7369 306.464 97.299L308.242 95.5087C304.656 96.0957 301.081 96.8 297.553 97.5631C294.638 98.199 291.723 98.874 288.808 99.7055C286.466 100.381 283.813 100.987 282.006 102.699C278.517 105.966 279.625 110.789 281.287 114.702C281.854 116.178 282.571 117.591 283.425 118.919C283.604 119.204 283.886 119.407 284.212 119.486C289.974 121.658 295.765 123.761 301.537 125.904L325.451 134.757L331.855 137.134C332.826 137.496 333.623 136.841 334.517 136.391L354.554 126.461L373.658 117.001C374.075 116.796 374.503 116.61 374.901 116.375C375.387 116.091 375.79 115.682 376.07 115.191C376.35 114.7 376.496 114.144 376.495 113.577C376.968 110.403 376.819 107.166 376.058 104.049C375.585 101.986 374.601 100.076 373.197 98.4993C371.794 96.9221 370.017 95.7284 368.031 95.0293C364.805 93.9141 361.181 93.7673 357.819 93.2391C355.36 92.8575 352.912 92.4565 350.463 92.0065C349.404 91.87 348.356 91.6641 347.324 91.3901C347.227 91.3901 346.974 91.3901 346.887 91.2923C346.8 91.1945 346.984 91.1162 346.887 91.0575C346.644 90.5613 346.468 90.035 346.362 89.4923C345.993 88.3673 345.624 87.252 345.264 86.127C342.537 77.6486 340.134 69.0887 338.054 60.4472C337.044 56.2406 336.111 52.0014 335.256 47.7296C335.188 47.4068 334.809 47.5242 334.605 47.6024C331.583 48.8448 328.259 46.7317 326.627 44.2078C324.489 40.8816 324.751 36.5087 324.965 32.7326C325.023 31.6369 322.818 33.3391 322.779 34.112L322.818 34.1707Z" fill="#092857"/>
<path d="M323.42 46.6928C323.68 44.9291 324.492 43.2949 325.738 42.0281C326.984 40.7612 328.599 39.9278 330.348 39.6492C332.106 39.4484 333.882 39.7887 335.444 40.6253C337.005 41.4619 338.278 42.7554 339.094 44.3352C339.854 45.9471 340.132 47.747 339.894 49.5153C339.656 51.2837 338.912 52.944 337.753 54.294C336.555 55.6079 335.021 56.5642 333.319 57.0578C331.616 57.5513 329.812 57.5632 328.104 57.0919" fill="white"/>
<path d="M324.508 46.0471C324.609 44.9756 325 43.9526 325.639 43.0899C326.279 42.2272 327.141 41.5581 328.133 41.1557C329.253 40.7591 330.448 40.6261 331.627 40.7668C332.806 40.9076 333.938 41.3183 334.935 41.9677C335.984 42.6095 336.878 43.4793 337.55 44.5135C338.223 45.5477 338.657 46.72 338.822 47.945C339.009 49.122 338.923 50.3268 338.569 51.4643C338.214 52.6019 337.602 53.6409 336.781 54.4994C335.7 55.3589 334.429 55.9435 333.076 56.2041C331.723 56.4646 330.327 56.3933 329.007 55.9962C328.201 55.781 326.442 57.9527 327.229 58.2071C333.73 59.9582 340.746 54.6462 341.076 47.9156C341.158 46.4162 340.862 44.9201 340.215 43.5671C339.568 42.214 338.591 41.048 337.375 40.1777C336.16 39.3074 334.745 38.7613 333.263 38.5901C331.781 38.419 330.28 38.6285 328.9 39.1991C327.209 39.909 325.721 41.0337 324.572 42.4707C323.423 43.9077 322.65 45.6114 322.322 47.4265C322.235 48.0623 322.934 47.7982 323.245 47.6123C323.85 47.2729 324.302 46.7125 324.508 46.0471Z" fill="#092857"/>
<path d="M302.139 50.6843L300.556 56.554L299.769 59.4888L299.37 60.966C299.205 61.4053 299.107 61.8669 299.079 62.3356C299.147 64.2921 302.373 62.3356 303.131 62.0225L308.728 59.4203C309.371 59.1204 309.887 58.6004 310.185 57.9529C310.399 57.454 310.185 57.1409 309.622 57.3855L304.559 59.7334C303.733 60.1149 302.917 60.5453 302.081 60.878C301.906 60.9464 301.624 61.0736 301.44 60.966C301.255 60.8584 301.44 60.1932 301.44 59.9192L304.297 49.2658C304.472 48.6201 303.636 48.9234 303.374 49.0799C302.782 49.4351 302.335 49.9896 302.11 50.6452L302.139 50.6843Z" fill="#092857"/>
<path d="M308.31 73.7423C312.935 71.9422 317.298 68.44 319.766 66.6693C320.348 70.0182 319.586 73.4626 317.648 76.2467C314.393 80.8348 303.014 89.1012 303.014 89.1012L308.465 73.6836" fill="#092857"/>
<path d="M307.873 74.7695C312.284 72.9988 316.045 70.1031 319.873 67.3443L318.659 67.5694C319.011 69.4993 318.877 71.4875 318.27 73.3519C317.662 75.2164 316.6 76.8978 315.18 78.2424C312.139 81.2283 308.892 83.994 305.463 86.5186C304.617 87.1643 303.772 87.8099 302.917 88.4752L304.044 88.6904L309.495 73.2727C309.68 72.7444 309.495 72.5097 308.922 72.7053C308.271 72.994 307.751 73.5175 307.465 74.1727L302.013 89.5806C301.654 90.6078 302.684 90.1285 303.14 89.8056C305.732 87.8947 308.284 85.8958 310.797 83.8088C314.597 80.6196 318.931 77.0978 320.456 72.1673C321.119 70.119 321.262 67.9366 320.874 65.8182C320.748 65.2508 319.834 65.9161 319.659 66.0433C316.181 68.5574 312.77 71.1596 308.767 72.764C308.114 73.0495 307.593 73.574 307.309 74.2314C307.115 74.7597 307.309 75.0238 307.882 74.8086L307.873 74.7695Z" fill="#092857"/>
<path d="M452.152 12.7856C452.152 26.0511 444.854 33.1436 431.931 33.1436C444.718 33.1436 452.152 39.9915 452.152 53.5016C452.152 40.2263 458.808 33.1436 472.373 33.1436C458.808 33.0947 452.152 25.738 452.152 12.7856Z" fill="white"/>
<path d="M451.054 13.6269C451.054 18.5183 450.082 23.9184 446.487 27.4793C442.892 31.0402 437.586 31.9598 432.815 31.9794C432.504 32.0256 432.206 32.1364 431.94 32.3048C431.674 32.4733 431.446 32.6956 431.27 32.9576C431.153 33.0946 430.464 34.1805 431.037 34.1805C436.342 34.1805 441.891 35.3642 445.807 39.2088C449.723 43.0535 451.025 48.8644 451.054 54.3232C451.054 54.9102 452.123 54.2059 452.259 54.0983C452.521 53.9229 452.743 53.6935 452.911 53.4254C453.078 53.1573 453.187 52.8565 453.231 52.5428C453.231 47.7394 454.076 42.2611 457.555 38.6806C461.034 35.1001 466.65 34.2001 471.47 34.1805C471.781 34.1367 472.08 34.0268 472.346 33.8582C472.613 33.6896 472.84 33.466 473.015 33.2022C473.122 33.0653 473.812 31.9892 473.238 31.9794C467.826 31.9794 462.112 30.7957 458.186 26.7456C454.261 22.6955 453.25 17.178 453.231 11.8366C453.231 11.2497 452.152 11.954 452.016 12.0616C451.753 12.2381 451.53 12.4689 451.363 12.7388C451.195 13.0087 451.087 13.3115 451.044 13.6269C451.044 19.0563 452.24 24.8086 456.136 28.8293C460.033 32.85 465.97 34.1707 471.479 34.2001L473.248 31.9794C467.214 31.9794 461.121 33.437 456.729 37.849C452.337 42.2611 451.025 48.2873 451.006 54.3037L453.202 52.5232C453.202 46.9764 451.89 41.1263 447.818 37.1153C443.747 33.1044 438.159 31.9696 432.767 31.9402L430.988 34.1609C436.964 34.1609 442.892 32.5859 447.235 28.2913C451.579 23.9966 453.172 17.8922 453.202 11.8366C453.202 11.2497 452.123 11.9638 451.987 12.0616C451.731 12.2424 451.516 12.4752 451.356 12.7448C451.195 13.0143 451.092 13.3148 451.054 13.6269Z" fill="#092857"/>
<path d="M470.158 92.3001C474.919 92.4762 479.7 92.4664 484.462 92.3001C484.773 92.2529 485.072 92.1417 485.34 91.9735C485.607 91.8052 485.837 91.5834 486.016 91.3219C486.113 91.1947 486.813 90.0794 486.24 90.099C481.465 90.2816 476.694 90.2816 471.926 90.099C471.615 90.1428 471.316 90.2527 471.05 90.4213C470.783 90.59 470.556 90.8135 470.381 91.0773C470.265 91.224 469.585 92.2806 470.158 92.3001Z" fill="#092857"/>
<path d="M464.328 90.0696C459.197 90.0696 454.07 90.0338 448.946 89.962C448.634 90.0059 448.335 90.1157 448.069 90.2843C447.802 90.453 447.575 90.6766 447.401 90.9403C447.284 91.0773 446.604 92.1534 447.177 92.1632C452.295 92.2414 457.419 92.2773 462.549 92.2708C462.861 92.2263 463.159 92.1162 463.426 91.9476C463.692 91.7791 463.92 91.5558 464.094 91.2925C464.201 91.1555 464.901 90.0696 464.328 90.0696Z" fill="#092857"/>
<path d="M468.098 86.9683C468.331 81.7932 468.379 76.6279 468.214 71.4529C468.214 70.8659 467.145 71.5702 467 71.6876C466.738 71.863 466.515 72.0923 466.348 72.3605C466.18 72.6286 466.071 72.9294 466.028 73.2431C466.183 78.278 466.148 83.3128 465.921 88.3477C465.921 88.964 466.484 88.7488 466.834 88.5336C467.184 88.3184 468.078 87.5553 468.107 86.9683H468.098Z" fill="#092857"/>
<path d="M466.378 95.4404C465.82 100.535 465.915 105.68 466.659 110.75C466.747 111.328 467.689 110.672 467.874 110.525C468.263 110.203 468.943 109.547 468.846 108.96C468.104 104.028 468.003 99.0196 468.545 94.061C468.613 93.4349 467.952 93.6697 467.621 93.8752C467.017 94.2147 466.564 94.7749 466.358 95.4404H466.378Z" fill="#092857"/>
<path d="M384.861 13.9401C387.452 14.0379 390.043 14.0379 392.635 13.9401C392.947 13.8935 393.246 13.7825 393.513 13.6142C393.781 13.4459 394.011 13.2238 394.189 12.9618C394.277 12.8346 394.986 11.7096 394.413 11.739C391.809 11.8368 389.224 11.8466 386.639 11.739C386.326 11.7827 386.026 11.8924 385.758 12.061C385.49 12.2296 385.261 12.4532 385.084 12.7172C384.977 12.864 384.288 13.9108 384.861 13.9303V13.9401Z" fill="#092857"/>
<path d="M379.381 11.729C376.68 11.729 373.978 11.729 371.277 11.6605C370.965 11.7031 370.666 11.8125 370.399 11.9812C370.133 12.15 369.905 12.3742 369.732 12.6388C369.615 12.7758 368.926 13.8519 369.499 13.8616C372.2 13.8616 374.902 13.9301 377.603 13.9203C377.915 13.8754 378.215 13.7652 378.483 13.5967C378.751 13.4283 378.981 13.2053 379.158 12.9421C379.255 12.8051 379.954 11.7192 379.381 11.7192V11.729Z" fill="#092857"/>
<path d="M383.258 8.95088C383.394 6.04214 383.42 3.13665 383.335 0.234424C383.335 -0.352543 382.267 0.332247 382.121 0.459423C381.859 0.635262 381.638 0.864713 381.47 1.13275C381.303 1.40079 381.193 1.70139 381.149 2.0149C381.24 4.79321 381.22 7.56499 381.091 10.3303C381.091 10.9368 381.664 10.7411 382.014 10.5161C382.364 10.2911 383.248 9.53785 383.277 8.95088H383.258Z" fill="#092857"/>
<path d="M381.363 17.0314C381.197 18.4238 381.122 19.8258 381.14 21.2282C381.185 22.605 381.318 23.9774 381.538 25.337C381.616 25.9044 382.568 25.2587 382.753 25.112C383.141 24.7793 383.822 24.1337 383.725 23.5467C383.512 22.229 383.382 20.8992 383.336 19.5651C383.311 18.2575 383.38 16.9498 383.54 15.652C383.608 15.0357 382.947 15.2607 382.617 15.4661C382.141 15.7792 381.422 16.4444 381.354 17.0314H381.363Z" fill="#092857"/>
<path d="M124.142 301.73V307.003C124.142 307.531 124.2 308.812 125.687 308.812H329.571C331.621 308.812 334.945 307.14 336.995 305.066L361.288 282.565V272.215" fill="#092857"/>
<path d="M123.044 302.62V306.083C122.91 307.067 122.993 308.069 123.287 309.018C123.987 310.358 126.678 309.879 127.912 309.879H328.609C331.942 309.83 335.052 307.629 337.403 305.437C340.017 302.992 342.65 300.546 345.284 298.13L358.334 286.018C359.422 285.04 360.54 284.062 361.589 283.005C362.881 281.724 362.415 279.562 362.415 277.869V271.286C362.415 270.689 361.336 271.403 361.2 271.511C360.94 271.687 360.718 271.917 360.551 272.185C360.384 272.453 360.274 272.753 360.229 273.066V283.377L360.928 282.076L340.998 300.565C338.161 303.187 334.818 307.228 330.796 307.638C329.416 307.775 327.987 307.638 326.607 307.638H129.506C128.301 307.638 125.522 308.157 125.269 306.513C125.128 304.602 125.128 302.682 125.269 300.771C125.269 300.184 124.191 300.888 124.055 300.996C123.793 301.174 123.571 301.405 123.404 301.675C123.236 301.944 123.127 302.246 123.083 302.561L123.044 302.62Z" fill="#092857"/>
<path d="M360.802 272.215H160.183C158.327 272.215 155.101 273.731 152.963 275.6L125.969 299.225C123.831 301.084 123.608 302.6 125.464 302.6H326.083C327.939 302.6 331.165 301.084 333.302 299.225L360.296 275.6C362.434 273.731 362.658 272.215 360.802 272.215Z" fill="#092857"/>
<path d="M361.686 271.11H162.262C160.018 271.107 157.812 271.701 155.868 272.832C152.759 274.573 150.106 277.332 147.444 279.68C140.292 285.931 133.111 292.153 125.998 298.453C125.026 299.333 121.013 303.559 124.579 303.726H322.04C323.012 303.726 324.062 303.726 325.072 303.726C328.745 303.726 331.942 301.202 334.605 298.834L357.449 278.877C358.421 278.056 359.325 277.244 360.248 276.422C361.171 275.6 365.252 271.296 361.686 271.129C361.374 271.172 361.075 271.281 360.808 271.45C360.542 271.619 360.314 271.843 360.141 272.108C360.025 272.264 359.344 273.301 359.918 273.331C362.153 273.438 359.85 275.228 359.111 275.874L354.855 279.601L342.106 290.763C339.191 293.287 336.334 295.821 333.448 298.335C331.505 300.047 329.017 301.495 326.365 301.495H137.853C134.17 301.495 130.478 301.495 126.795 301.495C126.539 301.515 126.283 301.515 126.027 301.495C124.181 301.241 126.639 299.392 127.242 298.864L137.756 289.638L149.815 279.083C152.516 276.715 155.528 273.477 159.308 273.282C162.01 273.145 164.75 273.282 167.461 273.282H359.918C360.229 273.237 360.527 273.126 360.793 272.958C361.06 272.789 361.288 272.566 361.463 272.303C361.54 272.196 362.259 271.11 361.686 271.11Z" fill="#092857"/>
<path d="M126.561 303.706H321.875C322.915 303.706 323.945 303.706 324.984 303.706C328.434 303.706 331.592 301.476 334.109 299.274L355.35 280.687L357.294 278.965C357.585 278.721 358.528 277.87 358.265 277.41C358.003 276.95 357.294 277.41 357.051 277.635L337.772 294.53C334.935 297.015 331.942 300.272 328.23 301.27C327.271 301.468 326.292 301.54 325.315 301.485H139.301C135.793 301.485 132.285 301.485 128.777 301.485H128.33C128.019 301.53 127.72 301.641 127.454 301.809C127.188 301.978 126.96 302.201 126.785 302.464C126.678 302.601 125.978 303.686 126.561 303.686V303.706Z" fill="white"/>
<path d="M57.8615 285.657L57.8032 286.156C56.1513 303.951 88.1788 302.786 105.339 300.517C118.943 298.697 128.34 290.519 131.945 283.681L125.842 259.312L92.7264 258.539L62.9727 272.235L57.8615 285.657Z" fill="#092857"/>
<path d="M56.7638 286.351C56.5013 288.011 56.6018 289.709 57.0583 291.326C57.5148 292.943 58.3163 294.44 59.4068 295.713C61.7389 298.306 65.101 299.793 68.366 300.781C76.7907 303.305 86.0025 303.178 94.6896 302.61C99.2598 302.413 103.808 301.86 108.294 300.957C113.934 299.675 119.236 297.19 123.841 293.669C125.833 292.142 127.666 290.414 129.312 288.513C130.045 287.664 130.732 286.775 131.372 285.852C132.062 285.039 132.607 284.113 132.985 283.113C133.006 282.504 132.9 281.898 132.674 281.333L131.702 277.42L126.95 258.412C126.941 258.358 126.916 258.308 126.877 258.27C126.839 258.231 126.79 258.206 126.737 258.196L111.024 257.825L99.8688 257.57C97.8574 257.521 95.7779 257.326 93.7665 257.424C92.5518 257.482 91.24 258.402 90.1614 258.891L81.0274 263.098L63.9447 270.924C63.0415 271.258 62.3051 271.936 61.8944 272.812C61.3308 274.113 60.9227 275.483 60.3688 276.803L56.8512 286.077C56.6375 286.635 56.8998 286.801 57.4148 286.645C58.0696 286.362 58.5914 285.837 58.8724 285.177L63.9836 271.736L62.526 273.203L79.1617 265.553L89.4618 260.867C90.3169 260.476 91.2303 260.133 92.0563 259.674C92.5713 259.39 92.0563 259.781 91.9202 259.674C91.9202 259.732 92.4741 259.674 92.5324 259.674L114.163 260.182L123.753 260.407C124.076 260.447 124.402 260.447 124.725 260.407C125.075 260.3 124.813 260.495 124.725 260.261C124.91 261.141 125.162 262.012 125.376 262.882L130.672 284.052L130.798 284.571L131.032 283.857C128.116 289.374 122.908 293.483 117.35 296.105C111.277 298.961 104.718 299.724 98.0809 300.253C92.2637 300.771 86.4146 300.816 80.5901 300.39C75.4789 299.969 70.0276 299.157 65.4509 296.682C60.8741 294.207 58.338 290.167 58.9501 284.943C59.0765 283.906 56.861 285.578 56.7638 286.351Z" fill="#092857"/>
<path d="M451.909 195.156C458.633 193.2 464.998 190.666 469.691 190.793C471.712 190.852 474.025 191.644 475.104 193.2C475.127 193.23 475.146 193.263 475.162 193.297C470.624 173.928 461.947 148.991 453.911 136.626C442.756 119.467 433.359 112.1 414.246 104.979C398.611 99.1089 382.063 97.7687 364.339 95.4795C358.295 106.241 345.303 114.605 332.787 114.781C320.019 114.967 306.988 106.847 297.514 98.1013C291.451 99.9502 285.28 100.929 281.423 102.19L243.157 251.867L241.894 265.181L403.887 264.32L463.492 205.144L451.909 195.156Z" fill="#FFB321"/>
<path d="M451.2 196.262C455.514 195.01 459.751 193.415 464.153 192.456C465.883 192.004 467.674 191.833 469.458 191.948C471.071 192.124 473.287 192.769 474.103 194.344C474.424 194.961 476.387 193.063 476.231 192.388C473.615 181.303 470.294 170.399 466.29 159.743C462.802 150.449 458.828 141.283 453.24 133.055C448.12 125.513 442.163 118.577 434.603 113.431C426.353 107.806 416.694 103.942 407.143 101.261C393.461 97.4167 379.235 96.1645 365.194 94.3546C364.533 94.2666 363.717 95.1471 363.445 95.6362C359.494 102.351 353.526 107.627 346.401 110.702C338.956 114.015 330.564 114.471 322.808 111.983C314.51 109.41 307.008 104.47 300.459 98.7862C299.944 98.3362 299.03 97.1525 298.369 96.9764C297.99 96.8688 297.155 97.2797 296.805 97.3775C296.203 97.5536 295.59 97.7199 294.988 97.8765C292.685 98.4732 290.372 98.9917 288.06 99.52C286.252 99.9406 284.445 100.342 282.667 100.88C282.134 100.984 281.636 101.222 281.219 101.573C280.803 101.924 280.482 102.375 280.286 102.885C279.46 105.35 278.974 108.002 278.343 110.526L273.484 129.387L266.828 155.419L259.414 184.454L252.204 212.668L246.266 235.892L242.642 250.048C241.67 253.873 241.515 257.747 241.146 261.689L240.757 265.827C240.757 265.964 240.757 266.248 240.971 266.248L250.688 266.199L275.408 266.062L308.806 265.886L344.652 265.7L376.33 265.534L397.63 265.416H402.41C402.929 265.369 403.432 265.213 403.887 264.958C404.342 264.704 404.739 264.357 405.053 263.939L421.466 247.641L446.438 222.851L463.055 206.358L463.881 205.536C464.085 205.34 464.852 204.43 464.512 204.098L452.852 194.129C452.21 193.581 450.209 195.704 450.792 196.203L462.452 206.172L463.084 204.734L457.147 210.603L442.892 224.749L425.741 241.781L410.825 256.582L405.908 261.474C405.141 262.237 404.276 262.961 403.576 263.792C403.543 263.831 403.508 263.867 403.47 263.9L404.762 263.196L388.563 263.274L349.919 263.479L303.209 263.734L262.64 263.949L249.405 264.017H245.227C244.501 263.919 243.766 263.919 243.04 264.017C242.95 264.032 242.858 264.032 242.768 264.017L242.972 264.438L243.808 255.545C243.878 254.026 244.028 252.511 244.255 251.006C244.683 248.874 245.343 246.761 245.878 244.647L249.434 230.766L254.361 211.484L260.123 188.925L266.206 165.123L272.036 142.437L277.031 122.871L280.655 108.657C281.238 106.387 281.957 104.098 282.414 101.809C282.414 101.711 282.463 101.613 282.492 101.516L280.704 103.316C283.765 102.337 286.942 101.721 290.061 100.987C291.713 100.606 293.355 100.205 294.978 99.745C296.057 99.4515 296.484 99.1873 297.349 99.97C298.049 100.606 298.768 101.222 299.497 101.838C304.534 106.162 310.162 109.734 316.21 112.443C321.96 115.098 328.286 116.24 334.595 115.759C340.483 115.074 346.136 113.032 351.114 109.792C356.901 106.19 361.73 101.224 365.184 95.3231L363.435 96.6047C386.212 99.5395 409.922 101.594 430.017 113.91C446.079 123.752 455.913 140.745 462.695 157.933C467.348 169.744 471.142 181.881 474.045 194.247L476.173 192.29C475.405 190.813 473.258 190.089 471.761 189.835C469.928 189.609 468.07 189.708 466.271 190.128C461.607 191.038 457.127 192.769 452.58 194.09C451.926 194.311 451.374 194.763 451.025 195.362C450.87 195.587 450.539 196.448 451.2 196.262Z" fill="#FFB321"/>
<path d="M476.202 192.407C473.585 181.323 470.265 170.419 466.261 159.762C462.773 150.469 458.799 141.302 453.211 133.075C448.09 125.532 442.134 118.596 434.574 113.45C426.324 107.825 416.665 103.961 407.113 101.281C393.432 97.4361 379.206 96.1839 365.165 94.3741C364.504 94.286 363.688 95.1665 363.416 95.6556C359.465 102.37 353.496 107.646 346.372 110.721C338.927 114.034 330.535 114.49 322.779 112.003C314.48 109.43 306.979 104.489 300.429 98.8057C299.914 98.3556 299.001 97.1719 298.34 96.9958C297.961 96.8882 297.126 97.2991 296.776 97.3969C296.173 97.573 295.561 97.7393 294.959 97.8959C292.656 98.4926 290.343 99.0111 288.03 99.5394C286.223 99.96 284.416 100.361 282.637 100.899C282.104 101.003 281.606 101.242 281.19 101.593C280.774 101.943 280.452 102.395 280.257 102.905C279.431 105.37 278.945 108.021 278.313 110.545C276.713 116.826 275.094 123.113 273.455 129.406L266.798 155.438C264.33 165.123 261.859 174.802 259.384 184.473C256.974 193.878 254.571 203.282 252.174 212.687L246.237 235.911C245.026 240.627 243.818 245.345 242.613 250.067C241.641 253.892 241.485 257.766 241.116 261.709C240.99 263.088 240.864 264.467 240.728 265.847C240.728 265.984 240.728 266.267 240.941 266.267L250.658 266.218L275.379 266.081L308.776 265.905L344.623 265.719L376.3 265.553L397.6 265.436H402.381C402.899 265.388 403.402 265.232 403.857 264.978C404.312 264.724 404.71 264.376 405.024 263.959L421.436 247.66L446.409 222.871L463.025 206.377L463.851 205.555C464.055 205.36 464.823 204.45 464.483 204.117L454.251 195.313C457.506 194.276 460.761 193.18 464.104 192.456C465.834 192.004 467.625 191.832 469.41 191.948C471.023 192.124 473.238 192.769 474.054 194.344C474.424 194.961 476.386 193.063 476.202 192.407Z" fill="#FFB321"/>
<path d="M82.485 258.03C78.812 258.813 69.1337 261.366 67.1029 262.922C63.7991 265.524 56.3558 275.815 54.3929 281.127C52.5758 286.019 57.7356 287.29 63.1383 282.693" fill="white"/>
<path d="M83.1749 256.935C79.5296 257.716 75.929 258.696 72.3889 259.869C70.8418 260.327 69.3418 260.933 67.9094 261.679C66.7347 262.424 65.6797 263.344 64.7805 264.409C62.0551 267.42 59.594 270.664 57.4246 274.103C56.3161 275.809 55.2976 277.572 54.3735 279.386C53.6447 280.824 52.7896 282.497 52.9353 284.15C53.0811 285.804 54.6261 286.743 56.2683 286.694C58.8919 286.606 61.3309 285.011 63.2938 283.397C63.5853 283.152 64.5181 282.292 64.2655 281.832C64.0128 281.372 63.2938 281.832 63.0508 282.067C61.5155 283.329 59.4944 284.63 57.4052 284.463C57.0975 284.469 56.792 284.411 56.5074 284.293C56.2227 284.176 55.9651 284.001 55.7503 283.779C55.5354 283.557 55.3679 283.293 55.2582 283.004C55.1484 282.714 55.0986 282.405 55.1119 282.096C55.3197 280.59 55.8574 279.15 56.6861 277.88C57.4926 276.373 58.3866 274.945 59.3195 273.477C61.1514 270.592 63.2117 267.86 65.4801 265.309C66.0443 264.618 66.6979 264.006 67.4235 263.489C68.6991 262.859 70.0253 262.339 71.3881 261.934C74.8001 260.821 78.2673 259.887 81.7756 259.136C82.4359 258.921 82.9913 258.464 83.3304 257.854C83.4956 257.571 83.7968 256.788 83.1458 256.935H83.1749Z" fill="#092857"/>
<path d="M103.483 249.275C98.5276 250.781 83.1357 255.604 79.5015 258.382C75.1677 261.709 66.3348 272.323 63.9056 277.42C60.077 285.432 67.6175 285.745 72.3692 281.577C77.4998 277.087 81.7753 271.071 85.186 268.684C86.6824 267.637 90.8219 266.805 95.01 266.209L120.352 262.11L122.607 244.383L103.483 249.275Z" fill="white"/>
<path d="M104.173 248.179C100.102 249.411 96.0499 250.713 92.0271 252.092C88.0042 253.471 83.7287 254.821 80.1722 257.14C78.5997 258.238 77.1499 259.504 75.8481 260.916C73.9047 262.873 72.1556 264.878 70.4357 266.962C67.5206 270.542 64.139 274.465 62.4482 278.858C61.8166 280.491 61.1947 282.839 62.5551 284.297C63.6434 285.451 65.4702 285.432 66.8987 285.128C69.0402 284.621 71.0172 283.57 72.6415 282.076C75.1329 279.816 77.4885 277.408 79.6961 274.866C81.3383 273.047 83.0582 270.679 85.1862 269.407C86.3872 268.814 87.6721 268.412 88.9953 268.214C90.7541 267.823 92.5421 267.559 94.3203 267.236C96.0985 266.913 98.1488 266.619 100.053 266.306L119.672 263.225C120.094 263.101 120.478 262.872 120.789 262.559C121.1 262.246 121.327 261.859 121.45 261.434L123.695 243.659C123.695 243.375 123.598 243.17 123.287 243.248L104.173 248.14C103.514 248.351 102.959 248.805 102.619 249.411C102.453 249.676 102.143 250.507 102.794 250.341L121.917 245.449L121.509 245.039L119.264 262.775L121.042 260.984L105.174 263.548L96.6913 264.917C95.7196 265.074 94.7964 265.201 93.8441 265.357C91.1719 265.798 88.1208 266.169 85.7304 267.549C83.7383 268.884 81.9508 270.506 80.4248 272.362C78.3357 274.631 76.3145 276.97 74.1185 279.141C72.418 280.824 70.6786 282.428 68.2882 282.927C66.9278 283.221 65.1204 283.182 64.3236 281.822C63.3519 280.129 64.45 277.772 65.2953 276.265C66.3544 274.377 67.553 272.572 68.881 270.865C71.722 266.93 74.9409 263.287 78.4912 259.987C81.4063 257.384 85.9053 256.015 89.695 254.655C94.0288 253.1 98.4403 251.72 102.823 250.351C103.475 250.122 104.026 249.668 104.377 249.069C104.494 248.854 104.824 247.973 104.173 248.179Z" fill="#092857"/>
<path d="M76.3825 261.21C71.8349 265.807 65.8395 273.36 63.9058 277.42C63.466 278.256 63.1392 279.147 62.9341 280.071" fill="white"/>
<path d="M75.9839 260.808C72.9478 263.899 70.1234 267.194 67.5301 270.669C65.2854 273.663 62.6715 277.009 61.8747 280.765C61.7387 281.401 62.516 281.108 62.7978 280.941C63.4026 280.602 63.8548 280.042 64.0611 279.376C64.7801 276.06 67.1997 273.066 69.2014 270.435C71.5413 267.339 74.0762 264.398 76.7905 261.63C77.0237 261.386 77.7622 260.554 77.4124 260.182C77.0625 259.811 76.188 260.613 75.9839 260.818V260.808Z" fill="#092857"/>
<path d="M110.13 251.769C102.084 257.639 89.4906 271.472 86.3228 279.914C82.8149 289.276 91.6964 288.034 96.244 283.456C99.7615 279.914 106.787 269.926 111.791 268.684C116.796 267.441 121.712 272.597 121.712 272.597C121.712 272.597 114.473 277.175 108.692 280.296C102.91 283.416 99.8004 291.321 111.791 289.452C123.782 287.584 131.42 283.416 146.51 278.212C148.677 277.468 237.909 251.857 237.909 251.857" fill="white"/>
<path d="M110.014 251.094C104.477 255.314 99.4484 260.17 95.0298 265.563C92.6671 268.316 90.4889 271.225 88.5096 274.27C86.7889 276.74 85.4945 279.485 84.6811 282.389C84.2146 284.346 84.2244 286.889 86.3913 287.77C88.3347 288.562 90.8028 287.77 92.5811 286.792C94.9096 285.485 96.9652 283.738 98.6348 281.646C100.811 279.132 102.891 276.539 105.204 274.142C107.516 271.746 110.004 269.153 113.473 269.642C116.226 270.165 118.737 271.568 120.634 273.643L121.839 271.736C118.924 273.565 116.009 275.336 113.036 277.058C109.771 278.956 106.311 280.482 104.018 283.632C102.833 285.256 101.462 288.063 103.377 289.717C104.544 290.535 105.951 290.934 107.37 290.851C109.681 290.809 111.981 290.521 114.231 289.991C123.637 288.093 132.47 284.121 141.439 280.863C142.799 280.364 144.169 279.885 145.539 279.396C146.909 278.907 145.432 279.396 145.957 279.259L146.841 278.995C147.968 278.652 149.105 278.329 150.233 278.016C159.95 275.17 169.744 272.372 179.5 269.554L216.105 259.028C223.014 257.071 229.942 255.115 236.841 253.08L237.152 252.982C237.809 252.768 238.363 252.314 238.707 251.711C238.862 251.456 239.183 250.595 238.532 250.781L222.061 255.516L187.148 265.553C176.627 268.586 166.101 271.622 155.567 274.661C152.992 275.414 150.417 276.148 147.852 276.921C140.739 279.053 133.927 282.135 126.931 284.6C122.784 286.098 118.524 287.26 114.192 288.073C112.016 288.61 109.763 288.759 107.536 288.513C106.986 288.48 106.453 288.317 105.978 288.036C105.503 287.756 105.102 287.366 104.805 286.899C103.901 284.943 105.971 282.82 107.409 281.822C109.226 280.58 111.296 279.64 113.181 278.525C115.066 277.41 117.126 276.187 119.08 274.984L121.47 273.497C121.81 273.282 123.18 272.117 122.675 271.589C121.214 270.086 119.465 268.898 117.535 268.097C116.241 267.54 114.827 267.322 113.427 267.464C112.027 267.606 110.685 268.103 109.528 268.909C104.378 272.254 100.782 277.586 96.7205 282.086C95.2961 283.791 93.3923 285.022 91.2595 285.618C89.559 286.029 87.3241 285.911 86.7508 283.896C86.0512 281.411 87.6059 278.457 88.7719 276.334C90.3932 273.491 92.2458 270.788 94.3107 268.253C98.9027 262.304 104.258 256.995 110.237 252.464C110.538 252.239 111.461 251.349 111.209 250.899C110.956 250.449 110.295 250.899 109.994 251.124L110.014 251.094Z" fill="#092857"/>
<path d="M110.13 251.769C105.301 255.479 100.863 259.679 96.8857 264.301L110.13 251.769Z" fill="white"/>
<path d="M110.013 251.094C104.974 254.952 100.364 259.347 96.2637 264.203C96.05 264.458 95.5252 265.182 96.0402 265.426C96.5552 265.671 97.3326 264.722 97.5853 264.448C101.36 260.005 105.602 255.987 110.237 252.464C110.596 252.2 111.393 251.417 111.209 250.899C111.024 250.38 110.237 250.967 109.994 251.124L110.013 251.094Z" fill="#092857"/>
<path d="M463.89 205.506C467.788 204.423 471.27 202.179 473.879 199.069C475.269 197.377 476.318 195.019 475.075 193.2C473.996 191.644 471.683 190.852 469.662 190.793C464.969 190.666 458.604 193.229 451.88 195.156" fill="#092857"/>
<path d="M463.2 206.563C466.924 205.49 470.321 203.495 473.083 200.762C475.269 198.571 478.583 194.256 475.473 191.439C472.772 189.003 468.613 189.57 465.387 190.285C461.043 191.263 456.845 192.818 452.57 194.061C451.916 194.282 451.364 194.734 451.015 195.332C450.869 195.587 450.539 196.448 451.2 196.262C454.747 195.235 458.235 194.002 461.801 193.034C464.658 192.261 467.894 191.41 470.838 192.202C472.257 192.593 473.986 193.464 474.414 195.019C474.841 196.575 473.831 198.267 472.781 199.431C470.541 201.783 467.705 203.475 464.58 204.323C463.927 204.544 463.374 204.996 463.026 205.595C462.87 205.849 462.549 206.72 463.2 206.524V206.563Z" fill="#092857"/>
<path d="M468.613 266.267H486.006C486.317 266.221 486.615 266.11 486.881 265.941C487.147 265.773 487.375 265.551 487.551 265.289C487.658 265.152 488.348 264.066 487.775 264.066H470.372C470.059 264.112 469.76 264.222 469.492 264.391C469.224 264.559 468.994 264.782 468.817 265.045C468.71 265.182 468.02 266.267 468.593 266.267H468.613Z" fill="#092857"/>
<path d="M215.861 266.267H290.149C290.46 266.222 290.758 266.111 291.024 265.943C291.29 265.774 291.518 265.552 291.694 265.289C291.8 265.152 292.49 264.066 291.917 264.066H217.64C217.328 264.111 217.03 264.221 216.763 264.389C216.497 264.558 216.269 264.781 216.095 265.045C215.988 265.182 215.288 266.267 215.861 266.267Z" fill="#092857"/>
<path d="M15.835 266.267H56.8508C57.1632 266.222 57.4628 266.111 57.7305 265.943C57.9981 265.775 58.228 265.552 58.4055 265.289C58.5124 265.152 59.2024 264.066 58.6291 264.066H17.6035C17.2925 264.112 16.9943 264.223 16.7282 264.391C16.4622 264.559 16.234 264.782 16.0585 265.045C15.9516 265.182 15.2617 266.267 15.835 266.267Z" fill="#092857"/>
<path d="M85.0791 298.56C80.891 295.097 77.1499 290.137 78.4326 284.356C79.6569 278.916 84.7195 275.199 89.1214 272.45C89.5684 272.166 90.3943 271.472 90.3846 270.885C90.3749 270.298 89.8502 270.464 89.4615 270.699C84.1948 273.966 78.5395 278.378 76.5377 284.532C74.4486 290.959 78.1702 296.672 82.9705 300.644C83.6312 301.182 85.6135 299.049 85.0305 298.56H85.0791Z" fill="#092857"/>
<path d="M464.454 190.901L411.302 207.463L416.082 221.912C416.082 221.912 354.359 237.173 340.512 240.724C326.666 244.275 307.649 247.797 294.638 259.449C284.921 268.155 278.206 274.641 278.206 279.22C278.143 279.773 278.281 280.332 278.595 280.791C278.91 281.25 279.38 281.578 279.917 281.714C278.352 283.906 277.283 285.999 277.439 287.515C277.555 288.66 278.721 289.081 280.354 289.11C279.947 289.88 279.785 290.758 279.888 291.624C280.607 295.792 288.361 292.876 288.361 292.876L288.526 292.818C287.059 296.202 292.15 297.65 296.834 295.635C302.412 293.229 325.558 283.25 330.844 281.939C333.357 281.352 335.884 280.821 338.423 280.345C366.992 274.944 395.871 272.352 424.828 269.809C465.795 266.208 467.379 261.787 473.413 246.936C478.145 235.138 466.096 197.944 464.454 190.901Z" fill="white"/>
<path d="M465.144 189.854L447.226 195.42L418.551 204.342L411.992 206.377C411.418 206.553 409.941 207.59 410.204 208.334L414.985 222.773L416.763 220.817L401.779 224.534C391.375 227.104 380.975 229.686 370.577 232.282C361.647 234.503 352.727 236.714 343.817 238.973C331.126 242.182 318.018 244.765 306.289 250.84C298.924 254.655 292.86 260.055 286.913 265.798C284.344 268.168 281.99 270.764 279.878 273.556C278.566 275.375 277.186 277.527 277.109 279.846C277.009 280.501 277.152 281.169 277.51 281.725C277.869 282.281 278.417 282.684 279.052 282.859V281.881C277.867 283.573 276.477 285.608 276.351 287.75C276.224 289.707 277.818 290.157 279.46 290.216L279.334 289.55C278.741 290.949 278.314 292.779 279.499 294.002C279.945 294.372 280.46 294.65 281.014 294.818C281.568 294.986 282.15 295.041 282.725 294.98C284.557 294.906 286.364 294.523 288.07 293.845L287.506 293.268C287.305 293.659 287.196 294.091 287.189 294.531C287.182 294.971 287.276 295.407 287.465 295.804C287.653 296.201 287.93 296.549 288.275 296.82C288.619 297.092 289.021 297.279 289.449 297.367C291.801 297.944 294.278 297.677 296.455 296.614C299.293 295.41 302.121 294.178 304.958 292.974C312.353 289.834 319.757 286.616 327.307 283.925C331.855 282.311 336.704 281.597 341.426 280.746C348.413 279.484 355.428 278.388 362.454 277.41C376.583 275.453 390.779 273.947 404.986 272.616C417.618 271.442 430.25 270.66 442.795 268.801C449.393 267.823 456.399 266.62 462.307 263.274C466.194 260.98 469.316 257.575 471.276 253.491C472.354 251.378 473.219 249.167 474.113 246.976C475.121 244.273 475.596 241.399 475.512 238.514C475.512 230.149 473.666 221.736 471.762 213.636C470.1 206.592 468.118 199.637 466.213 192.662C465.97 191.781 465.727 190.901 465.513 190.011C465.3 189.12 463.123 190.989 463.317 191.801C464.649 197.475 466.437 203.051 467.894 208.696C470.143 216.829 471.812 225.113 472.889 233.485C473.361 236.895 473.436 240.349 473.112 243.777C472.706 246.217 471.954 248.586 470.877 250.811C470.121 252.74 469.204 254.602 468.137 256.377C467.245 257.825 466.099 259.098 464.755 260.134C460.645 263.372 454.514 264.712 449.296 265.7C438.296 267.793 427.063 268.517 415.927 269.505C402.119 270.748 388.301 272.069 374.532 273.761C360.928 275.444 347.324 277.322 333.934 280.247C326.987 281.773 320.33 284.835 313.81 287.555C310.137 289.081 306.474 290.636 302.81 292.192C299.798 293.483 296.358 295.557 293.025 295.41C291.403 295.342 288.662 294.53 289.508 292.338C289.712 291.81 289.508 291.566 288.944 291.761C287.656 292.245 286.31 292.558 284.941 292.691C282.288 292.925 280.082 291.634 281.336 288.631C281.404 288.474 281.549 287.985 281.209 287.966C279.956 287.966 278.43 287.731 278.537 286.136C278.644 284.542 279.839 282.839 280.772 281.509C280.918 281.304 281.209 280.677 280.772 280.531C278.042 279.875 279.674 276.06 280.587 274.573C282.342 271.967 284.397 269.58 286.709 267.461C292.491 261.757 298.457 256.309 305.716 252.591C317.153 246.721 329.873 244.237 342.204 241.116C350.677 238.977 359.147 236.86 367.614 234.767C377.771 232.23 387.926 229.706 398.077 227.195C403.752 225.786 409.465 224.475 415.111 222.969L415.373 222.91C415.956 222.763 417.414 221.677 417.161 220.954L412.38 206.495L410.592 208.451L428.511 202.885L457.196 193.963L463.745 191.928C464.398 191.7 464.949 191.246 465.3 190.646C465.513 190.49 465.795 189.6 465.144 189.854Z" fill="#092857"/>
<path d="M291.062 290.763C291.742 288.807 294.298 287.379 295.989 286.283C298.107 284.903 300.293 283.632 302.499 282.37C306.541 280.09 310.661 277.958 314.811 275.884L317.483 274.573C318.13 274.279 318.648 273.757 318.94 273.105C319.076 272.626 318.94 272.254 318.367 272.528C310.593 276.285 302.684 280.227 295.493 285.07C293.054 286.723 290.042 288.719 289.031 291.634C288.545 293.072 290.819 291.448 291.062 290.744V290.763Z" fill="#092857"/>
<path d="M312.469 262.765C308.997 264.911 305.541 267.076 302.101 269.261C297.295 272.146 292.709 275.386 288.38 278.956C285.524 281.44 282.395 284.297 280.879 287.868C280.636 288.425 280.947 288.592 281.442 288.435C282.095 288.15 282.616 287.625 282.9 286.968C284.105 284.14 286.738 281.881 289.022 279.934C291.039 278.221 293.151 276.624 295.348 275.15C299.672 272.215 304.093 269.505 308.514 266.756L312.119 264.506C312.566 264.233 313.392 263.528 313.382 262.941C313.373 262.354 312.858 262.521 312.469 262.765Z" fill="#092857"/>
<path d="M282.249 279.856C286.68 274.033 291.916 268.877 297.796 264.546C299.997 262.849 302.291 261.278 304.666 259.84C305.638 259.253 306.435 258.783 307.28 258.363C307.931 258.074 308.451 257.551 308.738 256.895C308.883 256.416 308.738 256.044 308.164 256.318C304.407 258.268 300.846 260.581 297.534 263.225C291.238 267.868 285.633 273.393 280.888 279.631C280.665 279.944 280.169 280.609 280.665 280.853C281.16 281.098 282.025 280.11 282.21 279.875L282.249 279.856Z" fill="#092857"/>
<path d="M409.805 224.632L422.156 222.675C422.818 222.47 423.376 222.014 423.71 221.403C423.895 221.09 424.167 220.376 423.526 220.425L411.175 222.382C410.512 222.59 409.954 223.049 409.621 223.663C409.436 223.967 409.164 224.69 409.805 224.583V224.632Z" fill="#092857"/>
<path d="M202.355 75.0139H256.595C257.719 75.0261 258.833 74.7927 259.858 74.3299C260.884 73.8671 261.798 73.1858 262.537 72.3331C263.276 71.4803 263.822 70.4764 264.139 69.3905C264.455 68.3046 264.534 67.1625 264.369 66.0431L261.454 45.783C261.201 43.8936 260.271 42.1622 258.84 40.914C257.409 39.6657 255.574 38.9864 253.68 39.0035H199.527C198.406 38.9995 197.296 39.2384 196.275 39.7039C195.253 40.1694 194.342 40.8507 193.605 41.7015C192.868 42.5523 192.321 43.5528 192.001 44.6351C191.682 45.7174 191.597 46.8562 191.753 47.9743L194.581 68.2344C194.834 70.1238 195.764 71.8551 197.195 73.1034C198.626 74.3517 200.461 75.031 202.355 75.0139Z" fill="#A1CDFF" stroke="#A1CDFF" stroke-width="0.666667" stroke-linecap="round" stroke-linejoin="round"/>
<path d="M215.366 47.8471L210.615 53.12C209.371 54.4994 207.612 56.3287 208.972 58.2266C209.639 59.0152 210.427 59.6921 211.305 60.2321L214.22 62.3843L220.235 66.8061C220.944 67.3246 222.878 65.1528 222.295 64.7321C218.923 62.2571 215.493 59.8408 212.169 57.2972C211.444 56.8548 210.908 56.1578 210.663 55.3407C210.527 54.4994 211.45 53.8243 211.956 53.2667L216.144 48.6199C216.367 48.3753 217.115 47.5536 216.775 47.1818C216.435 46.8101 215.532 47.5927 215.337 47.8079L215.366 47.8471Z" fill="#092857"/>
<path d="M229.728 49.2656L224.238 66.1506C224.034 66.7963 224.927 66.4735 225.161 66.3365C225.749 65.9782 226.196 65.4248 226.424 64.7713L231.914 47.8764C232.118 47.2307 231.224 47.5536 230.942 47.7003C230.351 48.0555 229.903 48.61 229.679 49.2656H229.728Z" fill="#092857"/>
<path d="M235.218 49.8821L245.275 57.1996L245.907 55.7517L237.443 65.2117C237.22 65.466 236.471 66.278 236.821 66.6595C237.171 67.0411 238.055 66.2389 238.25 66.0237L246.713 56.5637C246.878 56.3778 247.753 55.4289 247.335 55.1256L237.278 47.7983C236.559 47.2799 234.635 49.4516 235.218 49.8821Z" fill="#092857"/>
<path d="M214.676 251.896H296.669C304.161 251.896 309.379 245.606 308.329 237.858L290.168 104.118C289.119 96.3599 282.19 90.0793 274.699 90.0793H90.2195C82.7277 90.0793 77.5096 96.3599 78.559 104.118L96.7106 237.858C97.7697 245.606 104.698 251.896 112.18 251.896H162.282" fill="white"/>
<path d="M213.782 253.002H294.949C297.069 253.076 299.181 252.703 301.149 251.906C303.349 250.92 305.265 249.387 306.716 247.452C308.168 245.517 309.107 243.242 309.447 240.842C309.601 238.253 309.418 235.655 308.903 233.113L307.251 220.914L301.79 180.717L295.746 136.186L291.713 106.485C291.286 103.355 290.917 100.39 289.352 97.5436C287.912 94.9278 285.799 92.7512 283.234 91.243C280.668 89.7349 277.747 88.951 274.776 88.9739H90.7736C88.3749 89.0655 86.0404 89.7802 83.9972 91.0487C81.9539 92.3173 80.2714 94.0964 79.1131 96.2131C77.1017 99.8425 77.3155 103.599 77.8499 107.493L79.3172 118.371L84.5741 157.091L90.6959 202.092L95.0103 233.935C95.2435 235.647 95.4378 237.359 95.7099 239.061C96.1531 241.715 97.2157 244.225 98.8104 246.385C100.405 248.545 102.486 250.293 104.883 251.485C107.226 252.583 109.791 253.116 112.375 253.041H161.368C161.68 252.996 161.978 252.885 162.244 252.717C162.51 252.548 162.738 252.326 162.913 252.063C163.02 251.926 163.72 250.84 163.137 250.84H114.143C111.503 250.929 108.881 250.368 106.506 249.206C104.209 248.001 102.226 246.268 100.717 244.149C99.2082 242.03 98.2153 239.584 97.8185 237.007C96.944 231.049 96.1958 225.082 95.3893 219.114L89.8894 178.604L83.9328 134.757L80.046 106.211C79.599 102.905 79.0743 99.6567 80.5318 96.4283C82.4072 92.2707 86.5758 91.2141 90.7056 91.2141H272.94C275.809 91.1753 278.637 91.9083 281.131 93.3374C283.625 94.7665 285.695 96.84 287.127 99.3436C288.75 102.171 289.07 105.213 289.508 108.295L291.072 119.799L296.378 158.931L302.402 203.266L306.6 234.219C306.843 235.97 307.144 237.731 307.3 239.492C307.756 244.579 305.269 249.411 300.09 250.556C298.776 250.8 297.44 250.898 296.105 250.85H215.561C215.248 250.894 214.948 251.005 214.68 251.173C214.413 251.342 214.183 251.565 214.006 251.828C213.899 251.965 213.209 253.051 213.782 253.051V253.002Z" fill="#092857"/>
<path d="M189.693 321.843H220.701C230.321 321.843 228.863 315.318 216.814 313.097C212.771 312.344 208.962 311.503 205.066 310.75" fill="white"/>
<path d="M188.809 322.949H217.728C219.868 323.101 222.019 322.913 224.102 322.391C224.95 322.159 225.738 321.742 226.409 321.171C227.081 320.6 227.62 319.888 227.989 319.084C228.494 317.695 227.688 316.433 226.667 315.543C224.51 313.675 221.478 312.784 218.758 312.197C214.511 311.278 210.226 310.466 205.96 309.634C205.134 309.478 203.434 311.708 204.192 311.855C207.641 312.53 211.091 313.273 214.55 313.939C217.409 314.333 220.191 315.164 222.8 316.404C223.956 317.03 225.715 318.087 225.919 319.534C225.919 319.622 225.919 320.063 225.919 320.102C226.045 320.298 225.822 319.896 226.181 319.847C225.932 319.943 225.691 320.061 225.462 320.2C224.985 320.364 224.494 320.485 223.995 320.562C222.059 320.777 220.11 320.836 218.165 320.738H190.578C190.267 320.783 189.968 320.893 189.702 321.062C189.436 321.23 189.208 321.453 189.033 321.716C188.926 321.853 188.226 322.939 188.809 322.939V322.949Z" fill="#092857"/>
<path d="M180.064 207.267H213.296C216.853 207.267 219.573 210.682 219.049 214.487L204.978 316.482C204.824 317.926 204.155 319.265 203.096 320.251C202.036 321.236 200.658 321.802 199.216 321.843H152.195C148.308 321.843 145.51 317.803 146.608 313.773L174.486 211.777C174.794 210.513 175.507 209.385 176.515 208.57C177.523 207.755 178.771 207.297 180.064 207.267Z" fill="white"/>
<path d="M179.18 208.373H212.402C213.648 208.412 214.848 208.858 215.821 209.643C216.793 210.428 217.486 211.51 217.795 212.726C218.033 213.884 218.033 215.08 217.795 216.238L216.406 226.344L211.052 265.181L205.581 304.841L204.094 315.602C204.026 316.12 203.968 316.58 203.88 317.147C203.823 318.126 203.391 319.043 202.675 319.707C201.959 320.371 201.015 320.73 200.042 320.708H154.858C152.963 320.708 151.185 320.767 149.61 319.417C146.404 316.658 147.716 313.019 148.639 309.634L157.122 278.613L168.539 236.811L175.4 211.699C175.458 211.503 175.506 211.307 175.565 211.112C175.761 210.304 176.227 209.589 176.885 209.086C177.544 208.584 178.354 208.325 179.18 208.353C179.49 208.306 179.788 208.195 180.054 208.027C180.32 207.858 180.548 207.636 180.725 207.375C180.831 207.248 181.521 206.132 180.948 206.152C177.275 206.26 174.321 209.165 173.349 212.618C173.116 213.43 172.902 214.252 172.679 215.074L169.336 227.302L158.268 267.823L147.988 305.437C147.197 308.294 146.413 311.157 145.636 314.027C145.254 315.204 145.177 316.461 145.414 317.676C145.65 318.892 146.192 320.027 146.987 320.972C148.571 322.743 150.621 322.929 152.817 322.929H198.293C199.418 322.894 200.522 322.613 201.528 322.107C202.535 321.6 203.42 320.879 204.123 319.994C206.164 317.558 206.251 314.438 206.659 311.434L211.469 276.588L217.416 233.544L219.457 218.762C219.778 216.385 220.613 213.342 219.982 210.936C219.695 209.771 219.087 208.711 218.227 207.88C217.367 207.049 216.291 206.48 215.123 206.24C214.518 206.16 213.906 206.134 213.296 206.162H180.948C180.637 206.207 180.338 206.317 180.072 206.486C179.806 206.654 179.578 206.877 179.403 207.14C179.296 207.287 178.606 208.373 179.18 208.373Z" fill="#092857"/>
<path d="M199.26 237.287C203.829 232.998 204.534 226.283 200.834 222.288C197.135 218.292 190.432 218.529 185.862 222.818C181.293 227.106 180.588 233.821 184.288 237.817C187.987 241.812 194.69 241.575 199.26 237.287Z" fill="white"/>
<path d="M204.191 229.357C204.765 224.798 202.559 220.367 198.109 218.84C193.25 217.197 187.993 219.584 184.699 223.174C181.405 226.764 179.559 232.028 181.784 236.616C183.844 240.901 188.751 242.544 193.182 241.409C195.962 240.649 198.472 239.115 200.424 236.983C202.377 234.851 203.693 232.208 204.221 229.357C204.318 228.721 203.608 228.995 203.298 229.171C202.695 229.514 202.244 230.073 202.034 230.736C201.761 232.736 200.905 234.609 199.572 236.117C198.24 237.626 196.493 238.702 194.552 239.208C192.7 239.747 190.727 239.688 188.911 239.039C187.095 238.389 185.526 237.183 184.427 235.589C183.423 233.882 182.954 231.911 183.081 229.931C183.207 227.952 183.924 226.058 185.136 224.495C186.364 222.929 188.015 221.754 189.891 221.11C191.766 220.467 193.786 220.382 195.708 220.865C197.785 221.438 199.578 222.762 200.746 224.584C201.913 226.405 202.372 228.596 202.034 230.736C201.957 231.372 202.637 231.108 202.957 230.922C203.553 230.579 203.995 230.019 204.191 229.357Z" fill="#092857"/>
<path d="M13.5712 211.943H79.4823L69.0558 137.311C68.7034 135.086 67.5899 133.055 65.9079 131.569C64.2259 130.082 62.0811 129.234 59.844 129.171H10.0925C9.07194 129.143 8.05798 129.345 7.12444 129.761C6.1909 130.177 5.36123 130.798 4.69579 131.577C4.03035 132.357 3.54586 133.276 3.27757 134.268C3.00928 135.26 2.96393 136.299 3.14482 137.311L13.5712 211.943Z" fill="#A1CDFF"/>
<path d="M12.6966 213.049H78.6076C79.385 213.049 80.7162 211.904 80.5996 211.092L78.6076 196.839L74.4779 167.275L70.9117 141.693C70.6688 139.981 70.455 138.269 70.1926 136.567C69.8313 134.226 68.6561 132.091 66.8764 130.541C65.0968 128.991 62.8284 128.128 60.4755 128.105C53.2363 128.105 45.9971 128.105 38.7579 128.105H11.0058C9.53788 128.13 8.09703 128.507 6.80262 129.205C5.50822 129.902 4.39752 130.9 3.56254 132.116C1.78431 134.63 1.92035 137.291 2.30903 140.128L5.32134 161.709L9.5677 192.035L12.3274 211.846L12.4634 212.824C12.5703 213.548 14.7858 211.914 14.6692 211.043L12.7258 197.279L8.70288 168.332L5.11727 142.603C4.84519 140.647 4.5634 138.69 4.30104 136.782C3.99171 135.231 4.22518 133.621 4.96179 132.224C5.9335 130.648 7.87692 130.267 9.59685 130.267C16.8264 130.267 24.0656 130.267 31.2951 130.267H56.8219C57.5118 130.267 58.192 130.267 58.8819 130.267C60.3436 130.291 61.7796 130.657 63.0765 131.336C64.3734 132.016 65.4956 132.989 66.3544 134.18C67.7925 136.137 67.9966 138.387 68.2978 140.705L71.3781 162.756L75.5467 192.632L78.2287 211.816L78.355 212.795L80.2984 210.838H14.4554C14.1434 210.881 13.8442 210.99 13.5777 211.159C13.3112 211.327 13.0837 211.552 12.9104 211.816C12.8035 211.963 12.1039 213.049 12.6966 213.049Z" fill="#A1CDFF"/>
<path d="M44.6365 197.827H42.6348C42.5241 197.83 42.414 197.808 42.313 197.763C42.212 197.717 42.1227 197.649 42.0518 197.563C41.7345 197.209 41.4605 196.818 41.2356 196.399C40.6525 195.42 40.089 194.374 39.5157 193.356L39.2144 192.808C39.1918 192.764 39.1538 192.729 39.1075 192.711L37.4168 192.055C37.3937 192.045 37.3689 192.04 37.3439 192.04C37.3188 192.04 37.294 192.045 37.271 192.055C36.0855 192.593 34.9097 193.141 33.7243 193.669C33.4298 193.793 33.128 193.897 32.8206 193.982C32.686 194.019 32.5442 194.019 32.4095 193.983C32.2748 193.947 32.1518 193.876 32.0529 193.777C30.9646 192.851 29.8828 191.915 28.8074 190.969C28.7081 190.885 28.6344 190.774 28.5948 190.649C28.5553 190.525 28.5515 190.392 28.5839 190.265C28.6488 189.764 28.7428 189.268 28.8657 188.778C29.1475 187.712 29.4585 186.665 29.7597 185.598C29.776 185.56 29.7844 185.518 29.7844 185.476C29.7844 185.434 29.776 185.393 29.7597 185.354C29.4876 184.865 29.2155 184.376 28.9532 183.896C28.9347 183.863 28.9097 183.833 28.8797 183.81C28.8496 183.786 28.8151 183.769 28.7783 183.759C27.5345 183.309 26.2907 182.869 25.0566 182.409C24.6388 182.253 24.2404 182.038 23.8323 181.842C23.7581 181.801 23.6867 181.755 23.6185 181.705C23.5427 181.653 23.479 181.585 23.4321 181.505C23.3851 181.426 23.3558 181.337 23.3464 181.245C23.1521 179.905 22.9674 178.555 22.7731 177.205C22.7508 177.114 22.7566 177.019 22.7896 176.931C22.8225 176.844 22.8812 176.769 22.9577 176.716C23.2306 176.512 23.5199 176.332 23.8225 176.178C24.9303 175.669 26.0478 175.199 27.1652 174.7L27.4276 174.593C27.4787 174.579 27.5246 174.551 27.5593 174.511C27.594 174.47 27.6158 174.421 27.6219 174.368C27.7482 173.889 27.8843 173.39 28.0203 172.949C28.0366 172.916 28.0451 172.879 28.0451 172.842C28.0451 172.804 28.0366 172.768 28.0203 172.734C27.3207 171.541 26.6113 170.347 25.9311 169.154C25.7411 168.802 25.5723 168.44 25.4259 168.068C25.3656 167.957 25.3426 167.829 25.3601 167.704C25.3776 167.579 25.4347 167.463 25.523 167.373C26.3393 166.454 27.1458 165.524 27.9523 164.605C28.0418 164.507 28.1577 164.439 28.2855 164.408C28.4134 164.376 28.5476 164.384 28.6714 164.429C29.1669 164.566 29.6431 164.702 30.1484 164.888C31.3339 165.329 32.5096 165.788 33.6854 166.238C33.7478 166.263 33.8173 166.263 33.8797 166.238L35.347 165.612C35.3917 165.581 35.4257 165.537 35.4442 165.485C35.6482 164.644 35.8523 163.793 36.0661 162.951C36.2141 162.282 36.4222 161.627 36.688 160.995C36.7506 160.862 36.8289 160.737 36.9212 160.623C36.9618 160.573 37.014 160.533 37.0733 160.508C37.1325 160.482 37.197 160.471 37.2613 160.476C38.6314 160.476 40.0015 160.476 41.3716 160.476C41.4704 160.474 41.5682 160.495 41.6575 160.538C41.7469 160.58 41.8253 160.643 41.8866 160.721C42.1131 160.986 42.3209 161.267 42.5085 161.562C43.1304 162.619 43.7329 163.685 44.3353 164.751C44.4811 164.996 44.6074 165.25 44.7434 165.495C44.7729 165.546 44.8169 165.587 44.8698 165.612L46.5508 166.258C46.5983 166.273 46.6491 166.273 46.6966 166.258C47.4545 165.906 48.2027 165.534 48.9704 165.192C49.5728 164.918 50.2045 164.673 50.8263 164.429C50.9885 164.367 51.1588 164.331 51.3316 164.321C51.4346 164.314 51.538 164.328 51.6351 164.364C51.7321 164.399 51.8208 164.454 51.8952 164.526L55.1116 167.305C55.1964 167.366 55.2655 167.447 55.3128 167.54C55.3602 167.634 55.3845 167.738 55.3836 167.843C55.3694 168.118 55.3402 168.392 55.2962 168.665C55.0824 169.799 54.7423 170.885 54.4217 171.981C54.3536 172.235 54.2662 172.49 54.1982 172.744C54.1789 172.804 54.1789 172.869 54.1982 172.93L55.0241 174.417C55.0404 174.454 55.0645 174.487 55.0947 174.514C55.1248 174.541 55.1604 174.561 55.199 174.573C56.1707 174.916 57.191 175.258 58.1822 175.63C58.7943 175.865 59.4065 176.129 60.009 176.403C60.1718 176.485 60.3223 176.591 60.456 176.716C60.5279 176.785 60.5785 176.873 60.6017 176.97C60.6109 177.038 60.6109 177.107 60.6017 177.176C60.7864 178.467 60.9613 179.758 61.1556 181.089C61.1832 181.202 61.1756 181.32 61.1339 181.429C61.0922 181.537 61.0183 181.63 60.9224 181.695C60.575 181.921 60.2149 182.127 59.8438 182.311C58.7263 182.82 57.5797 183.29 56.4525 183.798C56.4002 183.821 56.3585 183.863 56.3359 183.916C56.1902 184.425 56.0444 184.894 55.9084 185.452C55.9084 185.452 55.9084 185.559 55.9084 185.608C56.4331 186.489 56.9675 187.359 57.4825 188.24C57.8032 188.797 58.0947 189.375 58.396 189.952C58.4669 190.106 58.5222 190.266 58.5611 190.431C58.5947 190.52 58.6015 190.616 58.5808 190.708C58.56 190.8 58.5126 190.884 58.4445 190.95L57.3076 192.251C56.8898 192.73 56.4622 193.229 56.0444 193.699C55.9526 193.817 55.8259 193.902 55.6826 193.942C55.5393 193.983 55.3869 193.976 55.2476 193.924C54.684 193.757 54.1204 193.591 53.5666 193.386C52.4588 192.975 51.3511 192.544 50.2433 192.114C50.1866 192.094 50.1251 192.094 50.0684 192.114L48.6206 192.74C48.5931 192.754 48.5687 192.773 48.5487 192.797C48.5287 192.82 48.5135 192.847 48.504 192.877C48.3679 193.444 48.2319 194.031 48.0861 194.599C47.887 195.483 47.6372 196.355 47.3379 197.211C47.2737 197.371 47.1957 197.524 47.1047 197.67C47.0574 197.745 46.9909 197.806 46.9121 197.845C46.8334 197.885 46.7455 197.902 46.6577 197.895L44.6365 197.827ZM34.385 179.142C34.5046 179.967 34.7504 180.769 35.1138 181.519C35.7472 182.826 36.6837 183.96 37.8443 184.826C39.0818 185.772 40.5475 186.37 42.0907 186.557C42.7356 186.644 43.3892 186.644 44.0341 186.557C44.707 186.47 45.3624 186.278 45.9775 185.99C46.9516 185.54 47.7923 184.842 48.4165 183.965C49.2848 182.726 49.694 181.22 49.5728 179.709C49.5191 178.949 49.3554 178.201 49.087 177.489C48.6298 176.28 47.9092 175.19 46.9784 174.299C45.7536 173.075 44.1998 172.239 42.5085 171.893C41.5054 171.683 40.4701 171.683 39.4671 171.893C38.4923 172.069 37.575 172.482 36.7949 173.096C35.8882 173.791 35.1854 174.72 34.761 175.784C34.3367 176.849 34.2068 178.009 34.385 179.142Z" fill="#092857"/>
<path d="M45.0836 197.279C43.8106 197.279 42.7903 197.504 42.0227 196.301C41.255 195.098 40.7497 194.1 40.1376 193.004C40.001 192.676 39.8031 192.377 39.5545 192.124C39.0348 191.804 38.462 191.582 37.8638 191.468C37.0086 191.468 35.9203 192.261 35.1235 192.613C34.5983 192.904 34.0448 193.14 33.4716 193.317C32.7429 193.474 32.3736 193.073 31.8489 192.623C30.8772 191.781 28.9338 190.754 29.2155 189.336C29.4293 188.093 29.8569 186.909 30.1873 185.687C30.2685 185.225 30.2206 184.75 30.049 184.315C29.8774 183.88 29.5888 183.501 29.2155 183.221C28.2875 182.75 27.3096 182.386 26.3004 182.135C25.7391 181.95 25.1905 181.728 24.6582 181.47C23.6865 181.001 23.8031 180.365 23.6865 179.435C23.6566 178.753 23.5623 178.075 23.4047 177.41V177.185C23.0743 177.019 23.0743 176.892 23.4047 176.804C23.5602 176.579 24.0169 176.491 24.2501 176.383C25.3524 175.999 26.4216 175.524 27.447 174.965C27.972 174.553 28.3199 173.954 28.4187 173.292C28.7394 172.118 28.2244 171.638 27.6122 170.602C27.1069 169.75 25.6688 168.029 26.1644 167.06C26.5705 166.499 27.0293 165.978 27.5345 165.505C28.137 164.82 28.2924 164.957 29.167 165.231C30.401 165.632 31.5768 166.209 32.8109 166.6C33.2371 166.701 33.6807 166.701 34.1071 166.601C34.5335 166.501 34.9312 166.303 35.2693 166.023C35.4894 165.868 35.6766 165.671 35.8201 165.443C35.9636 165.214 36.0604 164.959 36.105 164.693C36.309 163.891 36.5422 161.318 37.2904 160.995C37.9701 160.892 38.6611 160.892 39.3408 160.995C39.947 160.909 40.5641 160.942 41.1578 161.093C42.1296 161.572 42.7417 163.323 43.2665 164.233C43.5248 164.848 43.8507 165.432 44.2382 165.974C44.5529 166.196 44.9052 166.359 45.2779 166.454C45.6093 166.645 45.9843 166.746 46.3662 166.747C46.9408 166.569 47.4897 166.316 47.9987 165.994C48.8635 165.593 50.4571 164.556 51.39 165.016C51.9749 165.416 52.5128 165.882 52.9933 166.405C53.586 166.913 54.4703 167.442 54.7132 168.185C55.0436 169.242 54.3148 170.856 54.0136 171.893C53.8031 172.316 53.7213 172.792 53.7783 173.262C53.8353 173.732 54.0287 174.174 54.3342 174.534C54.8881 175.395 55.9959 175.512 56.9287 175.845C57.8615 176.178 59.7661 176.559 60.1353 177.596C60.2721 178.157 60.3502 178.731 60.3685 179.308C60.5351 179.948 60.6297 180.604 60.6503 181.265C60.5823 181.783 61.0196 181.089 60.4463 181.588C60.0907 181.82 59.7048 182.001 59.2997 182.126L57.3563 182.957C57.0327 183.052 56.7316 183.212 56.4711 183.427C56.2106 183.642 55.9961 183.908 55.8404 184.209C55.2185 185.55 55.442 186.029 56.1513 187.203C56.5206 187.819 56.8898 188.426 57.2299 189.052C57.4826 189.502 58.1142 190.294 58.0947 190.832C58.0753 191.37 57.0259 192.182 56.7441 192.505C56.1513 193.18 56.025 193.405 55.131 193.131C53.7901 192.72 52.5171 192.094 51.1859 191.674C50.7379 191.578 50.274 191.591 49.8317 191.71C49.3894 191.829 48.9812 192.051 48.64 192.358C47.8724 192.965 47.8432 194.012 47.6197 194.902C47.522 195.63 47.3259 196.341 47.0367 197.015C46.7646 197.465 46.9881 197.348 46.3565 197.289C45.9581 197.289 45.5403 197.289 45.1419 197.289C44.7435 197.289 44.0827 197.866 44.1702 198.267C44.1702 198.619 45.3362 197.807 45.2779 197.377L44.3062 198.355C45.171 198.355 46.3565 198.59 47.1144 198.081C47.7422 197.512 48.1629 196.747 48.3096 195.91C48.504 195.264 48.6594 194.599 48.8246 193.953C48.8648 193.581 48.953 193.216 49.087 192.867C48.8829 193.19 48.951 192.945 49.2522 192.867C49.5534 192.789 49.7575 192.623 50.1462 192.681C50.504 192.783 50.852 192.917 51.1859 193.082C51.8758 193.346 52.556 193.63 53.2556 193.875C54.1399 194.188 55.1505 194.736 56.0153 194.149C57.0021 193.3 57.8801 192.33 58.6292 191.263C59.1636 190.646 59.4163 190.284 59.0762 189.433C58.5141 188.229 57.8645 187.068 57.1327 185.96C56.8999 185.672 56.7534 185.323 56.7104 184.954C56.6674 184.585 56.7296 184.211 56.8898 183.877C56.5692 184.356 57.2202 183.877 57.4048 183.779L58.4737 183.319C59.5449 182.973 60.5362 182.414 61.3888 181.676C61.9427 181.05 61.797 180.492 61.6804 179.719C61.5637 178.946 61.486 178.291 61.3791 177.567C61.3111 177.039 61.3791 176.471 60.9321 176.09C59.1539 174.417 54.3731 175.111 55.0144 171.619C55.2574 170.298 55.9278 169.046 55.9861 167.706C55.9861 166.493 54.3828 165.651 53.5471 164.937C52.7115 164.223 52.2839 163.568 51.2442 163.881C50.0198 164.243 48.9315 164.937 47.746 165.397C47.3414 165.538 46.9083 165.575 46.4858 165.505C46.0633 165.435 45.6649 165.26 45.3265 164.996C44.937 164.455 44.6109 163.871 44.3548 163.255C43.8592 162.384 43.1596 160.447 42.1684 160.007C41.5491 159.869 40.9098 159.849 40.2833 159.948H38.233C37.9095 159.907 37.5809 159.958 37.2852 160.097C36.9894 160.235 36.7386 160.455 36.5617 160.731C35.948 161.794 35.5454 162.966 35.3762 164.184C35.3082 164.438 34.8709 165.749 35.2693 165.299C34.5988 166.053 33.5785 165.485 32.8692 165.211C31.6898 164.642 30.4515 164.205 29.1767 163.91C28.3604 163.802 27.894 164.36 27.3887 164.937L25.8729 166.669C25.4572 167.021 25.1251 167.462 24.9012 167.96C24.6874 168.85 25.7368 170.191 26.1547 170.895C26.5725 171.599 26.9223 172.069 27.2041 172.685C27.3747 173.113 27.4284 173.579 27.3596 174.035C27.3596 174.329 27.2041 174.534 27.4762 174.221C26.8259 174.622 26.1225 174.928 25.387 175.131C24.7566 175.388 24.1432 175.685 23.5505 176.021C23.236 176.162 22.9598 176.377 22.745 176.647C22.5303 176.918 22.3833 177.237 22.3164 177.577C22.3375 178.14 22.4124 178.7 22.5399 179.249C22.5638 180.084 22.6779 180.914 22.88 181.725C23.2978 182.791 24.9692 183.094 25.9409 183.446C26.6308 183.701 27.3401 183.906 28.0106 184.19C28.471 184.444 28.8293 184.851 29.0243 185.342C29.2193 185.833 29.2388 186.376 29.0795 186.88C28.8074 188.103 27.9232 189.717 28.1078 190.989C28.1953 191.527 28.72 191.811 29.0795 192.143C29.7986 192.769 30.5079 193.415 31.2464 194.021C32.2181 194.814 32.8595 194.52 33.9575 194.021C35.3859 193.405 37.3099 191.987 38.7675 193.337C39.1635 193.856 39.4901 194.425 39.7392 195.029C40.1278 195.714 40.4971 196.408 40.9052 197.074C41.1676 197.504 41.4785 198.13 41.9741 198.326C42.736 198.476 43.5173 198.499 44.2868 198.394C44.6268 198.385 45.3945 197.279 45.0836 197.279Z" fill="#092857"/>
<path d="M33.8316 179.592C34.1255 181.284 34.8851 182.86 36.0239 184.14C37.1627 185.419 38.6352 186.352 40.2741 186.831C41.8778 187.346 43.6064 187.306 45.1852 186.718C46.764 186.131 48.1024 185.029 48.9879 183.588C49.8734 182.146 50.2551 180.449 50.0725 178.764C49.8898 177.079 49.1532 175.504 47.9797 174.29C46.8717 172.966 45.3981 172.004 43.7459 171.525C42.0937 171.046 40.3374 171.072 38.6999 171.599C37.1195 172.194 35.7824 173.304 34.9018 174.752C34.0212 176.201 33.6479 177.905 33.8413 179.592C33.8413 179.934 34.988 179.142 34.9491 178.702C34.677 175.953 35.7848 173.292 38.6221 172.509C40.0533 172.171 41.5477 172.221 42.9538 172.652C44.36 173.083 45.6279 173.881 46.629 174.965C48.6502 177.029 49.7579 180.325 48.5044 183.084C47.1829 186.019 43.5779 186.547 40.8085 185.608C39.3119 185.087 37.9816 184.172 36.9561 182.957C35.9307 181.742 35.2476 180.273 34.9782 178.702C34.8811 178.33 33.7636 179.161 33.8316 179.592Z" fill="#092857"/>
<path d="M16.5151 145.616H7.62395C7.31137 145.661 7.01158 145.771 6.74383 145.94C6.47607 146.108 6.24627 146.331 6.06921 146.594C5.96232 146.731 5.27241 147.817 5.84572 147.817H14.7369C15.0494 147.772 15.3492 147.662 15.617 147.494C15.8847 147.325 16.1145 147.102 16.2916 146.839C16.3985 146.702 17.0884 145.616 16.5151 145.616Z" fill="#092857"/>
<path d="M68.8519 145.616H25.329C25.0164 145.661 24.7167 145.771 24.4489 145.94C24.1812 146.108 23.9514 146.331 23.7743 146.594C23.6674 146.731 22.9775 147.817 23.5508 147.817H67.1125C67.4251 147.772 67.7249 147.662 67.9926 147.494C68.2604 147.325 68.4902 147.102 68.6673 146.839C68.7741 146.702 69.4641 145.616 68.8907 145.616H68.8519Z" fill="#092857"/>
<path d="M27.2724 61.2005L7.74099 49.4612C6.9539 48.9916 5.1271 51.2025 5.68097 51.5449L25.2123 63.2842C25.9994 63.7538 27.8359 61.5429 27.2724 61.2005Z" fill="#092857"/>
<path d="M40.3611 104.401H182.318L170.045 16.4541C169.79 14.5665 168.86 12.8375 167.428 11.5912C165.997 10.345 164.164 9.66698 162.272 9.68441H36.1342C35.0102 9.67224 33.897 9.9056 32.8713 10.3684C31.8455 10.8312 30.9317 11.5125 30.1927 12.3652C29.4538 13.218 28.9073 14.2219 28.591 15.3078C28.2747 16.3937 28.1961 17.5358 28.3605 18.6552L40.3611 104.401Z" fill="#0A7AF9"/>
<path d="M39.4767 105.517H175.613C177.469 105.517 179.345 105.605 181.191 105.517C181.272 105.512 181.353 105.512 181.434 105.517C182.211 105.517 183.542 104.362 183.426 103.511L179.986 78.8978L173.845 34.8753L171.697 19.5555C171.532 18.3718 171.377 17.1783 171.202 15.9946C171.055 14.6096 170.567 13.2833 169.783 12.1355C169 10.9877 167.944 10.0547 166.712 9.42055C164.4 8.27596 161.621 8.57923 159.114 8.57923H37.6499C36.2207 8.52557 34.7965 8.77974 33.4727 9.32473C32.1488 9.86972 30.9558 10.693 29.9734 11.7395C28.9909 12.7859 28.2418 14.0315 27.7759 15.3929C27.3101 16.7543 27.1383 18.2002 27.2721 19.6338C27.6316 22.5686 28.0786 25.5034 28.4867 28.3796L34.2489 69.6238L38.9714 103.462L39.2241 105.282C39.3213 105.996 41.5465 104.362 41.4202 103.492L37.9997 78.937L31.9654 35.7362L29.9151 21.0621C29.7694 20.0251 29.6236 18.9979 29.4876 17.9707C28.992 14.3022 30.8868 11.1228 34.7445 10.7901C36.5325 10.6434 38.369 10.7901 40.1667 10.7901H160.834C162.854 10.6956 164.837 11.3577 166.401 12.6489C167.939 14.0938 168.885 16.0651 169.054 18.1761L170.57 29.0252L176.4 70.8173L180.967 103.56L181.21 105.302L183.202 103.296H58.6874C52.9641 103.296 47.2018 103.081 41.4882 103.296H41.2453C40.9346 103.343 40.6369 103.454 40.371 103.622C40.105 103.791 39.8767 104.013 39.7002 104.274C39.5933 104.421 38.9326 105.517 39.4767 105.517Z" fill="#0A7AF9"/>
<path d="M64.4693 28.6632L82.2127 28.5849C82.5232 28.5376 82.8207 28.4263 83.0865 28.2579C83.3523 28.0896 83.5808 27.8679 83.7577 27.6066C83.8646 27.4697 84.5545 26.3838 83.9812 26.3838L66.2475 26.4621C65.9356 26.5047 65.6363 26.614 65.3698 26.7828C65.1033 26.9515 64.8758 27.1757 64.7025 27.4403C64.5956 27.5675 63.896 28.6632 64.4693 28.6632Z" fill="#092857"/>
<path d="M64.8287 37.0175L105.971 36.9393C106.281 36.8919 106.579 36.7806 106.845 36.6123C107.11 36.444 107.339 36.2223 107.516 35.961C107.623 35.824 108.313 34.7382 107.739 34.7382L66.6069 34.8164C66.2949 34.859 65.9957 34.9684 65.7292 35.1371C65.4627 35.3059 65.2351 35.5301 65.0619 35.7947C64.955 35.9219 64.2553 37.0175 64.8287 37.0175Z" fill="#092857"/>
<path d="M69.3085 69.0366L98.2265 68.9584C98.5374 68.9122 98.8353 68.8013 99.1013 68.6329C99.3673 68.4645 99.5956 68.2422 99.7716 67.9801C99.8784 67.8432 100.568 66.7475 99.995 66.7573L71.077 66.8355C70.7654 66.8794 70.4666 66.9892 70.2003 67.1578C69.9339 67.3265 69.7062 67.55 69.532 67.8138C69.4251 67.9508 68.7254 69.0366 69.3085 69.0366Z" fill="#092857"/>
<path d="M105.378 69.0366L120.693 68.9584C121.005 68.9135 121.305 68.8032 121.573 68.6348C121.84 68.4663 122.07 68.2433 122.247 67.9801C122.354 67.8432 123.044 66.7475 122.471 66.7573L107.157 66.8355C106.844 66.8804 106.544 66.9907 106.277 67.1591C106.009 67.3276 105.779 67.5506 105.602 67.8138C105.495 67.9508 104.805 69.0366 105.378 69.0366Z" fill="#092857"/>
<path d="M127.504 69.0366L142.828 68.9584C143.139 68.9134 143.437 68.803 143.704 68.6345C143.97 68.4659 144.198 68.243 144.373 67.9801C144.48 67.8432 145.17 66.7475 144.596 66.7573L129.282 66.8355C128.971 66.8794 128.672 66.9892 128.405 67.1578C128.139 67.3265 127.911 67.55 127.737 67.8138C127.63 67.9508 126.931 69.0366 127.504 69.0366Z" fill="#092857"/>
<path d="M67.0542 52.8951H80.8816C81.1927 52.8495 81.4908 52.7389 81.7569 52.5704C82.023 52.402 82.2511 52.1793 82.4266 51.9168C82.5335 51.7799 83.2235 50.694 82.6502 50.694H68.8227C68.512 50.7407 68.2144 50.8518 67.9484 51.0202C67.6825 51.1886 67.4541 51.4106 67.2777 51.6722C67.1708 51.7994 66.4809 52.8951 67.0542 52.8951Z" fill="#092857"/>
<path d="M85.7207 52.8951H94.4661C94.7791 52.8514 95.0793 52.7416 95.3472 52.5731C95.6151 52.4045 95.8447 52.1809 96.0209 51.9168C96.118 51.7799 96.8177 50.694 96.2444 50.694H87.499C87.187 50.7366 86.8877 50.8459 86.6213 51.0147C86.3548 51.1834 86.1272 51.4076 85.954 51.6722C85.8471 51.7994 85.1474 52.8951 85.7207 52.8951Z" fill="#092857"/>
<path d="M100.247 52.8951H108.993C109.305 52.8525 109.604 52.7431 109.871 52.5744C110.137 52.4057 110.365 52.1814 110.538 51.9168C110.645 51.7799 111.344 50.694 110.761 50.694H102.016C101.704 50.7378 101.406 50.8477 101.139 51.0163C100.873 51.1849 100.645 51.4085 100.471 51.6722C100.364 51.7994 99.6644 52.8951 100.247 52.8951Z" fill="#092857"/>
<path d="M115.348 52.8951H127.903C128.214 52.8507 128.513 52.7406 128.779 52.572C129.045 52.4034 129.273 52.1801 129.448 51.9168C129.564 51.7799 130.254 50.694 129.681 50.694H117.117C116.806 50.7396 116.507 50.8502 116.241 51.0186C115.975 51.1871 115.747 51.4098 115.572 51.6722C115.465 51.7994 114.775 52.8951 115.348 52.8951Z" fill="#092857"/>
<path d="M135.054 52.8951H153.954C154.265 52.8495 154.563 52.7389 154.829 52.5704C155.095 52.402 155.323 52.1793 155.499 51.9168C155.606 51.7799 156.296 50.694 155.722 50.694H136.823C136.511 50.7378 136.212 50.8477 135.946 51.0163C135.68 51.1849 135.452 51.4085 135.278 51.6722C135.171 51.7994 134.481 52.8951 135.054 52.8951Z" fill="#092857"/>
<path d="M71.9126 87.7217H85.74C86.0516 87.6779 86.3504 87.568 86.6168 87.3994C86.8831 87.2307 87.1108 87.0072 87.285 86.7434C87.3919 86.6065 88.0916 85.5108 87.5085 85.5206H73.6811C73.3704 85.5673 73.0728 85.6784 72.8068 85.8468C72.5409 86.0152 72.3125 86.2372 72.1361 86.4989C72.0292 86.6358 71.3393 87.7217 71.9126 87.7217Z" fill="#092857"/>
<path d="M92.4256 87.7217H101.171C101.484 87.6768 101.783 87.5665 102.051 87.3981C102.319 87.2296 102.549 87.0066 102.726 86.7434C102.823 86.6065 103.522 85.5108 102.949 85.5206H94.2038C93.8908 85.5643 93.5906 85.674 93.3227 85.8426C93.0548 86.0112 92.8252 86.2348 92.649 86.4989C92.5519 86.6358 91.8522 87.7217 92.4256 87.7217Z" fill="#092857"/>
<path d="M107.526 87.7217H120.08C120.393 87.6768 120.693 87.5665 120.961 87.3981C121.228 87.2296 121.458 87.0066 121.635 86.7434C121.742 86.6065 122.432 85.5108 121.859 85.5206H109.304C108.992 85.5661 108.692 85.6765 108.424 85.8449C108.157 86.0134 107.927 86.2361 107.749 86.4989C107.643 86.6358 106.953 87.7217 107.526 87.7217Z" fill="#092857"/>
<path d="M127.232 87.7217H146.132C146.443 87.6779 146.742 87.568 147.008 87.3994C147.275 87.2307 147.503 87.0072 147.677 86.7434C147.784 86.6065 148.483 85.5108 147.91 85.5206H129.01C128.698 85.5661 128.398 85.6765 128.131 85.8449C127.863 86.0134 127.633 86.2361 127.455 86.4989C127.349 86.6358 126.659 87.7217 127.232 87.7217Z" fill="#092857"/>
<path d="M114.279 37.0175L155.412 36.9393C155.724 36.8921 156.023 36.7809 156.29 36.6126C156.557 36.4443 156.788 36.2226 156.966 35.961C157.073 35.824 157.763 34.7382 157.19 34.7382L116.048 34.8164C115.736 34.8603 115.437 34.9701 115.171 35.1387C114.905 35.3074 114.677 35.5309 114.503 35.7947C114.396 35.9219 113.706 37.0175 114.279 37.0175Z" fill="#092857"/>
<path d="M70.4745 77.3519L111.607 77.2737C111.919 77.2299 112.217 77.12 112.484 76.9514C112.75 76.7827 112.978 76.5592 113.152 76.2954C113.259 76.1585 113.958 75.0628 113.375 75.0726L72.243 75.1508C71.9314 75.1947 71.6326 75.3045 71.3663 75.4731C71.1 75.6418 70.8722 75.8653 70.698 76.1291C70.5911 76.2661 69.8915 77.3519 70.4745 77.3519Z" fill="#092857"/>
<path d="M119.915 77.3519L161.048 77.2737C161.36 77.2288 161.66 77.1186 161.928 76.9501C162.195 76.7816 162.425 76.5586 162.602 76.2954C162.709 76.1585 163.399 75.0628 162.826 75.0726L121.693 75.1508C121.381 75.1957 121.081 75.306 120.813 75.4744C120.545 75.6429 120.316 75.8659 120.139 76.1291C120.032 76.2661 119.342 77.3519 119.915 77.3519Z" fill="#092857"/>
<path d="M45.21 28.7414L58.4835 28.6827C58.7949 28.6383 59.0935 28.5282 59.3597 28.3596C59.626 28.191 59.8539 27.9677 60.0285 27.7044C60.1354 27.5772 60.8351 26.4816 60.2617 26.4816L46.9785 26.5403C46.6685 26.5893 46.3717 26.7013 46.1061 26.8695C45.8404 27.0377 45.6116 27.2585 45.4335 27.5185C45.3266 27.6555 44.6367 28.7414 45.21 28.7414Z" fill="#092857"/>
<path d="M69.0557 61.2693L79.074 61.1813C79.3852 61.1363 79.6836 61.0259 79.9497 60.8574C80.2159 60.6889 80.4439 60.4659 80.619 60.203C80.7259 60.0661 81.4158 58.9704 80.8425 58.9802L70.8242 59.0584C70.513 59.1034 70.2146 59.2138 69.9485 59.3823C69.6823 59.5509 69.4543 59.7738 69.2792 60.0367C69.1723 60.1639 68.4824 61.2595 69.0557 61.2595V61.2693Z" fill="#092857"/>
<path d="M49.7578 61.3474L64.0711 61.2886C64.3835 61.2432 64.6831 61.1327 64.9507 60.9643C65.2184 60.7959 65.4483 60.5731 65.6258 60.3104C65.7327 60.1832 66.4226 59.0875 65.8493 59.0875L51.5361 59.1462C51.2242 59.1934 50.9253 59.3046 50.6578 59.4729C50.3904 59.6412 50.1601 59.863 49.9813 60.1245C49.8744 60.2615 49.1845 61.3474 49.7578 61.3474Z" fill="#092857"/>
<path d="M64.1973 44.2081L75.712 44.1298C76.0231 44.0842 76.3212 43.9736 76.5873 43.8052C76.8534 43.6367 77.0815 43.414 77.2571 43.1516C77.3639 43.0244 78.0539 41.9287 77.4805 41.9287L65.9658 42.007C65.6553 42.0543 65.3578 42.1656 65.092 42.334C64.8261 42.5023 64.5976 42.724 64.4208 42.9853C64.3139 43.1222 63.624 44.2081 64.1973 44.2081Z" fill="#092857"/>
<path d="M47.377 44.2861L58.231 44.2274C58.5435 44.1825 58.8433 44.0723 59.1111 43.9038C59.3788 43.7353 59.6086 43.5123 59.7857 43.2492C59.8926 43.1122 60.5825 42.0165 60.0092 42.0263L49.1552 42.085C48.8426 42.1299 48.5428 42.2401 48.2751 42.4086C48.0073 42.5771 47.7775 42.8001 47.6005 43.0633C47.4936 43.2002 46.8037 44.2959 47.377 44.2861Z" fill="#092857"/>
<path d="M25.3289 69.4573L1.9399 67.1974C1.0848 67.1192 -0.52824 69.3497 0.171391 69.4182L23.5507 71.678C24.4155 71.7562 26.0189 69.5257 25.3289 69.4573Z" fill="#092857"/>
<path d="M26.4658 77.9097L8.26573 88.4164C7.78959 88.6903 7.03165 89.3946 7.0025 89.9816C6.97335 90.5686 7.56609 90.3631 7.97421 90.1577L26.1646 79.6608C26.6407 79.3868 27.3987 78.6825 27.4278 78.0955C27.457 77.5086 26.8642 77.7042 26.5144 77.9097H26.4658Z" fill="#092857"/>
<path d="M291.577 289.482C291.977 289.827 292.296 290.257 292.513 290.74C292.73 291.224 292.838 291.749 292.831 292.28C292.819 292.501 292.787 292.72 292.733 292.935C292.733 292.994 292.733 293.053 292.685 293.111C292.685 293.013 292.685 293.062 292.685 293.111C292.668 293.169 292.645 293.225 292.617 293.278C292.617 293.278 292.5 293.551 292.568 293.385C292.636 293.219 292.568 293.385 292.568 293.454L292.481 293.61C292.393 293.757 292.656 293.385 292.481 293.61C292.437 293.651 292.398 293.697 292.364 293.747C292.364 293.698 292.578 293.512 292.432 293.659C292.286 293.806 292.432 293.659 292.529 293.581C292.464 293.624 292.402 293.673 292.345 293.728C292.209 293.845 292.626 293.532 292.345 293.728C291.742 294.069 291.29 294.629 291.081 295.293C290.975 295.938 291.703 295.674 292.005 295.479C292.769 295.01 293.43 294.388 293.945 293.65C294.46 292.913 294.818 292.077 294.997 291.194C295.094 290.506 295.021 289.804 294.786 289.151C294.55 288.498 294.159 287.913 293.647 287.447C293.248 287.105 292.461 287.819 292.209 288.083C291.953 288.325 291.745 288.614 291.596 288.934C291.538 289.091 291.422 289.384 291.596 289.521L291.577 289.482Z" fill="#092857"/>
<path d="M283.726 284.248C284.47 284.65 285.082 285.26 285.489 286.005C285.896 286.75 286.08 287.597 286.019 288.445C285.976 288.819 285.871 289.182 285.708 289.521C285.708 289.589 285.708 289.599 285.708 289.521L285.65 289.629C285.65 289.629 285.407 289.971 285.591 289.736L285.484 289.873C285.621 289.707 285.397 289.961 285.368 289.99C285.096 290.264 285.611 289.814 285.3 290.049C284.989 290.284 285.387 290.049 285.242 290.049L284.989 290.206C285.164 290.108 284.843 290.274 284.833 290.284C284.472 290.437 284.088 290.529 283.697 290.558C283.075 290.617 282.443 291.341 282.142 291.83C281.841 292.319 281.685 292.808 282.317 292.808C283.642 292.593 284.881 292.009 285.894 291.122C286.907 290.235 287.654 289.081 288.05 287.789C288.349 286.735 288.287 285.61 287.874 284.595C287.462 283.581 286.723 282.735 285.776 282.194C284.96 281.744 283.172 283.964 283.716 284.268L283.726 284.248Z" fill="#092857"/>
<path d="M280.888 281.391C281.33 281.763 281.691 282.223 281.947 282.741L281.879 282.604C282.175 283.213 282.319 283.884 282.297 284.561V284.365C282.297 284.434 282.297 284.512 282.297 284.581C282.297 284.649 282.297 284.943 282.501 284.991C282.758 284.998 283.008 284.915 283.211 284.757C283.531 284.557 283.813 284.302 284.046 284.003C284.259 283.78 284.406 283.503 284.474 283.201C284.554 282.481 284.456 281.751 284.19 281.077C283.924 280.403 283.498 279.806 282.948 279.337C282.783 279.2 282.531 279.288 282.356 279.337C282.039 279.49 281.753 279.698 281.51 279.953C281.254 280.195 281.047 280.484 280.898 280.804C280.84 280.961 280.723 281.254 280.898 281.391H280.888Z" fill="#092857"/>
<path d="M280.889 273.986C281.084 274.027 281.273 274.093 281.452 274.182L281.307 274.113C281.866 274.399 282.32 274.858 282.599 275.424L282.531 275.287C282.72 275.684 282.817 276.119 282.813 276.559V276.363V276.657C282.813 276.842 282.813 277.028 283.017 277.077C283.275 277.079 283.528 276.997 283.736 276.842C284.053 276.639 284.333 276.38 284.562 276.079C284.768 275.851 284.918 275.576 284.999 275.277C285.116 274.478 284.929 273.664 284.474 272.998C284.054 272.375 283.415 271.935 282.686 271.765C282.428 271.763 282.175 271.845 281.967 272C281.651 272.209 281.369 272.467 281.132 272.763C280.924 272.99 280.777 273.266 280.704 273.565C280.704 273.751 280.704 273.937 280.908 273.986H280.889Z" fill="#092857"/>
<path d="M107.39 281.812C108.163 281.801 108.921 282.022 109.569 282.447C110.216 282.873 110.723 283.482 111.024 284.199C111.297 284.904 111.344 285.677 111.16 286.41C111.138 286.549 111.095 286.684 111.034 286.811C111.034 286.811 110.888 287.134 110.946 286.997C111.005 286.86 110.888 287.114 110.869 287.134C110.849 287.153 110.626 287.427 110.869 287.193L110.771 287.31C110.703 287.398 110.771 287.369 110.859 287.212L110.791 287.29C110.674 287.408 110.694 287.388 110.849 287.241C110.499 287.496 110.849 287.29 110.849 287.241C110.246 287.585 109.792 288.143 109.576 288.807C109.479 289.443 110.208 289.198 110.548 288.993C112.491 287.652 114.114 285.226 113.463 282.78C113.177 281.797 112.565 280.942 111.728 280.358C110.892 279.775 109.882 279.497 108.867 279.572C108.57 279.653 108.297 279.804 108.07 280.012C107.771 280.244 107.518 280.529 107.322 280.853C107.108 281.215 106.865 281.832 107.497 281.773L107.39 281.812Z" fill="#092857"/>
<path d="M87.9071 276.255C88.799 276.591 89.5648 277.198 90.0978 277.992C90.6307 278.787 90.9044 279.729 90.8805 280.687C90.8529 281.108 90.7543 281.522 90.589 281.91C90.4918 282.125 90.589 281.91 90.4918 282.086C90.4918 282.086 90.2586 282.438 90.4141 282.213C90.4141 282.213 90.1226 282.575 90.3558 282.321C90.2699 282.414 90.1791 282.502 90.0837 282.585C90.142 282.526 90.2392 282.448 90.0837 282.585L89.9185 282.692C89.7765 282.787 89.623 282.862 89.4618 282.917C89.0581 283.085 88.6256 283.172 88.1889 283.172C87.8763 283.217 87.5765 283.327 87.3088 283.495C87.041 283.664 86.8112 283.887 86.6341 284.15C86.5273 284.287 85.8374 285.373 86.4107 285.373C87.9191 285.277 89.3608 284.712 90.5359 283.755C91.711 282.798 92.5616 281.497 92.9697 280.032C93.2561 278.8 93.0801 277.505 92.4756 276.397C91.8711 275.288 90.8808 274.443 89.695 274.025C88.9371 273.761 87.1103 275.981 87.9265 276.236L87.9071 276.255Z" fill="#092857"/>
<path d="M64.9456 275.199C65.6324 275.579 66.1957 276.15 66.568 276.844C66.9403 277.538 67.1058 278.326 67.0445 279.112C67.0037 279.452 66.9051 279.783 66.753 280.09C66.6947 280.208 66.8307 279.983 66.753 280.168C66.6753 280.354 66.5101 280.482 66.7044 280.247L66.617 280.364C66.7966 280.158 66.8895 279.89 66.8761 279.616C66.8627 279.342 66.7441 279.084 66.5453 278.896C66.3465 278.709 66.0831 278.607 65.8107 278.611C65.5384 278.616 65.2784 278.727 65.0858 278.92C64.8932 279.114 64.7831 279.376 64.7786 279.65C64.7741 279.924 64.8757 280.19 65.0619 280.39C65.2481 280.59 65.5043 280.709 65.7763 280.723C66.0484 280.736 66.315 280.643 66.5198 280.462L66.5975 280.393L66.4712 280.501C66.2769 280.658 66.5781 280.442 66.4712 280.501L66.2283 280.648C66.4323 280.53 66.1117 280.697 66.102 280.697C65.7668 280.834 65.413 280.92 65.0525 280.951C64.7523 281.025 64.4751 281.173 64.246 281.382C63.9545 281.621 63.7021 281.905 63.4978 282.223C63.284 282.565 63.0508 283.201 63.6727 283.152C64.9389 282.946 66.1227 282.388 67.091 281.541C68.0592 280.694 68.7734 279.592 69.1531 278.359C69.4322 277.375 69.3795 276.326 69.0033 275.375C68.627 274.424 67.9485 273.626 67.0737 273.105C66.2672 272.646 64.4598 274.866 65.0136 275.179L64.9456 275.199Z" fill="#092857"/>
<path d="M55.2381 278.593C55.7774 278.946 56.2399 279.405 56.5974 279.944C56.9549 280.482 57.1999 281.087 57.3176 281.724C57.4331 282.332 57.4331 282.956 57.3176 283.563C57.3176 283.729 57.2398 283.896 57.201 284.062C57.1621 284.228 57.201 284.17 57.201 284.062C57.201 284.15 57.1426 284.238 57.1038 284.326C57.0754 284.397 57.0429 284.465 57.0066 284.532C56.9289 284.678 56.9483 284.659 57.0066 284.532L56.8609 284.766C56.7151 285.001 57.026 284.541 56.8609 284.766C56.6957 284.991 56.0738 285.862 56.6276 285.989C57.1815 286.116 57.9103 285.353 58.1824 285.011C58.7271 284.345 59.1299 283.573 59.3656 282.743C59.6013 281.913 59.6649 281.044 59.5525 280.188C59.4564 279.446 59.205 278.732 58.8147 278.094C58.4244 277.457 57.9042 276.91 57.2884 276.49C56.5208 276.001 54.6648 278.202 55.2284 278.564L55.2381 278.593Z" fill="#092857"/>
</svg>
