<svg width="488" height="412" viewBox="0 0 488 412" fill="none" xmlns="http://www.w3.org/2000/svg">
<path d="M486.96 404.485L8.23947 410.874L1.16632 42.6191C0.933138 31.4337 10.4158 22.229 22.2692 22.0542L461.699 16.8985C473.435 16.7625 483.074 25.6371 483.18 36.6963L486.96 404.485Z" fill="white"/>
<path d="M484.804 301.398L485.017 319.507L485.309 348.383L485.377 355.015C485.377 355.597 486.455 354.898 486.591 354.791C486.852 354.616 487.073 354.388 487.241 354.122C487.408 353.856 487.518 353.558 487.563 353.247L487.369 335.139L487.067 306.263L487.009 299.631C487.009 299.049 485.931 299.748 485.795 299.855C485.532 300.028 485.309 300.255 485.142 300.521C484.974 300.788 484.865 301.087 484.823 301.398H484.804Z" fill="#092857"/>
<path d="M484.522 273.629L484.629 284.368V285.912C484.629 286.494 485.698 285.795 485.843 285.688C486.104 285.513 486.326 285.286 486.493 285.02C486.661 284.754 486.77 284.456 486.815 284.145L486.708 273.406V271.862C486.708 271.279 485.639 271.969 485.503 272.085C485.241 272.259 485.019 272.487 484.852 272.753C484.684 273.019 484.575 273.318 484.532 273.629H484.522Z" fill="#092857"/>
<path d="M3.10979 91.7009L2.45883 51.3286C2.36167 45.5028 1.48724 38.9392 4.06195 33.5504C7.35563 26.6663 14.5551 23.2873 21.9197 23.1417C25.9518 23.064 29.9936 23.0446 34.0257 23.0058L60.2586 22.6951L97.6744 22.2581L143.174 21.7241L194.289 21.1221L247.93 20.491L300.979 19.8696L351.016 19.287L394.922 18.7724L429.666 18.3646L452.683 18.0927C455.646 18.0927 458.619 17.9374 461.582 18.0053C472.474 18.2287 481.898 26.5692 482.161 37.6672C482.161 39.4441 482.161 41.2306 482.219 43.0075L482.53 73.7479L483.016 121.771L483.56 175.174L484.036 222.013L484.327 250.928V254.89C484.327 255.501 486.542 253.996 486.533 253.113L486.368 236.975L485.989 196.652L485.454 144.22L484.92 91.8563L484.512 51.6781C484.453 46.1825 484.599 40.648 484.337 35.1718C483.793 23.8311 473.591 15.8207 462.641 15.811H460.125L443.181 16.0052L412.663 16.3644L372.002 16.8402L323.491 17.4131L270.685 18.0345L216.354 18.6656L163.48 19.287L115.037 19.8502L73.9871 20.3356L43.3043 20.6949L25.9615 20.8988C25.0482 20.8988 24.1349 20.8988 23.2216 20.8988C13.5058 21.1318 4.2174 27.3168 1.10832 36.7157C-0.591956 41.852 0.136731 47.9108 0.263038 53.2219L0.680821 79.2047L0.913999 93.3904C0.913999 94.0118 3.12922 92.5068 3.10979 91.6233V91.7009Z" fill="#092857"/>
<path d="M3.80007 121.383L3.65433 113.48V112.344C3.65433 111.761 2.58559 112.45 2.43985 112.567C2.17997 112.743 1.95947 112.971 1.79225 113.237C1.62503 113.503 1.51471 113.8 1.46826 114.111L1.614 122.014V123.15C1.614 123.733 2.68275 123.043 2.82849 122.927C3.08836 122.751 3.30887 122.522 3.47609 122.257C3.64331 121.991 3.75362 121.694 3.80007 121.383Z" fill="#092857"/>
<path d="M485.503 370.501L485.863 405.368L487.806 403.426L479.703 403.533L457.133 403.834L422.739 404.3L379.163 404.883L329.039 405.553L275.018 406.281L219.774 406.99L165.851 407.718L115.931 408.388L72.6659 408.971L38.6604 409.427L16.6151 409.718L10.9021 409.796C10.4358 409.796 9.93056 409.796 9.50306 409.796C9.07556 409.796 9.18243 409.796 9.32817 409.99C8.85209 409.184 9.26016 406.747 9.24073 405.844L9.04641 395.484L8.35658 359.743L7.38499 310.555L6.33569 255.754L5.3641 203.128L4.54796 160.493L4.06217 135.656L4.00387 132.355C4.00387 131.733 1.78866 133.238 1.79837 134.132L2.33274 161.814L3.60552 228.256L5.15035 308.36L6.48142 377.599L6.91863 400.436L7.05465 407.553C6.9459 408.801 6.9687 410.057 7.12267 411.301C7.14221 411.462 7.14221 411.625 7.12267 411.786C7.12891 411.841 7.15343 411.892 7.19225 411.93C7.23106 411.969 7.28188 411.994 7.33642 412L20.1516 411.825L55.0413 411.359L106.623 410.67L169.319 409.825L238.234 408.932L307.547 407.961L372.42 407.087L427.227 406.349L466.635 405.825C472.843 405.737 479.061 405.669 485.27 405.572H486.057C486.542 405.489 486.989 405.258 487.337 404.91C487.685 404.562 487.917 404.115 488 403.63L487.65 368.754C487.65 368.142 485.435 369.637 485.445 370.531L485.503 370.501Z" fill="#092857"/>
<path d="M464.682 52.9114L452.867 53.057L420.989 53.4357L373.537 54.0086L316.039 54.6979L252.633 55.4553L189.072 56.2223L129.397 56.9408L79.3017 57.5428L43.0324 57.9701C37.3388 58.0477 31.6551 58.0963 25.9616 58.1837H25.2134C24.339 58.1837 22.833 60.3877 23.4451 60.378L35.2597 60.2324L67.1374 59.8537L114.59 59.2808L172.088 58.5915L235.494 57.8341L299.055 57.0671L358.73 56.3583L408.825 55.7563L445.095 55.3193L462.165 55.1155H462.913C463.788 55.1155 465.294 52.9114 464.682 52.9114Z" fill="#092857"/>
<path d="M457.492 29.8317L447.912 42.8813C447.718 43.1435 447.155 43.8523 447.689 44.095C448.223 44.3377 449.01 43.4153 449.234 43.1241L458.785 30.0647C458.979 29.8025 459.552 29.0452 459.018 28.851C458.483 28.6568 457.687 29.5307 457.463 29.822L457.492 29.8317Z" fill="#092857"/>
<path d="M445.347 31.6183L459.183 43.2698C459.834 43.8136 461.825 41.6969 461.242 41.2114L447.407 29.5599C446.756 29.0065 444.764 31.1232 445.347 31.6183Z" fill="#092857"/>
<path d="M38.0874 39.1335C37.8419 37.5104 37.1439 35.9893 36.0734 34.7443C35.0029 33.4993 33.6031 32.5808 32.0344 32.0941C31.1588 31.81 30.2345 31.7065 29.3176 31.79C28.4007 31.8734 27.5103 32.142 26.7004 32.5795C25.0128 33.5942 23.6143 35.0252 22.6392 36.7352C21.7248 38.172 21.2571 39.8473 21.2951 41.5496C21.3332 43.2519 21.8753 44.9047 22.8529 46.2992C23.8493 47.6697 25.2668 48.6772 26.8893 49.168C28.5118 49.6588 30.2504 49.6061 31.8401 49.0178C35.7265 47.5226 38.6412 43.3086 38.0874 39.1335C38.0097 38.5606 37.0575 39.2209 36.8729 39.3568C36.4746 39.6772 35.8139 40.3278 35.9014 40.9104C36.2414 43.464 35.1921 46.1244 32.6368 47.0274C31.3264 47.4117 29.9313 47.3982 28.6287 46.9885C27.326 46.5787 26.1746 45.7913 25.3208 44.7262C24.4188 43.7006 23.821 42.444 23.5944 41.0976C23.3678 39.7511 23.5215 38.3682 24.0383 37.1042C24.458 35.9741 25.2404 35.0147 26.2632 34.3758C27.5756 33.8304 29.0481 33.813 30.373 34.3273C31.8112 34.8103 33.0882 35.6804 34.0636 36.8419C35.0389 38.0033 35.6748 39.4111 35.9014 40.9104C35.9888 41.4735 36.9312 40.8327 37.1158 40.687C37.4656 40.3763 38.1554 39.7161 38.0874 39.1335Z" fill="#092857"/>
<path d="M86.9382 39.1335C86.6919 37.5093 85.9925 35.9873 84.9202 34.7422C83.8478 33.4971 82.446 32.5793 80.8755 32.0941C79.9998 31.81 79.0756 31.7065 78.1587 31.79C77.2418 31.8734 76.3514 32.142 75.5415 32.5795C73.8584 33.5999 72.4612 35.0296 71.4803 36.7352C70.5673 38.1729 70.1012 39.8488 70.141 41.5511C70.1808 43.2533 70.7246 44.9056 71.7037 46.2992C72.7001 47.6697 74.1176 48.6772 75.7401 49.168C77.3626 49.6588 79.1012 49.6061 80.6909 49.0178C84.5773 47.5226 87.492 43.3086 86.9382 39.1335C86.8605 38.5606 85.8986 39.2209 85.7237 39.3568C85.3254 39.6772 84.655 40.3278 84.7521 40.9104C85.0922 43.464 84.0429 46.1244 81.4876 47.0274C80.1772 47.4117 78.7821 47.3982 77.4795 46.9885C76.1768 46.5787 75.0254 45.7913 74.1716 44.7262C73.2702 43.7002 72.6735 42.4431 72.4486 41.0964C72.2238 39.7497 72.3797 38.3671 72.8988 37.1042C73.3153 35.9723 74.0984 35.0119 75.1237 34.3758C76.4328 33.831 77.9021 33.8136 79.2238 34.3273C80.6628 34.8132 81.9387 35.6885 82.9095 36.8559C83.8804 38.0232 84.5081 39.4368 84.723 40.9395C84.8104 41.5026 85.7529 40.8618 85.9375 40.7162C86.3358 40.3763 87.0257 39.7161 86.9382 39.1335Z" fill="#092857"/>
<path d="M62.6294 39.1335C62.3839 37.5104 61.6859 35.9893 60.6154 34.7443C59.5449 33.4993 58.1451 32.5808 56.5764 32.0941C55.7007 31.81 54.7764 31.7065 53.8596 31.79C52.9427 31.8734 52.0523 32.142 51.2424 32.5795C49.5569 33.5969 48.1591 35.0273 47.1812 36.7352C46.2692 38.1728 45.803 39.8478 45.841 41.5495C45.8791 43.2512 46.4197 44.9037 47.3949 46.2992C48.3919 47.6718 49.811 48.6806 51.4356 49.1715C53.0601 49.6624 54.8008 49.6085 56.3918 49.0178C60.2782 47.5226 63.1929 43.3086 62.6294 39.1335C62.5614 38.5606 61.5995 39.2209 61.4149 39.3568C61.0166 39.6772 60.3559 40.3278 60.4433 40.9104C60.7834 43.464 59.7341 46.1244 57.1788 47.0274C55.8684 47.4117 54.4733 47.3982 53.1707 46.9885C51.868 46.5787 50.7166 45.7913 49.8627 44.7262C48.9628 43.6995 48.3662 42.443 48.1397 41.097C47.9133 39.751 48.0658 38.3686 48.5803 37.1042C48.7659 36.4722 49.0877 35.8884 49.523 35.3938C49.9584 34.8992 50.4968 34.5058 51.1004 34.2412C51.704 33.9766 52.3583 33.8472 53.0172 33.862C53.6762 33.8769 54.324 34.0357 54.915 34.3273C56.3576 34.8102 57.6375 35.6842 58.612 36.8518C59.5865 38.0194 60.2171 39.4346 60.4336 40.9395C60.5211 41.5026 61.4635 40.8618 61.6481 40.7162C62.0367 40.3763 62.7266 39.7161 62.6294 39.1335Z" fill="#092857"/>
<path d="M258.424 26.8218C260.872 20.3455 257.899 12.7041 252.652 8.17943C247.406 3.65477 240.323 1.80025 233.415 1.2371C228.042 0.800166 222.242 1.18855 217.87 4.42183C211.457 9.20865 209.864 19.0639 202.742 22.7244C197.709 25.3168 190.723 24.2973 187.197 28.6763C184.923 31.4727 184.991 35.473 183.631 38.8034C181.746 43.4154 177.354 46.3963 173.594 49.649C165.822 56.368 160.39 63.3103 157.398 73.117C165.851 73.117 173.186 72.583 181.367 72.3791C213.423 71.5764 245.485 71.078 277.554 70.8838C275.251 70.7964 273.386 68.9419 272.337 66.8446C271.287 64.7474 270.821 62.4753 269.82 60.4072C267.537 55.7078 262.708 52.6395 257.666 51.319C252.623 49.9985 247.318 50.0859 242.12 50.2121L254.498 29.0841" fill="#092857"/>
<path d="M259.434 26.3751C260.234 24.0275 260.505 21.532 260.226 19.0677C259.947 16.6033 259.126 14.2312 257.821 12.1214C255.043 7.38317 250.389 4.21785 245.298 2.41187C240.049 0.559042 234.485 -0.239489 228.926 0.0621425C226.28 0.114323 223.672 0.706214 221.263 1.8015C218.854 2.89678 216.694 4.47237 214.916 6.43163C211.846 9.89794 210.058 14.1993 207.318 17.8986C206.129 19.655 204.501 21.0707 202.596 22.0058C200.279 22.8796 197.876 23.5045 195.426 23.87C190.568 24.8895 186.351 27.113 184.603 32.0163C183.689 34.5505 183.485 37.2983 182.358 39.784C181.105 42.1605 179.348 44.235 177.209 45.8622C172.623 49.7945 168.056 53.6298 164.316 58.4166C160.713 63.0195 157.989 68.2463 156.281 73.8354C156.281 73.9714 156.281 74.2432 156.485 74.2432C163.947 74.2432 171.389 73.7772 178.831 73.5538C186.779 73.3111 194.726 73.1557 202.674 72.9907C218.453 72.6735 234.238 72.4243 250.029 72.2431C258.897 72.146 267.761 72.0683 276.622 72.01C276.932 71.9642 277.23 71.8542 277.496 71.687C277.762 71.5198 277.99 71.2992 278.166 71.0391C278.293 70.874 278.963 69.8739 278.39 69.8254C274.348 69.505 272.968 65.1745 271.832 61.9606C270.751 58.6036 268.623 55.6806 265.759 53.6201C259.133 48.8818 250.729 48.9595 242.937 49.144V50.115L255.315 28.9869C255.548 28.5986 255.742 28.0742 255.14 28.016C254.537 27.9577 253.828 28.8607 253.585 29.2879L241.207 50.4159C241.129 50.5422 240.721 51.3869 241.207 51.3869C249.087 51.2024 257.724 51.0665 264.321 56.1446C265.659 57.172 266.827 58.4041 267.78 59.7954C268.808 61.487 269.611 63.305 270.17 65.2036C271.239 68.2524 273.017 71.777 276.66 72.0586L278.429 69.8642C246.69 70.0454 214.952 70.5342 183.213 71.3304C174.896 71.5343 166.599 72.0877 158.282 72.0974L158.486 72.5052C159.941 67.6744 162.244 63.1406 165.287 59.1157C168.437 55.1653 172.022 51.5824 175.975 48.4352C179.745 45.3087 183.543 41.9298 185.059 37.1138C185.817 34.7253 186.031 32.0746 187.187 29.8317C188.265 27.783 190.432 26.9868 192.57 26.4527C196.903 25.3459 201.314 24.9866 204.928 22.1029C208.309 19.4036 210.418 15.578 212.594 11.9272C213.613 10.0931 214.815 8.36588 216.179 6.77145C217.87 4.97286 220.036 3.69014 222.426 3.07211C227.615 1.62539 233.444 2.17883 238.652 3.28573C244.413 4.51884 250.156 7.06275 253.954 11.7233C257.423 15.9858 259.288 21.996 257.365 27.3266C257.161 27.88 257.413 28.0548 257.928 27.8995C258.581 27.6162 259.102 27.0956 259.386 26.443L259.434 26.3751Z" fill="#092857"/>
<path d="M256.889 23.4622C258.22 35.7706 257.686 48.2093 255.305 60.3586C254.771 63.1743 254.052 66.1843 251.924 68.1262C250.884 68.9709 249.673 69.5815 248.376 69.9166C247.078 70.2517 245.723 70.3034 244.404 70.0681C246.191 77.784 247.623 85.5775 248.698 93.4487C248.941 95.2062 248.795 97.6433 249.437 99.2745C250.214 101.216 250.748 100.77 253.109 100.818L265.079 101.071C281.207 101.44 297.336 101.935 313.435 102.906C318.866 103.236 328.582 105.207 333.556 107.382C339.843 110.11 358.526 134.938 368.184 158.28C377.841 181.621 388.199 222.567 391.337 240.364C393.989 254.362 394.812 268.644 393.785 282.853C393.26 291.32 391.755 300.204 386.304 306.7L142.115 212.634L141.503 212.401C141.425 218.654 140.881 267.163 140.599 278.727C140.298 291.097 156.456 408.932 156.456 408.932L108.595 409.534C108.595 409.534 98.6268 372.57 91.3787 349.937C84.1307 327.304 77.7862 286.591 75.9791 268.464C74.1719 250.336 84.1307 195.739 87.4729 181.738C90.3966 169.091 94.8126 156.836 100.628 145.23C104.864 136.918 110.062 128.782 117.699 123.422C125.336 118.063 134.906 115.907 144.116 113.926L200.906 101.721L209.349 50.9597L206.58 38.813L212.516 33.7641C216.538 31.5116 220.329 28.871 223.835 25.8799C227.362 22.8663 229.929 18.8868 231.219 14.4323C234.253 18.1871 238.24 21.0577 242.765 22.7437C247.289 24.4297 252.184 24.869 256.937 24.0157" fill="white"/>
<path d="M255.781 24.307C256.667 32.6742 256.702 41.1095 255.888 49.4839C255.48 53.5425 254.916 57.6011 254.09 61.6014C253.721 63.4268 253.313 65.5823 252.089 67.0485C250.486 68.9904 247.59 69.1457 245.288 68.8933C244.559 68.8156 243.121 70.1167 243.345 70.8837C244.886 77.6157 246.182 84.4124 247.231 91.2738C247.454 92.7594 247.697 94.2352 247.794 95.7305C247.793 97.1323 247.969 98.5287 248.319 99.8862C248.902 101.653 249.738 101.916 251.496 101.896C265.215 101.741 279.031 102.469 292.74 103.003C304.574 103.479 316.525 103.518 327.989 106.809C331.063 107.521 333.907 108.997 336.258 111.101C339.004 113.748 341.541 116.605 343.846 119.645C350.682 128.425 356.689 137.818 361.791 147.706C366.445 156.957 370.344 166.568 373.45 176.446C379.68 195.377 384.831 214.646 388.879 234.16C391.071 244.263 392.439 254.527 392.969 264.852C393.202 270.425 393.105 276.008 392.804 281.572C392.483 287.31 391.959 293.126 390.025 298.583C389.03 301.449 387.548 304.123 385.643 306.486L387.188 305.515L362.597 296.087L304.088 273.571L233.473 246.384L172.594 222.945C162.826 219.184 153.065 215.427 143.31 211.672L142.338 211.294C141.551 210.993 140.395 212.653 140.347 213.284C140.178 228.587 139.99 243.886 139.783 259.181C139.637 269.707 139.19 280.096 140.22 290.582C141.629 304.991 143.456 319.361 145.273 333.722C147.326 350.001 149.444 366.278 151.627 382.551C152.424 388.552 153.23 394.555 154.046 400.562C154.425 403.407 154.464 406.65 155.251 409.417C155.279 409.552 155.299 409.688 155.309 409.825L157.252 407.883L134.507 408.165L118.243 408.378L112.414 408.446C111.444 408.545 110.468 408.545 109.499 408.446C109.13 408.369 109.713 408.815 109.499 408.534C109.328 408.117 109.21 407.679 109.149 407.233C108.65 405.394 108.148 403.559 107.643 401.727C105.881 395.306 104.094 388.898 102.28 382.503C100.058 374.67 97.7717 366.847 95.4205 359.034C93.2636 351.908 90.922 344.859 89.0955 337.673C85.0933 321.337 81.9122 304.81 79.5642 288.155C78.5926 281.552 77.6793 274.93 76.9992 268.289C76.5814 263.14 76.6204 257.964 77.1158 252.822C78.1748 238.733 80.322 224.664 82.6733 210.779C84.6164 199.128 86.6276 187.476 89.6687 176.077C92.4356 165.503 96.2839 155.241 101.153 145.453C105.661 136.501 111.287 127.607 120.196 122.5C129.28 117.295 140.084 115.703 150.179 113.548L183.563 106.372L200.08 102.828C200.499 102.701 200.881 102.472 201.191 102.162C201.501 101.852 201.73 101.471 201.858 101.051L209.213 56.8146C209.582 54.5911 210.476 51.9598 210.184 49.7072C210.029 48.4352 209.592 47.1244 209.31 45.8816L207.493 37.9392L206.521 39.483L210.641 35.9779C212.91 34.2202 215.282 32.5991 217.743 31.1231C224.127 26.8703 230.063 21.3456 232.133 13.7235L230.014 15.4324C233.109 19.2091 237.154 22.0939 241.734 23.7901C246.313 25.4864 251.263 25.9329 256.072 25.0837C256.821 24.9478 258.472 22.7146 257.452 22.8991C252.757 23.7077 247.93 23.2514 243.47 21.5773C239.01 19.9032 235.076 17.0716 232.074 13.374C231.52 12.6846 230.063 14.6848 229.956 15.0926C227.78 23.1224 220.716 27.8801 213.993 31.9775C211.268 33.8222 208.692 35.8772 206.288 38.1237C205.929 38.4344 205.181 39.0946 205.317 39.6772L207.046 47.2507C207.347 48.5712 207.785 49.9402 207.969 51.2899C208.28 53.659 207.27 56.5621 206.881 58.9216L199.652 102.382L201.43 100.605L146.176 112.48C138.404 114.159 130.378 115.761 123.159 119.325C116.49 122.739 110.764 127.741 106.487 133.889C96.8973 147.152 91.0483 163.474 87.0551 179.204C84.801 187.942 83.1688 196.895 81.6142 205.798C79.5448 217.45 77.7279 229.159 76.29 240.918C75.1823 250.142 73.8901 259.774 74.7257 269.075C75.7653 280.727 77.6405 292.272 79.5836 303.758C81.8766 317.235 84.4416 330.721 88.085 343.917C91.4564 356.199 95.5177 368.307 99.0251 380.551C101.797 389.976 104.479 399.407 107.07 408.845C107.216 409.369 107.361 409.903 107.497 410.437C107.508 410.49 107.534 410.538 107.572 410.576C107.61 410.614 107.658 410.64 107.711 410.651L149.654 410.116L155.581 410.039C156.358 410.039 157.68 408.903 157.524 408.097C156.514 400.705 155.516 393.319 154.532 385.94C152.394 370.016 150.305 354.083 148.265 338.139C146.322 323.061 144.437 307.962 142.844 292.844C142.387 288.475 141.872 284.106 141.707 279.707C141.483 274.503 141.833 269.231 141.911 264.017C142.164 247.336 142.374 230.651 142.542 213.964V211.546L140.551 213.537C148.761 216.78 157.068 219.877 165.248 223.052L223.544 245.481L294.149 272.668L355.233 296.184L375.383 303.952L381.708 306.389C382.763 306.874 383.847 307.292 384.953 307.642C385.096 307.683 385.236 307.735 385.371 307.797C385.876 307.991 386.693 307.098 386.926 306.826C394.106 298.029 394.796 286.436 395.155 275.523C395.492 263.709 394.613 251.892 392.532 240.257C389.287 221.499 384.254 202.914 378.735 184.719C375.975 175.254 372.732 165.937 369.019 156.804C364.426 146.095 358.772 135.871 352.143 126.287C349.363 122.135 346.366 118.132 343.165 114.295C341.125 111.701 338.791 109.352 336.209 107.295C333.187 105.071 328.98 104.304 325.405 103.488C320.08 102.356 314.668 101.677 309.228 101.459C295.072 100.692 280.896 100.265 266.721 99.9348L256.587 99.7114C254.693 99.7114 251.36 100.498 250.505 98.3327C250.098 97.0024 249.901 95.6166 249.922 94.2255C249.815 92.6235 249.572 91.0408 249.339 89.4582C248.828 86.0533 248.251 82.6485 247.61 79.2437C246.969 75.8389 246.269 72.4567 245.511 69.0972L243.52 71.0877C245.459 71.3768 247.44 71.1297 249.249 70.3731C251.058 69.6166 252.624 68.3795 253.779 66.796C256.354 63.2035 256.694 58.2128 257.345 53.9794C258.863 43.5636 259.082 32.9997 257.996 22.5301C257.928 21.8504 255.703 23.4331 255.791 24.307H255.781Z" fill="#092857"/>
<path d="M213.342 35.7934C212.439 34.0071 211.067 32.4996 209.372 31.4324C207.678 30.3652 205.725 29.7784 203.723 29.7347C201.718 29.7395 199.746 30.2381 197.98 31.1865C196.214 32.135 194.709 33.5038 193.599 35.172C192.518 36.8563 191.823 38.7583 191.563 40.7422C191.302 42.7261 191.484 44.7429 192.093 46.6487C192.594 48.4936 193.699 50.1175 195.231 51.2608C196.527 52.0518 198 52.5058 199.516 52.5813C203.953 52.9472 208.371 51.6837 211.943 49.0276" fill="white"/>
<path d="M214.372 34.7643C213.472 33.0097 212.127 31.5216 210.471 30.4483C208.816 29.375 206.908 28.754 204.938 28.6472C202.917 28.619 200.914 29.0309 199.069 29.8542C197.223 30.6774 195.579 31.8924 194.251 33.4146C192.838 34.9447 191.768 36.7578 191.111 38.7333C190.455 40.7088 190.227 42.8014 190.442 44.8719C190.621 46.9666 191.352 48.9765 192.56 50.6977C193.23 51.5337 194.065 52.2236 195.012 52.7246C195.96 53.2256 197 53.5271 198.069 53.6105C203.064 54.1373 208.072 52.7299 212.06 49.6781C212.351 49.4548 213.274 48.5713 213.031 48.1246C212.788 47.678 212.118 48.1246 211.817 48.3576C208.715 50.5892 204.947 51.7019 201.129 51.5133C199.169 51.5621 197.248 50.9575 195.669 49.7947C194.349 48.5721 193.425 46.9828 193.017 45.2312C192.51 43.4936 192.383 41.6675 192.645 39.8766C192.906 38.0857 193.55 36.372 194.532 34.8516C195.564 33.4861 196.924 32.4039 198.487 31.706C200.051 31.0082 201.765 30.7175 203.471 30.861C205.327 31.0166 207.111 31.6456 208.654 32.6877C210.197 33.7298 211.447 35.1502 212.283 36.813C212.546 37.3373 214.771 35.5993 214.343 34.7546L214.372 34.7643Z" fill="#092857"/>
<path d="M244.947 70.0682C244.656 70.0682 244.374 70.0099 244.102 69.9613C241.353 69.5244 226.254 63.2715 221.425 59.0381C221.425 59.0381 233.152 83.4868 246.745 85.1471L244.403 70.0099" fill="#092857"/>
<path d="M245.832 68.9612C244.29 68.7361 242.785 68.3117 241.353 67.6989C239.157 66.8833 236.99 65.9609 234.853 64.9997C230.607 63.0577 226.011 61.0673 222.455 57.9991C221.863 57.4942 220.026 59.3002 220.318 59.941C221.742 62.8336 223.338 65.6382 225.098 68.3398C228.421 73.5149 232.288 78.6416 237.243 82.3798C239.728 84.3962 242.694 85.7343 245.851 86.2636C246.619 86.3704 247.959 85.0499 247.843 84.3217L245.511 69.1748C245.394 68.4563 243.169 70.1457 243.306 70.9516L245.637 86.0888L247.629 84.1469C241.732 83.3702 236.942 78.8843 233.211 74.5636C229.736 70.4619 226.692 66.0142 224.126 61.2906C223.709 60.543 223.301 59.7856 222.912 59.0186C222.805 58.8147 222.718 58.5913 222.591 58.3972C222.465 58.203 222.504 58.2224 222.523 58.2515L220.395 60.1934C223.952 63.2617 228.557 65.2909 232.803 67.2134C234.989 68.1844 237.214 69.1553 239.468 70.0001C240.936 70.6214 242.477 71.0553 244.054 71.2915C244.918 71.3885 246.531 69.1651 245.832 69.0971V68.9612Z" fill="#092857"/>
<path d="M247.328 34.1426L248.387 42.4346C248.727 45.1047 249.174 47.7845 249.358 50.4644C249.424 51.0269 249.408 51.5961 249.31 52.1539C249.203 52.6685 249.252 52.7558 248.853 52.8918C247.974 53.1878 247.022 53.1878 246.142 52.8918C243.976 52.2024 242.577 50.0469 241.382 48.27C240.993 47.7069 238.807 49.5808 239.312 50.3285C240.74 52.4354 242.441 54.8725 245.142 55.2706C246.361 55.4127 247.595 55.1663 248.666 54.5665C249.737 53.9667 250.592 53.0442 251.107 51.9305C251.586 50.6946 251.714 49.3506 251.476 48.0467C251.272 46.3184 251.039 44.5998 250.816 42.8715L249.475 32.3561C249.388 31.657 247.163 33.259 247.269 34.1329L247.328 34.1426Z" fill="#092857"/>
<path d="M369.194 406.077L342.417 309.506L319.468 198.05C319.468 198.05 312.424 197.244 306.177 179.145C299.93 161.047 300.143 139.608 300.542 126.529C300.94 113.451 301.853 101.683 301.853 101.683L275.883 100.983C266.07 121.121 250.155 135.462 227.993 138.851C220.153 140.064 212.001 140.152 204.403 137.88C197.04 135.492 190.37 131.346 184.971 125.801C179.593 120.26 174.997 114.011 171.311 107.227L146.361 112.344C146.361 112.344 156.222 151.968 156.825 168.271C157.427 184.573 156.018 200.254 141.522 211.721L148.77 300.243L131.437 408.932L369.194 406.077Z" fill="#FFB321"/>
<path d="M370.292 405.194L367.28 394.368L360.198 368.822L351.997 339.237L345.497 315.807C344.798 313.283 343.982 310.768 343.428 308.205C342.456 303.729 341.582 299.243 340.659 294.757L335.286 268.697L329.068 238.461L323.627 212.032L320.712 197.856L320.576 197.195C320.57 197.141 320.545 197.09 320.507 197.051C320.468 197.013 320.417 196.988 320.362 196.982C318.419 196.739 316.602 194.875 315.378 193.525C310.287 187.942 307.605 180.126 305.662 172.97C301.251 156.726 301.144 139.647 301.776 122.937C302.038 115.635 302.427 108.324 302.981 101.032C302.981 100.886 302.981 100.624 302.777 100.614L276.806 99.9153C276 99.9153 275.232 100.799 274.863 101.459C268.14 115.159 257.841 127.16 243.685 133.501C235.801 136.942 227.289 138.711 218.686 138.695C209.176 138.8 199.89 135.819 192.22 130.199C183.728 123.985 177.471 115.334 172.312 106.275C172.265 106.237 172.209 106.211 172.15 106.201C172.09 106.191 172.029 106.196 171.972 106.217L147.012 111.324C146.38 111.45 145.069 112.528 145.224 113.266C147.815 123.571 150.118 133.944 152.132 144.385C155.105 159.687 157.962 176.087 153.998 191.496C152.883 196.03 150.922 200.312 148.217 204.118C146.742 206.135 145.055 207.987 143.184 209.643C142.261 210.468 140.512 211.371 140.395 212.731C140.406 214.63 140.562 216.526 140.862 218.401L143.398 249.326L146.312 285.319L147.284 297.291L147.537 300.428C147.537 300.661 147.595 300.894 147.595 301.127C147.595 300.864 147.595 301.36 147.595 301.127C147.449 302.816 147.051 304.525 146.779 306.205L144.952 317.691L139.482 352.034L133.857 387.571L130.514 408.553L130.349 409.524C130.349 409.65 130.349 409.932 130.553 409.932L136.907 409.854L154.182 409.65L179.754 409.349L210.942 408.98L245.123 408.573L279.624 408.165L311.803 407.786L339.114 407.466L358.653 407.233C361.733 407.233 364.832 407.233 367.912 407.126H368.301C368.613 407.081 368.912 406.971 369.18 406.804C369.448 406.637 369.678 406.416 369.855 406.155C369.952 406.019 370.652 404.932 370.079 404.941L363.724 405.009L346.45 405.213L320.887 405.524L289.689 405.893L255.519 406.291L221.008 406.699L188.829 407.087L161.518 407.407L141.979 407.641L135.897 407.708C134.841 407.592 133.776 407.592 132.72 407.708C132.591 407.723 132.46 407.723 132.331 407.708L132.535 408.116L137.519 376.89L146.264 322.031L149.178 303.583C149.586 301.771 149.769 299.915 149.723 298.058L146.099 253.87L142.64 211.556L142.581 210.837L141.61 212.381C148.785 206.734 153.905 198.888 156.184 190.049C158.253 181.99 158.389 173.261 157.758 165.008C157.119 158.095 156.094 151.223 154.687 144.424C153.327 137.229 151.773 130.073 150.16 122.946C149.276 119.063 148.382 115.256 147.43 111.421L145.642 113.363L163.228 109.761L167.998 108.79C168.503 108.693 169.941 108.1 170.485 108.285C171.029 108.469 169.766 107.469 170.485 108.664C170.913 109.353 171.292 110.072 171.7 110.761C172.671 112.373 173.643 113.975 174.722 115.538C176.71 118.52 178.902 121.362 181.28 124.044C185.759 129.175 191.19 133.392 197.272 136.462C203.83 139.57 211.045 141.039 218.297 140.744C230.426 140.535 242.235 136.826 252.303 130.063C263.068 122.665 271.142 112.13 276.855 100.478L274.912 102.022L300.882 102.731L300.668 102.314C299.298 120.218 298.239 138.501 300.095 156.406C301.222 167.368 303.496 178.572 308.548 188.447C309.993 191.503 311.966 194.281 314.377 196.652C315.387 197.717 316.646 198.515 318.04 198.972C318.478 199.06 318.458 199.234 318.293 198.885C318.334 199.004 318.36 199.128 318.371 199.254C318.464 200.023 318.62 200.782 318.837 201.526L320.839 211.235L327.64 244.248L335.412 281.824L340.649 307.253C341.261 310.254 342.068 313.166 342.894 316.128L351.133 345.849L361.363 382.745L367.747 405.747L368.048 406.864C368.31 407.738 370.516 406.019 370.292 405.194Z" fill="#FFB321"/>
<path d="M295.557 279.445C289.796 279.902 283.539 279.717 277.602 279.736C266.332 279.785 255.052 279.736 243.772 279.736L204.481 279.591C192.88 279.552 181.276 279.552 169.669 279.591C162.868 279.591 156.018 279.513 149.207 279.843L148.235 279.911C147.478 279.969 145.768 282.174 146.856 282.086C152.617 281.64 158.874 281.814 164.811 281.795C176.081 281.795 187.361 281.795 198.641 281.795L237.932 281.931C249.533 281.931 261.144 282.009 272.744 281.979C279.545 281.979 286.395 282.047 293.206 281.717C293.546 281.717 293.886 281.717 294.178 281.659C294.935 281.601 296.645 279.387 295.557 279.474V279.445Z" fill="white"/>
<path d="M310.88 331.576L318.176 370.094C318.312 370.831 320.537 369.123 320.382 368.326L313.046 329.799C312.91 329.061 310.685 330.77 310.841 331.576H310.88Z" fill="white"/>
<path d="M304.837 299.612L308.986 321.546C309.122 322.284 311.347 320.575 311.191 319.769L307.033 297.845C306.897 297.107 304.672 298.816 304.837 299.612Z" fill="white"/>
<path d="M301.232 371.948C301.88 375.722 302.527 379.496 303.175 383.27C303.282 383.842 304.195 383.202 304.389 383.046C304.768 382.745 305.478 382.075 305.361 381.502C304.681 377.735 304.049 373.958 303.418 370.181C303.321 369.608 302.388 370.249 302.203 370.404C301.815 370.715 301.125 371.375 301.232 371.948Z" fill="white"/>
<path d="M297.88 350.208C298.385 353.626 298.897 357.044 299.415 360.462C299.502 361.035 300.445 360.384 300.63 360.238C301.028 359.928 301.708 359.267 301.601 358.685C301.076 355.28 300.562 351.862 300.056 348.432C299.979 347.868 299.026 348.509 298.842 348.665C298.453 348.975 297.773 349.636 297.87 350.208H297.88Z" fill="white"/>
<path d="M290.797 299.612C292.527 312.166 294.227 324.721 296.005 337.266C296.102 337.974 298.327 336.353 298.21 335.489C296.423 322.944 294.722 310.39 292.993 297.845C292.896 297.136 290.671 298.758 290.797 299.612Z" fill="white"/>
<path d="M173.138 363.753C172.739 367.181 172.351 370.55 171.972 374.026C171.743 375.541 171.598 377.068 171.535 378.599C171.535 379.182 172.613 378.483 172.749 378.366C173.011 378.192 173.232 377.964 173.4 377.698C173.567 377.432 173.677 377.134 173.721 376.822C173.721 376.677 173.721 377.046 173.721 376.822C173.721 376.725 173.721 376.628 173.721 376.531L173.808 375.56C173.915 374.531 174.022 373.502 174.139 372.473C174.508 369.103 174.896 365.744 175.285 362.375C175.363 361.753 174.692 361.996 174.372 362.2C173.765 362.536 173.309 363.092 173.099 363.753H173.138Z" fill="white"/>
<path d="M180.696 300.388C179.142 313.127 177.603 325.873 176.081 338.625C175.472 343.745 174.867 348.862 174.264 353.976C174.138 355.024 176.353 353.364 176.441 352.597C178.384 336.414 180.327 320.232 182.27 304.049L182.882 298.981C183.009 297.932 180.794 299.592 180.696 300.359V300.388Z" fill="white"/>
<path d="M194.299 335.693C193.535 345.202 192.77 354.71 192.006 364.219C191.928 365.297 194.134 363.617 194.192 362.85C194.937 353.335 195.701 343.826 196.485 334.324C196.572 333.246 194.357 334.926 194.299 335.693Z" fill="white"/>
<path d="M197.185 300.389C196.485 308.804 195.795 317.219 195.115 325.633C195.028 326.711 197.243 325.031 197.301 324.264C197.988 315.849 198.678 307.435 199.371 299.02C199.458 297.951 197.253 299.631 197.185 300.398V300.389Z" fill="white"/>
<path d="M225.953 362.404C225.778 366.074 225.594 369.734 225.429 373.404C225.361 375.036 225.234 376.667 225.234 378.259C225.234 378.842 226.313 378.143 226.449 378.026C226.71 377.851 226.931 377.623 227.098 377.357C227.265 377.091 227.375 376.793 227.42 376.482C227.42 374.919 227.547 373.356 227.615 371.802C227.783 368.203 227.955 364.601 228.13 360.996C228.178 359.898 225.983 361.598 225.944 362.365L225.953 362.404Z" fill="white"/>
<path d="M228.101 318.924C227.518 330.453 226.945 341.975 226.381 353.49C226.333 354.587 228.528 352.888 228.567 352.121C229.131 340.593 229.704 329.071 230.287 317.555C230.336 316.458 228.14 318.157 228.101 318.924Z" fill="white"/>
<path d="M229.043 300.088C228.878 303.408 228.713 306.719 228.538 310.04C228.538 310.652 229.111 310.438 229.51 310.224C229.908 310.011 230.744 309.253 230.773 308.671C230.938 305.35 231.113 302.029 231.278 298.709C231.278 298.107 230.705 298.311 230.306 298.534C229.908 298.757 229.072 299.505 229.043 300.088Z" fill="white"/>
<path d="M149.276 300.631H150.247H151.84L156.281 300.564C160.721 300.496 165.151 300.466 169.591 300.428C182.611 300.33 195.633 300.263 208.659 300.224L254.324 300.029C267.777 299.978 281.233 299.91 294.693 299.826C302.359 299.777 310.025 299.826 317.69 299.563H318.944C319.692 299.563 321.421 297.32 320.314 297.379H319.342H317.758C316.272 297.379 314.795 297.437 313.309 297.456C308.872 297.515 304.435 297.557 299.998 297.583C286.979 297.68 273.956 297.751 260.93 297.796L215.266 297.981C201.806 298.039 188.35 298.107 174.896 298.185C167.24 298.243 159.565 298.185 151.899 298.457H150.645C149.897 298.457 148.168 300.69 149.276 300.641V300.631Z" fill="white"/>
<path d="M279.332 116.81C280.061 121.111 280.148 126.151 277.302 129.763C274.455 133.375 270.151 132.607 266.226 132.976C264.413 133.148 262.665 133.734 261.115 134.689C259.565 135.643 258.255 136.941 257.287 138.482C255.198 141.511 254.013 145.346 250.603 147.22C248.484 148.299 246.081 148.692 243.729 148.344C241.377 147.996 239.191 146.925 237.476 145.278C236.874 144.725 234.834 146.803 235.417 147.347C237.039 148.86 239.037 149.911 241.204 150.391C243.37 150.871 245.626 150.762 247.736 150.075C252.04 148.667 254.839 145.356 256.996 141.54C257.919 139.909 258.783 138.035 260.211 136.783C262.038 135.18 264.729 135.151 267.013 135.074C269.242 135.136 271.463 134.781 273.561 134.025C275.449 133.178 277.113 131.901 278.419 130.297C282.024 126.024 282.451 120.383 281.548 115.062C281.421 114.334 279.206 115.985 279.352 116.839L279.332 116.81Z" fill="white"/>
<path d="M162.927 110.664C162.169 114.946 161.44 119.606 163.704 123.578C164.617 125.178 166.035 126.431 167.736 127.141C169.514 127.908 171.622 128.364 172.594 130.229C173.566 132.093 173.303 134.112 173.566 136.054C173.832 137.914 174.568 139.674 175.703 141.171C176.955 142.738 178.615 143.929 180.5 144.615C182.386 145.3 184.424 145.452 186.391 145.055C187.053 144.846 187.609 144.39 187.945 143.783C188.12 143.492 188.411 142.744 187.76 142.87C185.782 143.245 183.738 143.027 181.883 142.245C180.029 141.462 178.446 140.15 177.335 138.472C176.33 136.873 175.745 135.046 175.635 133.161C175.489 131.471 175.48 129.685 174.663 128.16C173.847 126.636 172.147 125.947 170.554 125.335C168.785 124.757 167.249 123.627 166.172 122.111C163.607 118.315 164.394 113.499 165.142 109.275C165.258 108.644 164.52 108.926 164.219 109.101C163.613 109.436 163.16 109.993 162.956 110.654L162.927 110.664Z" fill="white"/>
<path d="M234.144 176.116C234.357 165.756 235.708 156.697 235.922 146.346C235.999 142.618 237.088 137.181 234.513 134.481C232.249 132.103 226.4 131.568 223.145 131.151L194.862 127.685C193.298 127.49 191.54 127.345 190.286 128.316C188.848 129.413 188.877 131.491 188.625 133.287C184.787 160.629 182.377 185.981 180.308 212.905C180.055 216.081 179.259 219.634 181.28 222.1C183.106 224.324 186.274 224.771 189.13 225.013L218.569 227.926C220.658 228.13 222.951 228.285 224.671 227.081C226.39 225.877 226.973 223.79 227.488 221.819C231.653 205.605 233.652 188.912 233.434 172.174" fill="#092857"/>
<path d="M235.242 175.232C235.465 165.193 236.65 155.202 237.029 145.133C237.156 141.744 238.001 137.783 236.378 134.617C234.756 131.452 230.627 130.947 227.634 130.481C217.87 128.986 207.989 128.054 198.185 126.85C196.155 126.597 193.833 126.024 191.831 126.723C190.966 127.043 190.185 127.554 189.545 128.218C188.906 128.882 188.425 129.682 188.139 130.559C187.624 132.691 187.299 134.865 187.168 137.054C186.805 139.644 186.458 142.252 186.128 144.88C183.495 165.202 181.513 185.602 179.871 206.05C179.667 208.624 179.482 211.187 179.259 213.75C178.966 215.726 178.872 217.727 178.977 219.722C179.473 224.091 183.378 225.547 187.226 226.013C192.404 226.644 197.612 227.052 202.771 227.567C207.93 228.082 213.264 228.703 218.521 229.12C220.473 229.405 222.466 229.065 224.214 228.149C225.944 227.051 227.249 225.397 227.916 223.46C228.625 221.356 229.2 219.209 229.636 217.032C230.238 214.44 230.782 211.847 231.278 209.264C233.16 199.217 234.232 189.034 234.484 178.815C234.552 176.32 234.562 173.815 234.532 171.319C234.532 170.727 233.464 171.436 233.318 171.543C233.056 171.717 232.834 171.944 232.666 172.21C232.499 172.477 232.39 172.775 232.346 173.087C232.464 182.798 231.834 192.504 230.461 202.118C229.814 206.837 228.965 211.527 227.916 216.187C227.411 218.498 226.876 220.809 226.255 223.091C226.037 223.96 225.71 224.798 225.283 225.586C224.991 226.026 224.591 226.385 224.122 226.628C223.653 226.871 223.13 226.99 222.601 226.975C220.299 227.217 217.85 226.722 215.557 226.499L208.319 225.78L193.357 224.295C189.752 223.936 184.612 224.149 182.164 220.935C180.93 219.323 180.92 217.168 181.076 215.226C181.241 213.129 181.445 211.032 181.61 208.925C183.106 189.913 184.855 170.921 187.148 151.997C187.731 147.201 188.343 142.414 188.984 137.637C189.286 135.443 189.577 133.258 189.859 131.064C189.966 130.229 189.985 129.122 190.83 128.821C191.85 128.587 192.91 128.587 193.93 128.821C203.539 129.937 213.128 131.199 222.728 132.355C225.905 132.734 229.626 132.967 232.444 134.724C235.436 136.608 235.222 140.55 235.028 143.686C234.756 147.9 234.678 152.124 234.377 156.308C234.047 160.969 233.609 165.61 233.328 170.271C233.192 172.514 233.094 174.766 233.046 177.009C233.046 177.592 234.124 176.883 234.26 176.786C234.522 176.612 234.744 176.384 234.912 176.118C235.079 175.852 235.188 175.553 235.232 175.242L235.242 175.232Z" fill="#092857"/>
<path d="M215.616 136.336C215.451 135.957 215.209 135.616 214.906 135.334C214.604 135.052 214.246 134.836 213.856 134.698C213.466 134.561 213.051 134.505 212.639 134.534C212.226 134.564 211.824 134.678 211.457 134.87C210.743 135.312 210.172 135.952 209.813 136.712C209.454 137.472 209.324 138.319 209.436 139.152C209.465 139.706 209.625 140.245 209.902 140.726C210.178 141.207 210.565 141.616 211.03 141.919C211.767 142.234 212.597 142.255 213.35 141.979C214.103 141.703 214.722 141.15 215.081 140.433C215.406 139.698 215.55 138.895 215.501 138.093C215.452 137.291 215.211 136.512 214.8 135.821" fill="white"/>
<path d="M216.713 135.442C216.424 134.733 215.893 134.148 215.213 133.793C214.534 133.437 213.75 133.334 213.002 133.501C211.933 133.738 210.963 134.297 210.223 135.103C209.417 135.914 208.829 136.916 208.513 138.016C208.047 139.618 208.319 141.822 209.776 142.87C211.486 144.074 213.663 142.977 214.965 141.666C215.92 140.753 216.513 139.525 216.636 138.21C216.701 137.046 216.435 135.888 215.868 134.87C215.586 134.336 213.371 136.093 213.808 136.928C214.18 137.632 214.398 138.406 214.45 139.2C214.465 139.526 214.438 139.852 214.372 140.171C214.345 140.316 214.306 140.459 214.255 140.598L214.129 140.86C214.09 140.951 214.09 140.932 214.129 140.802L214.032 140.967C214.11 140.909 214.119 140.724 214.032 140.909L213.974 140.977C214.129 140.812 214.148 140.783 214.032 140.899C214.032 140.899 214.314 140.676 214.11 140.822C213.906 140.967 214.304 140.715 214.11 140.822L213.944 140.948C214.022 140.948 214.148 140.822 213.944 140.948L213.692 141.055H213.575C213.029 141.2 212.449 141.13 211.953 140.86C211.401 140.472 210.971 139.937 210.711 139.315C210.452 138.693 210.374 138.01 210.486 137.346C210.501 137.195 210.527 137.046 210.563 136.899L210.622 136.646C210.699 136.345 210.622 136.724 210.622 136.559C210.622 136.394 210.738 136.277 210.796 136.142C210.923 135.841 210.66 136.326 210.796 136.054C210.855 135.977 210.894 135.879 210.962 135.802C210.758 136.035 210.884 135.918 210.962 135.86C210.738 136.112 211.166 135.578 210.962 135.86C211.185 135.608 210.894 135.938 210.884 135.918L210.962 135.86C210.962 135.86 211.117 135.763 211.127 135.763C210.903 135.889 211.078 135.763 211.127 135.763C211.175 135.763 211.36 135.676 211.175 135.763L211.418 135.705C212.039 135.575 212.686 135.657 213.255 135.938C213.801 136.192 214.224 136.653 214.43 137.219C214.615 137.744 215.402 137.219 215.645 136.996C215.944 136.764 216.2 136.481 216.403 136.161C216.509 135.977 216.713 135.666 216.636 135.442H216.713Z" fill="white"/>
<path d="M214.002 147.395C213.838 147.016 213.596 146.675 213.293 146.393C212.99 146.111 212.632 145.896 212.242 145.759C211.851 145.622 211.437 145.567 211.024 145.598C210.611 145.629 210.21 145.745 209.844 145.939C209.13 146.379 208.559 147.018 208.201 147.776C207.842 148.534 207.711 149.38 207.823 150.211C207.851 150.775 208.014 151.324 208.298 151.812C208.582 152.3 208.979 152.713 209.455 153.017C210.194 153.331 211.025 153.351 211.778 153.073C212.531 152.795 213.15 152.24 213.507 151.522C213.831 150.786 213.974 149.984 213.925 149.181C213.876 148.379 213.636 147.6 213.225 146.91" fill="white"/>
<path d="M215.1 146.511C214.813 145.8 214.281 145.215 213.602 144.859C212.922 144.503 212.137 144.401 211.389 144.57C210.322 144.805 209.355 145.364 208.62 146.172C207.81 146.982 207.219 147.984 206.9 149.084C206.434 150.687 206.716 152.891 208.163 153.939C209.873 155.153 212.05 154.046 213.352 152.745C214.308 151.831 214.905 150.605 215.032 149.288C215.089 148.121 214.819 146.962 214.255 145.939C213.983 145.414 211.758 147.162 212.195 147.997C212.568 148.704 212.786 149.481 212.837 150.279C212.851 150.604 212.825 150.93 212.759 151.25C212.732 151.392 212.693 151.532 212.642 151.667C212.642 151.764 212.565 151.842 212.516 151.939C212.467 152.036 212.516 152.007 212.516 151.881C212.489 151.936 212.457 151.988 212.419 152.036C212.496 152.036 212.506 151.793 212.419 151.978L212.36 152.056C212.516 151.881 212.535 151.852 212.428 151.968C212.322 152.085 212.701 151.755 212.497 151.9C212.292 152.046 212.691 151.784 212.497 151.9L212.302 152.026C212.38 152.026 212.497 151.9 212.302 152.026L212.04 152.133C212.195 152.075 211.962 152.133 211.923 152.133C211.379 152.287 210.796 152.22 210.301 151.949C209.749 151.559 209.318 151.022 209.058 150.398C208.799 149.774 208.721 149.09 208.834 148.424C208.834 148.279 208.882 148.123 208.911 147.978L209.086 147.745C209.164 147.434 209.086 147.822 209.086 147.647C209.086 147.473 209.203 147.366 209.261 147.23C209.387 146.939 209.135 147.414 209.261 147.152C209.31 147.065 209.366 146.98 209.426 146.9C209.222 147.133 209.358 147.007 209.426 146.948C209.203 147.201 209.64 146.667 209.426 146.948C209.65 146.696 209.358 147.026 209.358 147.007L209.436 146.948C209.553 146.851 209.533 146.861 209.387 146.948C209.387 146.948 209.543 146.851 209.553 146.842C209.339 146.977 209.504 146.842 209.553 146.842C209.601 146.842 209.776 146.754 209.553 146.842L209.805 146.774C210.423 146.652 211.064 146.734 211.632 147.007C212.175 147.269 212.598 147.727 212.817 148.288C212.992 148.822 213.789 148.288 214.032 148.065C214.328 147.832 214.581 147.55 214.78 147.23C214.887 147.045 215.091 146.744 215.013 146.521L215.1 146.511Z" fill="white"/>
<path d="M342.854 233.402C317.486 217.867 292.06 202.235 267.527 185.379C261.086 180.951 258.268 177.932 253.235 171.494C248.202 165.057 235.115 161.843 235.115 161.843L235.309 171.552C219.575 171.309 204.207 166.769 190.869 158.425C189.127 157.182 187.212 156.2 185.185 155.512C184.166 155.178 183.078 155.109 182.024 155.311C180.97 155.513 179.985 155.98 179.161 156.668C177.626 158.163 177.519 161.076 179.288 162.27C176.868 159.59 170.194 158.085 167.677 161.814C165.647 164.804 167.366 169.455 170.145 171.776C166.842 172.572 165.773 175.825 165.86 179.213C165.948 182.602 167.473 184.447 170.553 186.359C169.824 186.985 169.285 187.803 168.998 188.72C168.711 189.636 168.688 190.615 168.931 191.544C169.448 193.399 170.519 195.052 172.001 196.283C175.984 199.914 181.377 201.458 186.167 203.924C200.876 211.527 215.926 218.488 230.413 226.509C233.988 228.45 237.563 230.519 240.974 232.771C245.341 235.732 249.379 239.15 253.021 242.966C263.621 253.587 274.781 263.635 286.454 273.066C299.88 283.939 313.97 293.969 328.64 303.098C337.598 308.661 347.032 313.972 357.438 315.662C367.844 317.351 379.522 314.749 386.304 306.68C391.754 300.185 393.26 291.3 393.785 282.834C394.812 268.624 393.989 254.342 391.337 240.345C390.666 236.539 389.665 231.674 388.422 226.149" fill="white"/>
<path d="M343.885 232.364C326.153 221.499 308.422 210.614 290.972 199.293C286.613 196.458 282.27 193.596 277.943 190.71C273.853 187.971 269.685 185.301 265.76 182.34C262.875 180.163 260.237 177.679 257.89 174.931C255.509 172.155 253.527 169.106 250.496 167.028C246.084 164.073 241.172 161.941 236 160.736C235.193 160.542 233.998 162.018 234.057 162.727L234.241 172.436L236.184 170.494C226.355 170.34 216.623 168.514 207.406 165.096C202.789 163.379 198.33 161.267 194.076 158.784C190.462 156.658 186.468 153.192 181.96 154.435C178.715 155.328 174.469 160.503 178.249 163.348C178.909 163.843 180.872 161.882 180.308 161.29C177.491 158.299 172.011 157.503 168.649 160.037C164.248 163.387 165.2 169.484 169.067 172.854L170.787 170.727C167.124 171.698 164.957 175.106 164.753 178.776C164.573 180.46 164.862 182.16 165.589 183.689C166.531 185.259 167.872 186.552 169.475 187.437L170.447 185.748C169.52 186.448 168.784 187.37 168.307 188.429C167.83 189.487 167.627 190.649 167.717 191.807C167.998 194.351 169.815 196.448 171.72 198.001C175.927 201.448 181.387 203.079 186.177 205.536C197.642 211.43 209.301 216.935 220.717 222.916C226.303 225.829 231.89 228.829 237.234 232.14C242.122 235.183 246.652 238.766 250.739 242.821C259.687 251.608 268.733 260.211 278.312 268.308C287.892 276.406 297.948 284.135 308.276 291.369C313.458 295.013 318.731 298.531 324.094 301.923C329.113 305.215 334.302 308.242 339.639 310.992C349.258 315.769 360.042 318.759 370.73 316.351C375.618 315.305 380.154 313.016 383.898 309.706C387.642 306.397 390.469 302.177 392.105 297.456C393.754 292.37 394.696 287.08 394.903 281.737C395.204 276.678 395.369 271.61 395.272 266.541C394.97 255.52 393.669 244.549 391.386 233.762C390.803 230.907 390.181 228.062 389.54 225.227C389.365 224.47 387.15 226.198 387.334 227.004C389.897 237.687 391.679 248.541 392.668 259.482C393.545 269.441 393.375 279.464 392.163 289.388C391.493 294.456 390.22 299.602 387.509 304.001C384.914 308.048 381.07 311.139 376.559 312.807C366.844 316.643 356.156 315.021 346.751 311.186C341.404 308.905 336.248 306.2 331.332 303.098C326.221 299.971 321.189 296.709 316.214 293.388C306.22 286.63 296.527 279.452 287.134 271.852C277.742 264.253 268.736 256.298 260.115 247.986C255.985 244.005 252.06 239.772 247.659 236.073C243.219 232.509 238.457 229.366 233.435 226.683C222.689 220.566 211.623 215.148 200.586 209.672C195.358 207.08 190.219 204.264 184.914 201.817C180.27 199.681 174.877 197.933 171.584 193.749C170.77 192.769 170.215 191.6 169.971 190.35C169.806 189.379 169.825 187.748 170.67 187.049C170.826 186.933 172.108 185.69 171.584 185.36C169.359 183.952 167.464 182.252 167.066 179.534C166.735 177.301 166.823 173.63 169.456 172.912C169.893 172.795 171.846 171.378 171.176 170.795C169.636 169.474 168.554 167.7 168.086 165.727C167.756 164.251 167.658 161.94 169.271 161.192C172.069 159.882 176.228 161.192 178.258 163.348L180.318 161.29C179.24 160.474 178.511 158.445 179.483 157.231C180.454 156.017 183.369 156.347 184.71 156.784C186.775 157.602 188.732 158.669 190.539 159.959C192.359 161.073 194.215 162.118 196.107 163.096C207.955 169.203 221.057 172.489 234.387 172.698C234.888 172.621 235.351 172.387 235.709 172.029C236.067 171.671 236.302 171.208 236.379 170.708L236.184 160.998L234.241 162.94C238.66 164.009 242.896 165.724 246.814 168.028C248.206 168.862 249.509 169.838 250.7 170.941C251.998 172.29 253.206 173.724 254.314 175.232C256.545 178.044 259.052 180.627 261.796 182.942C265.361 185.855 269.296 188.379 273.134 190.962C277.383 193.823 281.648 196.655 285.93 199.458C294.577 205.096 303.282 210.643 312.046 216.1C321.937 222.275 331.86 228.399 341.815 234.471C342.593 234.946 344.439 232.752 343.875 232.402L343.885 232.364Z" fill="#092857"/>
<path d="M178.753 161.639C184.991 168.174 190.85 171.543 197.729 175.097L210.777 181.825" fill="white"/>
<path d="M177.714 162.668C181.903 166.982 186.701 170.659 191.957 173.582C197.787 176.864 203.81 179.786 209.747 182.854C210.582 183.282 212.351 181.068 211.816 180.796C205.87 177.728 199.837 174.805 194.017 171.523C188.763 168.603 183.967 164.925 179.783 160.61C179.229 160.037 177.15 162.076 177.714 162.668Z" fill="#092857"/>
<path d="M169.485 171.3C173.964 175.611 184.914 182.893 187.615 184.088L206.075 192.263" fill="white"/>
<path d="M168.455 172.329C173.062 176.509 178.089 180.202 183.456 183.35C185.996 184.826 188.635 186.123 191.355 187.233L205.2 193.38C205.909 193.7 207.804 191.554 206.978 191.185L193.347 185.126C190.573 183.997 187.885 182.67 185.302 181.155C180.013 178.044 175.06 174.393 170.524 170.261C169.931 169.698 167.881 171.776 168.455 172.329Z" fill="#092857"/>
<path d="M170.417 186.243C180.211 192.389 191.073 198.516 202.305 201.273L170.417 186.243Z" fill="white"/>
<path d="M169.387 187.272C179.385 193.545 189.878 199.497 201.45 202.371C202.256 202.575 203.995 200.37 203.218 200.176C191.773 197.322 181.386 191.438 171.476 185.214C170.709 184.728 168.853 186.923 169.416 187.272H169.387Z" fill="#092857"/>
<path d="M176.179 160.231C177.491 160.911 178.802 166.164 177.287 168.329C176.878 168.954 176.349 169.492 175.73 169.91C175.111 170.328 174.415 170.619 173.682 170.766C172.196 171.019 169.64 171.349 168.134 169.436" fill="white"/>
<path d="M175.149 161.26C175.79 161.778 176.224 162.508 176.373 163.319C176.728 164.416 176.892 165.565 176.859 166.717C176.841 167.192 176.759 167.662 176.616 168.115C176.616 168.183 176.46 168.455 176.509 168.368C176.558 168.28 176.412 168.513 176.431 168.484C176.451 168.455 176.14 168.834 176.276 168.678L176.111 168.843C175.916 169.047 176.363 168.649 175.984 168.96C175.073 169.566 173.998 169.878 172.904 169.853C172.211 169.93 171.509 169.838 170.857 169.586C170.206 169.334 169.626 168.93 169.164 168.407C168.688 167.834 166.55 169.795 167.104 170.465C167.601 171.016 168.217 171.446 168.906 171.722C169.595 171.998 170.338 172.113 171.078 172.057C172.662 172.08 174.216 171.634 175.547 170.776C177.15 169.785 178.338 168.246 178.889 166.445C179.266 164.392 178.998 162.272 178.122 160.377C177.941 159.903 177.623 159.494 177.209 159.202C176.412 158.745 174.605 160.95 175.149 161.26Z" fill="#092857"/>
<path d="M173.06 174.465C175.004 176.077 174.935 179.107 173.944 180.942C172.953 182.777 169.844 185.33 167.775 184.068" fill="white"/>
<path d="M172.03 175.495C172.46 175.875 172.81 176.337 173.06 176.854C173.31 177.371 173.455 177.932 173.488 178.504C173.536 179.027 173.507 179.554 173.4 180.068C173.354 180.301 173.292 180.532 173.216 180.757C173.176 180.869 173.131 180.98 173.08 181.087C173.051 181.157 173.019 181.225 172.982 181.291C173.041 181.194 173.051 181.184 172.982 181.291C172.914 181.398 172.856 181.505 172.788 181.612C172.72 181.718 172.934 181.446 172.72 181.689C172.642 181.777 172.574 181.874 172.497 181.971C172.73 181.689 172.37 182.087 172.322 182.136C172.273 182.184 171.991 182.447 172.234 182.233L171.933 182.485L171.729 182.641C171.826 182.573 171.836 182.573 171.729 182.641L171.399 182.845C171.026 183.052 170.623 183.2 170.204 183.282C169.728 183.367 169.237 183.285 168.814 183.049C168.018 182.592 166.201 184.787 166.755 185.107C168.931 186.36 171.535 184.476 173.07 183C173.955 182.224 174.652 181.256 175.108 180.172C175.564 179.087 175.767 177.912 175.703 176.737C175.608 175.476 175.034 174.299 174.1 173.446C173.468 172.892 171.457 174.999 172.04 175.504L172.03 175.495Z" fill="#092857"/>
<path d="M173.468 188.195C175.324 189.302 175.47 192.399 174.722 193.321C173.974 194.244 171.098 195.438 169.796 193.729" fill="white"/>
<path d="M172.438 189.224C172.758 189.426 173.041 189.682 173.274 189.981C173.382 190.129 173.48 190.285 173.565 190.447C173.595 190.494 173.62 190.543 173.643 190.593C173.643 190.69 173.721 190.777 173.75 190.865C173.875 191.22 173.963 191.588 174.012 191.962C174.022 192.127 174.022 192.292 174.012 192.457V192.69C174.012 192.496 174.012 192.777 174.012 192.836C174.012 192.894 174.012 193.117 173.944 193.253C173.876 193.389 173.847 193.554 173.944 193.37C174.041 193.185 173.944 193.418 173.944 193.457C173.847 193.71 174.09 193.214 173.944 193.389C173.798 193.564 174.168 193.088 174.08 193.195C173.993 193.302 173.964 193.341 174.148 193.127C174.333 192.913 174.255 193.011 174.206 193.059C174.158 193.108 173.993 193.205 174.372 192.913L174.197 193.049C174.08 193.146 174.488 192.855 174.352 192.943L174.265 193.001C174.197 193.049 174.109 193.078 174.041 193.137C173.973 193.195 174.323 192.991 174.158 193.069L174.041 193.127L173.76 193.253C173.682 193.291 173.6 193.32 173.517 193.341C173.517 193.341 173.76 193.273 173.575 193.341H173.449C173.26 193.39 173.068 193.429 172.875 193.457C172.817 193.457 172.516 193.457 172.681 193.457H172.39C172.189 193.449 171.99 193.416 171.797 193.36C171.406 193.243 171.065 193 170.825 192.671C170.699 192.515 170.359 192.671 170.233 192.671C169.917 192.819 169.631 193.023 169.387 193.273C169.132 193.517 168.924 193.806 168.775 194.127C168.707 194.312 168.62 194.535 168.775 194.71C170.048 196.312 172.535 195.603 173.973 194.651C174.999 194.046 175.767 193.086 176.13 191.952C176.334 191.153 176.334 190.315 176.13 189.515C175.933 188.538 175.361 187.678 174.537 187.117C174.07 186.835 173.4 187.437 173.099 187.748C172.843 187.988 172.635 188.275 172.487 188.593C172.438 188.729 172.302 189.068 172.487 189.175L172.438 189.224Z" fill="#092857"/>
<path d="M187.167 156.173C187.471 156.829 187.613 157.549 187.582 158.272C187.552 158.994 187.35 159.699 186.992 160.328C186.257 161.59 185.086 162.539 183.699 162.998C182.971 163.271 182.185 163.355 181.416 163.241C180.437 163.111 179.533 162.652 178.851 161.94" fill="white"/>
<path d="M186.07 157.066C186.54 158.032 186.61 159.145 186.264 160.163C186.197 160.361 186.105 160.55 185.992 160.726C185.992 160.775 185.768 161.037 185.914 160.853L185.759 161.056C185.866 160.94 185.875 160.921 185.807 160.998C185.739 161.076 185.487 161.309 185.632 161.183C185.778 161.056 185.419 161.348 185.38 161.377C185.564 161.231 185.302 161.377 185.253 161.464L184.923 161.658C185.059 161.581 184.729 161.746 184.739 161.746L184.389 161.891C184.16 161.976 183.926 162.047 183.689 162.105C183.149 162.226 182.588 162.226 182.047 162.105C181.204 161.989 180.433 161.568 179.881 160.921C179.531 160.367 177.335 162.202 177.821 162.979C178.162 163.424 178.624 163.761 179.152 163.95C179.635 164.165 180.145 164.315 180.668 164.397C182.173 164.504 183.669 164.089 184.904 163.222C187.401 161.629 189.694 158.367 188.265 155.318C188.032 154.823 187.294 155.318 187.051 155.541C186.759 155.779 186.507 156.061 186.303 156.376C186.196 156.542 185.972 156.891 186.07 157.095V157.066Z" fill="#092857"/>
<path d="M124.743 106.79L84.1888 107.062C81.3018 107.085 78.5417 108.25 76.513 110.303C74.4842 112.356 73.3524 115.129 73.3653 118.014C73.3653 127.316 73.4916 136.621 73.7443 145.929C73.7992 148.664 74.8787 151.278 76.7695 153.256C78.6602 155.233 81.2246 156.43 83.9557 156.609C98.5295 157.58 124.296 155.435 124.296 155.435C124.296 155.435 132.953 161.969 137.782 164.989C138.151 152.308 136.305 129.772 135.702 117.13C135.565 114.326 134.347 111.684 132.304 109.757C130.261 107.829 127.552 106.766 124.743 106.79Z" fill="#A1CDFF"/>
<path d="M125.627 105.683L102.455 105.848L91.3596 105.916C88.1825 105.916 84.6945 105.528 81.6437 106.489C79.2411 107.263 77.1016 108.691 75.4646 110.611C73.8276 112.532 72.7577 114.87 72.3747 117.363C72.2468 118.995 72.2208 120.632 72.297 122.267C72.297 124.209 72.3132 126.134 72.3456 128.044C72.3845 131.928 72.4395 135.779 72.5108 139.598C72.5108 141.356 72.5788 143.123 72.6176 144.89C72.57 146.417 72.7136 147.943 73.0451 149.434C73.7041 151.872 75.1656 154.016 77.1938 155.522C81.1482 158.435 86.5988 157.911 91.2527 157.93C100.697 157.93 110.15 157.464 119.574 156.804L123.14 156.532C123.723 156.483 123.519 156.639 123.286 156.435C123.636 156.745 124.044 156.998 124.413 157.279C128.445 160.289 132.506 163.309 136.772 166.018C137.578 166.523 138.88 164.775 138.899 164.076C139.142 155.464 138.618 146.832 138.122 138.249C137.86 133.656 137.568 129.073 137.286 124.49C137.16 122.48 137.044 120.48 136.937 118.47C136.963 116.55 136.678 114.638 136.091 112.81C135.262 110.715 133.824 108.916 131.963 107.646C130.101 106.376 127.901 105.692 125.647 105.683C125.336 105.728 125.038 105.838 124.772 106.005C124.506 106.172 124.278 106.393 124.102 106.654C123.995 106.79 123.296 107.858 123.879 107.868C125.944 107.864 127.967 108.451 129.709 109.559C131.451 110.667 132.84 112.249 133.711 114.12C134.384 115.934 134.713 117.857 134.683 119.791C134.78 121.733 134.896 123.675 135.013 125.617C135.547 134.511 136.159 143.414 136.5 152.328C136.674 156.833 136.801 161.348 136.674 165.863L138.802 163.921C135.013 161.542 131.399 158.872 127.804 156.221C127.05 155.509 126.215 154.886 125.317 154.367C124.81 154.26 124.288 154.26 123.781 154.367C115.912 154.978 108.032 155.415 100.143 155.609C95.3722 155.726 90.5823 155.765 85.8021 155.503C83.3536 155.472 80.9759 154.677 79.001 153.231C77.0127 151.67 75.6369 149.46 75.1146 146.987C74.9091 145.703 74.8181 144.404 74.8426 143.104L74.726 137.336C74.6612 133.646 74.6094 129.957 74.5705 126.267C74.5705 124.655 74.5705 123.053 74.5705 121.412C74.4782 119.587 74.4976 117.759 74.6288 115.936C74.7379 114.756 75.0862 113.61 75.6524 112.568C76.2187 111.527 76.991 110.611 77.9225 109.877C80.6721 107.935 83.9755 108.188 87.1817 108.169L99.2488 108.081L123.869 107.916C124.18 107.87 124.477 107.759 124.743 107.592C125.009 107.425 125.237 107.205 125.414 106.945C125.53 106.77 126.201 105.683 125.627 105.683Z" fill="#A1CDFF"/>
<path d="M389.15 83.1373L281.479 83.4772C280.287 83.4797 279.108 83.7168 278.008 84.1749C276.908 84.633 275.909 85.3031 275.068 86.147C274.227 86.991 273.561 87.9921 273.107 89.0934C272.653 90.1946 272.421 91.3744 272.424 92.5653C272.424 107.353 272.91 126.248 273.755 138.705C278.797 134.074 284.442 129.598 284.442 129.598C284.442 129.598 350.005 130.569 390.685 129.054C393.472 128.957 396.115 127.795 398.069 125.808C400.024 123.821 401.14 121.159 401.188 118.373C401.312 109.859 400.929 101.345 400.042 92.876C399.755 90.193 398.483 87.7117 396.471 85.9126C394.459 84.1134 391.85 83.1245 389.15 83.1373Z" fill="#0A7AF9"/>
<path d="M390.035 82.04L315.592 82.273L296.918 82.3313H287.707C285.152 82.3313 282.354 82.0012 279.866 82.6517C277.871 83.2102 276.057 84.2812 274.605 85.7582C273.152 87.2351 272.112 89.0665 271.588 91.0699C271.064 93.2546 271.336 95.6625 271.355 97.8666C271.355 100.521 271.384 103.171 271.443 105.819C271.618 117.062 271.899 128.316 272.648 139.53C272.696 140.249 274.066 139.123 274.153 139.045C277.515 135.977 280.955 133.035 284.549 130.199L283.578 130.636C287.892 130.704 292.215 130.743 296.539 130.782C307 130.879 317.464 130.934 327.931 130.947C340.785 130.947 353.649 130.889 366.503 130.685C372.637 130.588 378.767 130.449 384.895 130.267C387.751 130.18 390.783 130.374 393.503 129.394C396.31 128.323 398.696 126.375 400.304 123.84C402.248 120.859 402.248 117.732 402.248 114.295C402.248 109.803 402.105 105.311 401.82 100.818C401.671 98.5657 401.493 96.3228 401.286 94.0896C401.207 92.3622 400.88 90.6551 400.314 89.0212C399.486 86.9465 398.054 85.1673 396.205 83.9126C394.356 82.658 392.173 81.9855 389.938 81.9818C389.626 82.0264 389.328 82.136 389.062 82.3032C388.796 82.4705 388.568 82.6918 388.393 82.9527C388.286 83.0984 387.596 84.1664 388.169 84.1664C389.775 84.1715 391.36 84.532 392.809 85.222C394.259 85.912 395.538 86.9143 396.554 88.157C399.09 91.2932 399.041 95.3809 399.342 99.2162C399.702 103.857 399.925 108.508 399.984 113.169C399.984 116.936 400.606 121.315 398.235 124.539C396.292 127.238 393.085 127.83 389.947 127.947C386.809 128.063 383.836 128.141 380.775 128.219C374.143 128.387 367.504 128.507 360.858 128.578C347.631 128.733 334.411 128.782 321.198 128.724C311.521 128.724 301.844 128.652 292.167 128.51L285.783 128.432C285.486 128.404 285.186 128.435 284.901 128.524C284.616 128.612 284.351 128.756 284.122 128.947C282.004 130.539 279.993 132.316 277.982 134.044C276.388 135.423 274.804 136.812 273.25 138.239L274.756 137.753C274.124 128.335 273.843 118.907 273.648 109.479C273.538 104.547 273.47 99.6208 273.444 94.7013C273.444 92.4584 273.221 90.1475 274.251 88.0794C274.693 87.22 275.324 86.4715 276.096 85.8898C276.868 85.3081 277.762 84.9082 278.71 84.7198C281.275 84.147 284.19 84.4965 286.804 84.4868H295.548H313.036L348.441 84.3703L388.218 84.2441C388.529 84.1994 388.827 84.0899 389.093 83.9226C389.36 83.7553 389.588 83.5341 389.763 83.2731C389.918 83.1178 390.608 82.04 390.035 82.04Z" fill="#0A7AF9"/>
<path d="M288.387 108.295L306.352 108.45C306.663 108.405 306.961 108.295 307.227 108.128C307.493 107.961 307.721 107.74 307.897 107.479C308.003 107.343 308.703 106.275 308.12 106.265L290.155 106.12C289.844 106.164 289.546 106.274 289.28 106.441C289.014 106.608 288.786 106.83 288.611 107.091C288.504 107.236 287.804 108.304 288.387 108.304V108.295Z" fill="#092857"/>
<path d="M294.528 114.819L303.71 99.3812C303.914 99.0317 304.147 98.4103 303.535 98.4588C302.923 98.5073 302.252 99.2744 301.98 99.7308L292.799 115.159C292.595 115.509 292.361 116.13 292.973 116.082C293.586 116.033 294.256 115.276 294.528 114.819Z" fill="#092857"/>
<path d="M303.534 114.15L295.032 98.3328C294.751 97.7987 292.526 99.5659 292.973 100.391L301.474 116.218C301.756 116.752 303.981 114.985 303.534 114.15Z" fill="#092857"/>
<path d="M313.95 108.295L331.914 108.45C332.227 108.406 332.527 108.297 332.795 108.13C333.063 107.962 333.292 107.741 333.469 107.479C333.576 107.343 334.266 106.275 333.692 106.265L315.728 106.12C315.415 106.162 315.114 106.271 314.846 106.439C314.578 106.606 314.349 106.828 314.173 107.091C314.066 107.236 313.376 108.304 313.95 108.304V108.295Z" fill="#092857"/>
<path d="M320.1 114.819L329.281 99.3812C329.485 99.0317 329.719 98.4103 329.097 98.4588C328.475 98.5073 327.814 99.2744 327.542 99.7308L318.361 115.159C318.157 115.509 317.924 116.13 318.545 116.082C319.167 116.033 319.828 115.276 320.1 114.819Z" fill="#092857"/>
<path d="M329.097 114.15L320.605 98.3328C320.314 97.7987 318.099 99.5659 318.546 100.391L327.037 116.218C327.329 116.752 329.544 114.985 329.097 114.15Z" fill="#092857"/>
<path d="M339.512 108.295L357.487 108.45C357.798 108.405 358.096 108.295 358.362 108.128C358.628 107.961 358.856 107.74 359.032 107.479C359.139 107.343 359.828 106.275 359.255 106.265L341.29 106.12C340.979 106.164 340.681 106.274 340.415 106.441C340.149 106.608 339.921 106.83 339.746 107.091C339.629 107.236 338.939 108.304 339.512 108.304V108.295Z" fill="#092857"/>
<path d="M345.663 114.819L354.844 99.3812C355.048 99.0317 355.281 98.4103 354.669 98.4588C354.057 98.5073 353.387 99.2744 353.115 99.7308L343.933 115.159C343.72 115.509 343.486 116.13 344.108 116.082C344.73 116.033 345.391 115.276 345.663 114.819Z" fill="#092857"/>
<path d="M354.669 114.15L346.168 98.3328C345.886 97.7987 343.661 99.5659 344.108 100.391L352.609 116.218C352.891 116.752 355.106 114.985 354.669 114.15Z" fill="#092857"/>
<path d="M365.084 108.295L383.049 108.45C383.361 108.405 383.661 108.295 383.929 108.128C384.196 107.961 384.426 107.74 384.604 107.479C384.711 107.343 385.4 106.275 384.827 106.265L366.853 106.12C366.542 106.164 366.243 106.274 365.977 106.441C365.711 106.608 365.483 106.83 365.308 107.091C365.201 107.236 364.511 108.304 365.084 108.304V108.295Z" fill="#092857"/>
<path d="M371.235 114.819L380.416 99.3812C380.62 99.0317 380.853 98.4103 380.232 98.4588C379.61 98.5073 378.949 99.2744 378.677 99.7308L369.495 115.159C369.291 115.509 369.058 116.13 369.68 116.082C370.302 116.033 370.963 115.276 371.235 114.819Z" fill="#092857"/>
<path d="M380.232 114.15L371.74 98.3328C371.449 97.7987 369.233 99.5659 369.68 100.391L378.172 116.218C378.454 116.752 380.679 114.985 380.232 114.15Z" fill="#092857"/>
<path d="M124.024 120.771C123.39 119.5 122.291 118.52 120.954 118.036C119.618 117.551 118.146 117.599 116.843 118.169C115.302 118.811 113.981 119.887 113.041 121.267C112.1 122.646 111.582 124.268 111.548 125.937C111.548 129.005 113.686 132.287 116.775 133.005C119.865 133.724 122.974 131.53 124.49 129.034C125.356 127.568 125.683 125.845 125.415 124.163C125.148 122.481 124.302 120.945 123.023 119.82C122.401 119.257 120.38 121.354 120.963 121.878C121.854 122.649 122.529 123.637 122.922 124.747C123.316 125.857 123.414 127.05 123.207 128.209C123.009 129.093 122.477 129.867 121.723 130.369C120.968 130.872 120.049 131.065 119.156 130.908C116.62 130.656 114.648 128.345 114.006 126.005C113.482 124.063 113.715 121.412 115.571 120.412C116.691 119.891 117.97 119.826 119.138 120.23C120.305 120.634 121.27 121.476 121.828 122.577C122.207 123.393 124.354 121.509 124.024 120.81V120.771Z" fill="#092857"/>
<path d="M91.32 141.006C91.0577 141.2 91.1743 141.094 91.4075 140.958L92.0099 140.608C92.5637 140.288 93.1272 139.977 93.681 139.637C95.3035 138.754 96.9358 137.889 98.5389 137.025C102.221 135.083 105.913 133.141 109.566 131.2C110.692 130.635 111.774 129.985 112.802 129.258C113.132 129.005 113.977 128.199 113.773 127.714C113.569 127.228 112.802 127.714 112.559 127.937C112.821 127.743 112.695 127.84 112.462 127.937L111.859 128.296C111.306 128.617 110.752 128.918 110.188 129.267C108.566 130.151 106.933 131.015 105.33 131.879C101.648 133.821 97.956 135.763 94.3028 137.705C93.1781 138.272 92.0967 138.921 91.0674 139.647C90.7371 139.899 89.8918 140.695 90.0958 141.191C90.2999 141.686 91.0674 141.191 91.3103 140.967L91.32 141.006Z" fill="#092857"/>
<path d="M90.4656 141.657C91.9737 143.666 93.2971 145.808 94.42 148.055C94.6823 148.58 96.9072 146.851 96.4797 145.997C95.3607 143.747 94.037 141.606 92.5254 139.598C92.4088 139.443 92.059 139.598 91.9424 139.598C91.6215 139.747 91.3315 139.954 91.0874 140.21C90.8251 140.482 90.1158 141.181 90.4656 141.637V141.657Z" fill="#092857"/>
<path d="M394.543 404.64L385.799 404.757L362.209 405.048L327.095 405.524L284.55 406.097L237.632 406.728L190.626 407.379L146.468 407.971L109.402 408.466L82.5665 408.825C78.3498 408.884 74.1428 408.922 69.9358 408.99H69.382C69.0707 409.034 68.7721 409.144 68.5059 409.311C68.2397 409.478 68.0118 409.7 67.8372 409.961C67.7303 410.088 67.0308 411.185 67.604 411.175L76.3483 411.058L99.9384 410.738L135.052 410.272L177.597 409.699L224.515 409.068L271.55 408.437L315.708 407.845L352.775 407.34L379.61 406.98C383.826 406.935 388.037 406.88 392.24 406.815H392.794C393.106 406.769 393.405 406.659 393.673 406.492C393.94 406.325 394.17 406.104 394.349 405.844C394.446 405.709 395.145 404.621 394.572 404.631L394.543 404.64Z" fill="#092857"/>
<path d="M94.8953 139.142C96.4033 141.152 97.7268 143.293 98.8497 145.541C99.112 146.065 101.337 144.336 100.909 143.482C99.7866 141.235 98.4631 139.093 96.9551 137.083C96.8288 136.928 96.4887 137.083 96.3624 137.083C96.0461 137.235 95.7598 137.442 95.5171 137.695C95.2548 137.967 94.5455 138.666 94.8953 139.122V139.142Z" fill="#092857"/>
<path d="M430.103 133.18C430.103 147.308 422.282 154.862 408.417 154.862C422.136 154.862 430.103 162.124 430.103 176.533C430.103 162.406 437.244 154.862 451.799 154.862C437.244 154.823 430.103 146.987 430.103 133.18Z" fill="white"/>
<path d="M429.005 134.025C429.005 139.249 427.917 145.055 424.06 148.881C420.203 152.706 414.47 153.736 409.301 153.736C408.991 153.781 408.693 153.891 408.427 154.059C408.161 154.226 407.932 154.446 407.756 154.707C407.65 154.842 406.95 155.92 407.533 155.92C413.217 155.92 419.192 157.182 423.38 161.28C427.567 165.377 428.976 171.572 429.005 177.378C429.005 177.971 430.084 177.262 430.22 177.155C430.479 176.978 430.699 176.75 430.866 176.484C431.034 176.219 431.144 175.921 431.191 175.611C431.191 170.475 432.104 164.581 435.874 160.765C439.644 156.949 445.668 155.91 450.895 155.91C451.206 155.864 451.503 155.754 451.769 155.587C452.035 155.42 452.263 155.199 452.44 154.94C452.547 154.804 453.237 153.736 452.663 153.726C446.834 153.726 440.713 152.464 436.506 148.153C432.299 143.842 431.211 137.948 431.191 132.268C431.191 131.685 430.113 132.384 429.977 132.491C429.716 132.666 429.495 132.894 429.328 133.16C429.16 133.426 429.05 133.724 429.005 134.035C429.005 139.812 430.297 145.939 434.465 150.211C438.634 154.483 445.007 155.901 450.914 155.93L452.683 153.726C447.621 153.726 442.413 154.6 438.109 157.464C434.243 160.097 431.421 163.999 430.132 168.494C429.325 171.388 428.939 174.384 428.986 177.388L431.191 175.621C431.191 169.717 429.782 163.494 425.42 159.231C421.058 154.969 415.063 153.755 409.282 153.726L407.514 155.93C412.498 155.93 417.589 154.959 421.806 152.163C425.686 149.544 428.555 145.68 429.938 141.21C430.806 138.31 431.228 135.295 431.191 132.268C431.191 131.685 430.113 132.384 429.977 132.491C429.717 132.665 429.497 132.892 429.329 133.156C429.162 133.42 429.052 133.716 429.005 134.025Z" fill="#092857"/>
<path d="M58.5392 73.5732C58.5392 82.438 53.6327 87.1666 44.937 87.1666C53.5453 87.1666 58.5392 91.7203 58.5392 100.76C58.5392 91.8951 63.028 87.1666 72.1415 87.1666C63.028 87.1763 58.5392 82.2632 58.5392 73.5732Z" fill="white"/>
<path d="M57.4408 74.4569C57.4408 77.496 56.8676 81.0594 54.5941 83.2926C52.3205 85.5258 48.8423 86.0501 45.8498 86.0792C45.5372 86.1238 45.2375 86.2332 44.9697 86.4004C44.702 86.5676 44.4723 86.789 44.2952 87.0502C44.1884 87.1861 43.4985 88.2639 44.0718 88.2639C47.6278 88.2639 51.3392 89.0406 53.9625 91.604C56.5858 94.1673 57.4505 98.022 57.4699 101.653C57.4699 102.236 58.5484 101.537 58.6844 101.43C58.945 101.252 59.1659 101.022 59.3331 100.755C59.5003 100.488 59.6103 100.189 59.656 99.8765C59.656 96.8763 60.1321 93.2934 62.3376 91.0408C64.5431 88.7882 68.2351 88.2833 71.2762 88.2639C71.5881 88.2216 71.8874 88.113 72.1538 87.9456C72.4203 87.7781 72.6478 87.5556 72.821 87.2929C72.9376 87.157 73.6275 86.0889 73.0542 86.0889C69.4205 86.0889 65.6021 85.3025 62.9691 82.6129C60.3361 79.9234 59.6755 76.2434 59.656 72.6994C59.656 72.1072 58.5776 72.816 58.4415 72.9228C58.18 73.0973 57.9583 73.325 57.7909 73.591C57.6234 73.8571 57.5141 74.1554 57.4699 74.4666C57.4699 78.1174 58.2861 81.9721 60.9191 84.6713C63.5521 87.3706 67.5745 88.2542 71.2956 88.2833L73.0736 86.0889C68.8181 86.0889 64.6208 87.1473 61.5506 90.264C58.4804 93.3808 57.4991 97.4588 57.4699 101.673L59.6755 99.8959C59.6755 96.1772 58.7816 92.2545 56.0223 89.565C53.263 86.8754 49.4932 86.1084 45.8498 86.0889L44.0718 88.2833C48.2787 88.2833 52.3788 87.1376 55.4296 84.1082C58.4804 81.0788 59.6463 76.9425 59.6755 72.6994C59.6755 72.1072 58.597 72.816 58.461 72.9228C58.1936 73.0936 57.9648 73.3182 57.7891 73.5824C57.6135 73.8465 57.4948 74.1444 57.4408 74.4569Z" fill="#092857"/>
<path d="M422.603 77.3891C425.683 77.4862 428.763 77.4862 431.843 77.3891C432.153 77.3427 432.451 77.2325 432.717 77.0654C432.983 76.8982 433.211 76.6779 433.387 76.4182C433.494 76.2919 434.184 75.1851 433.611 75.2045C430.531 75.3113 427.461 75.321 424.371 75.2045C424.06 75.248 423.761 75.357 423.494 75.5244C423.228 75.6918 423 75.9136 422.826 76.1754C422.71 76.3211 422.03 77.3697 422.603 77.3891Z" fill="#092857"/>
<path d="M415.714 75.1851C412.508 75.1851 409.302 75.1851 406.095 75.1171C405.782 75.1599 405.482 75.2686 405.214 75.436C404.946 75.6033 404.717 75.8256 404.541 76.0881C404.434 76.2337 403.744 77.3018 404.317 77.3018C407.524 77.3018 410.73 77.3892 413.936 77.3795C414.248 77.3343 414.548 77.2247 414.816 77.0575C415.083 76.8903 415.313 76.6693 415.491 76.4085C415.598 76.2726 416.287 75.1948 415.714 75.1948V75.1851Z" fill="#092857"/>
<path d="M420.28 72.2042C420.436 69.1166 420.475 66.0386 420.368 62.951C420.368 62.3684 419.299 63.0481 419.153 63.1743C418.716 63.5336 418.182 64.0967 418.182 64.7181C418.279 67.6698 418.253 70.6215 418.104 73.5733C418.104 74.185 418.668 73.9714 419.017 73.7577C419.367 73.5441 420.261 72.7868 420.29 72.2042H420.28Z" fill="#092857"/>
<path d="M418.444 80.7486C418.242 82.222 418.151 83.7085 418.172 85.1956C418.229 86.6613 418.388 88.1213 418.648 89.5649C418.735 90.128 419.62 89.4969 419.862 89.3416C420.241 89.0211 420.941 88.3706 420.834 87.788C420.581 86.3893 420.425 84.9748 420.368 83.5547C420.347 82.1589 420.428 80.7635 420.611 79.3795C420.688 78.7581 420.008 78.9912 419.697 79.1951C419.212 79.5155 418.502 80.166 418.434 80.7486H418.444Z" fill="#092857"/>
<path d="M47.0647 168.911C50.1446 169.018 53.2246 169.008 56.3045 168.911C56.6155 168.866 56.9136 168.756 57.1796 168.589C57.4457 168.422 57.6738 168.201 57.8493 167.94C57.9562 167.814 58.6557 166.707 58.0825 166.727C54.9928 166.833 51.9226 166.833 48.8427 166.727C48.5298 166.77 48.2296 166.879 47.9617 167.046C47.6938 167.214 47.4643 167.436 47.2882 167.698C47.1716 167.834 46.4915 168.892 47.0647 168.902V168.911Z" fill="#092857"/>
<path d="M40.1758 166.717C36.9695 166.717 33.7633 166.717 30.5571 166.649C30.2455 166.693 29.9467 166.802 29.6804 166.969C29.4142 167.136 29.1864 167.358 29.0122 167.62C28.8956 167.766 28.2058 168.824 28.7791 168.834C31.9853 168.834 35.1915 168.912 38.3978 168.902C38.7103 168.857 39.0101 168.748 39.2778 168.581C39.5455 168.413 39.7753 168.192 39.9523 167.931C40.0592 167.795 40.749 166.717 40.1758 166.717Z" fill="#092857"/>
<path d="M44.7428 163.736C44.8982 160.649 44.9371 157.561 44.8302 154.473C44.8302 153.9 43.7615 154.58 43.6157 154.697C43.1882 155.066 42.6441 155.668 42.6441 156.25C42.7413 159.163 42.7219 162.154 42.5664 165.105C42.5664 165.717 43.1396 165.503 43.538 165.28C43.9363 165.057 44.7719 164.309 44.8011 163.736H44.7428Z" fill="#092857"/>
<path d="M42.9454 172.232C42.5131 175.158 42.5821 178.136 43.1494 181.039C43.2466 181.612 44.1793 180.971 44.3639 180.815C44.7428 180.495 45.4424 179.844 45.3355 179.272C45.088 177.872 44.9322 176.458 44.8691 175.038C44.8464 173.642 44.9309 172.246 45.1218 170.863C45.1995 170.242 44.5194 170.475 44.1502 170.679C43.5455 171.016 43.0933 171.572 42.8871 172.232H42.9454Z" fill="#092857"/>
</svg>
