<svg width="40" height="41" viewBox="0 0 40 41" fill="none" xmlns="http://www.w3.org/2000/svg">
<rect y="0.335449" width="40" height="40" rx="20" fill="#F7F7FC"/>
<path d="M23.5026 12.6875C21.2772 12.6875 19.4542 14.4575 19.4542 16.6657C19.4542 16.7175 19.4553 16.7694 19.4575 16.8211C17.0071 16.5066 14.8324 15.2747 13.3422 13.5057C13.2258 13.3674 13.05 13.2936 12.8697 13.3072C12.6895 13.3208 12.5267 13.4202 12.4323 13.5743C11.6956 14.7775 11.7325 16.2567 12.3653 17.439C12.0801 17.4638 11.8515 17.711 11.8515 17.9994C11.8515 19.1912 12.3884 20.2905 13.258 21.037C13.1031 21.182 13.0413 21.412 13.106 21.617C13.4619 22.7437 14.314 23.6351 15.4 24.0786C14.2945 24.6037 13.0513 24.8138 11.8184 24.6628C11.5577 24.6308 11.3096 24.7836 11.2207 25.0307C11.1319 25.2779 11.2258 25.5536 11.4472 25.6951C13.0659 26.7295 14.9972 27.3125 17.0951 27.3125C23.8653 27.3125 27.5809 21.8336 27.5809 17.056V16.6927L27.5953 16.6793C27.739 16.5448 27.9228 16.3447 28.1041 16.0693C28.4699 15.5135 28.8126 14.6695 28.8126 13.4777C28.8126 13.276 28.7045 13.0897 28.5294 12.9895C28.3543 12.8893 28.1389 12.8906 27.965 12.9928C27.4368 13.3033 26.8362 13.5485 26.2258 13.7063C25.4856 13.0548 24.5377 12.6875 23.5026 12.6875Z" fill="#677488"/>
</svg>
