<svg width="1440" height="1172" viewBox="0 0 1440 1172" fill="none" xmlns="http://www.w3.org/2000/svg">
<g filter="url(#filter0_d_723_4148)">
<path d="M604.32 625H0V829C190.656 850.184 382.014 862.928 573.514 867.232C612.624 868.11 647.567 897.361 684.069 911.434C695.002 915.649 707.173 918 720 918C732.827 918 744.998 915.649 755.931 911.434C792.433 897.361 827.376 868.11 866.486 867.232C1057.99 862.928 1249.34 850.184 1440 829V246H979.18C901.11 246 832.37 297.43 810.335 372.326L773.165 498.673C751.131 573.57 682.39 625 604.32 625Z" fill="white"/>
<path d="M1 828.105V626H604.32C682.834 626 751.965 574.278 774.124 498.956L811.295 372.609C833.204 298.138 901.553 247 979.18 247H1439V828.105C1248.67 849.227 1057.64 861.936 866.464 866.232C846.675 866.676 827.995 874.297 809.78 883.492C804.037 886.391 798.349 889.442 792.685 892.479C780.312 899.114 768.051 905.69 755.572 910.501C744.754 914.671 732.705 917 720 917C707.295 917 695.246 914.671 684.428 910.501C671.949 905.69 659.688 899.114 647.315 892.479C641.651 889.442 635.963 886.392 630.22 883.492C612.005 874.297 593.325 866.676 573.536 866.232C382.363 861.935 191.333 849.227 1 828.105Z" stroke="url(#paint0_radial_723_4148)" stroke-opacity="0.2" stroke-width="2"/>
<path d="M1 828.105V626H604.32C682.834 626 751.965 574.278 774.124 498.956L811.295 372.609C833.204 298.138 901.553 247 979.18 247H1439V828.105C1248.67 849.227 1057.64 861.936 866.464 866.232C846.675 866.676 827.995 874.297 809.78 883.492C804.037 886.391 798.349 889.442 792.685 892.479C780.312 899.114 768.051 905.69 755.572 910.501C744.754 914.671 732.705 917 720 917C707.295 917 695.246 914.671 684.428 910.501C671.949 905.69 659.688 899.114 647.315 892.479C641.651 889.442 635.963 886.392 630.22 883.492C612.005 874.297 593.325 866.676 573.536 866.232C382.363 861.935 191.333 849.227 1 828.105Z" stroke="url(#paint1_radial_723_4148)" stroke-opacity="0.16" stroke-width="2"/>
</g>
<defs>
<filter id="filter0_d_723_4148" x="-250" y="0" width="1940" height="1172" filterUnits="userSpaceOnUse" color-interpolation-filters="sRGB">
<feFlood flood-opacity="0" result="BackgroundImageFix"/>
<feColorMatrix in="SourceAlpha" type="matrix" values="0 0 0 0 0 0 0 0 0 0 0 0 0 0 0 0 0 0 127 0" result="hardAlpha"/>
<feOffset dy="4"/>
<feGaussianBlur stdDeviation="125"/>
<feComposite in2="hardAlpha" operator="out"/>
<feColorMatrix type="matrix" values="0 0 0 0 0.0352941 0 0 0 0 0.156863 0 0 0 0 0.341176 0 0 0 0.05 0"/>
<feBlend mode="normal" in2="BackgroundImageFix" result="effect1_dropShadow_723_4148"/>
<feBlend mode="normal" in="SourceGraphic" in2="effect1_dropShadow_723_4148" result="shape"/>
</filter>
<radialGradient id="paint0_radial_723_4148" cx="0" cy="0" r="1" gradientUnits="userSpaceOnUse" gradientTransform="translate(795 602) rotate(101.929) scale(362.836 734.858)">
<stop stop-color="#0A7AF9"/>
<stop offset="1" stop-color="#0A7AF9" stop-opacity="0"/>
</radialGradient>
<radialGradient id="paint1_radial_723_4148" cx="0" cy="0" r="1" gradientUnits="userSpaceOnUse" gradientTransform="translate(681 957) rotate(-91.0322) scale(222.036 449.693)">
<stop stop-color="#0A7AF9"/>
<stop offset="1" stop-color="#0A7AF9" stop-opacity="0"/>
</radialGradient>
</defs>
</svg>
