<svg width="18" height="19" viewBox="0 0 18 19" fill="none" xmlns="http://www.w3.org/2000/svg">
<g id="verified">
<path id="Vector" fill-rule="evenodd" clip-rule="evenodd" d="M9.66624 0.795676C10.018 0.920018 10.3382 1.19449 10.9786 1.74343L11.0681 1.82012L11.0681 1.82013C11.2682 1.99165 11.3682 2.07742 11.4754 2.14771C11.7288 2.31398 12.0167 2.42047 12.3173 2.45915C12.4444 2.4755 12.5762 2.4755 12.8398 2.4755C13.5117 2.4755 13.8477 2.4755 14.1219 2.55543C14.7779 2.74669 15.2909 3.25969 15.4822 3.91575C15.5621 4.18992 15.5621 4.52589 15.5621 5.19785V5.19786C15.5621 5.46143 15.5621 5.59322 15.5785 5.72032C15.6171 6.02092 15.7236 6.30881 15.8899 6.56222C15.9602 6.66936 16.046 6.76942 16.2175 6.96954L16.2942 7.05901C16.8431 7.69944 17.1176 8.01966 17.2419 8.37137C17.3944 8.80271 17.3944 9.2733 17.2419 9.70464C17.1176 10.0564 16.8431 10.3766 16.2942 11.017L16.2175 11.1065C16.046 11.3066 15.9602 11.4066 15.8899 11.5138C15.7236 11.7672 15.6171 12.0551 15.5785 12.3557C15.5621 12.4828 15.5621 12.6146 15.5621 12.8781C15.5621 13.5501 15.5621 13.8861 15.4822 14.1603C15.2909 14.8163 14.7779 15.3293 14.1219 15.5206C13.8477 15.6005 13.5117 15.6005 12.8398 15.6005C12.5762 15.6005 12.4444 15.6005 12.3173 15.6169C12.0167 15.6555 11.7288 15.762 11.4754 15.9283C11.3683 15.9986 11.2682 16.0844 11.0681 16.2559L11.0681 16.2559L10.9786 16.3326C10.3382 16.8815 10.018 17.156 9.66624 17.2803C9.2349 17.4328 8.76431 17.4328 8.33297 17.2803C7.98126 17.156 7.66104 16.8815 7.02061 16.3326L6.93641 16.2604C6.73109 16.0844 6.62843 15.9964 6.51827 15.9247C6.26806 15.7617 5.98453 15.6568 5.6885 15.6177C5.55815 15.6005 5.42195 15.6005 5.14955 15.6005C4.46502 15.6005 4.12276 15.6005 3.84586 15.5189C3.19452 15.3268 2.68511 14.8174 2.49308 14.1661C2.41144 13.8892 2.41144 13.5496 2.41144 12.8704C2.41144 12.6063 2.41144 12.4742 2.395 12.3468C2.35677 12.0504 2.25262 11.7664 2.0902 11.5156C2.02036 11.4078 1.93498 11.307 1.76422 11.1055L1.68679 11.0141C1.13895 10.3676 0.865023 10.0443 0.742715 9.68904C0.59748 9.26717 0.59748 8.80885 0.742715 8.38698C0.865023 8.0317 1.13895 7.70844 1.68679 7.06192L1.68679 7.06191L1.76422 6.97054C1.93498 6.76902 2.02036 6.66826 2.0902 6.56041C2.25262 6.3096 2.35677 6.02558 2.395 5.72922C2.41144 5.6018 2.41144 5.46973 2.41144 5.20559C2.41144 4.52641 2.41144 4.18682 2.49308 3.90993C2.68511 3.25858 3.19452 2.74917 3.84586 2.55714C4.12276 2.47551 4.46502 2.47551 5.14955 2.47551C5.42195 2.47551 5.55815 2.47551 5.6885 2.45829C5.98453 2.4192 6.26806 2.31432 6.51826 2.15134C6.62843 2.07958 6.73109 1.99159 6.9364 1.81561L7.02061 1.74343C7.66104 1.19449 7.98126 0.920019 8.33297 0.795676C8.76431 0.643181 9.2349 0.643181 9.66624 0.795676ZM12.5305 7.31793C12.8234 7.02504 12.8234 6.55017 12.5305 6.25728C12.2376 5.96438 11.7627 5.96438 11.4698 6.25728L8.25015 9.47695L7.28048 8.50728C6.98759 8.21438 6.51272 8.21438 6.21982 8.50728C5.92693 8.80017 5.92693 9.27504 6.21982 9.56794L7.71982 11.0679C7.86048 11.2086 8.05124 11.2876 8.25015 11.2876C8.44907 11.2876 8.63983 11.2086 8.78048 11.0679L12.5305 7.31793Z" fill="#28E4B7"/>
</g>
</svg>
