<svg width="40" height="41" viewBox="0 0 40 41" fill="none" xmlns="http://www.w3.org/2000/svg">
<rect y="0.335449" width="40" height="40" rx="20" fill="#F7F7FC"/>
<path fill-rule="evenodd" clip-rule="evenodd" d="M15.8911 12.9056C16.959 12.7337 18.3109 12.6875 20 12.6875C21.6891 12.6875 23.041 12.7337 24.1089 12.9056C25.1776 13.0776 26.0283 13.3848 26.6596 13.9588C27.298 14.5392 27.6411 15.3268 27.8297 16.3078C28.0166 17.2796 28.0625 18.4991 28.0625 20C28.0625 21.5009 28.0166 22.7204 27.8297 23.6922C27.6411 24.6732 27.298 25.4609 26.6596 26.0412C26.0283 26.6152 25.1776 26.9225 24.1089 27.0944C23.041 27.2663 21.6891 27.3125 20 27.3125C18.3109 27.3125 16.959 27.2663 15.8911 27.0944C14.8224 26.9225 13.9717 26.6152 13.3404 26.0412C12.702 25.4609 12.3589 24.6732 12.1703 23.6922C11.9834 22.7204 11.9375 21.5009 11.9375 20C11.9375 18.4991 11.9834 17.2796 12.1703 16.3078C12.3589 15.3268 12.702 14.5392 13.3404 13.9588C13.9717 13.3848 14.8224 13.0776 15.8911 12.9056ZM18.2229 17.2605C18.3992 17.1607 18.6156 17.1634 18.7894 17.2677L22.5394 19.5177C22.7088 19.6193 22.8125 19.8024 22.8125 20C22.8125 20.1976 22.7088 20.3807 22.5394 20.4823L18.7894 22.7323C18.6156 22.8366 18.3992 22.8393 18.2229 22.7395C18.0465 22.6396 17.9375 22.4527 17.9375 22.25V17.75C17.9375 17.5473 18.0465 17.3604 18.2229 17.2605Z" fill="#677488"/>
</svg>
